<svg width="100" height="100" viewBox="0 0 100 100" fill="none" xmlns="http://www.w3.org/2000/svg">
<circle cx="50" cy="50" r="50" fill="white"/>
<circle cx="50" cy="50" r="40" fill="#563D7C"/>
<path d="M22 69.9082C22 73.8253 25.1752 77 29.0918 77H69.908C73.8253 77 77 73.8248 77 69.9082V29.092C77 25.1747 73.8248 22 69.9082 22H29.092C25.1747 22 22 25.1752 22 29.0918V69.908V69.9082Z" fill="#563D7C"/>
<path d="M44.8074 46.3285V38.5397H51.6633C52.3164 38.5397 52.9459 38.5941 53.5522 38.703C54.1585 38.8117 54.6949 39.006 55.1614 39.2859C55.6276 39.5658 56.0007 39.9545 56.2807 40.4519C56.5604 40.9494 56.7005 41.5869 56.7005 42.364C56.7005 43.7632 56.2807 44.7739 55.4411 45.3956C54.6017 46.0176 53.529 46.3285 52.2229 46.3285H44.8074V46.3285ZM37.4849 32.8496V66.1504H53.6222C55.1147 66.1504 56.5684 65.9639 57.9831 65.5907C59.3979 65.2175 60.6571 64.6424 61.7609 63.8651C62.8646 63.0878 63.7431 62.0849 64.396 60.8569C65.0491 59.6286 65.3755 58.175 65.3755 56.496C65.3755 54.4126 64.8701 52.6326 63.8597 51.1558C62.8491 49.6788 61.3177 48.6449 59.2655 48.0541C60.758 47.3391 61.8853 46.4217 62.6472 45.3024C63.4088 44.183 63.7897 42.784 63.7897 41.1048C63.7897 39.5502 63.5332 38.2443 63.0201 37.1871C62.5071 36.1301 61.7841 35.2827 60.8513 34.6453C59.9186 34.0078 58.7993 33.5491 57.4933 33.2694C56.1874 32.9895 54.7415 32.8496 53.1558 32.8496H37.4849V32.8496ZM44.8074 60.4603V51.3189H52.7826C54.3684 51.3189 55.6432 51.6841 56.6072 52.415C57.571 53.1457 58.0532 54.366 58.0532 56.0762C58.0532 56.9469 57.9053 57.6619 57.6099 58.2216C57.3145 58.7813 56.9181 59.2245 56.4206 59.5508C55.9232 59.8774 55.3478 60.1105 54.6949 60.2506C54.0418 60.3902 53.358 60.4603 52.6427 60.4603H44.8074V60.4603Z" fill="white"/>
</svg>
