<svg width="100" height="100" viewBox="0 0 100 100" fill="none" xmlns="http://www.w3.org/2000/svg">
<circle cx="50" cy="50" r="50" fill="white"/>
<circle cx="50" cy="51" r="40" fill="#1572B6"/>
<g clip-path="url(#clip0)">
<path d="M29.5511 73.5595L25 22.2339H75L70.4432 73.5509L49.9689 79.2579L29.5511 73.5595Z" fill="#1572B6"/>
<path d="M50 74.8971L66.5443 70.2832L70.4348 26.4307H50V74.8971Z" fill="#33A9DC"/>
<path d="M50 45.0251H58.2835L58.8538 38.5799H50V32.2881H65.6973L65.5477 33.9775L64.009 51.3254H50V45.0251Z" fill="white"/>
<path d="M50.0339 61.3736H50.0056L43.035 59.4798L42.5889 54.46H36.31L37.188 64.3435L50.0113 67.9323H50.048V61.3736H50.0339Z" fill="#EBEBEB"/>
<path d="M57.7526 51.05L56.9988 59.4741L50.0169 61.3679V67.9266L62.8486 64.3491L62.9418 63.2844L64.0316 51.0471H57.7526V51.05Z" fill="white"/>
<path d="M50.0226 32.2881V38.5827H34.9068L34.7769 37.1688L34.4918 33.9775L34.3422 32.2881H50.0226ZM50 45.0251V51.3197H43.1084L42.987 49.9058L42.7018 46.7144L42.5522 45.0251H49.9972H50Z" fill="#EBEBEB"/>
</g>
<defs>
<clipPath id="clip0">
<rect width="50" height="57.2581" fill="white" transform="translate(25 22)"/>
</clipPath>
</defs>
</svg>
