<svg width="500" height="288" viewBox="0 0 500 288" fill="none" xmlns="http://www.w3.org/2000/svg">
<g clip-path="url(#clip0)">
<path opacity="0.1" d="M289 24C263.779 23.1224 234.941 41.416 212 32.5C189.059 23.584 165.209 19.8699 140.592 15.1662C124.758 12.1279 106.653 11.6988 93.8947 20.1936C81.6193 28.3842 77.6522 42.4837 75.5167 55.5769C73.915 65.4329 72.9681 75.7998 77.3677 85.0239C80.419 91.4281 85.8397 96.8105 89.5886 102.946C102.628 124.288 93.4115 150.607 79.2772 171.446C72.6524 181.22 64.9599 190.557 59.8432 200.956C54.7265 211.354 52.361 223.285 56.8347 233.901C61.2733 244.432 71.8458 252.326 83.295 257.884C106.556 269.171 133.955 272.405 160.696 274.234C219.86 278.286 279.343 276.531 338.662 274.776C360.617 274.125 382.666 273.465 404.263 270.068C416.258 268.181 428.642 265.185 437.348 257.977C448.4 248.8 451.139 233.258 443.735 221.752C431.312 202.449 396.972 197.652 388.278 176.938C383.496 165.537 388.406 152.834 395.351 142.26C410.253 119.572 435.228 99.6733 436.545 73.7404C437.449 55.9318 425.443 38.0959 406.878 29.6674C387.417 20.8333 360.434 21.9448 346.086 36.567C331.293 51.5869 311.267 24.7723 289 24Z" fill="#323232"/>
<g opacity="0.1">
<path opacity="0.1" d="M53.947 112.376C53.947 112.376 19.371 97.8312 14.8235 124.057C14.8235 124.057 12.4595 128.147 15.7487 131.524C15.7487 131.524 16.4565 129.71 19.7966 131.584C20.9896 132.244 22.2568 132.759 23.5716 133.12C25.3472 133.609 27.2338 133.509 28.9472 132.833C28.9472 132.833 40.323 132.218 49.8899 117.335C49.8899 117.335 53.9933 114.8 54.1968 113.847L47.3409 114.31C47.3409 114.31 47.8682 119.329 45.0278 122.341C45.0278 122.341 47.5444 114.55 46.337 114.333C46.0918 114.287 42.7147 114.731 42.7147 114.731C42.7147 114.731 43.589 123.46 39.0138 127.975C39.0138 127.975 43.2606 119.098 41.4147 114.888L36.3537 115.864C36.3537 115.864 37.7416 125.047 32.736 130.386C32.736 130.386 36.8533 120.948 35.2619 116.156L30.4183 117.784C30.4183 117.784 31.5841 126.763 27.3974 131.2C27.3974 131.2 31.0521 119.815 29.3312 118.247C29.3312 118.247 24.9733 120.014 24.0435 121.022C24.0435 121.022 24.7327 127.499 22.0727 129.835C22.0727 129.835 23.7057 121.971 22.8962 121.647C22.8962 121.647 17.8351 125.459 16.29 128.748C16.29 128.748 18.2145 123.724 22.2624 120.883C22.2624 120.883 18.8621 120.31 16.2483 121.73C16.2483 121.73 17.997 118.395 23.4883 119.977C23.4883 119.977 27.5547 117.159 28.3689 117.201C28.3689 117.201 23.1737 114.888 19.4219 115.175C19.4219 115.175 23.4467 112.862 29.6365 116.725L34.4708 114.98C34.4708 114.98 27.7629 111.543 24.4043 111.557C24.4043 111.557 28.8732 109.827 35.7245 114.638L40.6745 113.63C40.6745 113.63 35.1231 110.229 31.3806 109.438C31.3806 109.438 35.868 108.726 42.104 113.394L45.4858 113.111C45.4858 113.111 41.3916 110.697 40.1518 110.109C38.912 109.522 38.9675 109.142 38.9675 109.142C41.9168 109.655 44.6654 110.978 46.906 112.963C46.906 112.963 53.9193 112.806 53.947 112.376Z" fill="#323232"/>
</g>
<g opacity="0.1">
<path opacity="0.1" d="M52.6795 86.3026C52.6795 86.3026 40.4155 57.958 22.7805 70.9576C22.7805 70.9576 19.0518 72.0401 19.0796 75.9076C19.0796 75.9076 20.5322 75.2322 21.4528 78.2531C21.7904 79.3246 22.2564 80.3514 22.8406 81.311C23.6129 82.6152 24.7909 83.6307 26.1946 84.2023C26.1946 84.2023 33.305 90.3181 47.475 86.9271C47.475 86.9271 51.361 87.7552 52.0225 87.3111L47.6924 83.6703C47.6924 83.6703 45.1434 86.9549 41.7293 87.1122C41.7293 87.1122 47.6647 83.9201 47.0725 83.1013C46.9523 82.9347 44.6901 81.2786 44.6901 81.2786C44.6901 81.2786 40.2397 86.9595 34.9751 87.0474C34.9751 87.0474 42.5574 84.1884 43.8573 80.6402L40.2952 78.3271C40.2952 78.3271 35.8818 84.5678 29.8724 84.8916C29.8724 84.8916 37.6953 81.6302 39.481 77.8737L35.6736 76.0834C35.6736 76.0834 31.251 82.0974 26.2501 82.3241C26.2501 82.3241 34.9103 77.6424 34.7762 75.7318C34.7762 75.7318 31.1816 74.2977 30.039 74.3809C30.039 74.3809 26.7683 78.6139 23.8491 78.4936C23.8491 78.4936 29.3034 74.751 29.0073 74.0987C29.0073 74.0987 23.826 73.4788 21.0364 74.5614C21.0364 74.5614 25.0427 72.6739 29.0628 73.2938C29.0628 73.2938 27.3697 71.0131 25.0149 70.3793C25.0149 70.3793 27.9572 69.3939 30.3165 73.4557C30.3165 73.4557 34.3321 74.1034 34.8039 74.5845C34.8039 74.5845 33.0414 70.2405 30.6404 68.2836C30.6404 68.2836 34.3413 69.2089 35.8217 75.024L39.6892 76.7403C39.6892 76.7403 37.6629 70.8743 35.6551 68.973C35.6551 68.973 39.2959 70.4903 40.6283 77.2538L44.1442 79.4697C44.1442 79.4697 42.7841 74.2884 41.0122 71.6839C41.0122 71.6839 44.084 73.8212 45.1249 80.1452L47.2992 81.9031C47.2992 81.9031 46.2398 78.1374 45.8373 77.0826C45.4349 76.0279 45.6847 75.8336 45.6847 75.8336C47.146 77.8172 48.0255 80.169 48.2244 82.6248C48.2244 82.6248 52.4065 86.5385 52.6795 86.3026Z" fill="#323232"/>
</g>
<path d="M495.747 269.106C495.284 267.431 494.822 265.733 493.896 264.276C493.038 263.039 492.017 261.924 490.862 260.959C487.508 257.911 483.386 254.816 478.94 255.588C477.561 255.889 476.229 256.375 474.98 257.032C474.332 257.332 473.68 257.633 473.014 257.887C471.137 258.671 469.063 258.852 467.078 258.406C466.061 258.133 465.112 257.642 464.109 257.337C463.63 257.194 463.141 257.089 462.647 257.022C463.616 256.583 464.558 256.088 465.469 255.537C470.46 252.452 474.443 246.9 473.884 241.025C473.699 239.036 473.014 237.134 472.338 235.261C471.746 233.623 471.153 231.984 470.557 230.343C469.789 228.21 468.998 226.041 467.592 224.269C466.028 222.298 463.808 220.961 461.513 219.962C456.582 217.82 451.192 217.066 445.872 216.335L445.502 216.284V158.809C445.505 158.321 445.412 157.837 445.227 157.385C445.042 156.934 444.77 156.523 444.426 156.177C444.082 155.831 443.673 155.556 443.223 155.368C442.772 155.181 442.289 155.085 441.801 155.085H434.802C434.493 153.197 434.185 151.311 433.876 149.427C432.993 144.056 432.081 138.578 429.606 133.739C427.987 130.57 425.406 127.554 421.932 126.93C421.248 126.866 420.576 126.71 419.933 126.467C418.915 125.967 418.36 124.857 417.574 124.034C415.557 121.92 412.277 121.887 409.571 120.795C407.183 119.847 405.231 118.057 403.057 116.683C400.883 115.309 398.176 114.328 395.766 115.225C395.766 115.401 395.734 115.572 395.715 115.748L394.17 115.054C392.505 114.286 390.802 113.491 389.465 112.223C387.744 110.599 386.828 108.457 386.116 106.172C386.042 105.931 385.972 105.709 385.903 105.455C388.859 102.434 390.861 98.6095 391.658 94.4585C391.783 94.861 391.912 95.2681 392.037 95.6752C392.151 96.0891 392.306 96.4905 392.5 96.8734C392.564 97 392.637 97.122 392.717 97.2389C392.87 97.466 393.061 97.6648 393.282 97.8264C393.501 97.9859 393.757 98.0863 394.027 98.1179C394.156 98.1361 394.286 98.1361 394.415 98.1179C394.765 98.044 395.09 97.8838 395.361 97.6519C395.633 97.4199 395.842 97.1237 395.97 96.7901C396.043 96.6082 396.098 96.4191 396.132 96.2257C396.149 96.1093 396.16 95.9919 396.164 95.8742C396.164 95.8371 396.164 95.8001 396.164 95.7631C396.164 95.7261 396.164 95.6012 396.164 95.5226C396.164 95.4439 396.164 95.4347 396.164 95.393C396.164 95.3514 396.164 95.2357 396.164 95.1617V95.0414C396.164 94.9489 396.136 94.8564 396.118 94.7685C396.099 94.6806 396.118 94.7176 396.118 94.6945C396.094 94.5742 396.067 94.4585 396.044 94.3383C396.041 94.3121 396.041 94.2858 396.044 94.2596L395.974 93.9682L395.933 93.7924V93.7461C395.886 93.5657 395.845 93.3806 395.803 93.1956C395.467 91.5885 395.381 89.9391 395.549 88.3057C395.827 85.9098 396.269 83.5356 396.872 81.1999L396.969 80.7789L397.08 80.2886C397.154 79.9555 397.223 79.6224 397.293 79.2893C397.353 79.0071 397.408 78.7203 397.459 78.4335C397.51 78.1467 397.547 77.9292 397.584 77.6748C397.584 77.6424 397.584 77.6146 397.584 77.5823C397.867 75.858 397.943 74.1062 397.811 72.3639C397.593 69.9444 396.844 67.6545 395.197 65.8272C394.036 64.5364 392.509 63.5835 391.431 62.228C390.418 60.9558 389.849 59.3921 388.804 58.1477C385.912 54.6966 378.497 52.0365 373.944 51.5739C368.731 51.0465 360.306 52.3789 356.106 55.4599C354.551 56.5979 353.487 58.2356 352.405 59.7946C350.416 62.6906 348.153 65.5773 344.966 67.1965C343.759 67.8071 342.38 68.2698 341.58 69.3338C341.096 70.0551 340.78 70.8755 340.654 71.7348C340.039 74.7498 339.72 77.8176 339.701 80.8946C339.632 82.2405 339.805 83.5879 340.21 84.8731C340.275 85.0489 340.354 85.2293 340.437 85.4005C340.511 85.5532 340.594 85.7058 340.682 85.8631L340.738 85.9603C341.296 86.7617 341.792 87.6046 342.223 88.4815C342.325 88.7286 342.399 88.9861 342.445 89.2495C342.524 89.9287 342.48 90.6167 342.315 91.2804C342.315 91.3821 342.278 91.4793 342.255 91.5764L342.213 91.7892C342.213 91.854 342.213 91.9234 342.176 91.9882C342.139 92.1886 342.107 92.3876 342.079 92.5849C342.079 92.7237 342.052 92.8671 342.047 93.0106C342.014 93.5835 342.124 94.1557 342.366 94.676C342.427 94.8 342.5 94.9177 342.584 95.0276C342.749 95.2494 342.963 95.4312 343.208 95.5596C343.759 95.7667 344.334 95.9035 344.92 95.9667C346.65 96.3553 347.732 97.6784 348.436 99.3022C348.592 99.6666 348.729 100.039 348.847 100.417C349.136 101.366 349.352 102.336 349.495 103.318C350.282 103.276 350.739 102.582 351.017 101.823C351.104 101.573 351.176 101.318 351.235 101.06C351.341 100.574 351.447 100.089 351.558 99.6028C353.384 103.477 356.326 106.719 360.006 108.911C360.135 109.29 360.26 109.674 360.376 110.063C360.982 112.158 361.273 114.356 360.223 116.188C359.474 117.488 358.211 118.293 356.804 118.848C356.602 118.576 356.341 118.353 356.041 118.195C354.82 117.585 353.358 118.33 352.34 119.241C350.49 120.916 348.982 123.317 346.544 123.867C345.665 124.071 344.693 124.029 343.958 124.566C343.473 125.021 343.068 125.554 342.759 126.143C342.231 126.902 341.52 127.515 340.692 127.928C339.864 128.34 338.946 128.538 338.022 128.503C337.176 128.461 336.172 128.267 335.593 128.887C335.163 129.349 335.131 130.085 334.668 130.524C334.044 131.135 333.03 130.834 332.161 130.797C331.532 130.799 330.911 130.928 330.334 131.178C329.758 131.428 329.238 131.793 328.807 132.25C328.752 130.383 328.037 128.597 326.79 127.207C325.541 125.921 323.806 125.26 322.326 124.251C318.625 121.734 316.774 117.312 314.845 113.259C312.916 109.207 310.371 104.932 306.162 103.456C305.195 103.114 303.849 103.086 303.414 104.025C303.266 104.417 303.242 104.845 303.344 105.251C303.751 107.407 305.287 109.137 306.615 110.872C308.849 113.796 310.723 117.372 310.182 121.027C309.548 125.352 305.694 128.711 305.232 133.055C305.028 134.97 305.514 136.894 305.509 138.819C305.509 140.022 305.32 141.238 305.579 142.409C305.854 143.298 306.18 144.171 306.555 145.023C306.972 146.421 307.187 147.871 307.193 149.33C307.52 155.461 307.846 161.594 308.169 167.728C308.415 172.303 307.415 176.818 306.407 181.32C305.156 183.988 304.186 186.778 303.511 189.647C302.373 194.657 302.34 199.995 303.973 204.871C304.848 207.522 306.189 210.007 306.906 212.704C306.906 212.764 306.934 212.819 306.948 212.875C307.018 213.448 307.096 214.022 307.203 214.591C307.334 215.249 307.506 215.897 307.716 216.534C307.926 217.631 308.268 218.698 308.734 219.712C309.383 221.001 310.335 222.112 311.51 222.951C310.843 224.255 309.765 225.305 309.048 226.582C307.799 228.793 307.748 231.509 308.202 234.016C309.076 238.855 311.69 243.181 315.141 246.697C314.987 246.688 314.833 246.688 314.678 246.697C313.55 246.822 312.466 247.21 311.514 247.83C304.209 252.1 300.032 261.246 301.559 269.619C301.859 271.257 302.382 272.913 303.474 274.158C304.383 275.148 305.551 275.865 306.846 276.226C307.655 276.469 308.488 276.624 309.331 276.688C315.025 277.151 320.54 274.509 326.249 274.287C328.141 274.257 330.034 274.345 331.916 274.551C334.664 274.779 337.418 274.924 340.178 274.986C344.661 275.092 347.187 273.899 350.05 270.545C350.754 269.712 351.341 268.788 351.794 267.797C354.228 267.658 356.915 267.445 358.863 267.283L358.891 267.556C358.997 268.481 359.159 269.545 359.899 270.133C360.317 270.416 360.79 270.608 361.287 270.697C365.964 271.849 370.697 273.01 375.508 273.01C377.767 272.963 380.022 272.789 382.262 272.488L390.728 271.511C393.192 271.829 395.623 272.358 397.996 273.094C400.438 273.926 402.724 275.162 405.111 276.133C410.662 278.386 416.639 279.191 422.556 279.977C423.565 280.112 424.721 280.204 425.471 279.515C426.433 278.59 426.109 277.04 425.841 275.744C425.73 275.217 425.646 274.68 425.577 274.144C429.571 275.194 433.478 276.55 437.263 278.201L437.929 278.492C438.119 279.501 439.053 280.31 439.946 281.398C440.239 281.855 440.582 282.279 440.968 282.661C441.409 282.951 441.911 283.133 442.435 283.193C448.687 284.357 455.071 284.645 461.402 284.048C462.697 283.872 464.007 283.827 465.311 283.914C466.269 284.044 467.213 284.258 468.133 284.553L473.49 286.084C477.436 287.217 481.484 288.36 485.579 288.106C486.41 288.051 487.236 287.932 488.049 287.749C491.287 287 494.308 285.186 495.863 282.272C497.949 278.307 496.936 273.436 495.747 269.106ZM338.614 196.748C338.449 198.754 337.926 200.714 337.069 202.535C336.495 203.696 335.755 204.765 335.219 205.931C334.71 206.986 334.33 208.979 334.104 211.168C333.826 211.121 333.544 211.08 333.266 211.047C333.678 209.604 333.988 208.124 334.4 206.676C335.376 203.234 336.981 199.982 338.614 196.748Z" fill="url(#paint0_linear)"/>
<path d="M345.743 267.898C344.767 265.678 343.842 263.124 344.818 260.904C345.455 259.596 346.55 258.567 347.894 258.012C349.225 257.47 350.628 257.124 352.058 256.985C356.547 256.396 361.09 256.334 365.594 256.8C365.923 259.4 365.229 262.037 364.632 264.549C364.091 266.862 363.781 267.204 361.394 267.325C359.848 267.408 346.109 268.717 345.743 267.898Z" fill="#FBBEBE"/>
<path d="M386.939 252.919C423.475 252.919 453.094 244.634 453.094 234.414C453.094 224.195 423.475 215.91 386.939 215.91C350.403 215.91 320.785 224.195 320.785 234.414C320.785 244.634 350.403 252.919 386.939 252.919Z" fill="#464353"/>
<path opacity="0.1" d="M386.939 252.919C423.475 252.919 453.094 244.634 453.094 234.414C453.094 224.195 423.475 215.91 386.939 215.91C350.403 215.91 320.785 224.195 320.785 234.414C320.785 244.634 350.403 252.919 386.939 252.919Z" fill="black"/>
<path d="M398.801 136.728C396.533 141.11 392.767 144.531 388.188 146.369C385.492 147.352 382.656 147.892 379.787 147.97C376.646 148.113 373.44 147.909 370.489 146.836C366.529 145.402 363.239 142.469 360.774 139.05C358.308 135.632 356.61 131.727 355.134 127.79C354.357 125.741 353.617 123.557 353.982 121.392C356.365 120.851 358.974 120.055 360.205 117.941C361.255 116.128 360.963 113.953 360.357 111.881C360.186 111.293 359.987 110.71 359.788 110.151C359.326 108.809 357.73 106.26 358.84 105.113C359.548 104.386 362.513 104.016 363.535 103.544C366.686 102.092 369.591 99.9916 373.052 99.3023C376.045 98.7055 379.135 99.2653 382.123 99.8852C382.52 99.9428 382.901 100.08 383.243 100.288C383.633 100.617 383.922 101.05 384.076 101.537C384.927 103.609 385.427 105.899 386.111 108.06C386.824 110.322 387.74 112.445 389.456 114.051C390.793 115.304 392.495 116.091 394.161 116.854L398.26 118.732C398.989 119.005 399.65 119.433 400.198 119.986C400.734 120.723 401.054 121.594 401.123 122.503C401.858 127.371 401.045 132.346 398.801 136.728Z" fill="#FBBEBE"/>
<path opacity="0.1" d="M386.093 108.06C382.83 111.454 378.534 113.67 373.877 114.361C369.22 115.053 364.465 114.18 360.357 111.881C360.186 111.293 359.987 110.71 359.788 110.151C359.326 108.809 357.73 106.26 358.84 105.113C359.548 104.386 362.513 104.016 363.535 103.544C366.686 102.092 369.591 99.9916 373.051 99.3023C376.045 98.7055 379.135 99.2653 382.123 99.8852C382.52 99.9428 382.901 100.08 383.243 100.288C383.633 100.617 383.922 101.05 384.076 101.537C384.908 103.609 385.408 105.899 386.093 108.06Z" fill="black"/>
<path d="M370.748 113.671C382.501 113.671 392.028 104.144 392.028 92.3907C392.028 80.6379 382.501 71.1104 370.748 71.1104C358.995 71.1104 349.467 80.6379 349.467 92.3907C349.467 104.144 358.995 113.671 370.748 113.671Z" fill="#FBBEBE"/>
<path d="M435.584 161.455L433.835 150.861C432.951 145.545 432.04 140.128 429.569 135.34C427.946 132.203 425.369 129.215 421.895 128.595C421.21 128.534 420.538 128.378 419.896 128.132C418.878 127.642 418.323 126.541 417.541 125.727C415.524 123.636 412.24 123.603 409.538 122.539C407.151 121.614 405.199 119.833 403.025 118.473C400.85 117.113 398.144 116.16 395.738 117.03C395.35 121.17 394.938 125.403 393.18 129.173C392.036 131.628 390.357 133.796 388.268 135.518C386.178 137.24 383.73 138.474 381.102 139.129C378.474 139.783 375.733 139.842 373.08 139.301C370.426 138.76 367.927 137.633 365.765 136.002C361.643 132.897 359.002 128.109 357.771 123.099C357.471 121.878 357.128 120.476 356.004 119.916C354.787 119.306 353.326 120.046 352.303 120.943C350.43 122.604 348.94 124.982 346.507 125.542C345.628 125.745 344.656 125.704 343.925 126.236C343.439 126.684 343.033 127.211 342.722 127.795C342.19 128.547 341.478 129.155 340.652 129.564C339.826 129.972 338.911 130.169 337.99 130.136C337.143 130.094 336.139 129.9 335.561 130.515C335.131 130.977 335.098 131.699 334.636 132.129C334.011 132.735 332.998 132.439 332.128 132.407C330.481 132.338 328.95 133.392 328.006 134.72C327.063 136.048 326.619 137.69 326.156 139.281C331.212 150.542 335.839 161.816 340.895 173.076C341.132 173.5 341.258 173.977 341.26 174.463C341.159 174.968 340.944 175.443 340.631 175.851C338.152 179.834 338.23 184.845 338.503 189.526C338.776 194.208 339.109 199.153 337.018 203.349C336.449 204.501 335.709 205.556 335.168 206.708C333.9 209.317 333.442 217.663 334.182 220.466H438.734C436.74 214.984 437.499 203.983 437.915 198.163C438.207 194.092 437.453 190.026 437.129 185.955C436.449 177.642 436.957 169.754 435.584 161.455Z" fill="#F86D70"/>
<path d="M440.936 217.228C442.476 216.64 444.174 216.853 445.826 217.075C451.141 217.802 456.535 218.546 461.462 220.67C463.775 221.66 465.977 222.983 467.541 224.931C468.929 226.684 469.738 228.83 470.506 230.945L472.283 235.797C472.958 237.648 473.643 239.535 473.833 241.502C474.388 247.326 470.405 252.817 465.395 255.843C460.384 258.868 454.486 259.946 448.74 261.075C442.995 262.204 437.226 263.453 431.503 264.776C428.834 265.468 426.126 266.001 423.393 266.372C417.268 267.066 410.866 266.043 405.046 268.07C402.733 268.879 400.462 270.082 398.061 270.642C396.468 270.991 394.857 271.251 393.235 271.419L382.221 272.677C379.981 272.977 377.726 273.15 375.466 273.195C370.655 273.195 365.923 272.057 361.25 270.919C360.753 270.832 360.28 270.641 359.862 270.36C359.122 269.777 358.96 268.745 358.854 267.811C358.382 263.675 357.969 259.534 357.614 255.389C357.503 254.043 357.42 252.586 358.155 251.452C359.08 250.065 360.885 249.63 362.532 249.361C369.515 248.219 376.59 247.728 383.664 247.895C386.352 245.207 390.784 245.193 394.304 243.731C395.599 243.137 396.853 242.455 398.056 241.691C404.351 238.018 411.385 235.795 418.647 235.182C420.07 235.139 421.483 234.937 422.861 234.581C425.586 233.734 428.071 231.43 430.869 231.995C431.216 231.037 431.457 229.756 432.257 229.099C432.655 228.761 433.145 228.534 433.511 228.174C434.283 227.392 434.353 226.161 434.237 225.069C434.122 223.978 433.863 222.858 434.145 221.794C434.262 221.391 434.435 221.007 434.658 220.651C436.051 218.218 438.146 216.997 440.936 217.228Z" fill="#464353"/>
<path opacity="0.05" d="M440.936 217.228C442.476 216.64 444.174 216.853 445.826 217.075C451.141 217.802 456.535 218.546 461.462 220.67C463.775 221.66 465.977 222.983 467.541 224.931C468.929 226.684 469.738 228.83 470.506 230.945L472.283 235.797C472.958 237.648 473.643 239.535 473.833 241.502C474.388 247.326 470.405 252.817 465.395 255.843C460.384 258.868 454.486 259.946 448.74 261.075C442.995 262.204 437.226 263.453 431.503 264.776C428.834 265.468 426.126 266.001 423.393 266.372C417.268 267.066 410.866 266.043 405.046 268.07C402.733 268.879 400.462 270.082 398.061 270.642C396.468 270.991 394.857 271.251 393.235 271.419L382.221 272.677C379.981 272.977 377.726 273.15 375.466 273.195C370.655 273.195 365.923 272.057 361.25 270.919C360.753 270.832 360.28 270.641 359.862 270.36C359.122 269.777 358.96 268.745 358.854 267.811C358.382 263.675 357.969 259.534 357.614 255.389C357.503 254.043 357.42 252.586 358.155 251.452C359.08 250.065 360.885 249.63 362.532 249.361C369.515 248.219 376.59 247.728 383.664 247.895C386.352 245.207 390.784 245.193 394.304 243.731C395.599 243.137 396.853 242.455 398.056 241.691C404.351 238.018 411.385 235.795 418.647 235.182C420.07 235.139 421.483 234.937 422.861 234.581C425.586 233.734 428.071 231.43 430.869 231.995C431.216 231.037 431.457 229.756 432.257 229.099C432.655 228.761 433.145 228.534 433.511 228.174C434.283 227.392 434.353 226.161 434.237 225.069C434.122 223.978 433.863 222.858 434.145 221.794C434.262 221.391 434.435 221.007 434.658 220.651C436.051 218.218 438.146 216.997 440.936 217.228Z" fill="black"/>
<path d="M349.999 270.757C347.136 274.074 344.614 275.258 340.132 275.152C337.374 275.087 334.62 274.944 331.869 274.722C329.989 274.518 328.098 274.43 326.207 274.458C320.498 274.68 314.988 277.294 309.294 276.836C308.452 276.77 307.619 276.615 306.809 276.373C305.525 276.016 304.364 275.309 303.455 274.333C302.364 273.098 301.841 271.46 301.54 269.841C300.018 261.542 304.191 252.502 311.496 248.279C312.449 247.663 313.532 247.278 314.66 247.154C315.766 247.15 316.859 247.39 317.861 247.858L317.931 247.885C320.898 249.106 323.594 250.905 325.86 253.178C326.204 253.571 326.614 253.902 327.072 254.154C327.529 254.326 328.013 254.417 328.501 254.422L334.58 254.806C335.61 254.837 336.634 254.978 337.634 255.227C338.736 255.612 339.809 256.076 340.844 256.615C344.115 258.077 347.742 258.465 351.276 259.03C351.617 259.049 351.942 259.179 352.201 259.4C352.342 259.575 352.441 259.781 352.488 260.001C352.982 261.861 353.013 263.813 352.579 265.688C352.145 267.563 351.26 269.303 349.999 270.757Z" fill="#3F3D56"/>
<path opacity="0.1" d="M317.912 247.885C315.554 250.137 313.508 252.695 311.829 255.491C309.134 260.104 307.442 265.233 306.86 270.544C306.64 272.482 306.623 274.437 306.809 276.378C305.524 276.019 304.363 275.311 303.455 274.333C302.364 273.098 301.841 271.46 301.54 269.841C300.018 261.542 304.191 252.502 311.496 248.279C312.449 247.663 313.532 247.278 314.66 247.154C315.766 247.15 316.859 247.39 317.861 247.858L317.912 247.885Z" fill="black"/>
<path d="M435.644 259.39C439.044 259.298 442.86 259.127 445.359 261.417C447.741 263.582 448.056 267.153 448.213 270.368L448.393 274.102C448.449 275.24 448.495 276.415 448.037 277.47C447.223 279.32 444.989 280.213 442.948 280.106C440.908 280 439.035 279.107 437.17 278.302C432.109 276.122 426.839 274.462 421.441 273.348C421.617 270.766 421.91 268.197 422.32 265.64C422.602 263.869 422.649 260.903 423.833 259.432C425.087 257.878 426.72 258.72 428.422 259.007C430.811 259.371 433.23 259.5 435.644 259.39Z" fill="#FBBEBE"/>
<path d="M345.794 221.882C345.794 222.344 345.068 221.882 345.003 221.387C344.494 217.644 341.524 214.558 338.064 213.06C334.603 211.561 330.662 211.482 326.915 211.838C321.248 212.375 314.91 214.545 312.814 219.842C312.324 221.081 312.102 222.423 311.5 223.612C310.834 224.916 309.747 225.957 309.025 227.225C307.781 229.418 307.73 232.105 308.179 234.585C309.386 241.201 313.91 246.858 319.393 250.777C324.875 254.695 331.282 257.036 337.671 259.145C354.564 264.717 371.896 268.857 389.484 271.52C392.333 271.951 395.211 272.349 397.94 273.265C400.383 274.083 402.668 275.309 405.055 276.272C410.607 278.501 416.579 279.297 422.496 280.079C423.505 280.208 424.661 280.301 425.406 279.616C426.368 278.723 426.049 277.169 425.776 275.888C424.771 271.019 425.611 265.951 428.131 261.667C429.121 260.001 430.407 258.294 430.222 256.365C430 254.117 427.761 252.525 425.531 252.165C423.301 251.804 421.034 252.336 418.795 252.627C418.023 252.729 417.181 252.794 416.482 252.401C416.149 252.176 415.848 251.908 415.585 251.605C414.042 250.117 412.068 249.156 409.945 248.859C407.823 248.562 405.661 248.945 403.769 249.953C402.941 250.416 401.688 249.384 400.827 248.996L391.107 244.587C379.931 239.531 368.698 234.451 356.874 231.25C355.93 231.064 355.034 230.691 354.237 230.153C353.649 229.691 353.228 229.061 352.687 228.548C351.507 227.433 349.865 226.989 348.45 226.198C347.034 225.407 345.461 223.468 345.794 221.882Z" fill="#464353"/>
<path d="M495.77 282.341C494.216 285.223 491.199 287.018 487.961 287.759C487.148 287.942 486.322 288.06 485.491 288.11C481.397 288.365 477.353 287.231 473.407 286.112L468.05 284.594C467.129 284.304 466.185 284.094 465.228 283.965C463.925 283.878 462.617 283.923 461.324 284.099C454.992 284.688 448.61 284.402 442.356 283.248C441.833 283.192 441.331 283.012 440.89 282.725C440.503 282.347 440.161 281.926 439.867 281.472C438.41 279.718 436.842 278.696 438.567 276.383C439.562 275.041 441.408 274.37 442.18 272.83C442.953 271.289 442.458 269.101 442 267.51C441.376 265.312 439.321 264.364 438.586 262.347C438.035 260.825 438.961 259.058 440.353 258.23C441.746 257.402 443.467 257.337 445.072 257.55C446.677 257.762 448.25 258.216 449.865 258.341C454.611 258.72 459.464 256.273 464.021 257.651C465.025 257.957 465.973 258.442 466.991 258.711C468.975 259.155 471.048 258.975 472.926 258.197C473.592 257.947 474.244 257.647 474.892 257.351C476.141 256.7 477.471 256.22 478.848 255.921C483.293 255.158 487.415 258.234 490.769 261.237C491.921 262.192 492.94 263.297 493.799 264.521C494.725 265.965 495.215 267.644 495.65 269.3C496.876 273.589 497.889 278.409 495.77 282.341Z" fill="#3F3D56"/>
<path opacity="0.1" d="M495.77 282.342C494.216 285.224 491.199 287.019 487.961 287.759C489.221 285.312 489.789 282.567 489.603 279.82C489.326 275.421 487.392 271.276 484.926 267.621C483.409 265.371 481.684 263.27 479.773 261.343C478.302 259.863 476.493 258.688 474.911 257.333C476.16 256.682 477.49 256.202 478.866 255.903C483.312 255.14 487.434 258.216 490.788 261.219C491.939 262.174 492.958 263.279 493.818 264.503C494.743 265.947 495.233 267.626 495.668 269.282C496.876 273.589 497.889 278.409 495.77 282.342Z" fill="black"/>
<path d="M356.046 57.8516C354.491 58.9758 353.427 60.5903 352.345 62.1401C350.351 65.0037 348.093 67.8626 344.906 69.4587C343.698 70.0647 342.32 70.5227 341.52 71.5775C341.044 72.2908 340.736 73.1019 340.617 73.9507C340.007 76.9351 339.688 79.9718 339.664 83.018C339.664 84.5354 339.729 86.099 340.4 87.4776C341.034 88.773 342.176 89.8693 342.412 91.2803C342.593 92.3814 342.186 93.4778 342.042 94.5834C341.899 95.6891 342.149 96.9983 343.171 97.5257C343.722 97.7329 344.297 97.8682 344.883 97.9282C347.959 98.6128 348.991 102.221 349.458 105.205C350.504 105.145 350.975 103.947 351.193 102.971L354.399 88.7174C354.746 87.1723 355.324 85.382 356.865 84.8407C357.896 84.4845 359.025 84.8176 360.103 84.9101C364.336 85.2571 367.916 81.9864 372.057 81.0842C373.382 80.8183 374.737 80.7296 376.086 80.8206C379.352 80.9825 383.15 82.3241 383.844 85.3727C383.96 85.8677 384.029 86.4599 384.492 86.705C384.955 86.9502 385.417 86.7421 385.926 86.705C387.999 86.4969 389.22 88.8285 389.817 90.7344L391.991 97.6737C392.315 98.7238 392.861 99.959 393.999 100.093C395.049 100.223 395.942 99.2281 396.099 98.2427C396.256 97.2574 395.914 96.235 395.687 95.245C394.665 90.6882 396.229 86.025 397.182 81.459C398.135 76.8929 398.306 71.6469 395.109 68.131C393.948 66.8588 392.421 65.9104 391.339 64.5688C390.33 63.3105 389.761 61.7653 388.716 60.5302C385.824 57.1207 378.409 54.4884 373.861 54.0535C368.684 53.4845 360.246 54.803 356.046 57.8516Z" fill="#3F3D56"/>
<g opacity="0.1">
<path opacity="0.1" d="M394.017 96.8498C392.879 96.711 392.333 95.462 392.01 94.4303C391.285 92.1142 390.56 89.8011 389.835 87.4911C389.238 85.5805 388.017 83.2489 385.945 83.4617C385.482 83.5126 384.936 83.7022 384.511 83.4617C384.085 83.2211 383.979 82.6243 383.863 82.1293C383.169 79.0761 379.371 77.7391 376.105 77.5772C374.756 77.4886 373.401 77.5773 372.075 77.8409C367.912 78.7661 364.354 82.0044 360.121 81.6667C359.03 81.5788 357.901 81.2457 356.883 81.602C355.324 82.1386 354.764 83.915 354.417 85.4787L351.211 99.7273C350.994 100.708 350.522 101.906 349.477 101.962C349.014 98.9825 347.978 95.3741 344.901 94.6894C344.317 94.625 343.742 94.4898 343.19 94.2869C342.787 94.0671 342.472 93.7161 342.297 93.2923C342.213 93.7225 342.116 94.1528 342.061 94.583C341.922 95.684 342.167 96.9979 343.19 97.5252C343.74 97.7325 344.316 97.8677 344.901 97.9277C347.978 98.6124 349.009 102.221 349.477 105.205C350.522 105.145 350.994 103.946 351.211 102.97L354.417 88.717C354.764 87.1719 355.343 85.3815 356.883 84.8403C357.915 84.4841 359.043 84.8171 360.121 84.9097C364.354 85.2566 367.935 81.9859 372.075 81.0838C373.395 80.8195 374.744 80.7309 376.086 80.8201C379.352 80.9821 383.15 82.3236 383.844 85.3723C383.96 85.8673 384.029 86.4594 384.492 86.7046C384.955 86.9498 385.417 86.7416 385.926 86.7046C387.999 86.4964 389.22 88.828 389.817 90.734C390.538 93.0502 391.263 95.3633 391.991 97.6733C392.315 98.7234 392.861 99.9586 393.999 100.093C395.049 100.222 395.942 99.2277 396.099 98.2423C396.17 97.4132 396.076 96.5782 395.822 95.7858C395.657 96.1196 395.399 96.3981 395.078 96.5871C394.758 96.7761 394.389 96.8674 394.017 96.8498Z" fill="black"/>
<path opacity="0.1" d="M342.417 88.0418C342.181 86.6308 341.029 85.5344 340.405 84.2391C340.003 83.3654 339.771 82.4236 339.72 81.4634C339.72 81.9815 339.674 82.4996 339.669 83.0224C339.669 84.5398 339.734 86.1034 340.405 87.482C340.918 88.5322 341.765 89.4574 342.19 90.5261C342.415 89.7184 342.492 88.8768 342.417 88.0418Z" fill="black"/>
<path opacity="0.1" d="M397.2 78.1972C396.358 82.2313 395.044 86.3393 395.451 90.3826C395.715 87.3987 396.585 84.3963 397.2 81.4356C397.713 79.1887 397.894 76.8789 397.737 74.5796C397.636 75.7958 397.457 77.0042 397.2 78.1972Z" fill="black"/>
</g>
<path d="M344.24 181.902C343.68 191.09 336.94 198.682 334.372 207.518C333.734 209.729 333.35 212.023 332.434 214.128C330.583 218.361 326.776 221.433 322.719 223.598C321.239 224.454 319.619 225.042 317.935 225.338C316.084 225.554 314.211 225.201 312.565 224.326C310.92 223.45 309.58 222.094 308.725 220.438C307.665 218.287 307.517 215.812 306.874 213.499C306.157 210.83 304.815 208.369 303.941 205.746C302.331 200.921 302.364 195.638 303.478 190.678C304.535 186.366 306.207 182.227 308.442 178.391C308.766 177.822 309.095 177.258 309.432 176.698C310.387 175.08 311.458 173.534 312.638 172.072C315.414 168.727 318.981 166.155 322.511 163.62C322.78 163.398 323.096 163.24 323.436 163.157H323.491C323.889 163.143 324.284 163.236 324.634 163.425C329.529 165.542 334.228 168.087 338.674 171.031C340.266 172.09 342.778 173.275 343.611 175.079C344.443 176.883 344.36 179.941 344.24 181.902Z" fill="#FBBEBE"/>
<path d="M325.874 139.624C325.423 140.096 325.074 140.654 324.847 141.266C321.107 149.694 318.898 158.72 318.324 167.922C318.334 168.371 318.23 168.815 318.023 169.213C317.819 169.478 317.591 169.724 317.343 169.948C317.118 170.215 316.95 170.526 316.849 170.86C316.749 171.195 316.718 171.546 316.759 171.893C316.799 172.24 316.911 172.575 317.086 172.877C317.262 173.179 317.497 173.442 317.778 173.649C318.541 172.211 320.369 171.743 321.992 171.618C329.769 171.003 337.365 174.621 345.165 174.348C344.614 172.447 343.823 170.619 343.375 168.695C341.39 160.15 346.34 150.847 343.305 142.617C342.699 140.97 341.686 139.351 340.09 138.629C339.429 138.362 338.738 138.179 338.031 138.083C336.061 137.727 332.138 136.205 330.232 136.816C329.528 137.042 329.251 137.704 328.668 138.102C327.803 138.671 326.628 138.87 325.874 139.624Z" fill="#F86D70"/>
<path opacity="0.1" d="M329.061 216.117C327.872 218.135 326.183 219.812 324.157 220.988C322.132 222.164 319.838 222.798 317.496 222.83C316.228 222.863 314.968 222.632 313.795 222.15C310.839 220.845 309.169 217.616 308.549 214.443C307.929 211.269 308.123 207.994 307.684 204.788C307.332 202.234 306.583 199.755 306.194 197.206C305.241 190.9 307.119 184.673 308.456 178.396C308.78 177.827 309.109 177.262 309.446 176.702C310.401 175.084 311.472 173.538 312.652 172.076C315.428 168.732 318.995 166.159 322.524 163.624H318.823C318.913 163.559 319.018 163.518 319.128 163.506C319.239 163.494 319.35 163.511 319.452 163.555C319.553 163.6 319.642 163.67 319.708 163.759C319.773 163.848 319.815 163.953 319.827 164.064C320.193 167.302 324.759 170.54 325.754 173.686C326.369 175.62 327.109 177.517 327.604 179.487C327.994 181.166 328.291 182.865 328.492 184.576C329.149 189.366 329.803 194.146 330.454 198.917C331.273 204.742 331.976 211.038 329.061 216.117Z" fill="black"/>
<path d="M322.936 155.376L327.4 141.372C328.067 139.277 328.742 137.149 328.821 134.947C328.899 132.745 328.321 130.436 326.781 128.863C325.531 127.591 323.801 126.934 322.321 125.94C318.62 123.446 316.769 119.079 314.84 115.059C312.911 111.039 310.371 106.833 306.162 105.344C305.19 105.002 303.849 104.974 303.414 105.904C303.263 106.29 303.239 106.714 303.344 107.116C303.751 109.253 305.283 110.96 306.615 112.667C308.849 115.558 310.718 119.097 310.182 122.715C309.543 126.999 305.694 130.321 305.232 134.628C305.028 136.524 305.514 138.426 305.509 140.336C305.509 141.521 305.315 142.728 305.579 143.884C305.852 144.779 306.178 145.656 306.555 146.512C306.967 147.895 307.182 149.33 307.193 150.773L308.169 168.981C308.697 178.831 303.354 188.411 304.825 198.126C305.213 200.675 305.963 203.155 306.314 205.709C306.777 208.915 306.56 212.185 307.179 215.363C307.799 218.542 309.493 221.766 312.426 223.071C313.598 223.552 314.859 223.784 316.126 223.751C318.468 223.719 320.762 223.084 322.788 221.909C324.814 220.733 326.502 219.056 327.692 217.038C330.606 211.949 329.903 205.662 329.107 199.861L327.146 185.52C326.944 183.809 326.648 182.11 326.258 180.431C325.767 178.461 325.027 176.564 324.407 174.63C322.423 168.306 320.938 161.658 322.936 155.376Z" fill="#FBBEBE"/>
<path d="M441.773 156.463H345.984C343.947 156.463 342.297 158.114 342.297 160.15V218.467C342.297 220.504 343.947 222.155 345.984 222.155H441.773C443.81 222.155 445.46 220.504 445.46 218.467V160.15C445.46 158.114 443.81 156.463 441.773 156.463Z" fill="#3F3D56"/>
<path opacity="0.2" d="M441.773 156.463H345.984C343.947 156.463 342.297 158.114 342.297 160.15V218.467C342.297 220.504 343.947 222.155 345.984 222.155H441.773C443.81 222.155 445.46 220.504 445.46 218.467V160.15C445.46 158.114 443.81 156.463 441.773 156.463Z" fill="black"/>
<path d="M393.647 192.085C395.18 192.085 396.423 190.842 396.423 189.309C396.423 187.776 395.18 186.533 393.647 186.533C392.114 186.533 390.872 187.776 390.872 189.309C390.872 190.842 392.114 192.085 393.647 192.085Z" fill="white"/>
<path d="M181.919 243.129H187.521C190.588 243.129 193.53 244.348 195.699 246.517C197.868 248.686 199.086 251.627 199.086 254.695V271.863H170.353V254.695C170.353 251.627 171.572 248.686 173.741 246.517C175.91 244.348 178.851 243.129 181.919 243.129Z" fill="#3F3D56"/>
<path opacity="0.1" d="M181.919 243.129H187.521C190.588 243.129 193.53 244.348 195.699 246.517C197.868 248.686 199.086 251.627 199.086 254.695V271.863H170.353V254.695C170.353 251.627 171.572 248.686 173.741 246.517C175.91 244.348 178.851 243.129 181.919 243.129Z" fill="black"/>
<path d="M183.575 249.454C184.845 249.454 185.874 248.424 185.874 247.155C185.874 245.885 184.845 244.855 183.575 244.855C182.305 244.855 181.276 245.885 181.276 247.155C181.276 248.424 182.305 249.454 183.575 249.454Z" fill="#3F3D56"/>
<path d="M183.575 246.581C184.845 246.581 185.874 245.551 185.874 244.282C185.874 243.012 184.845 241.982 183.575 241.982C182.305 241.982 181.276 243.012 181.276 244.282C181.276 245.551 182.305 246.581 183.575 246.581Z" fill="#3F3D56"/>
<path d="M183.575 243.708C184.845 243.708 185.874 242.679 185.874 241.409C185.874 240.139 184.845 239.11 183.575 239.11C182.305 239.11 181.276 240.139 181.276 241.409C181.276 242.679 182.305 243.708 183.575 243.708Z" fill="#3F3D56"/>
<path d="M183.575 240.835C184.845 240.835 185.874 239.806 185.874 238.536C185.874 237.266 184.845 236.237 183.575 236.237C182.305 236.237 181.276 237.266 181.276 238.536C181.276 239.806 182.305 240.835 183.575 240.835Z" fill="#3F3D56"/>
<path d="M183.575 237.962C184.845 237.962 185.874 236.933 185.874 235.663C185.874 234.393 184.845 233.364 183.575 233.364C182.305 233.364 181.276 234.393 181.276 235.663C181.276 236.933 182.305 237.962 183.575 237.962Z" fill="#3F3D56"/>
<path d="M183.575 235.089C184.845 235.089 185.874 234.06 185.874 232.79C185.874 231.52 184.845 230.491 183.575 230.491C182.305 230.491 181.276 231.52 181.276 232.79C181.276 234.06 182.305 235.089 183.575 235.089Z" fill="#3F3D56"/>
<path d="M183.575 232.217C184.845 232.217 185.874 231.188 185.874 229.918C185.874 228.648 184.845 227.619 183.575 227.619C182.305 227.619 181.276 228.648 181.276 229.918C181.276 231.188 182.305 232.217 183.575 232.217Z" fill="#3F3D56"/>
<path d="M187.021 233.364C188.291 233.364 189.321 232.335 189.321 231.065C189.321 229.795 188.291 228.766 187.021 228.766C185.752 228.766 184.722 229.795 184.722 231.065C184.722 232.335 185.752 233.364 187.021 233.364Z" fill="#3F3D56"/>
<path d="M189.321 232.217C190.59 232.217 191.62 231.188 191.62 229.918C191.62 228.648 190.59 227.619 189.321 227.619C188.051 227.619 187.021 228.648 187.021 229.918C187.021 231.188 188.051 232.217 189.321 232.217Z" fill="#3F3D56"/>
<path d="M191.62 231.065C192.89 231.065 193.919 230.035 193.919 228.766C193.919 227.496 192.89 226.466 191.62 226.466C190.35 226.466 189.321 227.496 189.321 228.766C189.321 230.035 190.35 231.065 191.62 231.065Z" fill="#3F3D56"/>
<path d="M183.575 229.339C184.845 229.339 185.874 228.31 185.874 227.04C185.874 225.77 184.845 224.741 183.575 224.741C182.305 224.741 181.276 225.77 181.276 227.04C181.276 228.31 182.305 229.339 183.575 229.339Z" fill="#3F3D56"/>
<path d="M183.575 226.466C184.845 226.466 185.874 225.437 185.874 224.167C185.874 222.897 184.845 221.868 183.575 221.868C182.305 221.868 181.276 222.897 181.276 224.167C181.276 225.437 182.305 226.466 183.575 226.466Z" fill="#3F3D56"/>
<path d="M183.575 223.594C184.845 223.594 185.874 222.564 185.874 221.294C185.874 220.024 184.845 218.995 183.575 218.995C182.305 218.995 181.276 220.024 181.276 221.294C181.276 222.564 182.305 223.594 183.575 223.594Z" fill="#3F3D56"/>
<path d="M183.575 220.72C184.845 220.72 185.874 219.691 185.874 218.421C185.874 217.151 184.845 216.122 183.575 216.122C182.305 216.122 181.276 217.151 181.276 218.421C181.276 219.691 182.305 220.72 183.575 220.72Z" fill="#3F3D56"/>
<path d="M193.1 211.006C192.531 211.089 191.958 211.149 191.384 211.186C191.917 210.721 192.412 210.213 192.864 209.669C192.544 208.703 192.076 207.793 191.476 206.972C190.906 207.292 190.276 207.49 189.626 207.555C189.057 207.638 188.483 207.703 187.91 207.74C188.681 207.006 189.414 206.234 190.107 205.426C188.444 203.931 186.317 203.051 184.083 202.936C181.85 202.82 179.644 203.476 177.835 204.792C176.027 206.108 174.725 208.006 174.148 210.167C173.572 212.329 173.755 214.622 174.667 216.665C175.579 218.707 177.165 220.374 179.16 221.387C181.154 222.4 183.436 222.697 185.623 222.229C187.811 221.761 189.771 220.555 191.176 218.814C192.58 217.074 193.345 214.903 193.341 212.666C193.341 212.103 193.291 211.541 193.193 210.987L193.1 211.006Z" fill="#323232"/>
<path d="M200.784 222.428C200.197 222.787 199.536 223.008 198.851 223.075C198.282 223.158 197.708 223.219 197.134 223.256C197.744 222.709 198.313 222.118 198.837 221.488C197.45 221.127 195.979 221.296 194.711 221.961C193.442 222.627 192.467 223.742 191.977 225.088C191.487 226.434 191.516 227.914 192.06 229.24C192.603 230.565 193.621 231.641 194.915 232.255C196.209 232.87 197.686 232.98 199.057 232.564C200.428 232.148 201.594 231.235 202.328 230.005C203.061 228.774 203.31 227.315 203.024 225.911C202.739 224.507 201.94 223.26 200.784 222.414V222.428Z" fill="#323232"/>
<path d="M180.124 233.364C181.394 233.364 182.423 232.335 182.423 231.065C182.423 229.795 181.394 228.766 180.124 228.766C178.854 228.766 177.825 229.795 177.825 231.065C177.825 232.335 178.854 233.364 180.124 233.364Z" fill="#3F3D56"/>
<path d="M177.825 232.217C179.094 232.217 180.124 231.188 180.124 229.918C180.124 228.648 179.094 227.619 177.825 227.619C176.555 227.619 175.525 228.648 175.525 229.918C175.525 231.188 176.555 232.217 177.825 232.217Z" fill="#3F3D56"/>
<path d="M175.525 231.065C176.795 231.065 177.825 230.035 177.825 228.766C177.825 227.496 176.795 226.466 175.525 226.466C174.256 226.466 173.226 227.496 173.226 228.766C173.226 230.035 174.256 231.065 175.525 231.065Z" fill="#3F3D56"/>
<path d="M166.361 222.428C166.948 222.788 167.609 223.009 168.295 223.075C168.864 223.158 169.437 223.219 170.011 223.256C169.4 222.71 168.831 222.119 168.309 221.488C169.695 221.127 171.166 221.296 172.434 221.961C173.703 222.627 174.678 223.742 175.168 225.088C175.658 226.434 175.629 227.914 175.085 229.24C174.542 230.565 173.524 231.641 172.23 232.255C170.936 232.87 169.459 232.98 168.088 232.564C166.718 232.148 165.551 231.235 164.818 230.005C164.084 228.774 163.835 227.315 164.121 225.911C164.406 224.507 165.205 223.26 166.361 222.414V222.428Z" fill="#323232"/>
<path d="M181.919 244.855H187.521C190.588 244.855 193.53 246.074 195.699 248.243C197.868 250.412 199.086 253.354 199.086 256.421V271.627C199.086 272.147 198.88 272.646 198.512 273.014C198.144 273.382 197.645 273.589 197.125 273.589H172.315C171.795 273.589 171.296 273.382 170.928 273.014C170.56 272.646 170.353 272.147 170.353 271.627V256.421C170.353 253.354 171.572 250.412 173.741 248.243C175.91 246.074 178.851 244.855 181.919 244.855Z" fill="#3F3D56"/>
<g opacity="0.1">
<path opacity="0.1" d="M193.276 211.635C193.043 211.883 192.796 212.118 192.536 212.338C192.8 212.338 193.059 212.296 193.322 212.269C193.313 212.056 193.299 211.843 193.276 211.635Z" fill="black"/>
<path opacity="0.1" d="M189.085 208.887C189.663 208.85 190.232 208.79 190.806 208.706C191.32 208.641 191.823 208.504 192.3 208.299C192.066 207.837 191.797 207.393 191.495 206.972C191.207 207.147 190.896 207.279 190.57 207.365C190.116 207.911 189.619 208.42 189.085 208.887Z" fill="black"/>
<path opacity="0.1" d="M174.952 213.823C174.948 212.069 175.418 210.347 176.311 208.837C177.204 207.328 178.488 206.087 180.027 205.246C181.566 204.405 183.304 203.995 185.057 204.058C186.809 204.122 188.513 204.657 189.987 205.607L190.135 205.45C189.173 204.594 188.051 203.936 186.833 203.516C185.616 203.095 184.328 202.92 183.042 203C181.757 203.079 180.5 203.413 179.344 203.98C178.188 204.548 177.156 205.339 176.307 206.307C175.458 207.275 174.809 208.402 174.397 209.622C173.985 210.843 173.819 212.132 173.908 213.417C173.998 214.702 174.34 215.956 174.916 217.108C175.492 218.26 176.29 219.287 177.265 220.129C175.769 218.369 174.949 216.133 174.952 213.823Z" fill="black"/>
</g>
<g opacity="0.1">
<path opacity="0.1" d="M197.134 224.403C197.708 224.366 198.282 224.306 198.851 224.222C199.536 224.158 200.198 223.936 200.784 223.575C201.434 224.053 201.975 224.663 202.374 225.364C202.772 226.066 203.019 226.843 203.097 227.646C203.12 227.445 203.131 227.242 203.13 227.04C203.134 226.141 202.927 225.254 202.525 224.451C202.123 223.647 201.538 222.949 200.817 222.414C200.229 222.773 199.568 222.995 198.883 223.061L198.42 223.117C198.026 223.578 197.596 224.008 197.134 224.403Z" fill="black"/>
<path opacity="0.1" d="M197.366 222.441C197.557 222.443 197.749 222.457 197.939 222.483C198.24 222.164 198.536 221.821 198.837 221.488C197.986 221.261 197.095 221.233 196.232 221.405C195.368 221.578 194.556 221.947 193.859 222.484C193.161 223.02 192.596 223.71 192.208 224.5C191.82 225.291 191.618 226.159 191.62 227.04C191.62 227.234 191.62 227.424 191.648 227.613C191.79 226.196 192.454 224.882 193.51 223.926C194.567 222.97 195.941 222.441 197.366 222.441Z" fill="black"/>
</g>
<g opacity="0.1">
<path opacity="0.1" d="M170.011 224.403C169.437 224.366 168.864 224.306 168.295 224.222C167.609 224.159 166.947 223.937 166.361 223.575C165.711 224.053 165.17 224.663 164.771 225.364C164.373 226.066 164.126 226.843 164.048 227.646C164.025 227.445 164.015 227.242 164.015 227.04C164.011 226.141 164.218 225.254 164.62 224.451C165.022 223.647 165.607 222.949 166.329 222.414C166.915 222.774 167.577 222.995 168.262 223.061L168.725 223.117C169.117 223.58 169.547 224.011 170.011 224.403Z" fill="black"/>
<path opacity="0.1" d="M169.78 222.441C169.586 222.443 169.393 222.457 169.201 222.483C168.905 222.164 168.609 221.821 168.309 221.488C169.159 221.261 170.05 221.233 170.914 221.405C171.777 221.578 172.589 221.947 173.286 222.484C173.984 223.02 174.549 223.71 174.937 224.5C175.326 225.291 175.527 226.159 175.525 227.04C175.525 227.234 175.525 227.424 175.498 227.613C175.355 226.196 174.692 224.882 173.635 223.926C172.578 222.97 171.204 222.441 169.78 222.441Z" fill="black"/>
</g>
<path d="M232.696 51.5801H127.144V92.2904H232.696V51.5801Z" fill="#323232"/>
<path d="M294.192 51.5801H132.728C129.644 51.5801 127.144 54.0655 127.144 57.1315V86.739C127.144 89.805 129.644 92.2904 132.728 92.2904H294.192C297.276 92.2904 299.775 89.805 299.775 86.739V57.1315C299.775 54.0655 297.276 51.5801 294.192 51.5801Z" stroke="#3F3D56" stroke-width="9" stroke-miterlimit="10"/>
<path d="M221.982 69.756C221.632 68.0532 220.741 66.4976 219.432 65.3045C218.124 64.1114 216.464 63.3398 214.681 63.0964C212.898 62.853 211.081 63.1499 209.481 63.946C207.88 64.7422 206.576 65.9981 205.749 67.5401C203.977 67.7203 202.345 68.5498 201.189 69.8573C200.034 71.1648 199.443 72.8503 199.54 74.5654C199.637 76.2806 200.413 77.8945 201.709 79.0735C203.005 80.2525 204.721 80.9065 206.502 80.9005H221.579C223.12 80.8968 224.595 80.3037 225.682 79.2514C226.769 78.1992 227.378 76.7739 227.376 75.2889C227.382 73.8765 226.826 72.5155 225.823 71.4862C224.819 70.4569 223.445 69.8377 221.982 69.756ZM215.317 73.0545V77.3013H211.603V73.0545H207.664L213.46 67.4614L219.257 73.0545H215.317Z" fill="white"/>
</g>
<defs>
<linearGradient id="paint0_linear" x1="399.134" y1="288.143" x2="399.134" y2="51.4444" gradientUnits="userSpaceOnUse">
<stop stop-color="#808080" stop-opacity="0.25"/>
<stop offset="0.54" stop-color="#808080" stop-opacity="0.12"/>
<stop offset="1" stop-color="#808080" stop-opacity="0.1"/>
</linearGradient>
<clipPath id="clip0">
<rect width="500" height="288" fill="white"/>
</clipPath>
</defs>
</svg>
