<svg width="500" height="288" viewBox="0 0 500 288" fill="none" xmlns="http://www.w3.org/2000/svg">
<path d="M99.0316 14.1348L69.8709 71.1351H75.7575V117.617H46.091L29 151.024L240.77 259.833L310.802 122.944L99.0316 14.1348Z" fill="#F2F2F2"/>
<path d="M417.545 7.04248H92.8746V170.281H417.545V7.04248Z" fill="#3F3D56"/>
<path opacity="0.3" d="M378.065 21.5264H138.428V22.0797H378.065V21.5264Z" fill="#E535AB"/>
<path opacity="0.3" d="M378.341 35.3599H138.704V35.9132H378.341V35.3599Z" fill="#E535AB"/>
<path opacity="0.3" d="M378.341 63.0278H138.704V63.5812H378.341V63.0278Z" fill="#E535AB"/>
<path opacity="0.3" d="M378.341 75.2012H138.704V75.7545H378.341V75.2012Z" fill="#E535AB"/>
<path opacity="0.3" d="M378.341 49.1938H138.704V49.7472H378.341V49.1938Z" fill="#E535AB"/>
<path d="M387 288C432.287 288 469 281.06 469 272.5C469 263.94 432.287 257 387 257C341.713 257 305 263.94 305 272.5C305 281.06 341.713 288 387 288Z" fill="#3F3D56"/>
<path d="M145.352 75.6022L144.59 74.8009L180.26 40.7294L211.704 63.3958L237.131 35.1438L248.281 44.6416L278.611 26.4042L312.3 49.0966L365.176 18.9561L365.721 19.9178L312.252 50.3976L278.577 27.7151L248.169 45.9989L237.233 36.6827L211.862 64.8727L180.359 42.1642L145.352 75.6022Z" fill="#E535AB"/>
<path d="M455.924 253.909C450.301 260.964 449.732 271.639 449.732 271.639C449.732 271.639 458.278 270.876 463.901 263.822C469.523 256.767 470.093 246.092 470.093 246.092C470.093 246.092 461.547 246.855 455.924 253.909Z" fill="#3F3D56"/>
<path d="M458.881 256.178C456.916 265.819 449.865 271.912 449.865 271.912C449.865 271.912 446 262.374 447.964 252.733C449.929 243.093 456.98 237 456.98 237C456.98 237 460.845 246.538 458.881 256.178Z" fill="#E535AB"/>
<path opacity="0.4" d="M451.503 53.4472C461.718 53.4472 470 45.1478 470 34.9099C470 24.672 461.718 16.3726 451.503 16.3726C441.287 16.3726 433.005 24.672 433.005 34.9099C433.005 45.1478 441.287 53.4472 451.503 53.4472Z" fill="#E535AB"/>
<path opacity="0.4" d="M417.269 56.7673C424.435 56.7673 430.244 50.9453 430.244 43.7636C430.244 36.5818 424.435 30.7598 417.269 30.7598C410.102 30.7598 404.293 36.5818 404.293 43.7636C404.293 50.9453 410.102 56.7673 417.269 56.7673Z" fill="#E535AB"/>
<path opacity="0.4" d="M401.256 253.838C405.068 253.838 408.158 250.741 408.158 246.921C408.158 243.101 405.068 240.004 401.256 240.004C397.444 240.004 394.354 243.101 394.354 246.921C394.354 250.741 397.444 253.838 401.256 253.838Z" fill="#E535AB"/>
<path opacity="0.4" d="M283.646 243.974C286.543 243.974 288.891 241.621 288.891 238.717C288.891 235.814 286.543 233.46 283.646 233.46C280.749 233.46 278.4 235.814 278.4 238.717C278.4 241.621 280.749 243.974 283.646 243.974Z" fill="#E535AB"/>
<path opacity="0.4" d="M265.977 220.083C269.789 220.083 272.879 216.987 272.879 213.166C272.879 209.346 269.789 206.25 265.977 206.25C262.165 206.25 259.075 209.346 259.075 213.166C259.075 216.987 262.165 220.083 265.977 220.083Z" fill="#E535AB"/>
<path d="M364.814 28.9965C368.778 28.9965 371.992 25.7759 371.992 21.803C371.992 17.8301 368.778 14.6094 364.814 14.6094C360.849 14.6094 357.635 17.8301 357.635 21.803C357.635 25.7759 360.849 28.9965 364.814 28.9965Z" fill="#E535AB"/>
<path d="M318.174 152.098L312.089 152.776C312.089 152.776 309.384 164.972 312.089 181.234C314.793 197.496 318.174 213.758 318.174 213.758C318.174 213.758 320.878 266.61 322.231 267.287C323.583 267.965 335.753 272.03 336.429 267.965C337.105 263.899 337.105 171.071 337.105 171.071L346.571 215.791C346.571 215.791 347.923 272.03 350.628 272.03C353.332 272.03 362.122 271.353 362.122 266.61C362.122 261.866 364.15 199.529 364.15 199.529C364.15 199.529 363.474 153.454 360.77 152.098C358.065 150.743 318.174 152.098 318.174 152.098Z" fill="#2F2E41"/>
<path d="M323.583 265.254C323.583 265.254 317.498 264.577 316.145 265.254C314.793 265.932 312.765 270.675 316.145 273.385C319.526 276.096 328.316 280.161 331.02 280.161C332.896 280.078 334.735 279.617 336.429 278.806L335.077 267.287L323.583 265.254Z" fill="#2F2E41"/>
<path d="M350.628 268.643L351.304 278.129C351.304 278.129 360.093 279.484 360.769 278.129C361.446 276.774 368.207 273.386 368.883 272.708C369.559 272.03 370.235 264.577 366.178 263.9C362.122 263.222 360.769 265.255 360.769 265.255L350.628 268.643Z" fill="#2F2E41"/>
<path d="M293.834 95.1816C293.834 95.1816 277.607 110.766 279.635 118.897C281.663 127.028 297.89 150.743 297.89 150.743C297.89 150.743 313.441 158.874 315.469 150.743C317.498 142.612 304.652 144.645 304.652 144.645L294.51 120.252L306.004 103.99L293.834 95.1816Z" fill="#FFB8B8"/>
<path d="M366.34 71.472C366.34 71.472 381.122 61.9457 380.78 55.4009C380.438 48.8562 371.526 28.2204 371.526 28.2204C371.526 28.2204 364.555 13.6953 361.784 19.6314C359.012 25.5675 365.426 31.8863 365.426 31.8863L369.566 52.1292L358.315 62.8856L366.34 71.472Z" fill="#FFB8B8"/>
<path d="M329.668 57.9149C336.389 57.9149 341.838 52.4543 341.838 45.7184C341.838 38.9825 336.389 33.522 329.668 33.522C322.947 33.522 317.498 38.9825 317.498 45.7184C317.498 52.4543 322.947 57.9149 329.668 57.9149Z" fill="#FFB8B8"/>
<path d="M323.583 53.1717L325.611 66.0457L340.486 63.3354C340.486 63.3354 339.81 50.4613 339.81 49.1062C339.81 47.751 323.583 53.1717 323.583 53.1717Z" fill="#FFB8B8"/>
<path d="M322.907 66.0455C322.907 66.0455 339.81 61.98 341.838 63.3352C343.866 64.6903 354.008 66.0455 354.008 66.0455L365.502 83.6626L362.122 106.023C362.122 106.023 361.446 141.935 362.798 148.033C364.15 154.131 371.587 154.809 356.037 156.164C340.486 157.519 337.781 155.486 326.963 158.196C316.146 160.907 307.356 156.841 310.06 154.131C312.765 151.421 317.498 108.055 312.089 103.99C306.68 99.9245 304.651 78.9195 304.651 78.9195C304.651 78.9195 322.907 69.4334 322.907 66.0455Z" fill="#D0CDE1"/>
<path d="M351.98 68.0787L354.008 66.046L358.065 61.9805C358.065 61.9805 371.249 67.7399 370.573 69.7727C369.897 71.8054 365.502 83.6631 365.502 83.6631L359.417 85.6958L351.98 68.0787Z" fill="#D0CDE1"/>
<path d="M312.765 80.2746L304.651 78.9194C304.651 78.9194 298.566 85.6952 296.538 88.4056C294.51 91.1159 290.453 97.8917 290.453 97.8917L304.651 108.055L315.469 96.5365L312.765 80.2746Z" fill="#D0CDE1"/>
<path d="M333.915 30.942L333.79 29.965C332.963 29.9603 332.141 30.0898 331.355 30.3486C331.274 29.7594 331.326 29.1597 331.505 28.5928C330.707 28.7986 329.946 29.1302 329.251 29.5751L328.759 27.792L322 31.1303C319.574 32.3286 317.016 33.6454 315.629 35.9727C314.082 38.5672 314.352 41.9016 315.409 44.732C316.466 47.5623 318.222 50.067 319.63 52.7395C320.164 53.8887 320.807 54.9843 321.548 56.0117C324.1 59.199 329.066 59.8429 332.663 57.9192C334.032 57.2583 335.123 56.1331 335.743 54.743C336.005 53.8807 336.21 53.002 336.358 52.1127C336.803 50.2914 337.319 46.5316 338.796 45.3794C339.445 44.8723 340.733 46.5532 341.271 45.9288C342.655 44.3243 342.364 41.8498 341.505 39.9119C340.681 37.9656 339.717 36.0816 338.621 34.2745C338.157 33.548 333.9 30.8248 333.915 30.942Z" fill="#2F2E41"/>
<path d="M71.3404 77.7749H36.0021V113.189H71.3404V77.7749Z" fill="#3F3D56"/>
</svg>
