<svg width="100" height="100" viewBox="0 0 100 100" fill="none" xmlns="http://www.w3.org/2000/svg">
<circle cx="50" cy="50" r="50" fill="white"/>
<circle cx="50" cy="50" r="40" fill="#3F3D56"/>
<g clip-path="url(#clip0)">
<path fill-rule="evenodd" clip-rule="evenodd" d="M54.7674 26.871L67.082 33.9849C67.4375 33.6085 67.8455 33.2855 68.2933 33.0258C70.8472 31.5568 74.1048 32.429 75.5883 34.9844C77.0565 37.5397 76.1848 40.7988 73.6307 42.283C73.1862 42.5391 72.7072 42.7299 72.2084 42.8496V57.0826C72.7018 57.2024 73.1755 57.392 73.6155 57.6454C76.1848 59.1296 77.0565 62.3889 75.5731 64.9443C74.1048 67.4994 70.832 68.3716 68.2779 66.9028C67.7831 66.6188 67.3374 66.2568 66.9579 65.8306L54.7182 72.9008C54.8975 73.4438 54.9885 74.0121 54.9879 74.5839C54.9879 77.5218 52.6022 79.9242 49.6505 79.9242C46.6987 79.9242 44.3131 77.537 44.3131 74.5839C44.3131 74.059 44.3885 73.552 44.529 73.073L32.2177 65.9613C31.8661 66.3302 31.4638 66.6472 31.023 66.9028C28.4538 68.3716 25.1962 67.4994 23.7279 64.9443C22.2598 62.3889 23.1316 59.1296 25.6854 57.6454C26.1254 57.3919 26.5992 57.2023 27.0925 57.0824V42.8496C26.5937 42.7299 26.1147 42.5391 25.6702 42.283C23.1162 40.8142 22.2444 37.5397 23.7127 34.9844C25.181 32.429 28.4536 31.5568 31.0076 33.0258C31.453 33.2841 31.859 33.605 32.2131 33.9788L44.5313 26.8631C44.3861 26.37 44.3126 25.8585 44.3131 25.3445C44.3131 22.3917 46.6987 20.0044 49.6505 20.0044C52.6022 20.0044 54.9879 22.3914 54.9879 25.3445C54.9879 25.8753 54.9108 26.3875 54.7674 26.871ZM53.4844 29.0629L65.8284 36.1934C65.6318 36.8808 65.5754 37.6008 65.6626 38.3105C65.7498 39.0202 65.9787 39.7051 66.3358 40.3244C67.0872 41.6322 68.3112 42.4992 69.6698 42.8371V57.0878C69.6004 57.1046 69.5315 57.1232 69.463 57.1428L53.3409 29.2056C53.3897 29.1589 53.4376 29.1114 53.4844 29.0631V29.0629ZM45.9633 29.2087L29.8415 57.1455C29.7718 57.1253 29.7016 57.1065 29.6312 57.0892V42.8371C30.9897 42.4992 32.2138 41.6322 32.9652 40.3244C33.323 39.7039 33.5521 39.0175 33.6389 38.3064C33.7258 37.5953 33.6685 36.874 33.4705 36.1855L45.8109 29.057C45.8607 29.1085 45.9115 29.1591 45.9633 29.2085V29.2087ZM51.1419 30.4742L67.26 58.4047C66.8908 58.7572 66.5743 59.1611 66.3204 59.604C66.067 60.0442 65.8776 60.5182 65.7578 61.0117H33.5436C33.4236 60.5182 33.234 60.0441 32.9806 59.604C32.7258 59.1642 32.4099 58.7627 32.0424 58.4116L48.1637 30.4754C48.647 30.6147 49.1475 30.6851 49.6505 30.6846C50.1683 30.6846 50.6686 30.6112 51.1419 30.4742ZM53.5977 70.9864L65.8615 63.9021C65.8247 63.7864 65.7919 63.6696 65.763 63.5517H33.5367C33.5196 63.6211 33.5011 63.6898 33.4813 63.7583L45.8051 70.8774C46.3028 70.3597 46.9 69.948 47.5609 69.6673C48.2217 69.3866 48.9325 69.2425 49.6505 69.2438C50.3935 69.2425 51.1286 69.3969 51.8084 69.697C52.4883 69.9971 53.0977 70.4364 53.5977 70.9864Z" fill="#E535AB"/>
</g>
<defs>
<clipPath id="clip0">
<rect width="53.301" height="60" fill="white" transform="translate(23 20)"/>
</clipPath>
</defs>
</svg>
