<svg width="100" height="100" viewBox="0 0 100 100" fill="none" xmlns="http://www.w3.org/2000/svg">
<circle cx="50" cy="50" r="50" fill="white"/>
<circle cx="50" cy="51" r="40" fill="#E44D26"/>
<g clip-path="url(#clip0)">
<path d="M74.909 23.1287L70.3701 74.0045L49.9675 79.6639L29.6211 74.0123L25.0869 23.1287H74.909Z" fill="#E44D26"/>
<path d="M49.9979 75.338L66.4843 70.7649L70.3628 27.2891H49.9979V75.338Z" fill="#F16529"/>
<path d="M41.1744 39.7707H49.9979V33.53H34.358L34.5072 35.2043L36.0403 52.4019H49.9979V46.1613H41.7445L41.1744 39.7707ZM42.5802 55.5224H36.319L37.1927 65.3212L49.9692 68.8697L49.9979 68.8619V62.369L49.9706 62.3762L43.0243 60.4995L42.5802 55.5224Z" fill="#EBEBEB"/>
<path d="M49.9765 52.4019H57.6569L56.9327 60.4956L49.9763 62.3743V68.8668L62.7629 65.3212L62.8566 64.2668L64.3225 47.837L64.4747 46.1612H49.9765V52.4019ZM49.9765 39.7555V39.7707H65.0422L65.1672 38.3681L65.4515 35.2043L65.6005 33.53H49.9765V39.7557V39.7555Z" fill="white"/>
</g>
<defs>
<clipPath id="clip0">
<rect width="50" height="56.8421" fill="white" transform="translate(25 23)"/>
</clipPath>
</defs>
</svg>
