<svg width="500" height="288" viewBox="0 0 500 288" fill="none" xmlns="http://www.w3.org/2000/svg">
<path d="M250.838 260.466C362.502 260.466 453.023 254.921 453.023 248.079C453.023 241.238 362.502 235.693 250.838 235.693C139.174 235.693 48.6523 241.238 48.6523 248.079C48.6523 254.921 139.174 260.466 250.838 260.466Z" fill="#3F3D56"/>
<path opacity="0.1" d="M250.838 256.071C345.951 256.071 423.055 252.404 423.055 247.88C423.055 243.356 345.951 239.688 250.838 239.688C155.725 239.688 78.6205 243.356 78.6205 247.88C78.6205 252.404 155.725 256.071 250.838 256.071Z" fill="black"/>
<path d="M109.787 287.637C156.614 287.637 194.575 284.328 194.575 280.245C194.575 276.163 156.614 272.853 109.787 272.853C62.9606 272.853 25 276.163 25 280.245C25 284.328 62.9606 287.637 109.787 287.637Z" fill="#3F3D56"/>
<path opacity="0.1" d="M109.787 285.015C149.674 285.015 182.008 282.826 182.008 280.126C182.008 277.426 149.674 275.238 109.787 275.238C69.9014 275.238 37.5673 277.426 37.5673 280.126C37.5673 282.826 69.9014 285.015 109.787 285.015Z" fill="black"/>
<path d="M403.875 10.7312H103.394V246.481H403.875V10.7312Z" fill="#3F3D56"/>
<path d="M250.216 42.9487H176.088C175.97 42.9489 175.852 42.9258 175.743 42.8807C175.634 42.8356 175.534 42.7694 175.451 42.6858C175.367 42.6023 175.3 42.503 175.255 42.3937C175.21 42.2845 175.186 42.1673 175.186 42.049C175.186 41.9307 175.21 41.8136 175.255 41.7043C175.3 41.5951 175.367 41.4958 175.451 41.4122C175.534 41.3287 175.634 41.2624 175.743 41.2173C175.852 41.1723 175.97 41.1492 176.088 41.1494H250.216C250.455 41.1499 250.683 41.2449 250.851 41.4136C251.019 41.5822 251.114 41.8108 251.114 42.049C251.114 42.2873 251.019 42.5158 250.851 42.6845C250.683 42.8532 250.455 42.9482 250.216 42.9487Z" fill="#F2F2F2"/>
<path d="M331.362 52.8447H214.771C214.533 52.8447 214.304 52.7499 214.135 52.5812C213.967 52.4125 213.872 52.1836 213.872 51.945C213.872 51.7064 213.967 51.4776 214.135 51.3089C214.304 51.1402 214.533 51.0454 214.771 51.0454H331.362C331.48 51.0454 331.597 51.0687 331.706 51.1139C331.815 51.1591 331.914 51.2254 331.998 51.3089C332.081 51.3924 332.148 51.4916 332.193 51.6008C332.238 51.7099 332.261 51.8269 332.261 51.945C332.261 52.0632 332.238 52.1801 332.193 52.2893C332.148 52.3984 332.081 52.4976 331.998 52.5812C331.914 52.6647 331.815 52.731 331.706 52.7762C331.597 52.8214 331.48 52.8447 331.362 52.8447Z" fill="#F2F2F2"/>
<path d="M250.576 62.7404H176.448C176.209 62.7404 175.98 62.6456 175.812 62.4769C175.643 62.3082 175.548 62.0794 175.548 61.8408C175.548 61.6022 175.643 61.3734 175.812 61.2047C175.98 61.0359 176.209 60.9412 176.448 60.9412H250.576C250.815 60.9412 251.044 61.0359 251.212 61.2047C251.381 61.3734 251.476 61.6022 251.476 61.8408C251.476 62.0794 251.381 62.3082 251.212 62.4769C251.044 62.6456 250.815 62.7404 250.576 62.7404Z" fill="#F2F2F2"/>
<path d="M331.362 62.9203H257.233C256.995 62.9203 256.766 62.8255 256.597 62.6568C256.429 62.4881 256.334 62.2593 256.334 62.0207C256.334 61.7821 256.429 61.5533 256.597 61.3846C256.766 61.2159 256.995 61.1211 257.233 61.1211H331.362C331.6 61.1211 331.829 61.2159 331.998 61.3846C332.167 61.5533 332.261 61.7821 332.261 62.0207C332.261 62.2593 332.167 62.4881 331.998 62.6568C331.829 62.8255 331.6 62.9203 331.362 62.9203Z" fill="#F2F2F2"/>
<path d="M250.756 72.6362H176.628C176.389 72.6362 176.16 72.5414 175.992 72.3727C175.823 72.204 175.728 71.9751 175.728 71.7365C175.728 71.4979 175.823 71.2691 175.992 71.1004C176.16 70.9317 176.389 70.8369 176.628 70.8369H250.756C250.995 70.8369 251.223 70.9317 251.392 71.1004C251.561 71.2691 251.656 71.4979 251.656 71.7365C251.656 71.9751 251.561 72.204 251.392 72.3727C251.223 72.5414 250.995 72.6362 250.756 72.6362Z" fill="#F2F2F2"/>
<path d="M250.936 82.5319H176.808C176.569 82.5319 176.34 82.4371 176.171 82.2684C176.003 82.0997 175.908 81.8709 175.908 81.6323C175.908 81.3937 176.003 81.1649 176.171 80.9962C176.34 80.8274 176.569 80.7327 176.808 80.7327H250.936C251.175 80.7327 251.403 80.8274 251.572 80.9962C251.741 81.1649 251.836 81.3937 251.836 81.6323C251.836 81.8709 251.741 82.0997 251.572 82.2684C251.403 82.4371 251.175 82.5319 250.936 82.5319Z" fill="#F2F2F2"/>
<path d="M284.582 43.1288H263.351C263.112 43.1288 262.883 43.0341 262.715 42.8653C262.546 42.6966 262.451 42.4678 262.451 42.2292C262.451 41.9906 262.546 41.7618 262.715 41.5931C262.883 41.4244 263.112 41.3296 263.351 41.3296H284.582C284.82 41.3296 285.049 41.4244 285.218 41.5931C285.387 41.7618 285.481 41.9906 285.481 42.2292C285.481 42.4678 285.387 42.6966 285.218 42.8653C285.049 43.0341 284.82 43.1288 284.582 43.1288Z" fill="#F2F2F2"/>
<path d="M284.582 72.6362H263.351C263.112 72.6362 262.883 72.5414 262.715 72.3727C262.546 72.204 262.451 71.9751 262.451 71.7365C262.451 71.4979 262.546 71.2691 262.715 71.1004C262.883 70.9317 263.112 70.8369 263.351 70.8369H284.582C284.82 70.8369 285.049 70.9317 285.218 71.1004C285.387 71.2691 285.481 71.4979 285.481 71.7365C285.481 71.9751 285.387 72.204 285.218 72.3727C285.049 72.5414 284.82 72.6362 284.582 72.6362Z" fill="#F2F2F2"/>
<path d="M284.582 82.352H263.351C263.232 82.3522 263.115 82.3291 263.006 82.284C262.897 82.2389 262.797 82.1727 262.713 82.0892C262.63 82.0056 262.563 81.9063 262.518 81.7971C262.473 81.6878 262.449 81.5707 262.449 81.4524C262.449 81.3341 262.473 81.2169 262.518 81.1076C262.563 80.9984 262.63 80.8991 262.713 80.8156C262.797 80.732 262.897 80.6658 263.006 80.6207C263.115 80.5756 263.232 80.5525 263.351 80.5527H284.582C284.7 80.5525 284.817 80.5756 284.927 80.6207C285.036 80.6658 285.135 80.732 285.219 80.8156C285.303 80.8991 285.369 80.9984 285.415 81.1076C285.46 81.2169 285.483 81.3341 285.483 81.4524C285.483 81.5707 285.46 81.6878 285.415 81.7971C285.369 81.9063 285.303 82.0056 285.219 82.0892C285.135 82.1727 285.036 82.2389 284.927 82.284C284.817 82.3291 284.7 82.3522 284.582 82.352Z" fill="#F2F2F2"/>
<path d="M320.206 82.352H298.976C298.737 82.3515 298.509 82.2565 298.341 82.0878C298.172 81.9192 298.078 81.6906 298.078 81.4524C298.078 81.2141 298.172 80.9856 298.341 80.8169C298.509 80.6482 298.737 80.5532 298.976 80.5527H320.206C320.325 80.5525 320.442 80.5756 320.551 80.6207C320.661 80.6658 320.76 80.732 320.844 80.8156C320.928 80.8991 320.994 80.9984 321.039 81.1076C321.085 81.2169 321.108 81.3341 321.108 81.4524C321.108 81.5707 321.085 81.6878 321.039 81.7971C320.994 81.9063 320.928 82.0056 320.844 82.0892C320.76 82.1727 320.661 82.2389 320.551 82.284C320.442 82.3291 320.325 82.3522 320.206 82.352Z" fill="#F2F2F2"/>
<path d="M197.139 52.8447H175.908C175.669 52.8447 175.441 52.7499 175.272 52.5812C175.103 52.4125 175.008 52.1836 175.008 51.945C175.008 51.7064 175.103 51.4776 175.272 51.3089C175.441 51.1402 175.669 51.0454 175.908 51.0454H197.139C197.377 51.0454 197.606 51.1402 197.775 51.3089C197.944 51.4776 198.038 51.7064 198.038 51.945C198.038 52.1836 197.944 52.4125 197.775 52.5812C197.606 52.7499 197.377 52.8447 197.139 52.8447Z" fill="#F2F2F2"/>
<path d="M250.306 188.687H176.178C175.939 188.687 175.71 188.592 175.542 188.423C175.373 188.254 175.278 188.026 175.278 187.787C175.278 187.548 175.373 187.32 175.542 187.151C175.71 186.982 175.939 186.887 176.178 186.887H250.306C250.545 186.887 250.774 186.982 250.942 187.151C251.111 187.32 251.206 187.548 251.206 187.787C251.206 188.026 251.111 188.254 250.942 188.423C250.774 188.592 250.545 188.687 250.306 188.687Z" fill="#F2F2F2"/>
<path d="M249.946 208.478H175.818C175.579 208.478 175.351 208.384 175.182 208.215C175.013 208.046 174.918 207.817 174.918 207.579C174.918 207.34 175.013 207.111 175.182 206.943C175.351 206.774 175.579 206.679 175.818 206.679H249.946C250.185 206.679 250.414 206.774 250.582 206.943C250.751 207.111 250.846 207.34 250.846 207.579C250.846 207.817 250.751 208.046 250.582 208.215C250.414 208.384 250.185 208.478 249.946 208.478Z" fill="#F2F2F2"/>
<path d="M250.126 218.374H175.998C175.88 218.374 175.762 218.351 175.653 218.306C175.544 218.261 175.444 218.195 175.361 218.111C175.277 218.028 175.21 217.928 175.165 217.819C175.12 217.71 175.096 217.593 175.096 217.474C175.096 217.356 175.12 217.239 175.165 217.13C175.21 217.02 175.277 216.921 175.361 216.838C175.444 216.754 175.544 216.688 175.653 216.643C175.762 216.598 175.88 216.574 175.998 216.575H250.126C250.245 216.574 250.362 216.598 250.471 216.643C250.581 216.688 250.68 216.754 250.764 216.838C250.847 216.921 250.914 217.02 250.959 217.13C251.005 217.239 251.028 217.356 251.028 217.474C251.028 217.593 251.005 217.71 250.959 217.819C250.914 217.928 250.847 218.028 250.764 218.111C250.68 218.195 250.581 218.261 250.471 218.306C250.362 218.351 250.245 218.374 250.126 218.374Z" fill="#F2F2F2"/>
<path d="M281.793 208.658H260.562C260.323 208.658 260.094 208.563 259.926 208.395C259.757 208.226 259.662 207.997 259.662 207.759C259.662 207.52 259.757 207.291 259.926 207.122C260.094 206.954 260.323 206.859 260.562 206.859H281.793C282.031 206.859 282.26 206.954 282.429 207.122C282.598 207.291 282.692 207.52 282.692 207.759C282.692 207.997 282.598 208.226 282.429 208.395C282.26 208.563 282.031 208.658 281.793 208.658Z" fill="#F2F2F2"/>
<path d="M281.793 218.374H260.562C260.323 218.374 260.094 218.279 259.926 218.11C259.757 217.942 259.662 217.713 259.662 217.474C259.662 217.236 259.757 217.007 259.926 216.838C260.094 216.669 260.323 216.575 260.562 216.575H281.793C282.031 216.575 282.26 216.669 282.429 216.838C282.598 217.007 282.692 217.236 282.692 217.474C282.692 217.713 282.598 217.942 282.429 218.11C282.26 218.279 282.031 218.374 281.793 218.374Z" fill="#F2F2F2"/>
<path d="M317.418 208.658H296.187C295.948 208.658 295.719 208.563 295.551 208.395C295.382 208.226 295.287 207.997 295.287 207.759C295.287 207.52 295.382 207.291 295.551 207.122C295.719 206.954 295.948 206.859 296.187 206.859H317.418C317.656 206.859 317.885 206.954 318.054 207.122C318.223 207.291 318.317 207.52 318.317 207.759C318.317 207.997 318.223 208.226 318.054 208.395C317.885 208.563 317.656 208.658 317.418 208.658Z" fill="#F2F2F2"/>
<path d="M331.452 198.582H214.861C214.623 198.582 214.394 198.488 214.225 198.319C214.057 198.15 213.962 197.921 213.962 197.683C213.962 197.444 214.057 197.215 214.225 197.047C214.394 196.878 214.623 196.783 214.861 196.783H331.452C331.69 196.783 331.919 196.878 332.088 197.047C332.257 197.215 332.351 197.444 332.351 197.683C332.351 197.921 332.257 198.15 332.088 198.319C331.919 198.488 331.69 198.582 331.452 198.582Z" fill="#F2F2F2"/>
<path d="M197.229 198.582H175.998C175.759 198.582 175.53 198.488 175.362 198.319C175.193 198.15 175.098 197.921 175.098 197.683C175.098 197.444 175.193 197.215 175.362 197.047C175.53 196.878 175.759 196.783 175.998 196.783H197.229C197.467 196.783 197.696 196.878 197.865 197.047C198.034 197.215 198.128 197.444 198.128 197.683C198.128 197.921 198.034 198.15 197.865 198.319C197.696 198.488 197.467 198.582 197.229 198.582Z" fill="#F2F2F2"/>
<path d="M331.452 228.45H214.861C214.743 228.45 214.626 228.427 214.517 228.382C214.407 228.337 214.308 228.271 214.224 228.187C214.14 228.103 214.074 228.004 214.029 227.895C213.983 227.786 213.96 227.669 213.96 227.55C213.96 227.432 213.983 227.315 214.029 227.206C214.074 227.096 214.14 226.997 214.224 226.913C214.308 226.83 214.407 226.764 214.517 226.719C214.626 226.673 214.743 226.65 214.861 226.651H331.452C331.69 226.651 331.919 226.745 332.088 226.914C332.257 227.083 332.351 227.312 332.351 227.55C332.351 227.789 332.257 228.018 332.088 228.186C331.919 228.355 331.69 228.45 331.452 228.45Z" fill="#F2F2F2"/>
<path d="M197.229 228.45H175.998C175.88 228.45 175.762 228.427 175.653 228.382C175.544 228.337 175.444 228.271 175.361 228.187C175.277 228.103 175.21 228.004 175.165 227.895C175.12 227.786 175.096 227.669 175.096 227.55C175.096 227.432 175.12 227.315 175.165 227.206C175.21 227.096 175.277 226.997 175.361 226.913C175.444 226.83 175.544 226.764 175.653 226.719C175.762 226.673 175.88 226.65 175.998 226.651H197.229C197.347 226.65 197.464 226.673 197.574 226.719C197.683 226.764 197.783 226.83 197.866 226.913C197.95 226.997 198.016 227.096 198.062 227.206C198.107 227.315 198.13 227.432 198.13 227.55C198.13 227.669 198.107 227.786 198.062 227.895C198.016 228.004 197.95 228.103 197.866 228.187C197.783 228.271 197.683 228.337 197.574 228.382C197.464 228.427 197.347 228.45 197.229 228.45Z" fill="#F2F2F2"/>
<path d="M232.404 106.282L203.616 134.71L232.404 163.138L238.881 156.661L217.111 134.89L239.061 112.939L232.404 106.282Z" fill="#F16529"/>
<path d="M274.866 106.282L303.654 134.71L274.866 163.138L268.389 156.661L290.159 134.89L268.209 112.939L274.866 106.282Z" fill="#F16529"/>
<path d="M111.386 20.3213C113.372 20.3213 114.982 18.7112 114.982 16.7251C114.982 14.739 113.372 13.1289 111.386 13.1289C109.4 13.1289 107.79 14.739 107.79 16.7251C107.79 18.7112 109.4 20.3213 111.386 20.3213Z" fill="#F16529"/>
<path d="M120.976 20.3213C122.962 20.3213 124.572 18.7112 124.572 16.7251C124.572 14.739 122.962 13.1289 120.976 13.1289C118.989 13.1289 117.379 14.739 117.379 16.7251C117.379 18.7112 118.989 20.3213 120.976 20.3213Z" fill="#F16529"/>
<path d="M130.565 20.3213C132.552 20.3213 134.162 18.7112 134.162 16.7251C134.162 14.739 132.552 13.1289 130.565 13.1289C128.579 13.1289 126.969 14.739 126.969 16.7251C126.969 18.7112 128.579 20.3213 130.565 20.3213Z" fill="#F16529"/>
<path opacity="0.1" d="M403.875 22.7188H103.394V23.9175H403.875V22.7188Z" fill="black"/>
<path d="M475 188.724C475 214.205 459.852 223.103 441.165 223.103C422.479 223.103 407.331 214.205 407.331 188.724C407.331 163.243 441.165 130.826 441.165 130.826C441.165 130.826 475 163.243 475 188.724Z" fill="#F2F2F2"/>
<path d="M439.933 219.204L440.279 197.879L454.701 171.496L440.334 194.533L440.49 184.944L450.428 165.857L440.531 182.407L440.811 165.161L451.454 149.965L440.855 162.449L441.03 130.826L439.93 172.689L440.02 170.962L429.2 154.4L439.847 174.278L438.839 193.538L438.809 193.027L426.334 175.597L438.771 194.833L438.645 197.242L438.622 197.278L438.632 197.476L436.074 246.342H439.492L439.902 221.102L452.308 201.913L439.933 219.204Z" fill="#3F3D56"/>
<path d="M73.9966 246.118C72.9585 246.696 71.8635 247.165 70.7289 247.518C68.6995 248.072 66.5305 247.869 64.4806 248.342C63.6414 248.536 62.728 248.941 62.4611 249.76C62.2653 250.361 62.4783 251.009 62.6822 251.607C64.9472 258.248 66.3124 265.299 69.9246 271.315C71.4427 273.841 73.3269 276.129 75.5158 278.102C76.3369 278.843 77.2675 279.567 78.3669 279.683C78.8736 279.736 79.3854 279.655 79.8506 279.448C80.3159 279.24 80.7183 278.914 81.017 278.501C81.3157 278.088 81.5003 277.604 81.5521 277.097C81.6039 276.59 81.5211 276.079 81.312 275.614C80.9881 274.895 80.3861 274.337 79.9978 273.65C79.5768 272.775 79.3298 271.826 79.2708 270.857C78.9139 268.016 78.5701 265.048 79.5542 262.36C80.2143 260.557 81.4251 259.02 82.4338 257.386C83.4424 255.752 84.2805 253.881 84.056 251.974C83.9029 250.673 83.2681 249.482 82.5976 248.356C81.9257 247.229 80.5978 244.197 79.248 243.821C77.8468 243.43 75.2186 245.492 73.9966 246.118Z" fill="#2F2E41"/>
<path d="M110.931 269.057C110.953 269.7 110.863 270.341 110.666 270.953C110.244 272.069 109.196 272.834 108.654 273.897C107.901 275.376 108.242 277.163 108.741 278.746C109.054 279.738 109.464 280.77 110.305 281.384C111.023 281.829 111.84 282.091 112.684 282.146C119.89 283.143 127.211 282.571 134.484 282.78C135.809 282.818 137.213 282.865 138.37 282.217C139.527 281.569 140.242 279.941 139.455 278.873C138.749 277.915 137.351 277.924 136.162 277.867C133.065 277.71 130.115 276.495 127.806 274.425C127.35 274.036 126.955 273.581 126.634 273.076C126.386 272.627 126.181 272.157 126.02 271.67C125.001 268.909 123.788 266.222 122.391 263.631C122 262.906 121.557 262.151 120.83 261.763C120.298 261.521 119.721 261.395 119.136 261.393C117.324 261.275 112.63 260.659 111.228 262.068C109.933 263.37 110.96 267.403 110.931 269.057Z" fill="#2F2E41"/>
<path d="M122.085 108.106C128.479 108.106 133.663 102.923 133.663 96.5284C133.663 90.1342 128.479 84.9507 122.085 84.9507C115.691 84.9507 110.508 90.1342 110.508 96.5284C110.508 102.923 115.691 108.106 122.085 108.106Z" fill="#FBBEBE"/>
<path d="M111.63 106.088C110.942 107.932 109.774 109.663 108.074 110.656L124.087 113.922C123.506 111.585 123.43 109.151 123.862 106.782C124.021 106.208 124.054 105.607 123.958 105.02C123.657 103.858 122.349 103.299 121.179 103.032C118.257 102.366 115.672 102.009 112.956 100.718C112.126 102.139 112.242 104.45 111.63 106.088Z" fill="#FBBEBE"/>
<path d="M107.94 106.321C109.663 105.541 111.54 105.162 113.43 105.211C115.32 105.261 117.174 105.737 118.854 106.606C120.907 107.688 122.607 109.321 124.277 110.932C125.816 112.417 127.458 114.117 127.568 116.254C127.621 117.289 127.298 118.301 127.134 119.324C126.841 121.44 127.214 123.595 128.2 125.491C129.187 127.386 130.739 128.927 132.641 129.901C133.913 132.02 134.175 134.587 134.195 137.059C134.269 146.423 131.314 155.903 133.423 165.027C133.919 167.169 134.687 169.244 135.115 171.401C135.669 174.194 135.641 177.067 135.931 179.9C136.246 182.968 136.932 185.986 137.974 188.888C137.277 189.997 135.827 190.422 134.521 190.332C133.215 190.242 131.994 189.675 130.828 189.079C125.185 186.191 120.016 182.383 114.171 179.929C110.304 178.305 106.185 177.294 102.433 175.418C98.6818 173.543 95.1929 170.567 94.0459 166.533C93.5499 164.788 93.5194 162.95 93.4923 161.137C93.3783 153.5 93.2724 145.779 94.9348 138.324C96.4009 131.749 99.2268 125.46 99.8434 118.752C100.044 116.569 100.048 114.231 101.268 112.41C102.992 109.834 106.715 109.168 107.94 106.321Z" fill="#2F2E41"/>
<path d="M115.501 96.6919C116.183 95.8022 117.499 95.6808 118.588 95.944C119.678 96.2072 120.683 96.7689 121.784 96.9823C122.034 97.0534 122.297 97.0714 122.554 97.0352C122.812 96.999 123.059 96.9095 123.28 96.7723C123.665 96.3933 123.895 95.8848 123.925 95.3457C124.311 93.0517 124.401 90.7177 124.193 88.4009C124.136 88.0758 124.158 87.7418 124.257 87.4269C124.529 86.7702 125.361 86.6139 126.04 86.4033C127.16 86.0246 128.122 85.2835 128.774 84.2971C129.427 83.3106 129.731 82.1349 129.641 80.9558C129.624 80.3903 129.386 79.8538 128.979 79.4612C128.509 79.0786 127.852 79.055 127.246 79.0502C124.134 79.0252 121.022 79.0259 117.91 79.0524C116.758 79.0622 115.548 79.0906 114.55 79.6649C113.811 80.0895 113.262 80.7729 112.599 81.3078C110.871 82.7027 108.533 82.9866 106.43 83.7015C105.403 83.9939 104.471 84.5498 103.725 85.3141C103.026 86.1131 102.69 87.3012 103.129 88.2679C103.354 88.6709 103.606 89.0585 103.883 89.4283C105.123 91.4118 104.298 93.9847 104.483 96.3168C104.714 99.2291 109.024 103.953 111.946 104.643C116.665 105.755 113.939 98.6036 115.501 96.6919Z" fill="#2F2E41"/>
<path d="M108.965 224.378C109.262 226.504 109.644 228.638 109.542 230.783C109.4 233.777 108.32 236.662 108.12 239.653C107.971 241.887 108.316 244.145 108.006 246.362C107.807 247.782 107.344 249.151 107.057 250.556C106.603 252.845 106.616 255.202 107.095 257.486C107.574 259.77 108.509 261.934 109.844 263.848C110.04 264.175 110.319 264.445 110.652 264.631C110.972 264.75 111.315 264.795 111.654 264.764C115.024 264.695 118.385 264.39 121.712 263.85C121.955 263.84 122.186 263.738 122.357 263.565C122.432 263.45 122.48 263.32 122.498 263.184C123.115 260.013 121.708 256.833 121.35 253.622C120.968 250.194 121.791 246.759 122.607 243.407C122.977 241.754 123.44 240.123 123.993 238.521C124.387 237.444 124.864 236.395 125.206 235.3C125.691 233.579 125.986 231.81 126.086 230.024C126.323 227.207 126.449 224.384 126.463 221.554C126.544 218.872 126.321 216.19 125.798 213.558C125.048 210.227 123.511 207.133 121.988 204.076C121.173 204.271 120.409 204.635 119.743 205.143C117.78 206.414 115.731 207.547 113.61 208.532C112.184 209.194 109.405 209.664 108.501 211.043C107.609 212.404 108.184 215.179 108.252 216.68C108.369 219.255 108.607 221.821 108.965 224.378Z" fill="#2F2E41"/>
<path opacity="0.1" d="M108.965 224.378C109.262 226.504 109.644 228.638 109.542 230.783C109.4 233.777 108.32 236.662 108.12 239.653C107.971 241.887 108.316 244.145 108.006 246.362C107.807 247.782 107.344 249.151 107.057 250.556C106.603 252.845 106.616 255.202 107.095 257.486C107.574 259.77 108.509 261.934 109.844 263.848C110.04 264.175 110.319 264.445 110.652 264.631C110.972 264.75 111.315 264.795 111.654 264.764C115.024 264.695 118.385 264.39 121.712 263.85C121.955 263.84 122.186 263.738 122.357 263.565C122.432 263.45 122.48 263.32 122.498 263.184C123.115 260.013 121.708 256.833 121.35 253.622C120.968 250.194 121.791 246.759 122.607 243.407C122.977 241.754 123.44 240.123 123.993 238.521C124.387 237.444 124.864 236.395 125.206 235.3C125.691 233.579 125.986 231.81 126.086 230.024C126.323 227.207 126.449 224.384 126.463 221.554C126.544 218.872 126.321 216.19 125.798 213.558C125.048 210.227 123.511 207.133 121.988 204.076C121.173 204.271 120.409 204.635 119.743 205.143C117.78 206.414 115.731 207.547 113.61 208.532C112.184 209.194 109.405 209.664 108.501 211.043C107.609 212.404 108.184 215.179 108.252 216.68C108.369 219.255 108.607 221.821 108.965 224.378Z" fill="black"/>
<path d="M93.312 178.96C91.7745 183.099 94.0345 187.572 95.998 191.527C100.835 201.272 104.194 211.669 107.535 222.022C107.786 222.798 108.036 223.644 107.757 224.409C107.516 224.953 107.125 225.417 106.629 225.747C104.326 227.496 101.392 228.12 98.6479 229.035C95.9958 229.92 93.4557 231.111 91.0789 232.583C89.0903 233.815 87.2274 235.238 85.3682 236.658L79.4497 241.178C79.0665 241.437 78.7317 241.761 78.4604 242.136C77.8896 243.031 78.1234 244.2 78.4076 245.224C79.1602 247.933 80.1293 250.578 81.3054 253.132C81.4989 253.692 81.8673 254.175 82.3562 254.509C83.28 255.006 84.41 254.348 85.1154 253.571C85.8208 252.795 86.431 251.83 87.4254 251.497C88.4186 251.164 89.5118 251.567 90.5491 251.421C92.2268 251.186 93.3406 249.64 94.55 248.454C99.4909 243.606 107.74 243.958 113.175 239.672C113.961 238.969 114.793 238.319 115.665 237.727C116.584 237.184 117.626 236.886 118.579 236.406C121.479 234.946 123.302 231.927 124.278 228.831C125.255 225.735 125.533 222.467 126.235 219.297C126.597 217.658 127.075 216.037 127.236 214.367C127.34 212.813 127.306 211.253 127.135 209.705L125.174 185.445C125.014 183.47 124.854 181.492 124.544 179.535C118.72 179.743 112.9 179.978 107.072 180.046C102.435 180.101 97.712 180.425 93.312 178.96Z" fill="#2F2E41"/>
<path d="M91.1708 184.635C91.9609 185.906 93.884 185.88 95.2082 185.183C96.5324 184.486 97.5612 183.316 98.8886 182.625C100.672 181.697 102.783 181.732 104.793 181.789C107.975 181.879 111.196 181.974 114.258 182.846C117.424 183.748 120.507 185.485 123.781 185.138C124.351 185.078 124.974 184.915 125.284 184.433C125.466 184.084 125.551 183.693 125.531 183.3L125.638 180.439C125.704 179.945 125.625 179.441 125.411 178.991C125.136 178.616 124.759 178.327 124.326 178.16C119.665 175.904 114.35 175.484 109.176 175.306C106.545 175.216 103.914 175.179 101.281 175.195C99.0469 175.209 96.365 174.886 94.193 175.482C91.278 176.284 89.6919 182.257 91.1708 184.635Z" fill="#2F2E41"/>
<path d="M120.434 109.716C114.328 109.662 108.794 105.632 102.689 105.533C101.951 105.482 101.212 105.61 100.534 105.905C99.683 106.334 99.1236 107.163 98.4773 107.862C96.6719 109.818 94.0575 110.861 92.2027 112.77C90.4636 114.559 89.4965 117.225 90.183 119.624C90.8696 122.023 93.461 123.863 95.8886 123.286C96.8667 120.12 98.8853 117.377 101.617 115.502C103.039 114.591 104.537 113.804 106.095 113.152C108.839 111.909 111.908 110.642 114.773 111.574C115.829 111.973 116.825 112.516 117.733 113.188L122.51 116.397C121.953 114.201 121.453 111.739 120.434 109.716Z" fill="#F16529"/>
<path d="M95.1852 121.164C94.3744 122.175 95.5424 123.641 95.3637 124.925C95.2449 125.778 94.5428 126.43 94.2504 127.24C93.9476 128.079 94.1082 129.009 93.9933 129.894C93.8781 130.537 93.7076 131.169 93.4838 131.783C92.9694 133.618 92.6103 135.493 92.4104 137.388L91.3416 145.37C91.1561 146.571 91.0432 147.782 91.0036 148.997C91.0574 149.905 90.9967 150.816 90.8229 151.709C90.5862 152.581 90.0622 153.344 89.7096 154.176C89.3571 155.008 89.1937 156.015 89.6699 156.783C88.075 158.112 87.6008 160.721 88.716 162.471C88.9283 162.744 89.0943 163.05 89.2075 163.376C89.2692 163.833 89.1938 164.297 88.9911 164.711L87.9103 167.591C87.6337 168.328 87.5462 169.45 88.3153 169.618C87.6782 170.28 87.1819 171.064 86.8563 171.922C86.6984 172.354 86.6512 172.818 86.7191 173.272C86.7869 173.726 86.9677 174.156 87.2449 174.522C87.5134 174.758 87.742 175.035 87.9219 175.344C88.0276 175.774 88.0003 176.225 87.8437 176.639C87.6821 177.268 87.6509 177.924 87.7521 178.565C87.8534 179.206 88.0848 179.82 88.4322 180.369C88.7922 180.91 89.3021 181.335 89.8995 181.591C90.4969 181.847 91.1559 181.923 91.7961 181.811C93.958 181.323 95.9006 180.553 98.0804 180.953C102.774 181.815 107.482 182.68 112.028 184.131C117.216 185.787 122.24 188.216 127.662 188.726C128.019 188.799 128.39 188.741 128.707 188.564C128.984 188.302 129.155 187.948 129.191 187.57C129.749 184.95 130.308 182.331 130.867 179.712C131.542 176.809 132.056 173.87 132.407 170.91C132.598 169 132.652 167.079 132.707 165.159L133.138 149.883C133.341 147.632 133.041 145.364 132.259 143.242L129.775 135.311C128.357 130.786 125.105 126.772 123.947 122.173C123.214 119.262 122.673 116.138 120.707 113.869C117.905 110.635 113.057 110.132 108.814 110.688C106.897 110.939 104.964 111.372 103.306 112.367C101.389 113.516 99.9764 115.327 98.6099 117.096C97.4838 118.554 96.3375 119.726 95.1852 121.164Z" fill="#F16529"/>
<path d="M105.093 166.096C105.442 167.603 106.176 168.993 106.626 170.474C107.379 172.955 107.315 175.627 108.066 178.108C108.382 179.15 108.839 180.15 109.065 181.214C109.593 183.696 108.822 186.263 107.865 188.613C106.908 190.962 105.742 193.279 105.431 195.797C105.212 197.57 105.527 199.573 106.894 200.724C108.313 201.919 110.375 201.838 112.224 201.679C112.887 201.66 113.542 201.524 114.158 201.276C115.572 200.607 116.167 198.934 116.497 197.406C117.605 192.284 117.288 186.975 116.967 181.744L116.125 168.065C115.963 165.431 115.789 162.743 114.978 160.215C114.683 159.295 114.168 157.436 113.328 156.849C112.496 156.267 110.119 156.241 109.089 156.193C104.255 155.966 104.309 162.713 105.093 166.096Z" fill="#FBBEBE"/>
<path d="M110.449 115.589C109.461 115.072 108.218 115.295 107.263 115.871C106.342 116.502 105.535 117.285 104.877 118.188C102.744 120.792 100.485 123.78 100.802 127.131C100.92 128.387 101.402 129.577 101.728 130.796C103.158 136.142 101.576 141.796 101.758 147.328C101.863 150.524 102.558 153.667 103.251 156.789C103.392 157.426 103.619 158.164 104.235 158.378C104.698 158.54 105.198 158.332 105.656 158.158C107.363 157.527 109.197 157.317 111.003 157.544C112.809 157.772 114.533 158.431 116.031 159.466C117.175 158.855 116.746 156.923 116.49 155.651C115.727 151.872 116.762 147.974 118.019 144.329C119.277 140.685 120.781 137.045 120.989 133.195C121.225 128.834 119.779 124.576 118.352 120.448C118.04 119.547 117.7 118.602 116.978 117.979C116.36 117.519 115.651 117.196 114.899 117.029C113.383 116.581 111.849 116.322 110.449 115.589Z" fill="#2F2E41"/>
</svg>
