<svg width="500" height="288" viewBox="0 0 500 288" fill="none" xmlns="http://www.w3.org/2000/svg">
<g clip-path="url(#clip0)">
<path opacity="0.3" d="M349.08 28.0225H320.429V38.6926H349.08V28.0225Z" fill="#F7DF1E"/>
<path opacity="0.3" d="M396.701 9.84375H368.049V20.5139H396.701V9.84375Z" fill="#F7DF1E"/>
<path opacity="0.3" d="M398.677 42.8423H370.025V53.5125H398.677V42.8423Z" fill="#F7DF1E"/>
<path opacity="0.3" d="M306.992 55.0933H278.341V65.7634H306.992V55.0933Z" fill="#F7DF1E"/>
<path d="M368.049 15.1116L349.08 33.1105L370.025 48.1774" stroke="#3F3D56" stroke-miterlimit="10"/>
<path d="M320.429 33.1106L292.667 55.0931" stroke="#3F3D56" stroke-miterlimit="10"/>
<path opacity="0.3" d="M155.829 39.0149H127.177V49.6851H155.829V39.0149Z" fill="#F7DF1E"/>
<path opacity="0.3" d="M203.449 20.8359H174.798V31.5061H203.449V20.8359Z" fill="#F7DF1E"/>
<path opacity="0.3" d="M205.425 53.8345H176.774V64.5046H205.425V53.8345Z" fill="#F7DF1E"/>
<path opacity="0.3" d="M113.741 66.0854H85.0894V76.7556H113.741V66.0854Z" fill="#F7DF1E"/>
<path opacity="0.3" d="M104.651 109.952H76V120.622H104.651V109.952Z" fill="#F7DF1E"/>
<path opacity="0.3" d="M147.925 108.964H119.273V119.634H147.925V108.964Z" fill="#F7DF1E"/>
<path d="M174.798 26.104L155.829 44.103L176.774 59.1699" stroke="#3F3D56" stroke-miterlimit="10"/>
<path d="M127.177 44.103L99.415 66.0856" stroke="#3F3D56" stroke-miterlimit="10"/>
<path d="M90.3257 109.943L99.4149 76.7556L133.599 108.964" stroke="#3F3D56" stroke-miterlimit="10"/>
<path d="M205.425 59.1697H237.918" stroke="#3F3D56" stroke-miterlimit="10"/>
<path d="M257.018 53.7087H223.332V64.3464H257.018V53.7087Z" fill="#F7DF1E"/>
<path d="M257.062 59.0273H278.341" stroke="#3F3D56" stroke-miterlimit="10"/>
<path d="M223.171 59.0276L203.449 26.104" stroke="#3F3D56" stroke-miterlimit="10"/>
<path d="M294.022 288C380.189 288 450.041 272.442 450.041 253.25C450.041 234.059 380.189 218.5 294.022 218.5C207.854 218.5 138.002 234.059 138.002 253.25C138.002 272.442 207.854 288 294.022 288Z" fill="#F2F2F2"/>
<path d="M366.352 138.861L351.138 215.088H347.845L347.482 214.525L346.433 212.892L359.608 141.684L361.608 140.847L366.352 138.861Z" fill="#47465A"/>
<path opacity="0.1" d="M361.608 140.847L347.482 214.525L346.433 212.892L359.608 141.684L361.608 140.847Z" fill="black"/>
<path d="M389.252 242.693L385.34 243.953L384.389 244.261L383.135 241.438L361.608 143.24L363.846 142.738L368.548 141.684L389.252 242.693Z" fill="#47465A"/>
<path opacity="0.1" d="M385.34 243.953L384.389 244.261L383.135 241.438L361.608 143.24L363.846 142.738L385.34 243.953Z" fill="black"/>
<path d="M202.763 138.861L199.312 237.673L195.358 238.552L195.078 238.615L193.979 236.576L196.175 139.802L198.288 139.501L202.763 138.861Z" fill="#47465A"/>
<path opacity="0.1" d="M198.288 139.501L195.358 238.552L195.078 238.615L193.979 236.576L196.175 139.802L198.288 139.501Z" fill="black"/>
<path d="M223.31 272.65L219.219 273.356L218.761 273.434L217.506 270.768L197.587 141.684L198.161 141.51L201.195 140.586L223.31 272.65Z" fill="#47465A"/>
<path opacity="0.1" d="M219.219 273.356L218.761 273.434L217.506 270.768L197.587 141.684L198.161 141.51L219.219 273.356Z" fill="black"/>
<path d="M309.888 130.862L325.118 150.323C325.64 150.99 326.325 151.511 327.107 151.837C327.888 152.163 328.741 152.283 329.582 152.184L392.102 144.862C393.305 144.721 394.413 144.144 395.218 143.239C396.022 142.335 396.467 141.167 396.467 139.957V125.529L309.888 130.862Z" fill="#7A799C"/>
<path d="M361.176 133.999H365.411V140.111C365.411 140.528 365.245 140.928 364.95 141.223C364.655 141.518 364.255 141.684 363.838 141.684H362.75C362.333 141.684 361.932 141.518 361.637 141.223C361.342 140.928 361.176 140.528 361.176 140.111V133.999Z" fill="#47465A"/>
<path d="M197.587 143.253L212.817 162.713C213.339 163.38 214.024 163.902 214.805 164.228C215.587 164.554 216.439 164.673 217.281 164.575L279.801 157.252C281.003 157.112 282.112 156.534 282.916 155.63C283.721 154.726 284.165 153.558 284.165 152.347V137.92L197.587 143.253Z" fill="#7A799C"/>
<path d="M248.875 146.39H253.11V152.502C253.11 152.919 252.944 153.319 252.649 153.614C252.354 153.909 251.954 154.075 251.537 154.075H250.449C250.031 154.075 249.631 153.909 249.336 153.614C249.041 153.319 248.875 152.919 248.875 152.502V146.39H248.875Z" fill="#47465A"/>
<path d="M215.085 153.109L401.052 131.447C401.637 131.379 402.183 131.124 402.612 130.721C403.04 130.317 403.326 129.787 403.429 129.207C403.531 128.628 403.445 128.031 403.181 127.506C402.918 126.98 402.492 126.553 401.966 126.288L368.7 109.558C362.148 106.263 354.791 104.907 347.495 105.651L182.276 122.498C181.686 122.559 181.124 122.786 180.656 123.152C180.189 123.518 179.833 124.009 179.631 124.567C179.429 125.126 179.389 125.73 179.514 126.311C179.64 126.891 179.926 127.425 180.341 127.85L199.58 147.59C201.572 149.633 204.004 151.192 206.692 152.149C209.379 153.106 212.25 153.434 215.085 153.109Z" fill="#47465A"/>
<path d="M421.512 128.511L419.523 127.411C419.523 127.411 417.375 128.992 415.626 135.652C413.876 142.312 418.895 135.724 418.895 135.724L421.091 131.176L421.512 128.511Z" fill="#47465A"/>
<path d="M400.231 189.522C400.231 189.522 398.192 199.09 397.251 201.756C396.79 203.061 394.562 204.254 392.094 205.167C389.905 205.983 387.639 206.574 385.331 206.932C382.664 207.246 348.472 201.913 331.846 198.305C320.646 195.876 319.198 193.089 319.446 191.53C319.526 191.065 319.749 190.638 320.083 190.306C320.083 190.306 336.552 179.17 342.355 173.837C348.158 168.505 359.608 172.74 372.156 174.935C384.703 177.131 400.231 189.522 400.231 189.522Z" fill="#47465A"/>
<path d="M419.523 127.411C419.523 127.411 427.208 132.43 401.329 142.782C401.329 142.782 387.263 150.713 389.094 183.384C389.18 184.853 389.628 186.278 390.396 187.533C393.066 191.925 398.788 203.042 389.252 204.422V206.932C389.252 206.932 406.505 198.305 408.387 190.934C410.269 183.562 416.543 142.625 419.68 138.861C422.817 135.097 424.856 129.137 419.523 127.411Z" fill="#47465A"/>
<path opacity="0.1" d="M392.094 205.167C389.905 205.983 387.639 206.574 385.331 206.932C382.664 207.246 348.472 201.913 331.846 198.306C320.646 195.876 319.198 193.089 319.446 191.53C326.809 194.047 350.715 202.037 359.294 202.697C369.489 203.481 388.966 205.662 390.442 204.179C391.01 203.608 391.592 204.211 392.094 205.167Z" fill="black"/>
<path d="M302.516 270.454L317.417 202.383C317.417 202.383 320.083 195.168 326.2 195.482L331.846 198.305C331.846 198.305 322.436 196.11 320.397 203.324C318.358 210.539 305.34 270.454 305.34 270.454H302.516Z" fill="#47465A"/>
<path d="M338.277 239.399L344.237 197.835H346.904L340.787 239.399H338.277Z" fill="#47465A"/>
<path d="M395.369 280.022L389.722 215.088C389.722 215.088 389.722 209.598 392.545 206.932C395.369 204.266 404.483 196.659 404.483 196.659C404.483 196.659 406.818 196.11 408.7 201.442C410.583 206.775 423.601 260.102 423.601 260.102L421.091 261.2L404.936 199.717L393.8 210.226C393.8 210.226 391.604 214.147 392.702 217.754C393.8 221.362 397.878 280.022 397.878 280.022H395.369Z" fill="#47465A"/>
<path d="M377.959 205.364L392.075 209.441L395.212 206.461L387.056 205.364H377.959Z" fill="#47465A"/>
<path d="M252.468 90.8828L254.757 125.216L304.791 120.353L302.8 86.7916C302.773 86.3421 302.657 85.9025 302.458 85.4986C302.258 85.0948 301.98 84.7348 301.64 84.44C301.3 84.1452 300.904 83.9215 300.476 83.782C300.048 83.6425 299.596 83.5901 299.147 83.6278L255.553 87.2946C254.671 87.3688 253.854 87.7864 253.277 88.4576C252.7 89.1287 252.409 89.9997 252.468 90.8828Z" fill="#7A799C"/>
<path d="M321.573 130.234L271.696 135.676L269.814 135.881L255.228 126.47V124.431L304.79 119.968L321.573 130.234Z" fill="#7A799C"/>
<path opacity="0.1" d="M271.696 135.676L269.814 135.881L255.228 126.471V124.645L271.696 135.676Z" fill="black"/>
<path d="M255.855 90.5526L257.58 121.137L301.497 117.06L299.928 87.2588L255.855 90.5526Z" fill="#9493B6"/>
<path opacity="0.1" d="M282.048 129.607L287.381 133.215L303.536 131.646L298.046 128.196L282.048 129.607Z" fill="black"/>
<path d="M260.247 125.216L266.991 130.234L310.124 126.157L302.438 121.137L260.247 125.216Z" fill="#9493B6"/>
<path d="M368.627 78.8679H336.787V110.707H368.627V78.8679Z" fill="#FF6584"/>
<path opacity="0.1" d="M368.627 78.8679H336.787V110.707H368.627V78.8679Z" fill="black"/>
<path d="M347.752 93.6022C347.752 93.6022 352.244 105.767 347.752 108.013C343.261 110.258 363.847 108.013 363.847 108.013L369.648 103.334C369.648 103.334 356.548 99.5909 358.42 90.9822C360.291 82.3734 347.752 93.6022 347.752 93.6022Z" fill="#FBBEBE"/>
<path opacity="0.1" d="M347.752 93.6022C347.752 93.6022 352.244 105.767 347.752 108.013C343.261 110.258 363.847 108.013 363.847 108.013L369.648 103.334C369.648 103.334 356.548 99.5909 358.42 90.9822C360.291 82.3734 347.752 93.6022 347.752 93.6022Z" fill="black"/>
<path d="M310.884 215.622C310.884 215.622 327.727 239.39 324.92 245.94C322.113 252.49 323.61 256.607 317.996 258.853C312.381 261.099 310.884 265.216 315.75 265.029C320.616 264.842 326.979 263.532 327.915 261.847C328.85 260.163 331.096 252.116 334.278 250.993C337.459 249.87 343.448 245.566 339.143 240.325C334.839 235.085 323.993 215.784 324.831 213.832C325.669 211.879 310.884 215.622 310.884 215.622Z" fill="#FBBEBE"/>
<path d="M346.068 168.648C346.068 168.648 311.259 170.894 302.276 179.316C293.293 187.737 310.136 219.178 312.007 219.552C313.879 219.926 328.476 218.429 327.915 214.312C327.353 210.195 317.434 193.352 317.434 193.352C317.434 193.352 330.348 188.673 337.459 187.55C344.571 186.427 352.431 181.187 352.431 181.187L346.068 168.648Z" fill="#9493B6"/>
<path d="M330.16 163.408C330.16 163.408 330.722 184.181 335.962 184.93C341.202 185.678 335.962 169.022 335.962 169.022L335.775 162.659L330.16 163.408Z" fill="#FBBEBE"/>
<path d="M346.068 108.948C346.068 108.948 336.336 106.141 334.465 113.627C332.593 121.113 332.032 146.939 332.032 146.939L328.663 167.525C328.663 167.525 334.839 165.654 336.149 166.59L344.009 156.671L346.068 108.948Z" fill="#F7DF1E"/>
<path opacity="0.1" d="M346.068 108.948C346.068 108.948 336.336 106.141 334.465 113.627C332.593 121.113 332.032 146.939 332.032 146.939L328.663 167.525C328.663 167.525 334.839 165.654 336.149 166.59L344.009 156.671L346.068 108.948Z" fill="black"/>
<path d="M359.365 219.607C359.365 219.607 365.905 232.465 369.835 232.278C373.766 232.091 377.508 229.658 379.38 237.331C381.251 245.004 379.006 242.945 381.251 247.437C383.497 251.928 383.871 259.789 379.567 261.66C375.263 263.532 371.333 263.719 371.146 261.66C370.958 259.601 374.888 259.601 370.397 252.303C365.905 245.004 356.361 231.717 352.431 230.407C348.501 229.097 359.365 219.607 359.365 219.607Z" fill="#FBBEBE"/>
<path d="M376.386 160.975C376.386 160.975 389.86 183.433 381.064 189.983C372.268 196.533 346.068 209.072 346.068 209.072C346.068 209.072 360.104 218.617 360.852 221.798C361.601 224.98 354.115 233.588 351.495 233.775C348.875 233.963 341.202 225.167 332.968 222.921C324.733 220.675 319.68 204.581 328.663 198.592C337.646 192.603 346.068 182.684 346.068 182.684L343.449 168.276L376.386 160.975Z" fill="#9493B6"/>
<path d="M364.705 86.0827C364.705 94.0413 356.553 100.62 348.594 100.62C344.773 100.62 341.107 99.1022 338.405 96.3997C335.702 93.6973 334.184 90.032 334.184 86.2101C334.184 82.3883 335.702 78.7229 338.405 76.0205C341.107 73.318 344.773 71.7998 348.594 71.7998C356.553 71.7998 364.705 78.1241 364.705 86.0827Z" fill="#FBBEBE"/>
<path d="M352.244 106.89C352.244 106.89 365.157 101.276 365.157 100.527C365.157 99.7783 372.643 102.211 374.327 103.708C376.011 105.206 376.947 105.018 378.07 108.013C379.193 111.007 372.456 138.892 372.456 138.892C372.456 138.892 376.198 160.414 378.257 162.472C380.316 164.531 361.601 167.525 361.601 167.525C361.601 167.525 349.249 169.771 347.191 170.707C345.132 171.643 341.389 172.953 342.138 170.707C342.886 168.461 346.068 166.777 340.641 163.97C340.641 163.97 342.512 154.799 340.641 150.682C338.769 146.565 330.16 131.593 337.085 120.739C344.009 109.884 347.191 105.954 347.191 105.954C347.191 105.954 349.624 108.013 352.244 106.89Z" fill="#F7DF1E"/>
<path d="M356.361 157.981C356.361 157.981 341.764 164.455 337.366 165.055C332.968 165.654 319.68 169.023 326.979 172.017C334.278 175.011 345.319 170.52 345.319 170.52L360.852 163.97L356.361 157.981Z" fill="#FBBEBE"/>
<path opacity="0.1" d="M372.077 106.316C372.077 106.316 377.468 103.708 378.965 112.878C380.462 122.049 385.702 151.056 378.965 155.361C372.227 159.665 356.694 166.589 356.694 166.589C356.694 166.589 347.524 160.414 351.828 158.168C356.133 155.922 366.426 149.559 367.923 147.313C369.42 145.068 370.933 120 368.313 115.883C365.693 111.766 372.077 106.316 372.077 106.316Z" fill="black"/>
<path d="M371.707 104.083C371.707 104.083 379.193 103.708 380.69 112.879C382.187 122.049 387.427 151.057 380.69 155.361C373.953 159.665 358.42 166.59 358.42 166.59C358.42 166.59 349.249 160.414 353.554 158.168C357.858 155.922 368.151 149.559 369.648 147.314C371.146 145.068 368.526 121.674 365.906 117.557C363.285 113.44 371.707 104.083 371.707 104.083Z" fill="#F7DF1E"/>
<path d="M345.045 61.9521C342.747 62.2648 340.283 63.1053 339.127 65.1152C338.561 66.0987 338.378 67.2525 337.943 68.3C336.74 71.1909 333.819 72.9172 331.711 75.2317C328.963 78.2481 327.598 82.7936 329.219 86.5384C329.846 87.9885 330.866 89.2308 331.638 90.6089C333.795 94.4537 333.91 99.0713 333.971 103.479L334.092 112.146C334.11 113.469 334.125 114.819 333.726 116.081C333.328 117.343 332.438 118.525 331.176 118.924C332.569 119.407 334.082 119.41 335.477 118.934C336.872 118.458 338.067 117.529 338.873 116.295C339.046 117.387 338.948 118.504 338.588 119.549C338.228 120.594 337.617 121.534 336.809 122.288C340.24 121.48 343.117 118.984 344.93 115.961C346.742 112.938 347.583 109.422 347.96 105.917C348.159 104.063 348.229 102.147 347.643 100.377C347.231 99.1301 346.512 98.0124 345.829 96.8909C344.068 93.9997 342.482 90.9246 341.915 87.5873C341.347 84.2501 341.917 80.5884 344.084 77.9878C344.916 76.9829 345.964 76.1786 347.15 75.6348C348.336 75.0911 349.629 74.822 350.933 74.8474C352.237 74.8978 353.507 75.2821 354.62 75.9635C355.733 76.6449 356.652 77.6006 357.29 78.7392C357.791 79.6815 358.503 80.9587 359.518 80.6276C359.706 80.548 359.889 80.458 360.067 80.3579C361.198 79.8431 362.483 80.8588 362.982 81.9973C364.556 85.5881 361.657 89.5079 361.357 93.4169C361.079 97.0531 363.106 100.482 365.529 103.208C369.715 107.896 375.182 111.255 381.256 112.87C380.367 112.646 379.57 112.151 378.975 111.453C381.444 111.552 383.916 111.345 386.335 110.836C383.702 108.852 381.05 106.85 378.851 104.393C376.653 101.935 374.912 98.962 374.438 95.699C373.801 91.3199 375.432 86.5777 373.568 82.5647C371.863 78.8959 367.635 76.8457 366.091 73.1064C364.522 69.3082 363.505 66.0084 359.353 64.3549C354.82 62.5503 349.942 61.2857 345.045 61.9521Z" fill="#FF6584"/>
</g>
<defs>
<clipPath id="clip0">
<rect width="500" height="288" fill="white"/>
</clipPath>
</defs>
</svg>
