<svg width="100" height="100" viewBox="0 0 100 100" fill="none" xmlns="http://www.w3.org/2000/svg">
<circle cx="50" cy="50" r="50" fill="white"/>
<circle cx="50" cy="50" r="40" fill="#D4B830"/>
<g clip-path="url(#clip0)">
<rect x="33" y="27" width="36" height="42" fill="white"/>
<path d="M29.6389 73.1224L24.9978 22.0032L74.9971 22.0227L70.395 73.0834L49.9585 78.8587L29.6389 73.1224ZM66.6314 70.3323L70.512 26.5493H50.0365L50.1925 74.8394L66.6314 70.3323ZM48.1254 32.9684H43.1528L43.0943 59.1719L33.4415 56.5379L33.461 62.5278L48.1254 66.4886V32.9684Z" fill="#D4B830"/>
<path d="M50.0366 26.5295H70.5122L66.6316 70.3126L50.0366 74.8196V26.5295ZM65.5785 62.9764L66.9241 46.6065L56.9788 47.7186V38.9777L67.5871 38.9386L68.0161 32.9682L52.0062 33.0463L52.2207 54.7817L61.8929 53.1232L61.7564 57.962L52.0062 60.557L52.1037 66.4884L65.5785 62.9764Z" fill="#FDD83C"/>
</g>
<defs>
<clipPath id="clip0">
<rect width="50" height="56.875" fill="white" transform="translate(25 22)"/>
</clipPath>
</defs>
</svg>
