<svg width="500" height="288" viewBox="0 0 500 288" fill="none" xmlns="http://www.w3.org/2000/svg">
<g clip-path="url(#clip0)">
<path opacity="0.1" d="M168.624 145.505C184.108 139.003 208.414 137.677 230.537 138.198C300.031 139.822 362.761 155.625 417.019 173.501C436.663 179.975 456.002 186.95 468.753 195.862C494.709 214.004 487.01 239.136 450.919 254.081C438.637 259.167 423.752 263.078 408.468 266.516C381.288 272.663 351.978 277.593 321.135 279.013C299.144 280.013 276.878 279.198 255.016 277.801C193.928 273.885 133.97 265.28 83.7125 250.491C61.6686 244.018 40.8933 235.968 31.8184 225.488C22.7436 215.008 28.5451 201.739 51.0548 195.536C60.3691 192.974 71.493 191.814 82.3908 190.729C98.4292 189.129 114.725 187.547 129.198 184.294C144.149 180.931 161.851 174.429 158.892 166.99C155.703 159.006 153.158 151.997 168.624 145.505Z" fill="#6CAC48"/>
<path opacity="0.1" d="M239.186 7.26808L237.497 111.923C237.497 111.923 298.67 111.923 350.714 129.965L351.73 24.2118C351.73 24.2118 268.252 2.93981 239.186 7.26808Z" fill="black"/>
<path d="M238.299 5.84742L236.609 110.502C236.609 110.502 297.782 110.502 349.827 128.545L350.843 22.7911C350.843 22.7911 267.365 1.51916 238.299 5.84742Z" fill="#F5F5FB"/>
<path opacity="0.1" d="M213.133 7.18756L214.823 111.843C214.823 111.843 153.65 111.843 101.605 129.885L100.589 24.1597C100.589 24.1597 184.068 2.8593 213.133 7.18756Z" fill="black"/>
<path d="M214.02 5.76691L215.71 110.422C215.71 110.422 154.537 110.422 102.492 128.464L101.476 22.739C101.476 22.739 184.955 1.43864 214.02 5.76691Z" fill="#F5F5FB"/>
<path opacity="0.1" d="M366.496 39.1335V142.695C366.496 142.695 386.455 140.171 428.343 195.377L432.064 91.8162C432.064 91.8162 388.464 41.6623 366.496 39.1335Z" fill="black"/>
<path d="M365.609 38.1863V141.747C365.609 141.747 385.568 139.223 427.456 194.43L431.177 90.869C431.177 90.869 387.577 40.715 365.609 38.1863Z" fill="#F5F5FB"/>
<path opacity="0.1" d="M86.9106 42.2068V145.773C86.9106 145.773 66.9513 143.249 25.0634 198.455L21.3466 94.8942C21.3466 94.8942 64.9421 44.7403 86.9106 42.2068Z" fill="black"/>
<path d="M87.7977 40.7861V144.352C87.7977 144.352 67.8384 141.828 25.9505 197.035L22.2336 93.4735C22.2336 93.4735 65.8291 43.3196 87.7977 40.7861Z" fill="#F5F5FB"/>
<path d="M312.229 215.418C312.229 218.946 291.245 239.332 243.48 239.332C195.715 239.332 169.852 219.656 169.852 216.128C169.852 212.6 196.602 221.337 244.367 221.337C292.132 221.337 312.229 211.885 312.229 215.418Z" fill="#F7F7FD"/>
<path opacity="0.1" d="M156.125 166.827C158.932 166.827 161.208 166.494 161.208 166.083C161.208 165.673 158.932 165.34 156.125 165.34C153.318 165.34 151.042 165.673 151.042 166.083C151.042 166.494 153.318 166.827 156.125 166.827Z" fill="#6CAC48"/>
<path opacity="0.1" d="M136.658 168.934C139.465 168.934 141.741 168.601 141.741 168.191C141.741 167.78 139.465 167.447 136.658 167.447C133.851 167.447 131.575 167.78 131.575 168.191C131.575 168.601 133.851 168.934 136.658 168.934Z" fill="#6CAC48"/>
<path opacity="0.1" d="M113.736 166.083C116.543 166.083 118.819 165.75 118.819 165.34C118.819 164.929 116.543 164.596 113.736 164.596C110.929 164.596 108.653 164.929 108.653 165.34C108.653 165.75 110.929 166.083 113.736 166.083Z" fill="#6CAC48"/>
<path opacity="0.1" d="M144.451 174.721C146.445 174.721 148.061 174.483 148.061 174.191C148.061 173.898 146.445 173.66 144.451 173.66C142.457 173.66 140.84 173.898 140.84 174.191C140.84 174.483 142.457 174.721 144.451 174.721Z" fill="#6CAC48"/>
<path opacity="0.1" d="M124.248 174.191C126.242 174.191 127.858 173.953 127.858 173.66C127.858 173.367 126.242 173.13 124.248 173.13C122.254 173.13 120.637 173.367 120.637 173.66C120.637 173.953 122.254 174.191 124.248 174.191Z" fill="#6CAC48"/>
<path d="M136.551 168.025C136.551 168.025 143.675 143.083 135.434 133.096C129.268 125.623 122.261 126.499 119.156 127.446C118.345 127.676 117.591 128.092 116.945 128.665C116.299 129.237 115.778 129.952 115.417 130.761C114.321 133.285 114.53 137.391 122.256 142.164C135.203 150.167 136.006 161.149 136.006 161.149L136.551 168.025Z" fill="#6CAC48"/>
<path d="M120.256 130.979C120.256 130.979 141.262 137.992 136.551 168.025" stroke="#565987" stroke-miterlimit="10"/>
<path d="M132.524 133.493C132.524 133.493 129.632 135.572 130.55 138.702" stroke="#565987" stroke-miterlimit="10"/>
<path d="M122.363 135.345C122.363 135.345 124.137 133.422 126.279 134.483" stroke="#565987" stroke-miterlimit="10"/>
<path d="M130.688 145.001C130.688 145.001 133.793 143.319 134.596 145.427" stroke="#565987" stroke-miterlimit="10"/>
<path d="M138.348 148.51C138.348 148.51 136.015 148.311 135.975 149.499" stroke="#565987" stroke-miterlimit="10"/>
<path d="M136.84 168.224C136.84 168.224 128.492 150.096 126.195 150.494C125.108 150.683 124.607 151.824 124.376 152.975C124.091 154.46 124.246 156.002 124.82 157.389C126.022 160.287 129.202 165.804 136.84 168.224Z" fill="#6CAC48"/>
<path d="M126.252 153.932C126.252 153.932 135.012 167.495 136.707 168.091" stroke="#565987" stroke-miterlimit="10"/>
<path d="M125.459 156.049H127.503" stroke="#565987" stroke-miterlimit="10"/>
<path d="M127.907 161.012L131.109 161.159" stroke="#565987" stroke-miterlimit="10"/>
<path d="M129.858 157.043L129.508 158.824" stroke="#565987" stroke-miterlimit="10"/>
<path d="M133.265 162.465L133.203 164.085" stroke="#565987" stroke-miterlimit="10"/>
<path d="M136.591 168.224C136.591 168.224 144.934 150.096 147.236 150.494C148.328 150.683 148.829 151.824 149.055 152.975C149.338 154.46 149.183 156.002 148.611 157.389C147.409 160.287 144.229 165.804 136.591 168.224Z" fill="#6CAC48"/>
<path d="M147.165 153.932C147.165 153.932 138.405 167.495 136.716 168.091" stroke="#565987" stroke-miterlimit="10"/>
<path d="M147.973 156.049H145.928" stroke="#565987" stroke-miterlimit="10"/>
<path d="M145.524 161.012L142.318 161.159" stroke="#565987" stroke-miterlimit="10"/>
<path d="M143.573 157.043L143.923 158.824" stroke="#565987" stroke-miterlimit="10"/>
<path d="M140.166 162.465L140.228 164.085" stroke="#565987" stroke-miterlimit="10"/>
<path d="M122.261 172.457C122.033 172.259 121.868 171.991 121.786 171.69C121.749 171.54 121.761 171.38 121.822 171.238C121.883 171.097 121.988 170.982 122.119 170.914C122.42 170.786 122.749 171.013 123.006 171.24C123.111 171.373 123.241 171.481 123.388 171.556C123.535 171.632 123.695 171.675 123.857 171.681C123.691 171.52 123.567 171.316 123.496 171.088C123.425 170.861 123.411 170.618 123.454 170.383C123.471 170.286 123.511 170.195 123.569 170.118C123.738 169.924 124.044 170.009 124.248 170.161C124.891 170.634 125.068 171.581 125.073 172.419C125.107 172.105 125.107 171.787 125.073 171.472C125.059 171.317 125.083 171.16 125.14 171.016C125.197 170.873 125.287 170.746 125.401 170.648C125.553 170.561 125.724 170.517 125.898 170.52C126.042 170.499 126.188 170.509 126.328 170.552C126.468 170.594 126.598 170.667 126.709 170.767C126.815 170.923 126.87 171.112 126.864 171.305C126.859 171.498 126.793 171.683 126.678 171.832C126.439 172.12 126.155 172.361 125.84 172.547C125.599 172.699 125.394 172.908 125.241 173.158C125.222 173.192 125.207 173.229 125.197 173.267H123.378C122.975 173.049 122.599 172.777 122.261 172.457V172.457Z" fill="#6CAC48"/>
<path d="M154.062 165.155C153.835 164.958 153.67 164.692 153.588 164.393C153.55 164.241 153.563 164.081 153.623 163.938C153.684 163.796 153.789 163.68 153.92 163.611C154.083 163.578 154.25 163.591 154.406 163.649C154.562 163.707 154.7 163.808 154.808 163.943C154.912 164.076 155.043 164.183 155.189 164.258C155.336 164.333 155.496 164.374 155.659 164.378C155.493 164.218 155.368 164.014 155.297 163.786C155.227 163.559 155.212 163.316 155.256 163.081C155.271 162.984 155.311 162.894 155.371 162.82C155.539 162.626 155.845 162.707 156.049 162.858C156.693 163.332 156.87 164.279 156.874 165.122C156.909 164.807 156.909 164.489 156.874 164.175C156.861 164.019 156.884 163.863 156.942 163.719C156.999 163.575 157.089 163.449 157.203 163.351C157.355 163.262 157.526 163.22 157.699 163.228C157.843 163.205 157.99 163.215 158.13 163.257C158.27 163.299 158.4 163.373 158.511 163.474C158.617 163.629 158.672 163.818 158.667 164.01C158.661 164.202 158.595 164.387 158.48 164.535C158.241 164.822 157.957 165.064 157.642 165.25C157.401 165.402 157.197 165.611 157.043 165.861C157.024 165.895 157.009 165.931 156.999 165.97H155.18C154.775 165.752 154.4 165.478 154.062 165.155V165.155Z" fill="#6CAC48"/>
<path d="M143.462 172.457C143.234 172.259 143.069 171.991 142.987 171.69C142.951 171.54 142.964 171.38 143.024 171.239C143.085 171.097 143.189 170.983 143.32 170.914C143.626 170.786 143.95 171.013 144.207 171.24C144.313 171.373 144.443 171.48 144.589 171.556C144.736 171.632 144.896 171.674 145.058 171.681C144.893 171.52 144.769 171.315 144.699 171.088C144.629 170.861 144.615 170.618 144.659 170.383C144.673 170.286 144.711 170.194 144.77 170.118C144.939 169.924 145.245 170.009 145.449 170.161C146.092 170.634 146.274 171.581 146.278 172.419C146.311 172.105 146.311 171.787 146.278 171.472C146.265 171.317 146.288 171.16 146.345 171.016C146.403 170.873 146.492 170.746 146.606 170.648C146.816 170.546 147.046 170.502 147.275 170.523C147.505 170.544 147.725 170.628 147.915 170.767C148.022 170.922 148.078 171.112 148.072 171.305C148.067 171.498 148 171.684 147.884 171.832C147.645 172.121 147.362 172.363 147.046 172.547C146.806 172.701 146.602 172.91 146.447 173.158C146.429 173.193 146.415 173.23 146.402 173.267H144.588C144.181 173.051 143.802 172.779 143.462 172.457V172.457Z" fill="#6CAC48"/>
<path d="M113.39 157.702C113.39 157.702 112.711 158.649 113.705 160.069C114.698 161.49 115.523 162.717 115.191 163.612C115.191 163.612 113.687 160.945 112.467 160.908C111.247 160.87 112.059 159.302 113.39 157.702Z" fill="#6CAC48"/>
<path opacity="0.1" d="M113.39 157.702C113.33 157.793 113.284 157.894 113.252 158C112.059 159.492 111.425 160.889 112.569 160.922C113.638 160.955 114.92 162.996 115.231 163.507C115.221 163.548 115.21 163.587 115.195 163.626C115.195 163.626 113.691 160.96 112.472 160.922C111.252 160.884 112.059 159.302 113.39 157.702Z" fill="black"/>
<path d="M112.139 158.909C112.139 159.245 112.175 159.515 112.219 159.515C112.263 159.515 112.294 159.245 112.294 158.909C112.294 158.573 112.254 158.734 112.21 158.734C112.166 158.734 112.139 158.578 112.139 158.909Z" fill="#FFD037"/>
<path d="M111.704 159.312C111.979 159.473 112.219 159.567 112.241 159.525C112.263 159.482 112.055 159.321 111.798 159.165C111.54 159.008 111.629 159.117 111.611 159.165C111.593 159.212 111.429 159.174 111.704 159.312Z" fill="#FFD037"/>
<path d="M117 157.702C117 157.702 117.683 158.649 116.685 160.069C115.687 161.49 114.871 162.717 115.204 163.612C115.204 163.612 116.703 160.945 117.927 160.908C119.151 160.87 118.344 159.302 117 157.702Z" fill="#6CAC48"/>
<path opacity="0.1" d="M117 157.702C117.06 157.793 117.106 157.894 117.138 158C118.331 159.492 118.965 160.889 117.821 160.922C116.752 160.955 115.474 162.996 115.16 163.507C115.169 163.548 115.181 163.587 115.195 163.626C115.195 163.626 116.694 160.96 117.918 160.922C119.143 160.884 118.344 159.302 117 157.702Z" fill="black"/>
<path d="M118.269 158.909C118.269 159.245 118.238 159.515 118.193 159.515C118.149 159.515 118.114 159.245 118.114 158.909C118.114 158.573 118.158 158.734 118.202 158.734C118.247 158.734 118.269 158.578 118.269 158.909Z" fill="#FFD037"/>
<path d="M118.712 159.312C118.437 159.473 118.198 159.567 118.18 159.525C118.162 159.482 118.362 159.321 118.624 159.165C118.885 159.008 118.792 159.117 118.814 159.165C118.836 159.212 118.974 159.174 118.712 159.312Z" fill="#FFD037"/>
<path d="M118.051 163.503C118.051 163.503 116.144 163.441 115.572 163.005C115 162.57 112.645 162.058 112.503 162.745C112.361 163.432 109.642 166.226 111.789 166.245C113.935 166.263 116.783 165.885 117.355 165.515C117.927 165.146 118.051 163.503 118.051 163.503Z" fill="#A8A8A8"/>
<path opacity="0.2" d="M111.753 165.998C113.9 165.998 116.747 165.643 117.32 165.269C117.763 164.985 117.927 163.966 117.985 163.498H118.051C118.051 163.498 117.927 165.136 117.355 165.51C116.783 165.884 113.94 166.258 111.789 166.239C111.172 166.239 110.955 165.998 110.968 165.647C111.052 165.865 111.292 165.993 111.753 165.998Z" fill="black"/>
<path opacity="0.1" d="M102.483 230.496C110.988 230.496 117.883 229.408 117.883 228.067C117.883 226.725 110.988 225.637 102.483 225.637C93.9782 225.637 87.0835 226.725 87.0835 228.067C87.0835 229.408 93.9782 230.496 102.483 230.496Z" fill="#6CAC48"/>
<path opacity="0.1" d="M145.498 250.613C154.003 250.613 160.897 249.525 160.897 248.183C160.897 246.842 154.003 245.754 145.498 245.754C136.993 245.754 130.098 246.842 130.098 248.183C130.098 249.525 136.993 250.613 145.498 250.613Z" fill="#6CAC48"/>
<path opacity="0.1" d="M82.2223 273.499C90.7273 273.499 97.622 272.412 97.622 271.07C97.622 269.728 90.7273 268.641 82.2223 268.641C73.7173 268.641 66.8226 269.728 66.8226 271.07C66.8226 272.412 73.7173 273.499 82.2223 273.499Z" fill="#6CAC48"/>
<path opacity="0.1" d="M442.366 277.667C450.871 277.667 457.766 276.58 457.766 275.238C457.766 273.896 450.871 272.809 442.366 272.809C433.861 272.809 426.966 273.896 426.966 275.238C426.966 276.58 433.861 277.667 442.366 277.667Z" fill="#6CAC48"/>
<path opacity="0.1" d="M233.735 266.661C239.367 266.661 243.932 266.116 243.932 265.444C243.932 264.772 239.367 264.227 233.735 264.227C228.104 264.227 223.538 264.772 223.538 265.444C223.538 266.116 228.104 266.661 233.735 266.661Z" fill="#6CAC48"/>
<path opacity="0.1" d="M379.66 204.152C385.291 204.152 389.857 203.607 389.857 202.935C389.857 202.263 385.291 201.718 379.66 201.718C374.028 201.718 369.463 202.263 369.463 202.935C369.463 203.607 374.028 204.152 379.66 204.152Z" fill="#6CAC48"/>
<path opacity="0.1" d="M212.246 288.463C217.877 288.463 222.443 287.918 222.443 287.246C222.443 286.574 217.877 286.029 212.246 286.029C206.614 286.029 202.049 286.574 202.049 287.246C202.049 287.918 206.614 288.463 212.246 288.463Z" fill="#6CAC48"/>
<path opacity="0.1" d="M129.761 285.305C135.392 285.305 139.958 284.76 139.958 284.088C139.958 283.415 135.392 282.871 129.761 282.871C124.129 282.871 119.564 283.415 119.564 284.088C119.564 284.76 124.129 285.305 129.761 285.305Z" fill="#6CAC48"/>
<g opacity="0.1">
<path opacity="0.1" d="M241.59 138.565C278.854 138.565 309.062 124.171 309.062 106.416C309.062 88.6599 278.854 74.2661 241.59 74.2661C204.327 74.2661 174.119 88.6599 174.119 106.416C174.119 124.171 204.327 138.565 241.59 138.565Z" fill="black"/>
<path opacity="0.1" d="M310.233 117.909C307.248 134.672 277.752 147.832 241.799 147.832C205.531 147.832 175.831 134.44 173.285 117.473H173.033V144.792C184.893 158.023 211.15 167.224 241.63 167.224C272.11 167.224 298.368 158.023 310.233 144.792V117.909Z" fill="black"/>
<path opacity="0.1" d="M310.233 151.152C307.248 167.911 277.752 181.076 241.799 181.076C205.531 181.076 175.831 167.684 173.285 150.711H173.033V178.035C184.893 191.266 211.15 200.463 241.63 200.463C272.11 200.463 298.368 191.266 310.233 178.035V151.152Z" fill="black"/>
<path opacity="0.1" d="M310.233 187.715C307.248 204.479 277.752 217.639 241.799 217.639C205.531 217.639 175.831 204.251 173.285 187.279H173.033V216.744C173.031 217.372 173.152 217.993 173.387 218.568C173.623 219.144 173.967 219.661 174.399 220.087C186.818 232.262 212.273 237.031 241.63 237.031C270.988 237.031 296.43 232.262 308.867 220.087C309.298 219.661 309.643 219.144 309.878 218.568C310.113 217.993 310.234 217.372 310.233 216.744V187.715Z" fill="black"/>
</g>
<path d="M241.59 136.671C278.854 136.671 309.062 122.277 309.062 104.522C309.062 86.7659 278.854 72.3721 241.59 72.3721C204.327 72.3721 174.119 86.7659 174.119 104.522C174.119 122.277 204.327 136.671 241.59 136.671Z" fill="#6CAC48"/>
<path d="M310.233 116.015C307.248 132.778 277.752 145.938 241.799 145.938C205.531 145.938 175.831 132.546 173.285 115.579H173.033V142.898C184.893 156.129 211.15 165.33 241.63 165.33C272.11 165.33 298.368 156.129 310.233 142.898V116.015Z" fill="#6CAC48"/>
<path d="M310.233 149.258C307.248 166.017 277.752 179.182 241.799 179.182C205.531 179.182 175.831 165.789 173.285 148.817H173.033V176.141C184.893 189.372 211.15 198.569 241.63 198.569C272.11 198.569 298.368 189.372 310.233 176.141V149.258Z" fill="#6CAC48"/>
<path d="M310.233 185.821C307.248 202.585 277.752 215.745 241.799 215.745C205.531 215.745 175.831 202.357 173.285 185.385H173.033V214.85C173.031 215.477 173.152 216.099 173.387 216.674C173.623 217.25 173.967 217.767 174.399 218.193C186.818 230.368 212.273 235.137 241.63 235.137C270.988 235.137 296.43 230.368 308.867 218.193C309.298 217.767 309.643 217.25 309.878 216.674C310.113 216.099 310.234 215.477 310.233 214.85V185.821Z" fill="#6CAC48"/>
<path opacity="0.1" d="M341.045 268.376C355.008 268.376 366.327 266.2 366.327 263.517C366.327 260.834 355.008 258.658 341.045 258.658C327.083 258.658 315.764 260.834 315.764 263.517C315.764 266.2 327.083 268.376 341.045 268.376Z" fill="#6CAC48"/>
<path d="M326.852 201.609C328.129 202.414 330.134 202.94 332.658 201.207L332.636 205.047C332.813 207.68 335.865 217.279 335.865 217.279L338.016 225.173C339.56 230.752 340.356 236.536 340.38 242.354C340.38 244.276 340.548 246.265 341.067 247.762C342.216 251.076 340.624 255.338 339.928 256.911C338.763 257.331 337.578 257.687 336.379 257.976C336.272 258.004 336.167 258.038 336.064 258.08V258.057C336.064 258.057 332.835 259.425 331.398 259.236C330.329 259.098 329.66 260.524 330.511 261.57C329.816 261.797 329.091 261.899 328.364 261.873C326.927 261.684 326.209 264.317 328.901 265.07C331.593 265.823 346.847 265.07 346.847 265.07C347.275 264.841 347.62 264.466 347.827 264.005C348.034 263.544 348.092 263.022 347.991 262.522L349.898 262.437C349.898 262.437 352.591 261.12 349.898 257.545L349.752 257.659L349.18 255.85V253.411C349.18 253.411 352.591 235.89 351.513 233.839C350.435 231.789 349.863 221.209 349.863 221.209L350.24 209.749C351.211 207.609 351.708 204.247 351.961 201.619C352.328 200.366 352.559 199.073 352.648 197.764C352.693 197.144 352.728 196.5 352.75 195.827C352.765 194.352 352.543 192.885 352.094 191.489C353.311 189.561 354.671 187.74 356.161 186.043C356.781 185.428 357.251 184.662 357.533 183.81C357.815 182.958 357.9 182.046 357.78 181.152L356.893 174.754L354.737 163.862C355.008 160.836 354.418 159.094 353.762 158.109C353.917 157.128 354.063 156.153 354.174 155.168C354.649 150.899 354.435 146.574 353.544 142.382C353.234 140.923 352.808 139.422 351.845 138.314C350.759 137.055 348.993 136.292 348.585 134.649C348.528 134.23 348.445 133.816 348.337 133.408C347.942 132.333 346.7 131.94 345.609 131.798C343.667 131.547 340.859 131.358 338.992 132.172C337.353 132.946 336.004 134.283 335.159 135.97C334.739 136.663 334.581 137.501 334.716 138.314C334.782 138.596 334.885 138.867 335.022 139.119C334.4 140.918 334.468 142.907 335.21 144.653C335.953 146.399 337.31 147.763 338.987 148.448C339.032 148.595 339.071 148.737 339.103 148.874C339.185 149.212 339.244 149.555 339.28 149.902C339.244 150.565 339.205 151.233 339.178 151.9L339.111 152.17C337.567 152.9 336.061 153.719 334.601 154.623C335.674 156.319 334.419 163.469 334.419 163.469C331.726 165.16 329.039 169.488 331.908 174.006C334.778 178.523 333.164 183.411 333.164 183.411L332.72 190.77L332.631 192.242H332.662L332.631 192.801H332.707V193.402C331.447 193.9 329.602 194.894 328.506 196.741C327.987 197.647 327.356 198.473 326.63 199.199C326.461 199.353 326.329 199.549 326.246 199.77C326.163 199.99 326.131 200.229 326.153 200.466C326.175 200.702 326.25 200.93 326.371 201.129C326.493 201.328 326.658 201.493 326.852 201.609V201.609ZM348.519 182.061C348.411 180.787 348.632 179.507 349.158 178.358H350.426C350.463 178.657 350.515 178.954 350.581 179.248C350.945 180.929 349.49 181.72 348.519 182.061V182.061Z" fill="url(#paint0_linear)"/>
<path d="M348.874 254.988L349.566 257.2L347.321 259.596L339.897 261.462L334.543 260.907L334.889 258.881C334.991 258.445 335.203 258.047 335.503 257.731C335.803 257.415 336.178 257.194 336.588 257.091C338.805 256.541 342.984 255.282 343.866 253.534L348.874 254.988Z" fill="#DB8B8B"/>
<path opacity="0.1" d="M348.874 254.988L349.566 257.2L347.321 259.596L339.897 261.462L334.543 260.907L334.889 258.881C334.991 258.445 335.203 258.047 335.503 257.731C335.803 257.415 336.178 257.194 336.588 257.091C338.805 256.541 342.984 255.282 343.866 253.534L348.874 254.988Z" fill="black"/>
<path d="M336.268 260.334L337.306 258.862L336.268 257.152C336.268 257.152 333.164 258.492 331.78 258.308C330.396 258.123 329.708 260.704 332.299 261.443C334.889 262.181 349.566 261.443 349.566 261.443C349.566 261.443 352.156 260.15 349.566 256.646L347.321 258.492C347.321 258.492 343.52 260.704 341.622 260.334H336.268Z" fill="#C17174"/>
<path d="M331.611 263.469L336.965 264.023L344.39 262.177L346.634 259.78L346.452 259.198L346.195 258.374L345.942 257.569L340.926 256.096C340.671 256.537 340.323 256.909 339.91 257.181C338.282 258.369 335.364 259.226 333.647 259.653C333.575 259.671 333.504 259.695 333.434 259.724C333.1 259.837 332.796 260.033 332.547 260.297C332.248 260.611 332.036 261.007 331.935 261.443L331.611 263.469Z" fill="#DB8B8B"/>
<path opacity="0.1" d="M331.611 263.469L336.965 264.023L344.39 262.176L346.634 259.78L346.452 259.198L344.39 260.888C344.39 260.888 340.589 263.1 338.69 262.73H333.332L334.37 261.258L333.439 259.723C333.105 259.837 332.801 260.033 332.552 260.296C332.252 260.61 332.04 261.007 331.94 261.442L331.611 263.469Z" fill="black"/>
<path d="M333.332 262.915L334.37 261.442L333.332 259.733C333.332 259.733 330.227 261.073 328.844 260.888C327.46 260.704 326.772 263.285 329.362 264.023C331.953 264.762 346.629 264.023 346.629 264.023C346.629 264.023 349.22 262.731 346.629 259.231L344.385 261.073C344.385 261.073 340.584 263.285 338.686 262.915H333.332Z" fill="#C17174"/>
<path d="M337.648 155.987C337.648 155.987 345.938 156.934 344.744 153.222C344.404 152.176 344.315 151.055 344.487 149.964C344.701 148.612 345.201 147.331 345.951 146.218L338.18 147.506C338.647 148.337 339.003 149.235 339.236 150.172C340.145 154.083 337.648 155.987 337.648 155.987Z" fill="#DB8B8B"/>
<path d="M351.81 198.005C351.81 198.005 351.637 205.933 349.912 209.806L349.566 221.053C349.566 221.053 350.08 231.377 351.118 233.403C352.156 235.43 348.874 252.577 348.874 252.577V255.528C348.874 255.528 343.347 257.739 341.777 255.158L343.33 233.219L342.638 202.802L351.81 198.005Z" fill="#474463"/>
<path opacity="0.1" d="M351.81 198.005C351.81 198.005 351.637 205.933 349.912 209.806L349.566 221.053C349.566 221.053 350.08 231.377 351.118 233.403C352.156 235.43 348.874 252.577 348.874 252.577V255.528C348.874 255.528 343.347 257.739 341.777 255.158L343.33 233.219L342.638 202.802L351.81 198.005Z" fill="black"/>
<path d="M355.261 172.581L356.299 175.531L357.186 181.796C357.301 182.67 357.22 183.561 356.95 184.395C356.679 185.229 356.226 185.983 355.629 186.593C353.558 188.804 350.794 193.412 350.794 193.412L347.517 182.904C347.517 182.904 350.794 182.35 350.275 179.954C349.756 177.558 349.934 173.135 349.934 173.135L355.261 172.581Z" fill="#FF748E"/>
<path opacity="0.05" d="M355.301 172.538L356.334 175.488L357.221 181.758C357.338 182.631 357.259 183.521 356.989 184.355C356.719 185.188 356.266 185.941 355.669 186.55C353.593 188.761 350.834 193.374 350.834 193.374L347.53 182.852C347.53 182.852 350.812 182.297 350.293 179.901C349.774 177.505 349.947 173.077 349.947 173.077L355.301 172.538Z" fill="black"/>
<path opacity="0.1" d="M339.914 257.2C342.132 260.922 345.578 258.81 346.19 258.393L345.938 257.588L340.926 256.096C340.675 256.544 340.328 256.922 339.914 257.2V257.2Z" fill="black"/>
<path d="M332.986 205.213C333.159 207.794 336.091 217.194 336.091 217.194L338.162 224.932C339.644 230.403 340.41 236.067 340.438 241.762C340.386 243.555 340.609 245.345 341.099 247.061C342.482 251.119 339.719 256.646 339.719 256.646C342.136 261.258 346.279 258.123 346.279 258.123V255.173C346.279 255.173 349.561 239.134 348.696 235.999C347.832 232.864 347.49 224.387 347.49 224.387V209.082C350.255 206.139 351.936 202.233 352.227 198.077C352.267 197.471 352.302 196.836 352.325 196.183C352.462 192.025 349.796 187.147 348.776 185.409C348.528 184.988 348.368 184.751 348.368 184.751L333.124 191.21H333.088V191.85V193.242L332.986 205.213Z" fill="#474463"/>
<path opacity="0.1" d="M338.167 147.506C338.634 148.337 338.989 149.235 339.222 150.172C340.066 150.514 340.966 150.671 341.868 150.636C342.77 150.6 343.656 150.371 344.474 149.964C344.687 148.612 345.188 147.331 345.938 146.218L338.167 147.506Z" fill="black"/>
<path d="M341.622 150.271C345.34 150.271 348.355 147.053 348.355 143.083C348.355 139.113 345.34 135.894 341.622 135.894C337.903 135.894 334.889 139.113 334.889 143.083C334.889 147.053 337.903 150.271 341.622 150.271Z" fill="#DB8B8B"/>
<path opacity="0.1" d="M332.986 193.227H333.062C340.3 194.819 349.393 186.763 349.393 186.763C349.149 186.324 348.938 185.865 348.763 185.39C348.515 184.969 348.355 184.732 348.355 184.732L333.11 191.191L333.07 191.835L332.986 193.227Z" fill="black"/>
<path d="M334.889 155.802C334.889 155.802 344.558 149.533 347.663 152.113L351.983 158.014C351.983 158.014 354.746 158.937 354.232 164.857L356.303 175.549L350.094 177.207C350.094 177.207 346.47 180.896 349.406 186.242C349.406 186.242 340.251 194.354 332.995 192.692L333.514 184.031C333.514 184.031 335.067 179.234 332.308 174.811C329.549 170.388 332.135 166.145 334.725 164.487C334.716 164.468 335.923 157.46 334.889 155.802Z" fill="#FF748E"/>
<path d="M334.37 193.412C334.37 193.412 330.742 194.151 329.017 197.101C328.518 197.988 327.909 198.799 327.207 199.511C327.049 199.665 326.927 199.855 326.851 200.067C326.775 200.28 326.746 200.508 326.767 200.735C326.788 200.961 326.859 201.179 326.973 201.371C327.087 201.563 327.241 201.724 327.424 201.841C328.795 202.722 331.026 203.262 333.851 200.785C338.708 196.547 334.37 193.412 334.37 193.412Z" fill="#DB8B8B"/>
<path opacity="0.1" d="M339.724 159.307C339.724 159.307 343.174 158.937 344.039 168.522C344.904 178.107 346.283 180.323 346.283 180.323C346.283 180.323 347.148 185.3 345.073 188.25C342.997 191.2 339.032 197.47 339.032 197.47C339.032 197.47 334.716 198.758 333.851 194.155L339.205 183.463C339.205 183.463 340.065 179.774 337.994 177.193C335.922 174.612 334.37 157.46 339.724 159.307Z" fill="black"/>
<path d="M339.378 158.753C339.378 158.753 342.828 158.383 343.693 167.973C344.558 177.562 345.938 179.769 345.938 179.769C345.938 179.769 346.825 184.746 344.731 187.696C342.638 190.647 338.708 196.916 338.708 196.916C338.708 196.916 334.392 198.204 333.527 193.602L338.881 182.909C338.881 182.909 339.746 179.22 337.67 176.639C335.594 174.058 334.024 156.911 339.378 158.753Z" fill="#FF748E"/>
<path opacity="0.1" d="M336.526 165.667C336.526 165.667 336.184 171.382 337.737 174.517C339.289 177.652 339.289 181.706 337.737 183.917" fill="black"/>
<path opacity="0.1" d="M335.665 158.658C335.665 158.658 337.045 157.185 341.019 157.001C344.993 156.816 346.714 155.528 346.714 155.528" fill="black"/>
<path opacity="0.1" d="M345.268 133.792C346.319 133.929 347.517 134.313 347.894 135.364C347.997 135.764 348.079 136.17 348.137 136.581C348.528 138.191 350.227 138.949 351.273 140.17C352.196 141.26 352.604 142.728 352.906 144.162C353.765 148.272 353.971 152.506 353.513 156.688C353.176 159.742 352.484 162.754 352.293 165.823C352.103 168.891 352.453 172.126 354.023 174.707C354.702 175.815 355.593 176.79 356.072 178.021C355.083 178.879 353.717 179.002 352.44 179.049C350.961 179.103 349.475 179.103 347.982 179.049C347.201 179.082 346.423 178.908 345.72 178.542C345.223 178.204 344.814 177.736 344.532 177.183C343.68 175.644 343.467 173.793 343.502 172.007C343.538 170.222 343.804 168.446 343.835 166.656C343.923 165.68 343.72 164.698 343.254 163.853C342.825 163.321 342.34 162.844 341.808 162.432C339.959 160.68 339.324 157.877 339.262 155.239C339.2 152.601 339.608 149.963 339.4 147.335C339.32 146.308 338.956 145.072 338.011 144.873C337.713 144.86 337.416 144.819 337.124 144.75C336.366 144.437 336.441 143.296 336.237 142.458C335.993 141.511 335.239 140.786 335.026 139.839C334.53 137.608 337.191 134.942 338.934 134.156C340.677 133.37 343.4 133.545 345.268 133.792Z" fill="black"/>
<path d="M345.441 133.422C346.492 133.56 347.69 133.943 348.067 134.999C348.171 135.398 348.252 135.803 348.311 136.212C348.701 137.822 350.4 138.579 351.446 139.801C352.369 140.89 352.777 142.358 353.079 143.793C353.939 147.907 354.142 152.146 353.682 156.333C353.349 159.387 352.657 162.399 352.467 165.472C352.276 168.546 352.626 171.771 354.196 174.351C354.875 175.464 355.766 176.435 356.245 177.666C355.256 178.528 353.89 178.647 352.613 178.694C351.134 178.744 349.649 178.744 348.155 178.694C347.374 178.729 346.597 178.556 345.893 178.192C345.396 177.852 344.987 177.383 344.705 176.828C343.853 175.289 343.64 173.438 343.676 171.652C343.711 169.867 343.977 168.091 344.008 166.306C344.008 165.33 343.955 164.298 343.427 163.502C343 162.969 342.514 162.493 341.981 162.082C340.132 160.33 339.497 157.526 339.435 154.888C339.373 152.251 339.781 149.613 339.573 146.985C339.493 145.957 339.129 144.721 338.185 144.522C337.886 144.509 337.589 144.468 337.297 144.399C336.539 144.087 336.614 142.945 336.41 142.107C336.166 141.16 335.412 140.44 335.2 139.489C334.703 137.258 337.364 134.592 339.107 133.806C340.85 133.02 343.587 133.176 345.441 133.422Z" fill="#464353"/>
<path d="M72.7084 264.237C72.7084 264.237 77.4631 264.08 78.8913 262.991C80.3195 261.902 86.2008 260.6 86.5557 262.347C86.9105 264.095 93.6967 271.032 88.3298 271.079C82.963 271.127 75.8664 270.184 74.4337 269.256C73.0011 268.328 72.7084 264.237 72.7084 264.237Z" fill="#A8A8A8"/>
<path opacity="0.2" d="M88.4274 270.459C83.065 270.506 75.964 269.568 74.5358 268.64C73.4491 267.93 73.0144 265.392 72.868 264.217H72.7084C72.7084 264.217 73.01 268.309 74.4382 269.237C75.8664 270.165 82.9674 271.103 88.3343 271.06C89.8822 271.06 90.4145 270.459 90.3879 269.587C90.1705 270.132 89.5806 270.459 88.4274 270.459Z" fill="black"/>
<path d="M374.71 197.631C374.71 197.631 377.97 197.522 378.955 196.774C379.939 196.026 383.971 195.136 384.215 196.334C384.459 197.532 389.121 202.296 385.435 202.329C381.749 202.362 376.879 201.713 375.899 201.079C374.918 200.444 374.71 197.631 374.71 197.631Z" fill="#A8A8A8"/>
<path opacity="0.2" d="M385.501 201.912C381.82 201.94 376.945 201.296 375.965 200.662C375.216 200.188 374.918 198.431 374.821 197.626H374.71C374.71 197.626 374.918 200.435 375.899 201.074C376.879 201.713 381.753 202.352 385.435 202.324C386.499 202.324 386.867 201.912 386.845 201.311C386.699 201.68 386.295 201.903 385.501 201.912Z" fill="black"/>
<path opacity="0.1" d="M30.193 24.4859C35.4915 24.4859 39.7868 19.8999 39.7868 14.2429C39.7868 8.58592 35.4915 4 30.193 4C24.8945 4 20.5992 8.58592 20.5992 14.2429C20.5992 19.8999 24.8945 24.4859 30.193 24.4859Z" fill="#6CAC48"/>
<path opacity="0.1" d="M442.288 42.846C447.586 42.846 451.881 38.2601 451.881 32.603C451.881 26.946 447.586 22.3601 442.288 22.3601C436.989 22.3601 432.694 26.946 432.694 32.603C432.694 38.2601 436.989 42.846 442.288 42.846Z" fill="#6CAC48"/>
<path opacity="0.1" d="M23.0142 50.8585C26.9336 50.8585 30.1109 47.4662 30.1109 43.2817C30.1109 39.0971 26.9336 35.7048 23.0142 35.7048C19.0949 35.7048 15.9176 39.0971 15.9176 43.2817C15.9176 47.4662 19.0949 50.8585 23.0142 50.8585Z" fill="#6CAC48"/>
<path opacity="0.1" d="M95.1116 19.1537C99.031 19.1537 102.208 15.7614 102.208 11.5768C102.208 7.39226 99.031 4 95.1116 4C91.1923 4 88.015 7.39226 88.015 11.5768C88.015 15.7614 91.1923 19.1537 95.1116 19.1537Z" fill="#6CAC48"/>
<path opacity="0.1" d="M386.31 19.1537C390.229 19.1537 393.407 15.7614 393.407 11.5768C393.407 7.39226 390.229 4 386.31 4C382.391 4 379.214 7.39226 379.214 11.5768C379.214 15.7614 382.391 19.1537 386.31 19.1537Z" fill="#6CAC48"/>
<path d="M444.353 253C444.353 253 446.127 255.481 443.532 259.227C440.938 262.973 438.795 266.132 439.66 268.466C439.66 268.466 443.577 261.514 446.757 261.415C449.937 261.316 447.857 257.186 444.353 253Z" fill="#FC6681"/>
<path opacity="0.1" d="M444.353 253C444.507 253.241 444.628 253.504 444.712 253.781C447.817 257.683 449.485 261.325 446.486 261.415C443.701 261.5 440.361 266.818 439.558 268.163C439.585 268.266 439.617 268.367 439.656 268.466C439.656 268.466 443.572 261.514 446.752 261.415C449.933 261.316 447.857 257.186 444.353 253Z" fill="black"/>
<path d="M447.653 256.164C447.653 257.035 447.56 257.745 447.449 257.745C447.338 257.745 447.245 257.035 447.245 256.164C447.245 255.292 447.36 255.69 447.471 255.69C447.582 255.69 447.653 255.287 447.653 256.164Z" fill="#FFD037"/>
<path d="M448.788 257.205C448.07 257.622 447.458 257.873 447.387 257.769C447.316 257.664 447.875 257.238 448.589 256.822C449.303 256.405 449.032 256.708 449.081 256.822C449.13 256.935 449.507 256.788 448.788 257.205Z" fill="#FFD037"/>
<path d="M434.968 253C434.968 253 433.194 255.481 435.788 259.227C438.383 262.973 440.525 266.132 439.66 268.466C439.66 268.466 435.74 261.514 432.564 261.415C429.388 261.316 431.459 257.186 434.968 253Z" fill="#FC6681"/>
<path opacity="0.1" d="M434.968 253C434.813 253.241 434.69 253.504 434.604 253.781C431.499 257.683 429.836 261.325 432.83 261.415C435.615 261.5 438.959 266.818 439.758 268.163C439.731 268.263 439.7 268.367 439.665 268.466C439.665 268.466 435.744 261.514 432.568 261.415C429.392 261.316 431.459 257.186 434.968 253Z" fill="black"/>
<path d="M431.663 256.164C431.663 257.035 431.756 257.745 431.872 257.745C431.987 257.745 432.076 257.035 432.076 256.164C432.076 255.292 431.961 255.69 431.845 255.69C431.73 255.69 431.663 255.287 431.663 256.164Z" fill="#FFD037"/>
<path d="M430.532 257.205C431.251 257.622 431.863 257.873 431.93 257.769C431.996 257.664 431.446 257.238 430.728 256.822C430.009 256.405 430.284 256.708 430.24 256.822C430.195 256.935 429.814 256.788 430.532 257.205Z" fill="#FFD037"/>
<path d="M432.231 268.144C432.231 268.144 437.199 267.979 438.693 266.842C440.188 265.706 446.336 264.347 446.708 266.17C447.081 267.993 454.168 275.248 448.562 275.295C442.956 275.342 435.531 274.348 434.041 273.401C432.55 272.454 432.231 268.144 432.231 268.144Z" fill="#A8A8A8"/>
<path opacity="0.2" d="M448.664 274.66C443.053 274.708 435.633 273.713 434.138 272.766C433.003 272.027 432.546 269.371 432.395 268.144H432.231C432.231 268.144 432.546 272.406 434.041 273.391C435.535 274.376 442.956 275.342 448.562 275.285C450.181 275.285 450.74 274.655 450.709 273.746C450.487 274.305 449.866 274.651 448.664 274.66Z" fill="black"/>
<path opacity="0.7" d="M156.276 52.6533C154.433 52.6533 152.633 53.2366 151.101 54.3293C149.569 55.422 148.375 56.9751 147.67 58.7923C146.965 60.6094 146.781 62.6089 147.14 64.538C147.5 66.4671 148.387 68.239 149.689 69.6298C150.992 71.0206 152.652 71.9677 154.458 72.3514C156.265 72.7351 158.138 72.5382 159.84 71.7855C161.542 71.0328 162.997 69.7582 164.02 68.1228C165.044 66.4875 165.59 64.5648 165.59 62.5979C165.59 59.9604 164.609 57.431 162.862 55.566C161.115 53.7011 158.746 52.6533 156.276 52.6533V52.6533ZM156.276 54.5807C157.767 54.5807 159.225 55.0528 160.465 55.9374C161.705 56.822 162.671 58.0793 163.242 59.5503C163.813 61.0213 163.962 62.64 163.671 64.2016C163.38 65.7632 162.662 67.1977 161.607 68.3235C160.553 69.4494 159.209 70.2161 157.747 70.5268C156.284 70.8374 154.768 70.678 153.39 70.0687C152.012 69.4593 150.835 68.4275 150.006 67.1036C149.178 65.7797 148.735 64.2233 148.735 62.6311C148.735 60.496 149.53 58.4483 150.944 56.9386C152.358 55.4288 154.276 54.5807 156.276 54.5807ZM161.549 59.8134L160.702 58.8995C160.661 58.8536 160.611 58.8172 160.556 58.7923C160.501 58.7674 160.442 58.7546 160.383 58.7546C160.323 58.7546 160.264 58.7674 160.209 58.7923C160.154 58.8172 160.105 58.8536 160.063 58.8995L154.741 64.53L152.497 62.096C152.455 62.0501 152.406 62.0137 152.351 61.9888C152.296 61.9639 152.237 61.951 152.177 61.951C152.118 61.951 152.059 61.9639 152.004 61.9888C151.949 62.0137 151.899 62.0501 151.858 62.096L151.006 63.0004C150.963 63.0446 150.929 63.0976 150.906 63.1562C150.883 63.2147 150.871 63.2777 150.871 63.3414C150.871 63.4051 150.883 63.468 150.906 63.5266C150.929 63.5852 150.963 63.6382 151.006 63.6824L154.422 67.3571C154.463 67.4029 154.513 67.4394 154.567 67.4643C154.622 67.4892 154.681 67.502 154.741 67.502C154.801 67.502 154.86 67.4892 154.914 67.4643C154.969 67.4394 155.019 67.4029 155.06 67.3571L161.549 60.4811C161.592 60.437 161.626 60.384 161.65 60.3254C161.673 60.2668 161.685 60.2038 161.685 60.1402C161.685 60.0765 161.673 60.0135 161.65 59.9549C161.626 59.8964 161.592 59.8434 161.549 59.7992V59.8134Z" fill="#3ACC6C"/>
<path opacity="0.7" d="M53.1616 103.001C51.3683 103.446 49.7386 104.448 48.4785 105.881C47.2183 107.315 46.3842 109.114 46.0816 111.053C45.7789 112.992 46.0212 114.983 46.7779 116.775C47.5347 118.567 48.7718 120.08 50.3331 121.121C51.8945 122.163 53.7099 122.687 55.5502 122.628C57.3905 122.569 59.173 121.928 60.6726 120.788C62.1723 119.648 63.3217 118.059 63.9758 116.221C64.6299 114.384 64.7593 112.38 64.3477 110.465C64.0737 109.189 63.5668 107.984 62.856 106.919C62.1451 105.853 61.2443 104.948 60.2052 104.255C59.1661 103.561 58.009 103.094 56.8004 102.879C55.5917 102.664 54.3552 102.705 53.1616 103.001V103.001ZM53.5697 104.896C55.0235 104.533 56.5452 104.64 57.9421 105.202C59.3391 105.764 60.5483 106.756 61.4166 108.053C62.2849 109.349 62.7733 110.892 62.8197 112.485C62.8662 114.078 62.4687 115.65 61.6776 117.001C60.8865 118.353 59.7375 119.424 58.376 120.077C57.0145 120.731 55.5019 120.939 54.0299 120.674C52.5578 120.409 51.1925 119.683 50.107 118.589C49.0215 117.495 48.2647 116.081 47.9323 114.528C47.4885 112.453 47.8324 110.274 48.8888 108.469C49.9453 106.664 51.6283 105.379 53.5697 104.896V104.896ZM59.8103 108.731L58.7901 108.03C58.7403 107.996 58.6845 107.972 58.626 107.961C58.5675 107.95 58.5075 107.952 58.4496 107.966C58.3917 107.98 58.337 108.006 58.2889 108.044C58.2407 108.081 58.2 108.128 58.1692 108.182L54.1773 114.944L51.4762 113.121C51.4264 113.087 51.3705 113.063 51.3121 113.052C51.2536 113.041 51.1936 113.042 51.1357 113.057C51.0777 113.071 51.0231 113.097 50.9749 113.134C50.9267 113.171 50.886 113.218 50.8552 113.273L50.2121 114.362C50.1797 114.415 50.1577 114.475 50.1473 114.537C50.1369 114.6 50.1384 114.664 50.1516 114.725C50.1648 114.787 50.1896 114.846 50.2244 114.897C50.2591 114.948 50.3032 114.992 50.354 115.025L54.4523 117.786C54.5023 117.821 54.5585 117.845 54.6174 117.857C54.6764 117.868 54.7369 117.867 54.7954 117.853C54.8538 117.838 54.909 117.812 54.9575 117.774C55.006 117.737 55.0469 117.689 55.0777 117.634L59.9567 109.38C59.9892 109.327 60.0115 109.268 60.0222 109.206C60.033 109.143 60.0319 109.079 60.0191 109.018C60.0062 108.956 59.982 108.897 59.9476 108.846C59.9133 108.794 59.8696 108.75 59.8192 108.717L59.8103 108.731Z" fill="#3ACC6C"/>
<path opacity="0.7" d="M292.03 54.093C290.188 54.093 288.387 54.6763 286.855 55.769C285.323 56.8617 284.13 58.4148 283.425 60.232C282.72 62.0491 282.535 64.0486 282.895 65.9777C283.254 67.9068 284.141 69.6787 285.444 71.0695C286.746 72.4603 288.406 73.4074 290.213 73.7911C292.02 74.1748 293.892 73.9779 295.594 73.2252C297.296 72.4725 298.751 71.1979 299.774 69.5625C300.798 67.9271 301.344 66.0045 301.344 64.0376C301.344 61.4001 300.363 58.8707 298.616 57.0057C296.869 55.1407 294.5 54.093 292.03 54.093ZM292.03 56.0204C293.521 56.0204 294.979 56.4925 296.219 57.3771C297.459 58.2617 298.425 59.519 298.996 60.99C299.567 62.461 299.716 64.0797 299.425 65.6413C299.134 67.2029 298.416 68.6374 297.362 69.7632C296.307 70.8891 294.964 71.6558 293.501 71.9665C292.038 72.2771 290.522 72.1177 289.144 71.5083C287.767 70.899 286.589 69.8672 285.76 68.5433C284.932 67.2194 284.49 65.663 284.49 64.0708C284.49 61.9357 285.284 59.888 286.698 58.3783C288.112 56.8685 290.03 56.0204 292.03 56.0204ZM297.304 61.2531L296.456 60.3392C296.415 60.2933 296.365 60.2569 296.311 60.232C296.256 60.2071 296.197 60.1943 296.137 60.1943C296.077 60.1943 296.018 60.2071 295.964 60.232C295.909 60.2569 295.859 60.2933 295.818 60.3392L290.495 65.9697L288.247 63.5499C288.205 63.504 288.156 63.4676 288.101 63.4427C288.046 63.4178 287.987 63.4049 287.927 63.4049C287.868 63.4049 287.809 63.4178 287.754 63.4427C287.699 63.4676 287.649 63.504 287.608 63.5499L286.761 64.4638C286.718 64.508 286.684 64.5609 286.66 64.6195C286.637 64.6781 286.625 64.7411 286.625 64.8048C286.625 64.8684 286.637 64.9314 286.66 64.99C286.684 65.0486 286.718 65.1015 286.761 65.1457L290.176 68.8205C290.217 68.8663 290.267 68.9028 290.322 68.9277C290.377 68.9526 290.436 68.9654 290.495 68.9654C290.555 68.9654 290.614 68.9526 290.669 68.9277C290.724 68.9028 290.773 68.8663 290.815 68.8205L297.304 61.9445C297.347 61.9003 297.381 61.8474 297.404 61.7888C297.427 61.7302 297.439 61.6672 297.439 61.6036C297.439 61.5399 297.427 61.4769 297.404 61.4183C297.381 61.3597 297.347 61.3068 297.304 61.2626V61.2531Z" fill="#3ACC6C"/>
<path opacity="0.7" d="M398.892 103.205C397.056 103.053 395.218 103.485 393.612 104.448C392.006 105.41 390.704 106.859 389.869 108.612C389.034 110.364 388.704 112.342 388.922 114.295C389.139 116.247 389.894 118.087 391.091 119.582C392.288 121.076 393.872 122.159 395.645 122.692C397.418 123.225 399.299 123.185 401.05 122.578C402.802 121.97 404.345 120.821 405.485 119.277C406.626 117.733 407.311 115.863 407.456 113.903C407.553 112.6 407.408 111.289 407.029 110.046C406.651 108.803 406.047 107.652 405.251 106.658C404.456 105.665 403.485 104.848 402.393 104.256C401.302 103.663 400.112 103.306 398.892 103.205V103.205ZM398.75 105.123C400.238 105.242 401.66 105.831 402.835 106.814C404.01 107.797 404.886 109.13 405.35 110.645C405.815 112.159 405.848 113.787 405.446 115.322C405.043 116.857 404.223 118.229 403.089 119.266C401.955 120.302 400.558 120.956 399.076 121.145C397.594 121.333 396.092 121.047 394.762 120.324C393.432 119.6 392.333 118.472 391.604 117.081C390.875 115.69 390.55 114.099 390.668 112.51C390.744 111.459 391.013 110.433 391.461 109.492C391.908 108.552 392.524 107.714 393.275 107.028C394.025 106.342 394.895 105.821 395.835 105.494C396.774 105.167 397.765 105.041 398.75 105.123ZM403.629 110.777L402.848 109.797C402.81 109.748 402.764 109.708 402.711 109.678C402.659 109.649 402.601 109.631 402.542 109.625C402.483 109.62 402.424 109.627 402.367 109.647C402.311 109.667 402.259 109.699 402.214 109.74L396.505 114.916L394.439 112.316C394.401 112.267 394.354 112.225 394.301 112.196C394.248 112.166 394.19 112.148 394.131 112.142C394.071 112.137 394.011 112.145 393.954 112.165C393.897 112.185 393.845 112.217 393.8 112.259L392.882 113.093C392.836 113.133 392.799 113.183 392.771 113.24C392.744 113.296 392.728 113.357 392.723 113.42C392.719 113.484 392.726 113.547 392.745 113.607C392.764 113.667 392.794 113.723 392.833 113.77L395.969 117.715C396.006 117.764 396.053 117.804 396.105 117.834C396.158 117.863 396.216 117.881 396.275 117.886C396.334 117.892 396.393 117.884 396.45 117.865C396.506 117.845 396.558 117.813 396.603 117.772L403.575 111.454C403.621 111.414 403.659 111.365 403.687 111.309C403.714 111.252 403.731 111.191 403.736 111.128C403.741 111.065 403.734 111.001 403.716 110.941C403.697 110.881 403.668 110.825 403.629 110.777V110.777Z" fill="#3ACC6C"/>
</g>
<defs>
<linearGradient id="paint0_linear" x1="341.99" y1="265.406" x2="341.99" y2="131.561" gradientUnits="userSpaceOnUse">
<stop stop-color="#808080" stop-opacity="0.25"/>
<stop offset="0.54" stop-color="#808080" stop-opacity="0.12"/>
<stop offset="1" stop-color="#808080" stop-opacity="0.1"/>
</linearGradient>
<clipPath id="clip0">
<rect width="500" height="288" fill="white"/>
</clipPath>
</defs>
</svg>
