<svg width="100" height="100" viewBox="0 0 100 100" fill="none" xmlns="http://www.w3.org/2000/svg">
<circle cx="50" cy="50" r="50" fill="white"/>
<circle cx="50" cy="50" r="40" fill="#53554A"/>
<g clip-path="url(#clip0)">
<path d="M49.7812 15.1904L51.6493 18.6992C52.0693 19.3467 52.5243 19.9198 53.0603 20.4536C54.6243 22.0176 56.1097 23.6561 57.444 25.4104C60.6093 29.5667 62.7443 34.1823 64.269 39.1742C65.1834 42.2236 65.68 45.3517 65.7172 48.5148C65.8703 57.9714 62.6284 66.0914 56.0922 72.8398C55.0247 73.9073 53.8828 74.8961 52.6578 75.7754C52.0103 75.7754 51.704 75.2789 51.4372 74.8217C50.9406 73.9839 50.6365 73.0279 50.4834 72.0764C50.2537 70.9323 50.1028 69.7882 50.1772 68.607V68.0732C50.1247 67.9595 49.5537 15.4595 49.7812 15.1904Z" fill="#599636"/>
<path d="M49.7813 15.0743C49.7047 14.9212 49.6282 15.0371 49.5516 15.1115C49.5888 15.8771 49.3219 16.5596 48.9041 17.2115C48.4447 17.859 47.8366 18.3555 47.2263 18.8893C43.8357 21.8249 41.1669 25.3708 39.0297 29.3368C36.186 34.6743 34.7204 40.3946 34.3047 46.4168C34.1144 48.589 34.9916 56.254 35.6763 58.4655C37.5444 64.3368 40.9001 69.2565 45.2466 73.5265C46.3141 74.5546 47.456 75.5083 48.6372 76.4249C48.9807 76.4249 49.0179 76.1187 49.0966 75.8912C49.2472 75.4044 49.362 74.9072 49.4401 74.4037L50.2057 68.6855L49.7813 15.0743Z" fill="#6CAC48"/>
<path d="M51.6494 78.0987C51.726 77.2237 52.146 76.4975 52.6031 75.7734C52.1438 75.5831 51.8025 75.2047 51.5356 74.7825C51.306 74.4018 51.1156 73.9447 50.9669 73.5247C50.4331 71.9234 50.3194 70.2434 50.1663 68.6072V67.6162C49.976 67.7693 49.9366 69.0643 49.9366 69.2568C49.8253 70.9862 49.5958 72.706 49.2497 74.404C49.136 75.0909 49.0594 75.7756 48.6372 76.3859C48.6372 76.4625 48.6372 76.539 48.6744 76.6528C49.3613 78.674 49.5494 80.7325 49.6653 82.8303V83.5959C49.6653 84.5103 49.6281 84.3178 50.3872 84.624C50.6935 84.7378 51.0347 84.7772 51.341 85.0047C51.5706 85.0047 51.6078 84.8143 51.6078 84.6612L51.4941 83.4034V79.8947C51.4569 79.2822 51.5706 78.674 51.6472 78.1009L51.6494 78.0987Z" fill="#C2BFBF"/>
</g>
<defs>
<clipPath id="clip0">
<rect width="70" height="70" fill="white" transform="translate(15 15)"/>
</clipPath>
</defs>
</svg>
