<svg width="500" height="288" viewBox="0 0 500 288" fill="none" xmlns="http://www.w3.org/2000/svg">
<g clip-path="url(#clip0)">
<g opacity="0.5">
<path opacity="0.5" d="M412.608 13.0081C411.557 11.8198 409.882 10.6379 407.438 11.2113C402.639 12.3445 402.11 18.0515 397.377 19.6767C396.073 20.1012 394.679 20.167 393.34 19.8672C391.021 19.3802 389.395 18.2095 387.473 17.3314C385.212 16.2329 382.637 15.9669 380.2 16.5803C377.637 17.3179 375.371 18.842 373.721 20.9375C372.284 22.7678 371.547 24.6629 370.6 26.5365C369.414 28.8433 367.996 31.0229 366.368 33.0415C365.635 34.0116 364.778 34.8811 363.818 35.6275C362.531 36.5075 361.157 37.2533 359.718 37.8533L346.945 43.7164C345.242 44.4372 343.606 45.3079 342.056 46.3181C340.522 47.4638 339.141 48.8004 337.945 50.2957C335.365 53.2809 332.706 56.4125 332.148 59.4351C331.59 62.4576 333.929 65.2546 338.29 64.8817C342.456 64.5116 346.613 61.6022 350.852 60.879C357.533 59.7356 361.113 64.3924 367.703 63.6865C374.013 63.0001 379.436 57.9726 385.678 55.46C390.137 53.6455 394.909 53.2356 399.474 51.7293C406.057 49.5593 411.742 45.2508 415.218 40.7431C418.264 36.77 420.198 32.0578 420.824 27.0888C421.092 25.1985 421.21 23.2984 420.433 21.7251C419.617 20.041 417.403 19.6384 416.065 18.3572C414.546 16.8527 414.034 14.6202 412.608 13.0081Z" fill="#FF6C37"/>
<path opacity="0.5" d="M419.356 20.4647C419.356 20.4647 368.27 53.1097 332.616 62.4283" stroke="#535461" stroke-width="2" stroke-miterlimit="10"/>
<path opacity="0.5" d="M407.157 11.3101C407.157 11.3101 406.125 29.305 389.716 37.754" stroke="#535461" stroke-width="2" stroke-miterlimit="10"/>
<path opacity="0.5" d="M378.842 17.0479C378.842 17.0479 387.266 39.3701 377.881 43.9671" stroke="#535461" stroke-width="2" stroke-miterlimit="10"/>
<path opacity="0.5" d="M415.361 40.7025C415.361 40.7025 405.729 36.1138 387.325 39.0456" stroke="#535461" stroke-width="2" stroke-miterlimit="10"/>
<path opacity="0.5" d="M367.559 63.6209C367.559 63.6209 361.336 60.2439 369.654 48.0254" stroke="#535461" stroke-width="2" stroke-miterlimit="10"/>
<path opacity="0.5" d="M347.79 43.9879C347.79 43.9879 355.201 54.6503 360.829 52.1063" stroke="#535461" stroke-width="2" stroke-miterlimit="10"/>
</g>
<g opacity="0.5">
<path opacity="0.5" d="M90.1353 92.5909C89.2445 93.905 88.5119 95.8139 89.6774 98.0388C91.967 102.406 97.6283 101.507 100.38 105.687C101.115 106.845 101.525 108.179 101.566 109.55C101.67 111.917 100.938 113.78 100.559 115.863C100.059 118.32 100.44 120.875 101.637 123.079C102.988 125.377 105.026 127.194 107.465 128.273C109.596 129.213 111.628 129.454 113.667 129.912C116.198 130.491 118.662 131.327 121.023 132.407C122.145 132.877 123.2 133.492 124.162 134.237C125.334 135.265 126.399 136.41 127.338 137.655L136.192 148.576C137.317 150.048 138.571 151.418 139.938 152.668C141.431 153.871 143.07 154.878 144.817 155.667C148.351 157.426 152.048 159.227 155.116 159.023C158.184 158.819 160.315 155.862 158.862 151.729C157.489 147.794 153.617 144.48 151.861 140.554C149.092 134.366 152.718 129.741 150.399 123.545C148.177 117.589 141.945 113.597 137.965 108.157C135.11 104.273 133.52 99.7731 130.926 95.7183C127.18 89.896 121.602 85.4419 116.357 83.1879C111.748 81.2196 106.698 80.5106 101.724 81.1335C99.8262 81.3414 97.9572 81.6949 96.6084 82.8302C95.1764 84.0363 95.3596 86.2903 94.4271 87.8915C93.3865 89.7629 91.3467 90.8109 90.1353 92.5909Z" fill="#FF6C37"/>
<path opacity="0.5" d="M95.6926 84.2153C95.6926 84.2153 140.018 125.616 157.892 157.85" stroke="#535461" stroke-width="2" stroke-miterlimit="10"/>
<path opacity="0.5" d="M89.8481 98.2885C89.8481 98.2885 107.561 94.8492 119.82 108.644" stroke="#535461" stroke-width="2" stroke-miterlimit="10"/>
<path opacity="0.5" d="M102.436 124.281C102.436 124.281 122.001 110.611 128.77 118.562" stroke="#535461" stroke-width="2" stroke-miterlimit="10"/>
<path opacity="0.5" d="M116.307 83.1089C116.307 83.1089 114.246 93.5723 121.66 110.665" stroke="#535461" stroke-width="2" stroke-miterlimit="10"/>
<path opacity="0.5" d="M150.387 123.703C150.387 123.703 148.655 130.565 134.735 125.52" stroke="#535461" stroke-width="2" stroke-miterlimit="10"/>
<path opacity="0.5" d="M136.259 147.703C136.259 147.703 144.755 137.893 140.892 133.077" stroke="#535461" stroke-width="2" stroke-miterlimit="10"/>
</g>
<path d="M81.8057 44.5702C79.7243 47.028 77.7761 50.4299 79.308 53.786C82.2802 60.361 93.1825 57.1546 97.0747 63.2846C98.2402 65.1187 98.3984 67.3602 98.1278 69.3606C97.6033 73.274 95.6635 76.5969 94.3231 80.1734C92.9827 83.7499 92.2875 88.075 94.1774 91.8512C95.9965 95.5068 99.8304 97.8149 103.544 98.734C107.257 99.653 110.978 99.4451 114.687 99.5657C119.094 99.7384 123.469 100.382 127.737 101.487C129.616 101.892 131.418 102.594 133.074 103.566C134.968 104.777 136.5 106.552 137.999 108.299L151.319 123.807C153.089 125.887 154.895 127.966 157.089 129.492C159.62 131.251 162.501 132.145 165.335 133.006C171.434 134.869 177.824 136.749 183.652 135.472C189.479 134.196 194.371 128.631 192.914 122.189C191.527 116.055 185.275 111.705 183.169 105.696C179.838 96.2262 188.06 87.4429 185.591 77.807C183.227 68.5663 172.745 63.8003 166.917 55.9777C162.755 50.3717 161.114 43.36 157.476 37.3963C152.235 28.8043 143.094 23.1027 133.957 20.9401C124.819 18.7775 115.632 19.8214 107.082 21.9756C103.46 22.8947 99.8387 24.055 96.9664 26.3506C93.9151 28.7918 93.5613 32.4931 91.3384 35.4417C88.7616 38.8769 84.6114 41.239 81.8057 44.5702Z" fill="#FF6C37"/>
<path d="M94.7726 28.9326C94.7726 28.9326 165.402 84.4521 189.167 132.719" stroke="#535461" stroke-width="2" stroke-miterlimit="10"/>
<path d="M79.5328 54.1478C79.5328 54.1478 113.821 43.0522 132.629 62.3156" stroke="#535461" stroke-width="2" stroke-miterlimit="10"/>
<path d="M95.268 93.6306C95.268 93.6306 136.109 64.9352 146.432 76.1264" stroke="#535461" stroke-width="2" stroke-miterlimit="10"/>
<path d="M133.811 20.8149C133.811 20.8149 126.772 38.8598 135.476 65.0892" stroke="#535461" stroke-width="2" stroke-miterlimit="10"/>
<path d="M185.45 29.5796C185.45 29.5796 180.117 41.5277 155.52 37.3482" stroke="#535461" stroke-width="2" stroke-miterlimit="10"/>
<path d="M151.644 73.841C151.644 73.841 170.572 54.9269 164.786 48.0566" stroke="#535461" stroke-width="2" stroke-miterlimit="10"/>
<path opacity="0.1" d="M250.247 287.884C361.945 287.884 452.494 280.235 452.494 270.8C452.494 261.365 361.945 253.716 250.247 253.716C138.549 253.716 48 261.365 48 270.8C48 280.235 138.549 287.884 250.247 287.884Z" fill="#FF6C37"/>
<path d="M407.258 136.102C406.396 133.582 405.151 130.388 404.169 129.635C404.109 129.587 404.043 129.546 403.973 129.514H403.853V126.4L401.53 126.77C401.161 125.645 400.882 124.492 400.697 123.322C400.921 123.546 401.206 123.699 401.516 123.761C401.827 123.823 402.149 123.792 402.441 123.671C402.404 123.609 402.371 123.542 402.337 123.476L402.441 123.43C402.076 122.786 401.882 122.058 401.88 121.318C401.898 120.641 402.006 119.97 402.2 119.321C402.616 117.887 403.32 116.547 403.711 115.104C403.961 114.176 404.079 113.217 404.061 112.256C404.074 110.626 403.703 109.016 402.978 107.556C402.795 107.135 402.509 106.766 402.146 106.483C401.819 106.302 401.483 106.138 401.139 105.992C400.561 105.604 400.064 105.109 399.673 104.533C398.023 102.525 395.814 101.052 393.325 100.299C392.676 100.057 391.973 100.001 391.294 100.137C389.733 100.553 389.166 102.487 387.901 103.501C386.785 104.396 385.253 104.487 383.851 104.786C382.448 105.086 381.037 105.681 380.079 106.762C379.42 107.515 379.06 108.485 379.068 109.486C379.029 109.954 379.112 110.423 379.307 110.85C379.502 111.277 379.804 111.646 380.183 111.923C380.615 112.206 381.105 112.39 381.617 112.462C382.128 112.534 382.649 112.492 383.143 112.339C382.757 113.67 382.651 115.066 382.831 116.44C383.011 117.815 383.473 119.137 384.189 120.324C384.905 121.511 385.858 122.537 386.99 123.339C388.122 124.14 389.407 124.7 390.765 124.981L391.036 125.468C391.872 127.024 392.507 128.68 392.925 130.396C390.786 131.606 388.45 132.742 387.039 132.85C386.982 133.401 386.879 133.946 386.731 134.48C386.401 135.819 385.767 137.064 384.879 138.119C382.96 140.273 374.33 156.559 374.33 156.559C374.33 156.559 374.06 157.208 373.614 158.314C368.257 158.971 359.511 159.919 357.072 159.433L347.497 150.333C347.497 150.333 344.4 152.695 344.671 155.565L342.968 153.926C342.968 153.926 333.86 160.872 348.242 165.421L370.126 167.958C368.045 174.242 366.096 181.557 366.7 185.537H366.879C367.297 185.537 367.715 185.505 368.128 185.442L368.09 186.149L365.972 223.864C365.972 223.864 365.493 230.81 371.966 233.92C371.966 233.92 379.875 257.147 376.761 259.784C376.761 259.784 377.132 259.979 377.756 260.249L371.25 266.009C371.25 266.009 366.454 267.207 363.819 266.966C363.356 266.902 362.886 267.011 362.498 267.272C362.111 267.533 361.833 267.927 361.717 268.38C361.717 268.43 361.717 268.48 361.692 268.53V268.592C361.692 268.642 361.692 268.692 361.692 268.746C361.692 268.8 361.692 268.783 361.692 268.804C361.692 268.825 361.692 268.891 361.692 268.937C361.692 268.983 361.692 268.975 361.692 268.991C361.692 269.008 361.692 269.095 361.721 269.145V269.203C361.735 269.259 361.753 269.314 361.776 269.37L361.796 269.42C361.817 269.474 361.842 269.528 361.871 269.582V269.619C361.9 269.673 361.934 269.723 361.967 269.777L361.996 269.823C362.035 269.878 362.078 269.934 362.125 269.989L362.163 270.031C362.213 270.089 362.267 270.143 362.321 270.197L362.346 270.218L362.525 270.372L362.562 270.401C362.629 270.455 362.704 270.505 362.779 270.555L362.829 270.588C362.908 270.638 362.991 270.688 363.078 270.734H363.116L363.387 270.867H363.424L363.74 270.992L363.807 271.016L364.152 271.129H364.211L364.59 271.229H364.619L365.035 271.312H365.118L365.568 271.378H365.655L366.163 271.428C367.15 271.503 368.478 271.532 370.014 271.524C370.014 271.524 370.014 271.561 370.014 271.582C370.014 271.603 370.014 271.669 370.014 271.715V271.769C370.014 271.819 370.014 271.873 370.043 271.923V271.981C370.057 272.037 370.075 272.092 370.097 272.148L370.118 272.198C370.139 272.252 370.164 272.306 370.193 272.36V272.397C370.222 272.451 370.255 272.501 370.288 272.555L370.318 272.601C370.356 272.656 370.399 272.712 370.447 272.767L370.484 272.809C370.534 272.867 370.588 272.921 370.642 272.975L370.667 272.996L370.846 273.15L370.884 273.179C370.95 273.233 371.025 273.283 371.1 273.333L371.154 273.366C371.233 273.416 371.317 273.466 371.404 273.512H371.441L371.712 273.645H371.75L372.066 273.77L372.132 273.795L372.478 273.907H372.536L372.915 274.007H372.944L373.36 274.09H373.444L373.893 274.156H373.981L374.489 274.206C380.733 274.684 400.614 273.25 400.614 273.25V273.196V273.125C400.81 272.198 401.767 266.808 398.37 262.824C398.47 262.72 398.57 262.607 398.662 262.491C398.662 262.491 396.027 257.941 397.463 256.502C398.899 255.063 390.274 230.161 390.274 230.161C390.274 230.161 385.72 222.979 388.355 214.836C390.99 206.693 388.113 197.835 388.113 197.835C388.113 197.835 394.399 195.967 394.528 188.236C394.528 188.003 394.528 187.762 394.528 187.517C394.666 187.536 394.805 187.545 394.944 187.542C395.033 187.548 395.122 187.548 395.211 187.542C395.211 187.542 394.012 183.233 395.452 180.118C396.893 177.003 400.006 179.877 402.883 167.189C404.964 158.006 406.796 147.443 407.649 142.303C408.018 140.234 407.884 138.108 407.258 136.102ZM352.555 163.042L350.37 160.963C351.094 161.262 351.897 161.558 352.796 161.841L361.039 162.797C357.359 163.13 353.941 163.317 352.555 163.042Z" fill="url(#paint0_linear)"/>
<path d="M373.419 161.828C373.419 161.828 356.464 164.182 352.93 163.492L343.493 154.525C343.493 154.525 334.543 161.35 348.675 165.816L375.067 168.898L373.419 161.828Z" fill="#FDC2CC"/>
<path opacity="0.05" d="M373.419 161.828C373.419 161.828 356.464 164.182 352.93 163.492L343.493 154.525C343.493 154.525 334.543 161.35 348.675 165.816L375.067 168.898L373.419 161.828Z" fill="black"/>
<path d="M379.542 257.334L371.3 264.629C371.3 264.629 366.592 265.806 363.998 265.569C361.405 265.332 360.231 269.57 366.355 270.039C372.478 270.509 392.022 269.1 392.022 269.1C392.022 269.1 393.908 261.572 388.255 257.334H379.542Z" fill="#47465A"/>
<path opacity="0.05" d="M379.542 257.334L371.3 264.629C371.3 264.629 366.592 265.806 363.998 265.569C361.405 265.332 360.231 269.57 366.355 270.039C372.478 270.509 392.022 269.1 392.022 269.1C392.022 269.1 393.908 261.572 388.255 257.334H379.542Z" fill="black"/>
<path opacity="0.3" d="M392.318 265.843C392.304 266.7 392.205 267.554 392.022 268.392C392.022 268.392 372.457 269.802 366.355 269.332C363.412 269.107 362.159 268.01 361.934 266.957C361.667 268.163 362.733 269.76 366.355 270.039C372.478 270.509 392.022 269.099 392.022 269.099C392.251 268.03 392.351 266.936 392.318 265.843Z" fill="white"/>
<path d="M389.196 123.942C389.196 123.942 394.378 131.236 392.492 136.177C390.607 141.118 402.383 130.999 402.383 130.999C402.383 130.999 398.616 124.412 400.497 117.354L389.196 123.942Z" fill="#FDC2CC"/>
<path d="M387.784 260.158L379.542 267.461C379.542 267.461 374.834 268.637 372.241 268.4C369.647 268.163 368.469 272.393 374.597 272.867C380.724 273.341 400.264 271.927 400.264 271.927C400.264 271.927 402.15 264.4 396.497 260.162L387.784 260.158Z" fill="#47465A"/>
<path d="M390.141 258.511C388.913 260.025 387.181 260.59 385.37 260.694C381.253 260.89 376.72 258.511 376.72 258.511C379.779 255.924 372.012 233.101 372.012 233.101C365.655 230.044 366.126 223.22 366.126 223.22L368.207 186.177L368.727 176.874L375.321 172.874L380.52 176.858L385.449 180.638C385.77 181.84 385.976 183.069 386.065 184.31C386.636 192.956 379.796 194.99 379.796 194.99C379.796 194.99 382.623 203.694 380.033 211.691C377.444 219.689 381.919 226.746 381.919 226.746C381.919 226.746 390.399 251.212 388.996 252.626C387.593 254.04 390.141 258.511 390.141 258.511Z" fill="#565171"/>
<path opacity="0.05" d="M390.141 258.511C388.913 260.025 387.181 260.59 385.37 260.694C381.253 260.89 376.72 258.511 376.72 258.511C379.779 255.924 372.012 233.101 372.012 233.101C365.655 230.044 366.126 223.22 366.126 223.22L368.207 186.177L368.727 176.874L375.321 172.874L380.52 176.858L385.449 180.638C385.77 181.84 385.976 183.069 386.065 184.31C386.636 192.956 379.796 194.99 379.796 194.99C379.796 194.99 382.623 203.694 380.033 211.691C377.444 219.689 381.919 226.746 381.919 226.746C381.919 226.746 390.399 251.212 388.996 252.626C387.593 254.04 390.141 258.511 390.141 258.511Z" fill="black"/>
<path d="M398.383 261.335C394.378 266.275 384.962 261.335 384.962 261.335C385.154 261.161 385.297 260.94 385.378 260.694C387.106 256.003 379.551 233.575 379.551 233.575C373.194 230.518 372.474 223.224 372.474 223.224L370.809 185.525L370.592 180.642L380.5 176.862L383.543 175.702L393.671 183.454C394.109 185.057 394.327 186.712 394.32 188.373C394.195 195.98 388.034 197.814 388.034 197.814C388.034 197.814 390.861 206.518 388.271 214.515C385.682 222.513 390.157 229.57 390.157 229.57C390.157 229.57 398.637 254.036 397.234 255.45C395.831 256.864 398.383 261.335 398.383 261.335Z" fill="#565171"/>
<path opacity="0.1" d="M394.32 188.382C392.284 188.091 388.163 185.641 386.044 184.31C385.237 183.803 384.721 183.479 384.721 183.479C384.721 183.479 382.602 177.598 376.949 182.069C375.11 183.559 373.035 184.73 370.809 185.533C369.957 185.834 369.079 186.054 368.186 186.19L368.707 176.887L375.3 172.886L380.5 176.87L383.543 175.71L393.671 183.454C394.11 185.059 394.328 186.717 394.32 188.382Z" fill="black"/>
<path d="M407.066 143.251C406.234 148.299 404.427 158.676 402.383 167.7C399.557 180.176 396.497 177.344 395.082 180.405C393.666 183.466 394.844 187.7 394.844 187.7C392.488 187.937 384.717 182.759 384.717 182.759C384.717 182.759 382.598 176.879 376.945 181.349C371.292 185.82 366.817 185.583 366.817 185.583C365.639 177.818 374.351 157.116 374.351 157.116C374.351 157.116 382.839 141.117 384.704 139C385.577 137.963 386.199 136.74 386.523 135.424C386.668 134.9 386.768 134.364 386.823 133.823C389.882 133.586 397.421 128.416 397.421 128.416L403.307 127.477V130.533C403.376 130.564 403.44 130.603 403.499 130.65C404.469 131.39 405.688 134.53 406.533 137.004C407.223 139.011 407.406 141.157 407.066 143.251Z" fill="#F68080"/>
<path opacity="0.1" d="M402.383 133.59C402.383 133.59 396.26 128.649 387.077 144.648C377.894 160.647 375.775 158.056 375.775 158.056C375.775 158.056 377.661 165.126 376.716 166.527C376.716 166.527 383.072 166.057 385.428 166.527C387.784 166.997 402.383 148.645 402.383 148.645C402.383 148.645 409.922 138.293 402.383 133.59Z" fill="black"/>
<path opacity="0.1" d="M402.15 132.646C402.15 132.646 396.027 127.726 386.844 143.704C377.661 159.682 375.546 157.116 375.546 157.116C375.546 157.116 382.839 165.113 385.195 165.571C387.551 166.028 402.15 147.688 402.15 147.688C402.15 147.688 409.68 137.353 402.15 132.646Z" fill="black"/>
<path opacity="0.1" d="M376.499 164.997C376.595 163.255 375.937 160.19 375.558 158.601C376.99 158.414 377.894 158.289 377.894 158.289L379.559 165.359L376.499 164.997Z" fill="black"/>
<path opacity="0.1" d="M400.735 117.824L389.433 124.399C389.909 125.094 390.348 125.813 390.748 126.553C391.4 126.686 392.064 126.753 392.73 126.753C395.748 126.753 397.155 123.588 398.974 121.459C398.857 119.762 400.231 119.721 400.735 117.824Z" fill="black"/>
<path d="M392.497 126.295C397.959 126.295 402.387 121.871 402.387 116.414C402.387 110.957 397.959 106.533 392.497 106.533C387.034 106.533 382.606 110.957 382.606 116.414C382.606 121.871 387.034 126.295 392.497 126.295Z" fill="#FDC2CC"/>
<path opacity="0.1" d="M379.983 108.421C380.982 107.399 382.279 106.719 383.688 106.479C385.062 106.184 386.569 106.092 387.668 105.231C388.917 104.238 389.466 102.349 390.998 101.929C391.664 101.796 392.355 101.85 392.992 102.087C395.44 102.825 397.613 104.273 399.236 106.246C399.619 106.812 400.106 107.299 400.672 107.681C401.011 107.824 401.342 107.985 401.663 108.163C402.016 108.441 402.293 108.803 402.471 109.216C403.575 111.443 403.83 113.996 403.187 116.398C402.804 117.816 402.113 119.13 401.705 120.557C401.297 121.983 401.193 123.567 401.942 124.828C401.218 125.198 400.302 124.732 399.861 124.058C399.419 123.384 399.269 122.553 399.028 121.775C398.557 120.245 397.674 118.874 396.476 117.812C395.735 117.155 394.395 116.714 393.891 117.562C393.691 117.891 393.704 118.307 393.533 118.648C393.196 119.313 392.222 119.446 391.577 119.064C390.955 118.635 390.518 117.987 390.353 117.25C389.383 113.973 387.73 111.91 384.221 113.312C382.914 113.836 381.374 114.189 380.117 113.291C378.46 112.106 378.797 109.76 379.983 108.421Z" fill="black"/>
<path d="M379.983 108.18C380.982 107.158 382.279 106.478 383.688 106.238C385.062 105.943 386.569 105.851 387.668 104.99C388.917 103.996 389.466 102.108 390.998 101.688C391.664 101.554 392.355 101.609 392.992 101.846C395.44 102.584 397.613 104.031 399.236 106.005C399.619 106.571 400.106 107.058 400.672 107.44C401.011 107.583 401.342 107.744 401.663 107.922C402.016 108.2 402.293 108.562 402.471 108.974C403.575 111.202 403.83 113.755 403.187 116.157C402.804 117.575 402.113 118.889 401.705 120.315C401.297 121.742 401.193 123.326 401.942 124.586C401.218 124.956 400.302 124.491 399.861 123.817C399.419 123.143 399.269 122.312 399.028 121.534C398.557 120.004 397.674 118.633 396.476 117.571C395.735 116.913 394.395 116.473 393.891 117.321C393.691 117.65 393.704 118.065 393.533 118.406C393.196 119.072 392.222 119.205 391.577 118.822C390.955 118.393 390.518 117.746 390.353 117.009C389.383 113.732 387.73 111.669 384.221 113.071C382.914 113.595 381.374 113.948 380.117 113.05C378.46 111.869 378.797 109.527 379.983 108.18Z" fill="#B96B6B"/>
<path opacity="0.05" d="M403.52 130.637H398.732C398.732 130.637 389.312 135.341 389.079 135.108C388.921 134.95 387.464 135.22 386.54 135.416C386.684 134.891 386.785 134.356 386.839 133.815C389.899 133.577 397.438 128.408 397.438 128.408L403.324 127.468V130.525C403.394 130.554 403.459 130.592 403.52 130.637Z" fill="black"/>
<path opacity="0.3" d="M400.56 268.667C400.546 269.524 400.447 270.378 400.264 271.216C400.264 271.216 380.699 272.626 374.597 272.156C371.654 271.932 370.401 270.834 370.176 269.782C369.91 270.988 370.975 272.585 374.597 272.863C380.72 273.333 400.264 271.923 400.264 271.923C400.494 270.854 400.593 269.76 400.56 268.667Z" fill="white"/>
<g opacity="0.05">
<path opacity="0.05" d="M374.713 181.113C371.537 183.608 368.727 184.652 366.883 185.068C366.883 185.242 366.917 185.417 366.942 185.583C366.942 185.583 371.417 185.82 377.07 181.35C377.945 180.6 378.98 180.059 380.096 179.769C378.876 179.183 377.103 179.22 374.713 181.113Z" fill="black"/>
<path opacity="0.05" d="M406.671 137C405.838 134.505 404.589 131.386 403.636 130.646C403.577 130.599 403.513 130.56 403.445 130.529C403.445 130.529 401.497 130.596 401.559 130.646C402.529 131.386 403.47 134.289 404.315 136.763C404.996 138.769 405.172 140.912 404.827 143.001C403.994 148.05 402.188 158.426 400.144 167.451C397.317 179.927 394.258 177.095 392.842 180.156C391.685 182.651 392.264 185.953 392.513 187.064C393.521 187.479 394.395 187.741 394.961 187.683C394.961 187.683 393.783 183.45 395.198 180.389C396.614 177.328 399.673 180.152 402.5 167.684C404.544 158.663 406.342 148.283 407.183 143.234C407.527 141.146 407.351 139.005 406.671 137Z" fill="black"/>
</g>
<path d="M166.309 267.794C166.309 267.794 160.898 268.168 157.526 262.387C156.872 261.22 156.099 260.123 155.22 259.114C154.14 257.346 153.579 255.309 153.601 253.238C153.788 248.946 149.305 225.424 149.305 225.424C149.305 225.424 149.867 216.462 145.379 210.868C142.428 207.184 138.182 196.62 135.622 189.833C135.794 189.986 136.001 190.095 136.225 190.149L136.121 189.563L136.225 189.588L134.918 182.306C132.992 180.092 131.368 177.632 130.089 174.991L130.389 174.928L134.356 174.097C134.356 174.097 140.804 164.947 141.2 160.439L141.724 160.464H142.465C150.67 160.285 160.328 161.4 160.328 161.4C160.328 161.371 160.282 161.254 160.232 161.071C159.981 160.165 159.788 159.244 159.653 158.314L160.024 158.289L163.695 158.044C163.695 158.044 176.4 143.858 171.729 141.242C167.059 138.626 162.201 153.003 162.201 153.003L160.632 153.29L160.215 153.369C160.257 153.307 160.298 153.249 160.348 153.19C160.398 153.132 139.605 152.259 136.429 147.218C136.429 147.218 127.271 139.936 126.901 135.083C126.701 132.509 125.086 131.141 123.608 130.425C122.478 129.887 121.227 129.654 119.978 129.747L115.69 130.043L115.994 130.583H115.874C115.605 129.968 115.38 129.334 115.199 128.687H115.287C115.258 128.554 115.228 128.421 115.203 128.271C116.517 127.961 117.756 127.391 118.845 126.595C119.935 125.798 120.853 124.791 121.546 123.634C122.239 122.476 122.692 121.191 122.879 119.856C123.066 118.52 122.982 117.16 122.634 115.857C123.049 115.911 123.471 115.9 123.883 115.824C125.456 115.5 126.576 113.903 126.618 112.297C126.618 112.193 126.618 112.089 126.618 111.985C126.618 111.985 126.618 111.944 126.618 111.923C126.602 111.119 126.407 110.328 126.047 109.609C125.687 108.889 125.171 108.259 124.536 107.764C123.679 107.053 122.659 106.546 121.88 105.756C120.956 104.812 120.453 103.547 119.733 102.429C118.532 100.589 116.75 99.2026 114.671 98.4902C113.122 97.9662 111.228 97.908 110.042 99.0308C109.43 99.6089 109.076 100.436 108.377 100.923C107.39 101.626 106.05 101.418 104.842 101.559C102.653 101.817 100.73 103.377 99.7638 105.36C99.1716 106.613 98.8862 107.989 98.9312 109.374C98.9181 110.324 99.0314 111.273 99.2684 112.193C99.5015 113.112 99.8471 113.998 100.101 114.909C100.625 116.805 100.746 118.802 101.35 120.677C101.759 122.065 102.573 123.299 103.689 124.22L103.51 124.994C103.394 125.019 100.484 125.643 98.4692 130.034C96.879 133.495 91.5007 137.071 89.1363 138.514C88.6952 138.784 88.3123 139.139 88.0099 139.558C87.7076 139.977 87.4919 140.452 87.3755 140.955C87.1484 141.973 87.0477 143.015 87.0757 144.058C87.0341 146.308 87.492 149.418 89.3153 153.365C93.4281 162.327 96.4169 166.257 96.4169 166.257C96.4169 166.257 96.6459 169.002 96.6584 171.897C96.6584 174.051 96.5002 176.197 96.0423 177.27C95.6552 178.176 95.5344 180.493 95.5428 183.134C95.5428 188.203 96.0423 194.82 96.0423 194.82C96.0423 194.82 97.4701 195.09 99.6847 195.414L101.063 219.614C101.236 222.545 100.294 225.432 98.4276 227.699C97.4574 228.888 96.3382 229.947 95.0974 230.851C91.1719 233.65 82.7631 263.148 82.7631 263.148C82.7631 263.148 83.1794 263.173 83.8538 263.227L81.2687 270.43C81.2687 270.43 91.5923 278.332 97.8781 276.173C98.5495 275.955 99.2538 275.855 99.9594 275.878C101.208 275.878 103.852 274.901 102.374 273.607C99.6889 271.262 96.4711 267.71 94.3189 265.24C94.5219 265.338 94.7167 265.452 94.9017 265.581V265.523L94.9891 265.581C94.9891 265.581 95.0099 265.29 95.0557 264.82L94.9641 264.791C95.1556 262.849 95.7551 257.966 96.9498 257.367C98.4442 256.619 109.467 234.781 109.467 234.781L120.49 206.406C120.49 206.406 129.274 221.527 136.746 224.139V230.448C136.746 230.448 140.858 249.117 142.353 251.171C143.847 253.225 142.353 261.439 142.353 261.439C142.648 261.777 142.987 262.075 143.36 262.325L142.166 269.091C142.166 269.091 150.762 268.717 165.335 273.2C165.373 273.208 170.98 270.788 166.309 267.794ZM131.925 170.146L130.106 170.599L129.748 170.691C129.711 170.466 129.686 170.333 129.686 170.333C129.269 170.52 128.822 170.628 128.366 170.653C127.721 168.612 127.349 166.495 127.259 164.357C127.259 164.357 126.201 160.044 126.143 156.559C126.164 155.199 126.368 154.014 126.884 153.344L127.492 153.394L127.908 153.81L127.937 153.839L128.154 154.035L128.379 154.238L128.416 154.272L128.662 154.484L128.703 154.521L128.953 154.733L128.978 154.754L129.257 154.983L129.319 155.033L129.615 155.27H129.64L129.931 155.499L129.998 155.548L130.318 155.794L130.385 155.844L130.693 156.068L130.747 156.106L131.097 156.355L131.18 156.413L131.546 156.667L131.58 156.688L131.938 156.925L132.025 156.983L132.412 157.229L132.495 157.278L132.858 157.499L132.924 157.54L133.341 157.782L133.44 157.84L133.857 158.081H133.89L134.306 158.302L134.41 158.356L134.852 158.576L134.943 158.618L135.359 158.809L135.439 158.846L135.901 159.046L136.013 159.092L136.496 159.283C133.457 162.523 131.925 170.146 131.925 170.146Z" fill="url(#paint1_linear)"/>
<path d="M85.8394 258.777L82.3718 268.438C82.3718 268.438 91.8671 275.712 98.0363 274.206C98.9655 273.976 99.9123 273.823 100.867 273.749C102.145 273.653 104.343 272.726 102.986 271.541C98.6065 267.715 92.7704 260.607 92.7704 260.607L85.8394 258.777Z" fill="#4F4D59"/>
<path d="M143.485 257.862L141.845 267.157C141.845 267.157 150.237 266.791 164.465 271.166C164.465 271.166 169.939 268.795 165.377 265.88C165.377 265.88 160.086 266.246 156.802 260.594C153.517 254.943 151.511 255.675 151.511 255.675L143.485 257.862Z" fill="#4F4D59"/>
<path d="M100.068 190.432L101.674 218.712C101.847 221.726 100.846 224.69 98.8813 226.984C97.9932 228.037 96.9813 228.979 95.8675 229.791C92.0377 232.523 83.8288 261.318 83.8288 261.318C83.8288 261.318 93.1325 261.863 95.6843 263.689C95.6843 263.689 96.2296 256.399 97.6907 255.671C99.1519 254.943 109.913 233.629 109.913 233.629L120.682 205.911C120.682 205.911 129.257 220.675 136.554 223.224V229.421C136.554 229.421 140.567 247.644 142.028 249.649C143.489 251.653 142.028 259.671 142.028 259.671C142.028 259.671 146.224 264.957 155.89 259.305C155.89 259.305 152.789 255.841 152.976 251.649C153.164 247.457 148.78 224.497 148.78 224.497C148.78 224.497 149.325 215.763 144.95 210.282C140.575 204.801 133.274 183.87 133.274 183.87L128.254 173.078L100.068 190.432Z" fill="#787C9C"/>
<g opacity="0.1">
<path opacity="0.1" d="M85.5646 261.326C85.5646 261.326 93.7736 232.531 97.6033 229.799C98.7807 228.939 99.845 227.934 100.771 226.809C102.645 224.546 103.587 221.655 103.406 218.724L101.799 190.444L128.695 173.868L128.329 173.082L100.151 190.432L101.758 218.712C101.946 221.643 101.009 224.537 99.1394 226.804C98.2132 227.93 97.1489 228.935 95.9715 229.795C92.1418 232.527 83.9328 261.322 83.9328 261.322C83.9328 261.322 93.2366 261.867 95.7884 263.693C95.7884 263.693 95.8092 263.41 95.855 262.948C92.2583 261.721 85.5646 261.326 85.5646 261.326Z" fill="black"/>
<path opacity="0.1" d="M143.76 259.688C143.76 259.688 145.221 251.67 143.76 249.665C142.299 247.661 138.269 229.433 138.269 229.433V223.236C130.989 220.687 122.413 205.911 122.413 205.911L121.776 207.574C124.249 211.492 130.847 221.219 136.642 223.244V229.441C136.642 229.441 140.654 247.665 142.116 249.669C143.577 251.674 142.116 259.692 142.116 259.692C142.116 259.692 144.151 262.249 148.647 261.904C145.296 261.638 143.76 259.688 143.76 259.688Z" fill="black"/>
</g>
<path d="M162.829 158.721L159.245 158.958L157.355 159.083V154.509L159.853 154.059L161.389 153.781C161.389 153.781 166.131 139.749 170.693 142.298C175.255 144.848 162.829 158.721 162.829 158.721Z" fill="#714B4F"/>
<path d="M105.359 121.181C105.359 121.181 102.986 130.293 102.257 135.944C101.529 141.596 119.22 137.038 119.22 137.038C119.22 137.038 112.473 128.837 116.307 124.462L105.359 121.181Z" fill="#714B4F"/>
<path d="M124.532 159.088L124.898 162.552L119.245 162.186L113.567 157.254L107.914 141.409L104.268 135.761L101.529 132.301L102.624 128.109C102.624 128.109 103.123 128.525 103.968 129.19C106.745 131.315 113.264 135.728 118.026 134.509C118.246 134.454 118.463 134.386 118.675 134.305L125.781 146.511L124.532 159.088Z" fill="#E6E6F0"/>
<path opacity="0.1" d="M104.081 127.011C104.081 127.011 101.167 127.556 99.156 131.931C97.6116 135.295 92.404 138.763 90.0771 140.19C89.6334 140.461 89.2487 140.818 88.9455 141.24C88.6424 141.662 88.427 142.141 88.3121 142.648C87.8417 144.727 87.6627 148.595 90.2186 154.167C94.2315 162.901 97.1496 166.744 97.1496 166.744C97.1496 166.744 97.8781 175.477 96.7833 178.043C95.6885 180.609 96.7833 194.628 96.7833 194.628C96.7833 194.628 115.932 198.271 122.322 194.628C128.712 190.985 127.796 176.949 127.796 176.949C127.796 176.949 133.815 189.692 136.005 190.07L134.727 182.963C134.727 182.963 127.613 175.306 127.234 165.467C127.234 165.467 125.044 156.538 126.867 154.167C126.867 154.167 157.697 156.721 159.52 154.533C159.52 154.533 139.272 153.623 136.171 148.711C136.171 148.711 127.234 141.604 126.867 136.867C126.814 135.978 126.535 135.118 126.056 134.367C125.578 133.616 124.916 133 124.133 132.575C122.892 131.87 121.468 131.553 120.045 131.664L115.924 131.947C115.924 131.947 123.038 144.523 122.671 146.162C122.305 147.8 123.038 161.104 123.038 161.104C123.038 161.104 114.845 143.413 111.211 141.408C107.577 139.404 103.369 131.174 103.369 131.174L104.097 127.015" fill="black"/>
<path opacity="0.1" d="M124.532 159.088L124.898 162.552L119.245 162.186L113.567 157.254L107.914 141.409L104.268 135.761L101.529 132.301L102.624 128.109C102.624 128.109 103.123 128.525 103.968 129.19L103.718 130.637C103.718 130.637 107.914 138.868 111.561 140.872C115.208 142.877 123.417 160.556 123.417 160.556C123.417 160.556 122.688 147.248 123.05 145.613C123.3 144.499 120.103 138.356 118.026 134.518C118.246 134.463 118.463 134.395 118.675 134.314L125.781 146.511L124.532 159.088Z" fill="black"/>
<path opacity="0.1" d="M159.237 158.963L157.347 159.088V154.513L159.845 154.064C158.966 155.224 158.996 157.254 159.237 158.963Z" fill="black"/>
<path d="M104.081 126.479C104.081 126.479 101.167 127.023 99.156 131.398C97.6116 134.763 92.404 138.231 90.0771 139.658C89.6334 139.929 89.2487 140.286 88.9455 140.708C88.6424 141.13 88.427 141.609 88.3121 142.115C87.8417 144.195 87.6627 148.063 90.2186 153.635C94.2315 162.369 97.1496 166.211 97.1496 166.211C97.1496 166.211 97.8781 174.945 96.7833 177.511C95.6885 180.077 96.7833 194.096 96.7833 194.096C96.7833 194.096 115.932 197.739 122.322 194.096C128.712 190.453 127.796 176.384 127.796 176.384C127.796 176.384 133.815 189.143 136.005 189.505L134.727 182.397C134.727 182.397 127.613 174.741 127.234 164.901C127.234 164.901 125.044 155.972 126.867 153.602C126.867 153.602 133.982 161.258 142.007 161.088C150.033 160.917 159.52 161.999 159.52 161.999C159.52 161.999 157.697 156.176 159.52 153.98C159.52 153.98 139.272 153.07 136.171 148.158C136.171 148.158 127.234 141.051 126.867 136.314C126.814 135.425 126.535 134.565 126.056 133.814C125.578 133.063 124.916 132.447 124.133 132.022C122.892 131.317 121.468 131 120.045 131.111L115.924 131.394C115.924 131.394 123.054 143.945 122.688 145.609C122.322 147.272 123.054 160.551 123.054 160.551C123.054 160.551 114.845 142.868 111.211 140.864C107.577 138.859 103.352 130.637 103.352 130.637L104.081 126.479Z" fill="#787C9C"/>
<path opacity="0.1" d="M100.068 145.609C100.068 145.609 104.447 160.372 106.999 162.194C109.55 164.016 125.057 173.31 129.619 171.123C129.619 171.123 130.714 176.592 129.074 177.864C129.074 177.864 112.065 177.199 111.927 177.136C111.927 177.136 100.8 175.677 98.977 170.212C97.1537 164.747 94.9641 155.449 94.9641 155.449L100.068 145.609Z" fill="black"/>
<path d="M123.421 162.278C123.772 162.278 124.058 161.87 124.058 161.367C124.058 160.864 123.772 160.456 123.421 160.456C123.069 160.456 122.784 160.864 122.784 161.367C122.784 161.87 123.069 162.278 123.421 162.278Z" fill="#BA7855"/>
<path d="M125.244 168.657C125.596 168.657 125.881 168.249 125.881 167.746C125.881 167.243 125.596 166.835 125.244 166.835C124.892 166.835 124.607 167.243 124.607 167.746C124.607 168.249 124.892 168.657 125.244 168.657Z" fill="#BA7855"/>
<g opacity="0.1">
<path opacity="0.1" d="M98.0612 193.896C98.0612 193.896 96.9664 179.865 98.0612 177.311C99.156 174.758 98.4275 166.012 98.4275 166.012C98.4275 166.012 95.5136 162.186 91.4966 153.436C88.9406 147.863 89.1238 143.995 89.59 141.916C89.7054 141.409 89.9215 140.93 90.2254 140.508C90.5292 140.086 90.9148 139.729 91.3592 139.458C93.6862 138.032 98.8938 134.563 100.434 131.199C101.566 128.733 102.986 127.481 104.014 126.861L104.085 126.445C104.085 126.445 101.171 126.99 99.1602 131.365C97.6158 134.73 92.4082 138.198 90.0854 139.624C89.641 139.895 89.2554 140.252 88.9516 140.674C88.6477 141.096 88.4316 141.575 88.3162 142.082C87.8458 144.162 87.6668 148.029 90.2228 153.602C94.2357 162.335 97.1537 166.178 97.1537 166.178C97.1537 166.178 97.8822 174.912 96.7874 177.478C95.6926 180.043 96.7874 194.063 96.7874 194.063C96.7874 194.063 110.47 196.666 118.563 195.273C110.379 196.242 98.0612 193.896 98.0612 193.896Z" fill="black"/>
<path opacity="0.1" d="M122.688 145.609C122.438 146.732 122.688 153.336 122.892 157.378C123.775 159.179 124.328 160.368 124.328 160.368C124.328 160.368 123.6 147.06 123.962 145.426C124.307 143.866 117.901 132.43 117.264 131.286L115.936 131.378C115.936 131.378 123.054 143.945 122.688 145.609Z" fill="black"/>
<path opacity="0.1" d="M143.302 160.909C135.276 161.092 128.162 153.423 128.162 153.423C127.947 153.721 127.79 154.057 127.7 154.413C129.781 156.372 135.609 161.225 142.024 161.067C150.05 160.884 159.537 161.978 159.537 161.978C159.537 161.978 159.499 161.857 159.441 161.649C154.079 161.104 148.691 160.856 143.302 160.909Z" fill="black"/>
<path opacity="0.1" d="M129.074 176.217C129.074 176.217 129.149 177.357 129.107 179.066C131.005 182.809 134.46 189.263 136.005 189.521L135.734 188.024C133.07 184.701 129.074 176.217 129.074 176.217Z" fill="black"/>
</g>
<path d="M134.181 174.396L130.306 175.228L127.25 175.872L128.891 171.298L130.031 171.011L131.809 170.57C131.809 170.57 134.365 157.811 139.472 158.726C144.58 159.641 134.181 174.396 134.181 174.396Z" fill="#714B4F"/>
<path opacity="0.1" d="M130.306 175.211L127.25 175.856L128.891 171.281L130.031 170.994C130.286 172.384 130.378 173.8 130.306 175.211Z" fill="black"/>
<path d="M100.068 145.235C100.068 145.235 104.447 159.998 106.999 161.82C109.55 163.642 125.057 172.936 129.619 170.749C129.619 170.749 130.714 176.218 129.074 177.49C129.074 177.49 112.065 176.825 111.927 176.762C111.927 176.762 100.8 175.303 98.977 169.838C97.1537 164.373 94.9641 155.074 94.9641 155.074L100.068 145.235Z" fill="#787C9C"/>
<path opacity="0.1" d="M105.542 121.546C105.542 121.546 105.171 122.973 104.676 125.048C105.688 126.958 107.301 128.481 109.266 129.383C111.232 130.285 113.44 130.515 115.549 130.039C115.112 128.167 115.208 126.296 116.49 124.811L105.542 121.546Z" fill="black"/>
<path d="M113.205 129.926C118.645 129.926 123.054 125.521 123.054 120.087C123.054 114.652 118.645 110.247 113.205 110.247C107.766 110.247 103.356 114.652 103.356 120.087C103.356 125.521 107.766 129.926 113.205 129.926Z" fill="#714B4F"/>
<path opacity="0.1" d="M121.756 117.379C122.471 117.578 123.22 117.623 123.954 117.512C125.49 117.196 126.584 115.637 126.622 114.069C126.607 113.283 126.416 112.511 126.065 111.808C125.713 111.106 125.21 110.49 124.59 110.006C123.758 109.311 122.759 108.816 121.997 108.043C121.094 107.124 120.603 105.884 119.916 104.803C118.739 103.005 116.994 101.652 114.958 100.961C113.447 100.449 111.599 100.391 110.437 101.489C109.842 102.05 109.492 102.861 108.826 103.335C107.86 104.021 106.553 103.818 105.375 103.955C104.307 104.119 103.296 104.543 102.432 105.19C101.567 105.837 100.875 106.687 100.417 107.664C99.5228 109.645 99.3519 111.876 99.9345 113.969C100.163 114.863 100.496 115.732 100.742 116.622C101.254 118.477 101.375 120.424 101.966 122.253C102.557 124.083 103.777 125.871 105.621 126.412C105.475 124.361 105.88 122.308 106.795 120.465C106.946 120.064 107.243 119.734 107.627 119.542C107.956 119.458 108.301 119.458 108.63 119.542C110.94 119.884 113.297 119.407 115.291 118.194C115.99 117.779 117.081 116.319 117.83 116.173C118.788 116.003 120.757 117.155 121.756 117.379Z" fill="black"/>
<path d="M121.756 117.013C122.471 117.211 123.22 117.257 123.954 117.146C125.49 116.83 126.584 115.271 126.622 113.703C126.606 112.917 126.416 112.145 126.065 111.442C125.713 110.739 125.21 110.124 124.59 109.64C123.758 108.945 122.759 108.45 121.997 107.677C121.094 106.758 120.603 105.518 119.916 104.437C118.739 102.639 116.994 101.286 114.958 100.594C113.447 100.083 111.598 100.025 110.437 101.122C109.842 101.684 109.492 102.495 108.826 102.969C107.86 103.655 106.553 103.451 105.375 103.589C104.307 103.753 103.296 104.177 102.432 104.824C101.567 105.471 100.875 106.321 100.417 107.298C99.5268 109.274 99.3559 111.498 99.9345 113.586C100.163 114.48 100.496 115.35 100.742 116.24C101.254 118.094 101.375 120.041 101.966 121.871C102.557 123.7 103.777 125.489 105.621 126.029C105.475 123.978 105.88 121.925 106.795 120.082C106.946 119.681 107.243 119.351 107.627 119.159C107.956 119.075 108.301 119.075 108.63 119.159C110.94 119.501 113.297 119.024 115.291 117.812C115.99 117.396 117.081 115.936 117.83 115.79C118.788 115.637 120.757 116.793 121.756 117.013Z" fill="#503F43"/>
<path d="M357.326 14.9155H142.216V271.927H357.326V14.9155Z" fill="#FAFBFC"/>
<path d="M357.326 14.9155H142.216V23.6281H357.326V14.9155Z" fill="#7983A6"/>
<path d="M171.284 119.646H328.257" stroke="#7983A6" stroke-miterlimit="10"/>
<g opacity="0.5">
<path opacity="0.5" d="M171.284 102.583H173.782" stroke="#7983A6" stroke-miterlimit="10"/>
<path opacity="0.5" d="M178.685 102.583H323.308" stroke="#7983A6" stroke-miterlimit="10" stroke-dasharray="11.78 11.78"/>
<path opacity="0.5" d="M325.759 102.583H328.257" stroke="#7983A6" stroke-miterlimit="10"/>
</g>
<g opacity="0.5">
<path opacity="0.5" d="M171.284 85.5229H173.782" stroke="#7983A6" stroke-miterlimit="10"/>
<path opacity="0.5" d="M178.685 85.5229H323.308" stroke="#7983A6" stroke-miterlimit="10" stroke-dasharray="11.78 11.78"/>
<path opacity="0.5" d="M325.759 85.5229H328.257" stroke="#7983A6" stroke-miterlimit="10"/>
</g>
<g opacity="0.5">
<path opacity="0.5" d="M171.284 68.4595H173.782" stroke="#7983A6" stroke-miterlimit="10"/>
<path opacity="0.5" d="M178.685 68.4595H323.308" stroke="#7983A6" stroke-miterlimit="10" stroke-dasharray="11.78 11.78"/>
<path opacity="0.5" d="M325.759 68.4595H328.257" stroke="#7983A6" stroke-miterlimit="10"/>
</g>
<g opacity="0.5">
<path opacity="0.5" d="M171.284 51.4004H173.782" stroke="#7983A6" stroke-miterlimit="10"/>
<path opacity="0.5" d="M178.685 51.4004H323.308" stroke="#7983A6" stroke-miterlimit="10" stroke-dasharray="11.78 11.78"/>
<path opacity="0.5" d="M325.759 51.4004H328.257" stroke="#7983A6" stroke-miterlimit="10"/>
</g>
<g opacity="0.3">
<path opacity="0.3" d="M190.362 85.5229H179.097V119.646H190.362V85.5229Z" fill="#FF6C37"/>
</g>
<path d="M221.791 68.2764H210.526V119.824H221.791V68.2764Z" fill="#FF6C37"/>
<g opacity="0.3">
<path opacity="0.3" d="M253.224 102.399H241.959V120.003H253.224V102.399Z" fill="#FF6C37"/>
</g>
<path d="M284.652 50.8555H273.388V119.829H284.652V50.8555Z" fill="#FF6C37"/>
<g opacity="0.3">
<path opacity="0.3" d="M316.081 67.5527H304.817V119.645H316.081V67.5527Z" fill="#FF6C37"/>
</g>
<path d="M184.73 130.351C186.334 130.351 187.635 129.051 187.635 127.448C187.635 125.845 186.334 124.545 184.73 124.545C183.125 124.545 181.824 125.845 181.824 127.448C181.824 129.051 183.125 130.351 184.73 130.351Z" fill="#FF6C37"/>
<path d="M216.342 130.351C217.946 130.351 219.247 129.051 219.247 127.448C219.247 125.845 217.946 124.545 216.342 124.545C214.737 124.545 213.436 125.845 213.436 127.448C213.436 129.051 214.737 130.351 216.342 130.351Z" fill="#FF6C37"/>
<path d="M247.954 130.351C249.558 130.351 250.859 129.051 250.859 127.448C250.859 125.845 249.558 124.545 247.954 124.545C246.349 124.545 245.048 125.845 245.048 127.448C245.048 129.051 246.349 130.351 247.954 130.351Z" fill="#FF6C37"/>
<path d="M279.565 130.351C281.17 130.351 282.471 129.051 282.471 127.448C282.471 125.845 281.17 124.545 279.565 124.545C277.961 124.545 276.66 125.845 276.66 127.448C276.66 129.051 277.961 130.351 279.565 130.351Z" fill="#FF6C37"/>
<path d="M311.177 130.351C312.782 130.351 314.083 129.051 314.083 127.448C314.083 125.845 312.782 124.545 311.177 124.545C309.573 124.545 308.272 125.845 308.272 127.448C308.272 129.051 309.573 130.351 311.177 130.351Z" fill="#FF6C37"/>
<path d="M171.284 229.275H328.257" stroke="#7983A6" stroke-miterlimit="10"/>
<g opacity="0.5">
<path opacity="0.5" d="M171.284 212.211H173.782" stroke="#7983A6" stroke-miterlimit="10"/>
<path opacity="0.5" d="M178.685 212.211H323.308" stroke="#7983A6" stroke-miterlimit="10" stroke-dasharray="11.78 11.78"/>
<path opacity="0.5" d="M325.759 212.211H328.257" stroke="#7983A6" stroke-miterlimit="10"/>
</g>
<g opacity="0.5">
<path opacity="0.5" d="M171.284 195.152H173.782" stroke="#7983A6" stroke-miterlimit="10"/>
<path opacity="0.5" d="M178.685 195.152H323.308" stroke="#7983A6" stroke-miterlimit="10" stroke-dasharray="11.78 11.78"/>
<path opacity="0.5" d="M325.759 195.152H328.257" stroke="#7983A6" stroke-miterlimit="10"/>
</g>
<g opacity="0.5">
<path opacity="0.5" d="M171.284 178.089H173.782" stroke="#7983A6" stroke-miterlimit="10"/>
<path opacity="0.5" d="M178.685 178.089H323.308" stroke="#7983A6" stroke-miterlimit="10" stroke-dasharray="11.78 11.78"/>
<path opacity="0.5" d="M325.759 178.089H328.257" stroke="#7983A6" stroke-miterlimit="10"/>
</g>
<g opacity="0.5">
<path opacity="0.5" d="M171.284 161.029H173.782" stroke="#7983A6" stroke-miterlimit="10"/>
<path opacity="0.5" d="M178.685 161.029H323.308" stroke="#7983A6" stroke-miterlimit="10" stroke-dasharray="11.78 11.78"/>
<path opacity="0.5" d="M325.759 161.029H328.257" stroke="#7983A6" stroke-miterlimit="10"/>
</g>
<path d="M190.362 195.152H179.097V229.275H190.362V195.152Z" fill="#FF6C37"/>
<path d="M221.791 194.969H210.526V229.454H221.791V194.969Z" fill="#FF6C37"/>
<path d="M253.224 212.033H241.959V229.637H253.224V212.033Z" fill="#FF6C37"/>
<path d="M284.652 160.485H273.388V229.458H284.652V160.485Z" fill="#FF6C37"/>
<path d="M358.957 119.791H347.693V171.884H358.957V119.791Z" fill="#FF6C37"/>
<g opacity="0.7">
<path opacity="0.7" d="M184.73 239.979C186.334 239.979 187.635 238.68 187.635 237.077C187.635 235.473 186.334 234.174 184.73 234.174C183.125 234.174 181.824 235.473 181.824 237.077C181.824 238.68 183.125 239.979 184.73 239.979Z" fill="#FF6C37"/>
</g>
<g opacity="0.7">
<path opacity="0.7" d="M216.342 239.979C217.946 239.979 219.247 238.68 219.247 237.077C219.247 235.473 217.946 234.174 216.342 234.174C214.737 234.174 213.436 235.473 213.436 237.077C213.436 238.68 214.737 239.979 216.342 239.979Z" fill="#FF6C37"/>
</g>
<g opacity="0.7">
<path opacity="0.7" d="M247.954 239.979C249.558 239.979 250.859 238.68 250.859 237.077C250.859 235.473 249.558 234.174 247.954 234.174C246.349 234.174 245.048 235.473 245.048 237.077C245.048 238.68 246.349 239.979 247.954 239.979Z" fill="#FF6C37"/>
</g>
<g opacity="0.7">
<path opacity="0.7" d="M279.565 239.979C281.17 239.979 282.471 238.68 282.471 237.077C282.471 235.473 281.17 234.174 279.565 234.174C277.961 234.174 276.66 235.473 276.66 237.077C276.66 238.68 277.961 239.979 279.565 239.979Z" fill="#FF6C37"/>
</g>
<g opacity="0.7">
<path opacity="0.7" d="M311.177 239.979C312.782 239.979 314.083 238.68 314.083 237.077C314.083 235.473 312.782 234.174 311.177 234.174C309.573 234.174 308.272 235.473 308.272 237.077C308.272 238.68 309.573 239.979 311.177 239.979Z" fill="#FF6C37"/>
</g>
<path d="M126.281 270.987C127.043 270.366 127.599 269.528 127.875 268.583C128.083 267.627 127.675 266.483 126.759 266.134C125.735 265.743 124.64 266.45 123.812 267.169C122.984 267.889 122.03 268.704 120.944 268.55C121.502 268.044 121.92 267.403 122.156 266.688C122.393 265.973 122.44 265.209 122.293 264.47C122.246 264.164 122.116 263.877 121.918 263.639C121.348 263.031 120.319 263.294 119.637 263.772C117.472 265.294 116.869 268.23 116.856 270.875C116.64 269.923 116.823 268.929 116.814 267.964C116.806 266.999 116.54 265.884 115.715 265.377C115.204 265.103 114.63 264.966 114.05 264.982C113.076 264.945 111.994 265.044 111.328 265.756C110.495 266.637 110.716 268.122 111.436 269.083C112.156 270.043 113.247 270.663 114.254 271.337C115.062 271.816 115.75 272.471 116.269 273.254C116.33 273.362 116.38 273.476 116.419 273.595H122.517C123.884 272.899 125.15 272.022 126.281 270.987Z" fill="#FF6C37"/>
<path d="M422.668 265.997C423.431 265.376 423.987 264.537 424.263 263.593C424.471 262.637 424.063 261.493 423.147 261.144C422.123 260.753 421.028 261.46 420.2 262.179C419.371 262.899 418.418 263.714 417.332 263.56C417.89 263.054 418.308 262.413 418.544 261.698C418.781 260.983 418.827 260.219 418.68 259.48C418.633 259.174 418.504 258.887 418.306 258.648C417.735 258.041 416.707 258.303 416.024 258.782C413.86 260.304 413.256 263.24 413.244 265.885C413.027 264.932 413.21 263.938 413.202 262.974C413.194 262.009 412.927 260.894 412.103 260.387C411.592 260.112 411.018 259.976 410.438 259.992C409.464 259.954 408.382 260.054 407.716 260.765C406.883 261.647 407.104 263.132 407.824 264.092C408.544 265.053 409.635 265.673 410.642 266.346C411.449 266.826 412.138 267.481 412.657 268.264C412.718 268.372 412.768 268.486 412.807 268.605H418.905C420.272 267.909 421.537 267.032 422.668 265.997Z" fill="#FF6C37"/>
<path d="M379.542 165.347L376.499 164.993L353.188 162.286C339.039 157.819 347.989 151.016 347.989 151.016L357.409 159.957C360.127 160.502 370.784 159.233 375.558 158.622C376.99 158.435 377.894 158.31 377.894 158.31L379.542 165.347Z" fill="#FDC2CC"/>
<path d="M402.383 133.132C402.383 133.132 396.26 128.192 387.077 144.191C377.894 160.189 375.775 157.598 375.775 157.598C375.775 157.598 377.661 164.668 376.716 166.07C376.716 166.07 383.072 165.6 385.428 166.07C387.784 166.54 402.383 148.187 402.383 148.187C402.383 148.187 409.922 137.823 402.383 133.132Z" fill="#F68080"/>
</g>
<defs>
<linearGradient id="paint0_linear" x1="374.039" y1="274.493" x2="374.039" y2="100.062" gradientUnits="userSpaceOnUse">
<stop stop-color="#808080" stop-opacity="0.25"/>
<stop offset="0.54" stop-color="#808080" stop-opacity="0.12"/>
<stop offset="1" stop-color="#808080" stop-opacity="0.1"/>
</linearGradient>
<linearGradient id="paint1_linear" x1="27893.1" y1="143687" x2="27893.1" y2="67152.8" gradientUnits="userSpaceOnUse">
<stop stop-color="#808080" stop-opacity="0.25"/>
<stop offset="0.54" stop-color="#808080" stop-opacity="0.12"/>
<stop offset="1" stop-color="#808080" stop-opacity="0.1"/>
</linearGradient>
<clipPath id="clip0">
<rect width="500" height="288" fill="white"/>
</clipPath>
</defs>
</svg>
