<svg width="100" height="100" viewBox="0 0 100 100" fill="none" xmlns="http://www.w3.org/2000/svg">
<circle cx="50" cy="50" r="50" fill="white"/>
<path d="M50 87.0068C70.4384 87.0068 87.0068 70.4384 87.0068 50C87.0068 29.5616 70.4384 12.9932 50 12.9932C29.5616 12.9932 12.9932 29.5616 12.9932 50C12.9932 70.4384 29.5616 87.0068 50 87.0068ZM50 90C27.9077 90 10 72.0923 10 50C10 27.9077 27.9077 10 50 10C72.0923 10 90 27.9077 90 50C90 72.0923 72.0923 90 50 90Z" fill="#F4815B"/>
<path fill-rule="evenodd" clip-rule="evenodd" d="M76.6624 29.7349C65.4123 15.1737 44.4922 12.4888 29.9309 23.7389C15.3729 34.989 12.6881 55.9091 23.9382 70.4671C35.1851 85.0283 56.1052 87.7164 70.6664 76.4663C85.2276 65.2194 87.9125 44.2929 76.6624 29.7349Z" fill="#FF6C37"/>
<path fill-rule="evenodd" clip-rule="evenodd" d="M56.8503 38.8589C54.4512 39.954 50.546 43.2651 44.2096 49.5759L46.0112 51.3775L46.6118 51.9813L58.8575 39.7356C59.2397 39.3535 59.7246 39.1608 60.2224 39.074C59.3135 38.3932 58.44 38.1331 56.8503 38.8589ZM62.2521 43.5317L49.4348 54.7946C50.5749 55.938 51.2011 56.561 51.5223 56.8854C56.5998 52.068 61.4332 47.1543 62.2521 43.5317ZM40.3589 53.4843C40.3782 53.5164 40.3974 53.5132 40.4167 53.51L45.6098 52.3892L43.5062 50.2888L40.3653 53.4265C40.3557 53.4329 40.3396 53.4458 40.3589 53.4843ZM63.9029 36.0809L68.2481 31.7356C67.3713 31.0516 66.3083 30.7144 65.2453 30.7144C63.9896 30.7144 62.7338 31.1897 61.7896 32.1371C60.8647 33.062 60.3573 34.2888 60.3573 35.5959C60.3573 36.903 60.8647 38.1331 61.7896 39.058C63.2092 40.4807 65.3577 40.8886 67.2011 40.0825L63.9061 36.7906C63.8129 36.6975 63.7583 36.569 63.7583 36.4374C63.7551 36.3025 63.8097 36.1772 63.9029 36.0809Z" fill="white"/>
<path fill-rule="evenodd" clip-rule="evenodd" d="M68.5628 37.2148C68.4761 37.2148 68.3894 37.1827 68.3155 37.1249C68.155 36.99 68.1293 36.7459 68.2674 36.5821C68.5596 36.2288 68.6142 35.7375 68.4055 35.3296C68.3123 35.1401 68.3894 34.9089 68.5789 34.8125C68.7684 34.7194 68.9996 34.7965 69.096 34.986C69.4364 35.6668 69.3432 36.489 68.8551 37.0735C68.7844 37.1634 68.6752 37.2148 68.5628 37.2148ZM68.9739 32.4199L64.9627 36.4376L68.0972 39.5721C68.3155 39.4179 68.5179 39.2445 68.7106 39.0582C69.6355 38.1333 70.1429 36.9033 70.1429 35.5962C70.1429 34.4207 69.7318 33.3095 68.9739 32.4199ZM59.564 40.4392L47.3537 52.6528L48.7571 54.0562L61.6869 42.7001C62.0112 42.4143 62.1975 42.0161 62.2104 41.5857C62.2232 41.1522 62.0626 40.7443 61.7575 40.436C61.1538 39.8354 60.171 39.8354 59.564 40.4392ZM36.7812 66.4882C36.7812 66.4882 36.7844 66.4882 36.7876 66.485C42.6102 63.5657 47.3151 60.5628 50.7772 57.5568L48.8021 55.5849L43.6122 56.391L33.3352 66.668L36.6239 69.9567C36.7041 70.0337 36.7844 70.0145 36.839 69.9888C36.8936 69.9567 36.9514 69.8989 36.929 69.7897L36.3669 67.3842C36.2834 67.0245 36.4536 66.6584 36.7812 66.4882ZM35.5897 70.3356L32.6287 67.3746L30.1172 69.886C30.1076 69.8924 30.098 69.9053 30.1076 69.931C30.1172 69.9599 30.1365 69.9631 30.1461 69.9631L35.5897 70.3356ZM44.9418 55.0646H44.9514C44.9611 55.0646 44.9803 55.0679 44.99 55.0679L47.9093 54.6889L46.6182 53.3914L44.9418 55.0646Z" fill="white"/>
<path fill-rule="evenodd" clip-rule="evenodd" d="M69.0991 34.9858C69.006 34.7963 68.7716 34.716 68.5789 34.8124C68.3894 34.9055 68.3123 35.1368 68.4054 35.3294C68.611 35.7373 68.5564 36.2287 68.2641 36.582C68.126 36.7458 68.1517 36.9898 68.3155 37.1247C68.3862 37.1825 68.4729 37.2146 68.5628 37.2146C68.6752 37.2146 68.7812 37.1633 68.8583 37.0733C69.3464 36.4888 69.4396 35.6667 69.0991 34.9858Z" fill="#FF6C37"/>
</svg>
