<svg width="500" height="288" viewBox="0 0 500 288" fill="none" xmlns="http://www.w3.org/2000/svg">
<path d="M250 288C388.071 288 500 281.557 500 273.61C500 265.662 388.071 259.22 250 259.22C111.929 259.22 0 265.662 0 273.61C0 281.557 111.929 288 250 288Z" fill="#F2F2F2"/>
<path d="M455.192 0H79.6212V11.9582H455.192V0Z" fill="#F2F2F2"/>
<path d="M89.6713 8.89771C91.3792 8.89771 92.7637 7.5121 92.7637 5.80286C92.7637 4.09362 91.3792 2.70801 89.6713 2.70801C87.9634 2.70801 86.5789 4.09362 86.5789 5.80286C86.5789 7.5121 87.9634 8.89771 89.6713 8.89771Z" fill="#61DAFB"/>
<path d="M99.7215 8.89771C101.429 8.89771 102.814 7.5121 102.814 5.80286C102.814 4.09362 101.429 2.70801 99.7215 2.70801C98.0136 2.70801 96.6291 4.09362 96.6291 5.80286C96.6291 7.5121 98.0136 8.89771 99.7215 8.89771Z" fill="#61DAFB"/>
<path d="M109.772 8.89771C111.48 8.89771 112.864 7.5121 112.864 5.80286C112.864 4.09362 111.48 2.70801 109.772 2.70801C108.064 2.70801 106.679 4.09362 106.679 5.80286C106.679 7.5121 108.064 8.89771 109.772 8.89771Z" fill="#61DAFB"/>
<path d="M79.8871 189.129L79.6209 189.358V270.025H455.192V128.33L450.716 128.67L79.8871 189.129Z" fill="#3F3D56"/>
<path d="M211.604 79.9919H106.725V84.2243H211.604V79.9919Z" fill="#3F3D56"/>
<path d="M211.604 89.3032H106.725V93.5356H211.604V89.3032Z" fill="#3F3D56"/>
<path d="M142.249 98.6145H106.725V102.847H142.249V98.6145Z" fill="#3F3D56"/>
<path d="M425.483 197.493H320.605V201.725H425.483V197.493Z" fill="white"/>
<path d="M425.483 206.804H320.605V211.036H425.483V206.804Z" fill="white"/>
<path d="M356.128 216.115H320.605V220.348H356.128V216.115Z" fill="white"/>
<path d="M255.443 266.123C257.721 266.123 259.568 264.275 259.568 261.995C259.568 259.714 257.721 257.866 255.443 257.866C253.164 257.866 251.317 259.714 251.317 261.995C251.317 264.275 253.164 266.123 255.443 266.123Z" fill="#F2F2F2"/>
<path d="M267.407 266.536C269.685 266.536 271.532 264.688 271.532 262.408C271.532 260.127 269.685 258.279 267.407 258.279C265.128 258.279 263.281 260.127 263.281 262.408C263.281 264.688 265.128 266.536 267.407 266.536Z" fill="#F2F2F2"/>
<path d="M279.371 266.949C281.649 266.949 283.496 265.101 283.496 262.82C283.496 260.54 281.649 258.691 279.371 258.691C277.092 258.691 275.245 260.54 275.245 262.82C275.245 265.101 277.092 266.949 279.371 266.949Z" fill="#F2F2F2"/>
<path d="M267.445 265.71C269.267 265.71 270.745 264.231 270.745 262.407C270.745 260.583 269.267 259.104 267.445 259.104C265.622 259.104 264.144 260.583 264.144 262.407C264.144 264.231 265.622 265.71 267.445 265.71Z" fill="#3F3D56"/>
<path d="M176.833 128.437H141.31V136.548H176.833V128.437Z" fill="#3F3D56"/>
<path d="M387.982 238.196H352.459V246.307H387.982V238.196Z" fill="white"/>
<path opacity="0.3" d="M159.272 157.129C172.843 157.129 183.845 146.119 183.845 132.536C183.845 118.954 172.843 107.943 159.272 107.943C145.7 107.943 134.699 118.954 134.699 132.536C134.699 146.119 145.7 157.129 159.272 157.129Z" fill="#61DAFB"/>
<path opacity="0.3" d="M159.272 148.932C168.32 148.932 175.654 141.591 175.654 132.536C175.654 123.481 168.32 116.141 159.272 116.141C150.224 116.141 142.89 123.481 142.89 132.536C142.89 141.591 150.224 148.932 159.272 148.932Z" fill="#61DAFB"/>
<path d="M159.272 143.922C165.555 143.922 170.648 138.824 170.648 132.536C170.648 126.248 165.555 121.15 159.272 121.15C152.989 121.15 147.895 126.248 147.895 132.536C147.895 138.824 152.989 143.922 159.272 143.922Z" fill="#61DAFB"/>
<path opacity="0.3" d="M366.041 96.1798C379.612 96.1798 390.614 85.169 390.614 71.5866C390.614 58.0042 379.612 46.9934 366.041 46.9934C352.469 46.9934 341.468 58.0042 341.468 71.5866C341.468 85.169 352.469 96.1798 366.041 96.1798Z" fill="#61DAFB"/>
<path opacity="0.3" d="M366.041 87.9823C375.089 87.9823 382.423 80.6418 382.423 71.5869C382.423 62.5319 375.089 55.1914 366.041 55.1914C356.993 55.1914 349.659 62.5319 349.659 71.5869C349.659 80.6418 356.993 87.9823 366.041 87.9823Z" fill="#61DAFB"/>
<path d="M366.041 82.9724C372.324 82.9724 377.418 77.8748 377.418 71.5867C377.418 65.2985 372.324 60.2009 366.041 60.2009C359.758 60.2009 354.664 65.2985 354.664 71.5867C354.664 77.8748 359.758 82.9724 366.041 82.9724Z" fill="#61DAFB"/>
<path opacity="0.3" d="M370.421 266.888C383.992 266.888 394.994 255.877 394.994 242.295C394.994 228.712 383.992 217.702 370.421 217.702C356.849 217.702 345.848 228.712 345.848 242.295C345.848 255.877 356.849 266.888 370.421 266.888Z" fill="#61DAFB"/>
<path opacity="0.3" d="M370.421 258.69C379.469 258.69 386.803 251.349 386.803 242.294C386.803 233.239 379.469 225.899 370.421 225.899C361.373 225.899 354.039 233.239 354.039 242.294C354.039 251.349 361.373 258.69 370.421 258.69Z" fill="#61DAFB"/>
<path d="M370.421 253.68C376.704 253.68 381.797 248.583 381.797 242.294C381.797 236.006 376.704 230.909 370.421 230.909C364.138 230.909 359.044 236.006 359.044 242.294C359.044 248.583 364.138 253.68 370.421 253.68Z" fill="#61DAFB"/>
<path d="M40.9202 49.8062L51.0343 50.1987L51.5385 37.1845L41.4245 36.792L40.9202 49.8062Z" fill="#61DAFB"/>
<path d="M87.0489 82.3709C87.0489 82.3709 101.055 75.6735 100.831 81.4576C100.607 87.2417 86.7127 91.0471 86.7127 91.0471L87.0489 82.3709Z" fill="#FFB9B9"/>
<path d="M79.3644 131.312C79.3644 131.312 85.9724 147.498 88.4139 159.179C90.8554 170.859 94.5737 186.934 89.7909 198.334C85.008 209.734 71.41 243.239 71.2699 246.854C71.1299 250.469 72.4347 254.14 69.5449 254.028C66.6552 253.916 50.9298 248.961 50.2914 246.764C49.653 244.567 55.6566 239.007 55.6566 239.007L70.4813 192.515L55.014 162.227L43.8574 207.412L41.6723 263.808C41.6723 263.808 30.9479 260.495 29.391 263.331C29.391 263.331 24.5861 256.628 23.9757 253.707C23.3653 250.787 26.2449 195.143 26.2449 195.143C26.2449 195.143 16.4008 131.764 24.3476 132.073C32.2943 132.381 63.4209 113.314 79.3644 131.312Z" fill="#2F2E41"/>
<path d="M69.657 251.135C69.657 251.135 76.9874 267.35 77.6818 268.101C78.3763 268.852 83.1531 276.279 79.541 276.138C75.9288 275.998 67.3997 272.047 61.1219 266.01C54.8442 259.974 46.5672 249.515 47.3176 248.82C48.0681 248.125 53.2091 246.152 53.2091 246.152L69.657 251.135Z" fill="#2F2E41"/>
<path d="M40.3675 260.136C40.3675 260.136 40.8098 267.394 42.1426 270.343C43.4754 273.291 43.3073 277.629 39.6951 277.489C36.083 277.348 26.7474 275.538 26.7474 275.538C26.7474 275.538 26.1931 271.172 26.9435 270.477C27.6939 269.782 30.8918 261.941 29.531 259.716C28.1702 257.491 40.3675 260.136 40.3675 260.136Z" fill="#2F2E41"/>
<path d="M35.0236 24.5959C35.0236 24.5959 27.323 36.6068 24.3213 39.3867C21.3195 42.1666 29.7645 48.2872 29.7645 48.2872L44.8796 50.322C44.8796 50.322 44.6894 36.5567 45.4679 35.1387C46.2463 33.7207 35.0236 24.5959 35.0236 24.5959Z" fill="#FFB9B9"/>
<path d="M48.1615 40.312C48.1615 40.312 45.0477 45.984 42.1579 45.8718C39.2682 45.7597 24.3213 39.3868 23.6828 37.1897C23.0444 34.9926 18.7319 52.9278 18.7319 52.9278L55.306 117.344L64.2273 111.173L59.9046 73.3523L56.3545 52.9397L48.1615 40.312Z" fill="#61DAFB"/>
<path d="M22.3338 97.9617C23.7928 101.016 24.704 104.201 24.5776 107.462C24.572 107.607 24.5664 107.751 24.5536 107.896C24.2075 114.587 21.7443 122.327 20.8606 127.955C20.2194 131.992 20.4019 134.939 22.7626 135.632C28.486 137.302 21.9281 138.496 44.0714 145.872C66.2146 153.248 70.0789 146.881 70.135 145.435C70.191 143.989 66.999 133.004 67.7495 132.309C68.4999 131.614 78.2498 141.406 81.1955 140.072C84.1413 138.738 81.5317 131.396 81.5317 131.396C81.5317 131.396 74.8957 115.932 75.0358 112.317C75.1759 108.702 64.9837 91.6518 64.9837 91.6518L58.0514 46.4885C58.0514 46.4885 55.3858 40.5922 51.8017 39.729C48.2175 38.8658 45.2438 40.9227 45.2438 40.9227L51.2414 54.1893L57.5693 77.6061L56.5107 86.2543C56.5107 86.2543 49.1522 70.7626 44.3193 64.7822C39.4864 58.8018 29.1822 44.644 29.1822 44.644C29.1822 44.644 26.7765 36.5203 28.5926 34.0926C30.4089 31.6578 21.0173 31.2933 17.0129 41.2753C14.8906 46.5658 11.4449 54.4551 9.28631 61.8006C7.36284 68.308 6.45426 74.3914 8.35985 77.8686C11.2724 83.1807 18.5988 90.163 22.3338 97.9617Z" fill="#575A89"/>
<path opacity="0.1" d="M8.35984 77.8687C11.2724 83.1807 18.5988 90.163 22.3338 97.9617C23.3094 94.4442 24.4995 90.8048 24.4995 90.8048C24.4995 90.8048 29.0642 66.3625 15.5621 60.0457C13.3249 59.8292 11.0873 60.4549 9.2863 61.8006C7.36282 68.308 6.45424 74.3914 8.35984 77.8687Z" fill="black"/>
<path d="M61.9599 76.3284L73.4067 79.669L89.3002 80.2858L90.9353 94.1072L64.8156 95.99C64.8156 95.99 58.2917 77.6342 61.9599 76.3284Z" fill="#575A89"/>
<path d="M43.2942 122.8C43.2942 122.8 58.6078 125.343 55.1126 129.955C51.6175 134.567 38.0514 129.718 38.0514 129.718L43.2942 122.8Z" fill="#FFB9B9"/>
<path opacity="0.1" d="M24.5536 107.896C24.2075 114.588 21.7443 122.327 20.8606 127.955C25.7389 132.576 30.378 136.651 32.1262 136.719C35.7384 136.859 41.5459 136.361 43.6851 137.168C45.8244 137.975 47.0791 124.266 47.0791 124.266C47.0791 124.266 45.8024 119.872 40.1069 117.478C36.2627 115.859 28.8938 111.467 24.5536 107.896Z" fill="black"/>
<path d="M15.7302 55.7077C15.7302 55.7077 3.50487 53.785 4.16532 74.0855C4.82578 94.386 2.87665 107.344 7.79361 111.155C12.7106 114.967 28.6822 132.241 32.2943 132.381C35.9065 132.521 41.714 132.023 43.8532 132.83C45.9925 133.637 47.2472 119.928 47.2472 119.928C47.2472 119.928 45.9704 115.534 40.275 113.14C34.5796 110.747 21.1616 102.261 21.2736 99.3689C21.3857 96.4768 24.6676 86.4668 24.6676 86.4668C24.6676 86.4668 29.2323 62.0245 15.7302 55.7077Z" fill="#575A89"/>
<path d="M45.8041 42.3807C54.5884 42.3807 61.7095 35.2539 61.7095 26.4625C61.7095 17.671 54.5884 10.5442 45.8041 10.5442C37.0197 10.5442 29.8986 17.671 29.8986 26.4625C29.8986 35.2539 37.0197 42.3807 45.8041 42.3807Z" fill="#FFB9B9"/>
<path d="M56.5136 3.64647C56.8972 3.97727 57.3567 4.208 57.8509 4.31812C58.0991 4.36239 58.3547 4.30662 58.5619 4.16298C58.7691 4.01934 58.9111 3.79949 58.9569 3.55143C59.3208 4.30672 59.7314 5.1117 60.4743 5.49925C61.2173 5.88681 62.3662 5.56183 62.4733 4.7302C62.5817 5.36164 62.8609 5.95131 63.2804 6.43528C63.7414 6.87515 64.5773 6.98618 64.9798 6.49213C64.6544 8.2717 64.8552 10.1018 64.753 11.908C64.6509 13.7142 64.1696 15.6291 62.8061 16.8168C60.8175 18.549 57.8272 18.1215 55.2114 17.7933C54.8158 17.7102 54.4054 17.7327 54.0212 17.8585C53.0418 18.2761 53.0862 19.6406 53.073 20.706C52.9931 22.5754 52.2539 24.3559 50.9865 25.7314C49.7192 27.1069 48.0058 27.9885 46.1505 28.2194C45.1123 28.3798 44.0528 28.1211 43.2051 27.5C42.4625 26.87 42.0831 25.8432 41.2321 25.3699C39.8477 24.6 38.1688 25.7228 37.1567 26.9418C36.1445 28.1609 35.147 29.6604 33.5791 29.8836C31.5054 30.1787 29.926 28.0637 29.1511 26.1162C28.082 23.3866 27.5699 20.4705 27.6448 17.5396C27.7197 14.6088 28.3801 11.7227 29.5872 9.05137C33.9171 -0.394717 48.7082 -1.8888 56.5136 3.64647Z" fill="#2F2E41"/>
<path d="M438.326 256.757C443.928 266.318 455.226 270.103 455.226 270.103C455.226 270.103 457.441 258.387 451.84 248.827C446.238 239.266 434.94 235.481 434.94 235.481C434.94 235.481 432.725 247.197 438.326 256.757Z" fill="#F2F2F2"/>
<path d="M441.822 253.42C451.509 258.79 455.568 270.001 455.568 270.001C455.568 270.001 443.92 272.505 434.232 267.135C424.544 261.765 420.486 250.555 420.486 250.555C420.486 250.555 432.134 248.051 441.822 253.42Z" fill="#61DAFB"/>
</svg>
