<svg width="433" height="299" viewBox="0 0 433 299" fill="none" xmlns="http://www.w3.org/2000/svg">
<path d="M372.104 101.113C353.073 26.2637 293.687 12.6671 216.5 10.5C175.693 9.35427 117.763 23.6318 86.5 70.9998C30.6133 155.675 98.5511 173.013 139.908 200.817C159.889 214.277 177.892 230.462 193.397 248.902C221.333 282.058 275.074 323.259 339.077 258.703C385.467 211.914 384.781 150.97 372.104 101.113Z" fill="#F2F2F2"/>
<path opacity="0.1" d="M286.385 171.968L325.546 132.92L286.385 93.8709L298.324 81.9692L349.425 132.92L298.324 183.87L286.385 171.968Z" fill="black"/>
<path opacity="0.1" d="M174.553 135.706H190.472V119.784H174.553V135.706ZM254.467 119.784H238.548V135.706H254.467V119.784ZM206.551 135.706H222.47V119.784H206.551V135.706Z" fill="black"/>
<path opacity="0.1" d="M152.983 171.57L113.782 132.522L152.943 93.473L141.004 81.5713L89.943 132.522L141.043 183.472L152.983 171.57Z" fill="black"/>
<path d="M433 269.451C433 276.046 336.07 298.906 216.5 298.906C96.9304 298.906 0 276.046 0 269.451C0 262.856 96.9304 275.023 216.5 275.023C336.07 275.023 433 262.856 433 269.451Z" fill="#3F3D56"/>
<path opacity="0.1" d="M433 269.451C433 276.046 336.07 298.906 216.5 298.906C96.9304 298.906 0 276.046 0 269.451C0 262.856 96.9304 275.023 216.5 275.023C336.07 275.023 433 262.856 433 269.451Z" fill="black"/>
<path d="M216.5 281.392C336.07 281.392 433 276.046 433 269.451C433 262.856 336.07 257.509 216.5 257.509C96.9304 257.509 0 262.856 0 269.451C0 276.046 96.9304 281.392 216.5 281.392Z" fill="#3F3D56"/>
<path d="M251.799 211.996C251.799 237.478 267.782 258.097 287.534 258.097Z" fill="#3F3D56"/>
<path d="M287.534 258.097C287.534 232.329 305.37 211.478 327.412 211.478Z" fill="#6C63FF"/>
<path d="M264.746 214.306C264.746 238.511 274.938 258.097 287.534 258.097Z" fill="#6C63FF"/>
<path d="M287.534 258.097C287.534 225.171 308.149 198.528 333.626 198.528Z" fill="#3F3D56"/>
<path d="M280.016 258.422C280.016 258.422 285.084 258.266 286.611 257.178C288.139 256.09 294.407 254.791 294.786 256.536C295.165 258.281 302.402 265.213 296.68 265.259C290.959 265.305 283.386 264.367 281.861 263.439C280.337 262.51 280.016 258.422 280.016 258.422Z" fill="#A8A8A8"/>
<path opacity="0.2" d="M296.782 264.652C291.061 264.698 283.488 263.76 281.964 262.832C280.803 262.124 280.34 259.586 280.185 258.416C280.078 258.42 280.016 258.422 280.016 258.422C280.016 258.422 280.337 262.51 281.861 263.439C283.386 264.368 290.959 265.305 296.68 265.259C298.332 265.246 298.902 264.658 298.871 263.787C298.641 264.313 298.011 264.642 296.782 264.652Z" fill="black"/>
<path d="M344.463 122.395C344.463 122.395 332.21 113.09 331.28 116.501C330.35 119.911 340.27 127.663 340.27 127.663L344.463 122.395Z" fill="#FFB9B9"/>
<path opacity="0.1" d="M344.463 122.395C344.463 122.395 332.21 113.09 331.28 116.501C330.35 119.911 340.27 127.663 340.27 127.663L344.463 122.395Z" fill="black"/>
<path d="M384.913 92.9346C384.913 92.9346 370.342 118.981 370.032 122.702C369.722 126.423 369.722 126.733 368.482 126.423C367.242 126.113 350.191 124.252 348.641 124.872C347.091 125.493 343.991 121.152 343.991 121.152C343.991 121.152 338.1 127.043 339.34 128.283C340.58 129.524 344.301 130.144 344.921 131.694C345.541 133.245 346.471 134.795 349.261 134.485C352.051 134.175 370.962 139.446 373.443 138.516C375.923 137.586 376.543 136.035 377.783 136.035C379.023 136.035 381.503 134.795 381.503 134.485C381.503 134.175 390.184 117.741 390.184 117.741C390.184 117.741 400.414 95.4152 384.913 92.9346Z" fill="#D0CDE1"/>
<path opacity="0.1" d="M384.913 92.9346C384.913 92.9346 370.342 118.981 370.032 122.702C369.722 126.423 369.722 126.733 368.482 126.423C367.242 126.113 350.191 124.252 348.641 124.872C347.091 125.493 343.991 121.152 343.991 121.152C343.991 121.152 338.1 127.043 339.34 128.283C340.58 129.524 344.301 130.144 344.921 131.694C345.541 133.245 346.471 134.795 349.261 134.485C352.051 134.175 370.962 139.446 373.443 138.516C375.923 137.586 376.543 136.035 377.783 136.035C379.023 136.035 381.503 134.795 381.503 134.485C381.503 134.175 390.184 117.741 390.184 117.741C390.184 117.741 400.414 95.4152 384.913 92.9346Z" fill="black"/>
<path d="M363.773 75.7636C363.641 77.4103 363.668 79.0658 363.853 80.7074C364.324 84.2698 365.963 87.9833 364.414 91.3087C363.852 92.5157 362.9 93.5674 362.381 94.789C361.283 97.3748 362.278 100.243 362.129 102.995C361.936 106.55 359.676 109.976 356.236 111.924C362.112 112.107 367.7 109.201 371.397 105.242C375.094 101.283 377.153 96.3719 378.696 91.4584C379.489 89.151 379.998 86.7552 380.21 84.3245C380.333 82.9281 380.17 81.5212 379.729 80.1904C379.186 78.8902 378.471 77.6688 377.603 76.5589C376.678 75.2571 375.726 73.9297 374.361 72.9611C372.678 71.7681 369.435 70.5703 367.203 70.7439C364.466 70.9568 363.888 73.8634 363.773 75.7636Z" fill="#2F2E41"/>
<path d="M372.823 85.4928C372.823 85.4928 376.233 97.5858 373.443 100.997C370.652 104.408 390.184 99.4463 390.184 99.4463C390.184 99.4463 380.573 89.8339 385.223 83.6323L372.823 85.4928Z" fill="#FFB9B9"/>
<path opacity="0.1" d="M372.823 85.4928C372.823 85.4928 376.233 97.5858 373.443 100.997C370.652 104.408 390.184 99.4463 390.184 99.4463C390.184 99.4463 380.573 89.8339 385.223 83.6323L372.823 85.4928Z" fill="black"/>
<path d="M286.385 164.405L325.546 125.357L286.385 86.308L298.324 74.4062L349.425 125.357L298.324 176.307L286.385 164.405Z" fill="#6C63FF"/>
<path d="M361.662 246.733V255.725L366.312 261.306L370.342 259.446L369.102 246.423L361.662 246.733Z" fill="#FFB9B9"/>
<path d="M363.522 255.105C363.522 255.105 362.282 250.764 360.112 253.865C357.942 256.965 355.771 263.787 354.531 264.097C353.291 264.407 344.611 274.02 353.291 274.02C361.972 274.02 364.762 269.989 364.762 269.989C364.762 269.989 373.443 266.578 373.443 265.958C373.443 265.338 372.202 253.865 371.582 253.865C370.962 253.865 370.652 256.035 369.102 256.035C367.552 256.035 363.522 255.105 363.522 255.105Z" fill="#2F2E41"/>
<path d="M382.433 248.283L382.123 256.655L389.563 259.756V247.663L382.433 248.283Z" fill="#FFB9B9"/>
<path d="M390.494 256.655C390.494 256.655 386.463 252.314 384.293 253.244C383.22 253.677 382.183 254.195 381.193 254.795C381.193 254.795 379.953 258.826 379.333 262.237C378.713 265.648 378.403 267.198 377.783 268.438C377.163 269.679 376.543 274.33 382.743 274.95C388.944 275.57 390.804 272.159 390.804 272.159L392.354 264.097C392.354 264.097 391.734 256.655 390.494 256.655Z" fill="#2F2E41"/>
<path d="M365.692 158.981C365.692 158.981 356.702 179.136 357.942 197.431C357.942 197.431 354.841 204.562 356.702 215.725C358.562 226.888 361.042 249.213 361.042 249.213C361.042 249.213 369.412 250.144 370.032 248.593C370.032 248.593 370.652 233.089 371.273 232.469C371.893 231.849 370.962 217.586 370.032 214.795C369.102 212.004 378.713 184.407 378.713 184.407L376.233 149.989L365.692 158.981Z" fill="#2F2E41"/>
<path opacity="0.1" d="M365.692 158.981C365.692 158.981 356.702 179.136 357.942 197.431C357.942 197.431 354.841 204.562 356.702 215.725C358.562 226.888 361.042 249.213 361.042 249.213C361.042 249.213 369.412 250.144 370.032 248.593C370.032 248.593 370.652 233.089 371.273 232.469C371.893 231.849 370.962 217.586 370.032 214.795C369.102 212.004 378.713 184.407 378.713 184.407L376.233 149.989L365.692 158.981Z" fill="black"/>
<path d="M363.212 157.741L369.102 170.454C369.102 170.454 371.893 199.291 373.443 203.012C373.443 203.012 374.063 213.555 376.853 216.966C379.643 220.376 381.813 250.454 381.813 250.454C381.813 250.454 389.564 252.624 390.184 250.454C390.804 248.283 392.664 233.4 392.664 233.4C392.664 233.4 393.284 220.686 389.874 212.314C386.463 203.942 393.904 173.865 393.904 173.865C393.904 173.865 401.655 159.291 390.494 147.508L363.212 157.741Z" fill="#2F2E41"/>
<path d="M379.643 89.2139C386.663 89.2139 392.354 83.522 392.354 76.5007C392.354 69.4795 386.663 63.7876 379.643 63.7876C372.623 63.7876 366.932 69.4795 366.932 76.5007C366.932 83.522 372.623 89.2139 379.643 89.2139Z" fill="#FFB9B9"/>
<path d="M391.424 95.7256C391.424 95.7256 378.093 95.7256 376.233 97.276C375.773 97.7137 375.162 97.9578 374.528 97.9578C373.893 97.9578 373.282 97.7137 372.823 97.276C372.823 97.276 368.172 97.586 366.932 101.307C365.692 105.028 361.972 109.989 361.972 109.989C361.972 109.989 356.391 114.02 359.492 124.563C362.592 135.105 360.112 152.16 360.112 152.16C360.112 152.16 357.632 155.881 360.112 157.431C362.592 158.981 363.522 159.601 363.212 160.842C362.902 162.082 391.424 150.609 391.424 148.439C391.424 146.268 390.804 144.408 391.424 143.477C392.044 142.547 392.664 140.997 392.044 139.446C391.424 137.896 392.664 137.586 392.354 136.036C392.044 134.485 393.904 123.012 395.144 118.051C396.384 113.09 396.074 96.0357 391.424 95.7256Z" fill="#D0CDE1"/>
<path d="M344.463 126.116C344.463 126.116 332.21 116.811 331.28 120.222C330.35 123.633 340.27 131.385 340.27 131.385L344.463 126.116Z" fill="#FFB9B9"/>
<path d="M384.913 97.2759C384.913 97.2759 370.342 123.322 370.032 127.043C369.722 130.764 369.722 131.074 368.482 130.764C367.242 130.454 350.191 128.594 348.641 129.214C347.091 129.834 343.991 125.493 343.991 125.493C343.991 125.493 338.1 131.384 339.34 132.625C340.58 133.865 344.301 134.485 344.921 136.036C345.541 137.586 346.471 139.136 349.261 138.826C352.051 138.516 370.962 143.787 373.443 142.857C375.923 141.927 376.543 140.377 377.783 140.377C379.023 140.377 381.503 139.136 381.503 138.826C381.503 138.516 390.184 122.082 390.184 122.082C390.184 122.082 400.414 99.7565 384.913 97.2759Z" fill="#D0CDE1"/>
<path d="M373.349 84.6229C373.173 83.3638 372.528 82.2216 372.197 80.994C371.938 80.0115 371.881 78.9868 372.028 77.9816C372.176 76.9763 372.525 76.0112 373.055 75.1444C374.878 72.1992 378.457 70.8947 380.954 68.4936C381.006 69.7166 381.854 70.7619 382.792 71.5485C383.73 72.335 384.806 72.9731 385.6 73.9047C386.362 74.8875 386.919 76.0145 387.235 77.2178C387.724 78.6122 387.943 80.087 387.881 81.5634C387.845 82.3011 387.66 83.0239 387.336 83.6877C387.013 84.3516 386.557 84.9428 385.998 85.4252C385.068 86.1602 383.769 86.58 383.32 87.6769C383.143 88.2251 383.092 88.8059 383.171 89.3765C383.383 92.788 383.582 96.2602 382.779 99.5826C381.976 102.905 380.008 106.115 376.924 107.588C379.459 107.767 382.046 107.943 384.505 107.303C386.964 106.663 389.316 105.052 390.163 102.656C390.582 101.474 390.621 100.16 391.215 99.0563C392.719 96.2627 396.872 96.1353 398.912 93.7055C399.729 92.7331 400.124 91.4801 400.416 90.2445C402.139 82.9743 400.929 75.2545 398.306 68.2583C397.402 65.8469 396.277 63.419 394.339 61.7242C392.689 60.2819 390.582 59.4873 388.499 58.8087C385.459 57.8183 382.326 57.0069 379.131 56.9023C377.742 56.8208 376.35 56.9833 375.018 57.3825C373.703 57.8577 372.479 58.555 371.4 59.4441C366.393 63.3403 362.985 69.5672 363.437 75.8955C363.711 79.7246 365.333 83.3484 367.417 86.5723C368.146 87.6998 369.868 90.104 371.468 89.3951C372.92 88.7521 373.539 85.9828 373.349 84.6229Z" fill="#2F2E41"/>
<path d="M174.553 128.143H190.472V112.221H174.553V128.143ZM254.467 112.221H238.548V128.143H254.467V112.221ZM206.551 128.143H222.47V112.221H206.551V128.143Z" fill="#6C63FF"/>
<path d="M82.0654 64.7721C89.4631 64.7721 95.4601 60.0936 95.4601 54.3223C95.4601 48.5511 89.4631 43.8726 82.0654 43.8726C74.6677 43.8726 68.6707 48.5511 68.6707 54.3223C68.6707 60.0936 74.6677 64.7721 82.0654 64.7721Z" fill="#2F2E41"/>
<path d="M84.3425 126.265C84.3425 126.265 96.3977 127.069 98.5409 125.461C100.684 123.854 109.792 127.605 110.596 129.748C111.4 131.892 97.7372 132.16 95.594 132.16C93.4509 132.16 83.2709 135.375 83.2709 135.375L84.3425 126.265Z" fill="#A0616A"/>
<path d="M59.5185 251.079C59.5185 251.079 53.9002 265.249 56.8315 266.959C59.7628 268.67 90.5409 267.448 90.5409 267.448C90.5409 267.448 95.6706 264.272 89.8081 262.073C89.8081 262.073 84.9227 261.829 81.7472 259.874C78.5716 257.92 74.9076 254.255 74.9076 254.255C74.9076 254.255 74.6633 248.88 72.7091 250.102C72.1245 250.487 71.6268 250.99 71.2482 251.579C70.8696 252.168 70.6184 252.83 70.5107 253.522L59.5185 251.079Z" fill="#2F2E41"/>
<path opacity="0.1" d="M59.5185 251.079C59.5185 251.079 53.9002 265.249 56.8315 266.959C59.7628 268.67 90.5409 267.448 90.5409 267.448C90.5409 267.448 95.6706 264.272 89.8081 262.073C89.8081 262.073 84.9227 261.829 81.7472 259.874C78.5716 257.92 74.9076 254.255 74.9076 254.255C74.9076 254.255 74.6633 248.88 72.7091 250.102C72.1245 250.487 71.6268 250.99 71.2482 251.579C70.8696 252.168 70.6184 252.83 70.5107 253.522L59.5185 251.079Z" fill="black"/>
<path d="M152.983 164.007L113.782 124.959L152.943 85.91L141.004 74.0083L89.943 124.959L141.043 175.909L152.983 164.007Z" fill="#6C63FF"/>
<path d="M50.8557 255.413C50.8557 255.413 44.6942 270.954 47.9089 272.83C51.1236 274.705 84.8783 273.366 84.8783 273.366C84.8783 273.366 90.504 269.882 84.0746 267.471C84.0746 267.471 78.7167 267.203 75.2341 265.059C71.7515 262.916 67.7331 258.897 67.7331 258.897C67.7331 258.897 67.4652 253.002 65.322 254.342C64.6808 254.764 64.1351 255.316 63.7198 255.962C63.3046 256.608 63.0291 257.334 62.911 258.093L50.8557 255.413Z" fill="#2F2E41"/>
<path d="M82.4672 156.811L78.7167 190.572C78.7167 190.572 77.3772 206.648 73.3588 210.132C73.3588 210.132 73.3588 215.222 72.0194 216.83L70.1441 237.998C70.1441 237.998 72.823 245.768 72.5551 247.108C72.2872 248.447 73.6267 252.734 73.3588 253.27C73.0909 253.806 60.4999 253.27 60.4999 253.27L63.1788 210.132L71.4836 150.112L82.4672 156.811Z" fill="#2F2E41"/>
<path opacity="0.1" d="M82.4672 156.811L78.7167 190.572C78.7167 190.572 77.3772 206.648 73.3588 210.132C73.3588 210.132 73.3588 215.222 72.0194 216.83L70.1441 237.998C70.1441 237.998 72.823 245.768 72.5551 247.108C72.2872 248.447 73.6267 252.734 73.3588 253.27C73.0909 253.806 60.4999 253.27 60.4999 253.27L63.1788 210.132L71.4836 150.112L82.4672 156.811Z" fill="black"/>
<path d="M75.7699 155.739C75.7699 155.739 72.823 183.337 71.4836 189.232C70.6414 193.114 70.104 197.056 69.8762 201.021C69.8762 201.021 69.6083 209.595 67.1973 212.007C66.4918 212.706 65.9376 213.542 65.5689 214.464C65.2002 215.385 65.025 216.373 65.0541 217.366C65.0541 217.366 62.6431 244.428 63.9825 247.643C65.322 250.859 66.6615 253.538 65.322 255.682C63.9825 257.825 49.2484 257.825 49.2484 256.218C49.2484 254.61 49.2484 253.27 48.4447 252.466C47.641 251.662 48.4447 246.572 48.4447 246.572C48.4447 246.572 45.23 222.725 48.1768 215.758C51.1236 208.792 52.4631 189.768 52.4631 189.768C52.4631 189.768 50.3199 168.064 47.641 164.581C44.9621 161.098 48.1768 148.772 48.1768 148.772L75.7699 155.739Z" fill="#2F2E41"/>
<path d="M68.2276 70.0348C68.539 70.7443 69.2845 71.1394 69.9631 71.5134C73.8963 73.6807 77.1887 76.8229 80.4324 79.9288C79.623 77.1855 79.7954 74.2457 80.92 71.6158C81.3073 70.7188 81.8149 69.7546 81.5381 68.8176C81.3345 68.1285 80.7479 67.6315 80.1796 67.192C78.856 66.1682 77.4726 65.2242 76.0368 64.365C75.0337 63.7648 72.9714 62.1669 71.8204 62.3408C71.7599 63.8963 71.7284 65.2871 71.0473 66.7409C70.8858 67.0857 68.3467 70.306 68.2276 70.0348Z" fill="#A0616A"/>
<path d="M81.9314 73.4806C87.9975 73.4806 92.9151 68.5621 92.9151 62.4949C92.9151 56.4277 87.9975 51.5093 81.9314 51.5093C75.8653 51.5093 70.9478 56.4277 70.9478 62.4949C70.9478 68.5621 75.8653 73.4806 81.9314 73.4806Z" fill="#A0616A"/>
<path d="M82.4672 88.4854C82.4672 88.4854 84.3425 79.1074 78.9846 75.8921C73.6267 72.6768 67.4652 68.9256 67.4652 68.9256C67.4652 68.9256 65.5899 68.6576 64.7862 72.6768C64.7862 72.6768 49.5163 75.6241 47.9089 90.0931C46.3015 104.562 48.9805 125.73 48.9805 125.73C48.9805 125.73 46.5694 144.218 43.6226 154.131C43.6226 154.131 41.2115 156.275 51.9273 153.06C62.6431 149.844 81.3956 162.17 81.3956 162.17C81.3956 162.17 83.2709 160.294 83.2709 158.954C83.2709 157.615 85.4141 149.844 85.4141 149.844C85.4141 149.844 87.2893 116.887 88.093 113.136C88.8967 109.385 84.8783 89.0213 82.4672 88.4854Z" fill="#575A89"/>
<path d="M79.3429 63.6263C80.0027 63.2605 80.7427 63.0634 81.497 63.0524C82.2522 63.0411 82.9897 62.8214 83.6279 62.4174C84.6654 61.6207 84.7416 60.0811 85.5006 59.0156C86.5995 57.473 88.7916 57.2874 90.6838 57.3645C91.8411 57.4118 93.0875 57.4809 94.062 56.8548C95.0625 56.2121 95.516 55.0011 95.8533 53.8607C96.2522 52.5121 96.5103 50.8628 95.5217 49.8626C94.8353 49.1681 93.7517 49.0307 92.9891 48.4207C92.1984 47.7883 91.8731 46.759 91.4433 45.8421C90.9542 44.725 90.1806 43.7558 89.1997 43.0314C87.7612 42.0317 85.9238 41.8075 84.1722 41.8263C82.4205 41.845 80.6616 42.0753 78.9231 41.8604C77.4987 41.6842 76.0786 41.2103 74.6588 41.4204C72.8497 41.688 71.353 43.0531 70.4616 44.6503C69.5702 46.2474 69.1877 48.0704 68.8167 49.8615L67.808 54.733C67.4951 56.2439 67.181 57.7949 67.4225 59.3189C67.9232 62.478 70.7165 64.9891 70.909 68.1819C71.0925 67.3003 71.4919 66.4779 72.0714 65.7887C72.6509 65.0995 73.3924 64.565 74.2293 64.233C74.4392 64.1303 74.6775 64.1014 74.9058 64.1509C75.1833 64.2396 75.3455 64.5169 75.5207 64.7498C75.9796 65.36 77.4212 66.2858 78.2383 65.8529C78.9695 65.4656 78.4236 64.2498 79.3429 63.6263Z" fill="#2F2E41"/>
<path d="M51.6594 113.672C51.6594 113.672 49.7841 125.461 57.5531 124.39C57.5531 124.39 61.5715 123.854 62.1073 124.39C62.643 124.926 82.4672 121.442 85.1461 118.495C85.1461 118.495 88.3609 117.423 89.9682 119.031C91.5756 120.638 107.649 122.246 102.827 117.423C98.0051 112.6 90.504 111.528 90.504 111.528L80.3241 112.064C80.3241 112.064 74.9662 113.672 71.7514 112.064C68.5367 110.457 59.4283 110.992 59.4283 110.992L51.6594 113.672Z" fill="#A0616A"/>
<path d="M62.6431 76.4277C62.6431 76.4277 50.5878 77.7674 50.5878 95.1837V117.423C50.5878 117.423 57.2852 114.476 58.6247 114.744C59.9641 115.012 65.322 111.26 65.322 111.26C65.322 111.26 71.4836 96.7914 70.9478 92.7723C70.412 88.7531 70.6799 76.9636 62.6431 76.4277Z" fill="#575A89"/>
<path d="M81.9314 61.0209C87.6277 61.0209 92.2454 58.6217 92.2454 55.6621C92.2454 52.7025 87.6277 50.3032 81.9314 50.3032C76.2352 50.3032 71.6175 52.7025 71.6175 55.6621C71.6175 58.6217 76.2352 61.0209 81.9314 61.0209Z" fill="#2F2E41"/>
<path d="M72.2873 65.5762C74.2846 65.5762 75.9038 61.5575 75.9038 56.6001C75.9038 51.6428 74.2846 47.624 72.2873 47.624C70.2899 47.624 68.6707 51.6428 68.6707 56.6001C68.6707 61.5575 70.2899 65.5762 72.2873 65.5762Z" fill="#2F2E41"/>
</svg>
