<svg width="433" height="299" viewBox="0 0 433 299" fill="none" xmlns="http://www.w3.org/2000/svg">
<g clip-path="url(#clip0)">
<path opacity="0.1" d="M433 183.023C433.005 189.861 432.133 196.666 430.407 203.247C428.74 209.591 426.286 215.664 423.114 221.302C423.114 241.73 410.313 259.385 391.732 267.785C383.968 271.259 375.64 273.034 367.232 273.004H82.1981C66.9636 273.004 52.8457 268.576 41.2675 261.032C37.9539 258.884 34.8105 256.444 31.8694 253.738C19.0005 241.824 11.0218 225.359 11.0218 207.173C3.79939 195.193 -0.0302643 181.206 -5.16931e-06 166.921C-5.16931e-06 137.009 16.423 111.288 39.9503 99.9323C43.0745 98.4251 46.3027 97.1818 49.6057 96.2137C50.774 95.8712 51.9549 95.564 53.1485 95.2922C56.3301 94.5622 59.5573 94.0853 62.8039 93.865C63.9772 93.7862 65.1569 93.7414 66.3428 93.7305H66.9939C68.3035 93.7305 69.6017 93.7794 70.8924 93.861L71.3163 93.0863C71.8361 92.1512 72.3685 91.2256 72.9136 90.3095C73.8976 88.6405 74.9297 86.9959 76.0097 85.3758C77.1401 83.666 78.3197 81.9833 79.5486 80.3279L79.8627 79.9202C80.5592 78.9851 81.2708 78.0608 81.9975 77.1475C84.2684 74.296 86.6656 71.5301 89.1889 68.8499C116.482 40.0304 159.241 21.478 207.31 21.478C244.713 21.478 278.903 32.7114 305.091 51.272C315.012 45.2237 326.219 42.0501 337.619 42.061C374.613 42.061 404.613 74.8315 404.613 115.255C404.607 117.813 404.481 120.369 404.234 122.913C413.152 129.713 420.42 138.724 425.427 149.186C430.433 159.647 433.031 171.253 433 183.023Z" fill="#6C63FF"/>
<path opacity="0.2" d="M89.1965 68.8335V77.1311H82.0051C84.2584 74.2823 86.6555 71.5165 89.1965 68.8335Z" fill="#6C63FF"/>
<path opacity="0.2" d="M102.395 66.729H92.7392V77.1306H102.395V66.729Z" fill="#6C63FF"/>
<path opacity="0.2" d="M115.589 66.729H105.934V77.1306H115.589V66.729Z" fill="#6C63FF"/>
<path opacity="0.2" d="M128.787 66.729H119.132V77.1306H128.787V66.729Z" fill="#6C63FF"/>
<path opacity="0.2" d="M141.982 66.729H132.326V77.1306H141.982V66.729Z" fill="#6C63FF"/>
<path opacity="0.2" d="M155.18 66.729H145.524V77.1306H155.18V66.729Z" fill="#6C63FF"/>
<path d="M168.378 66.729H158.723V77.1306H168.378V66.729Z" fill="#6C63FF"/>
<path opacity="0.2" d="M181.572 66.729H171.917V77.1306H181.572V66.729Z" fill="#6C63FF"/>
<path opacity="0.2" d="M194.771 66.729H185.115V77.1306H194.771V66.729Z" fill="#6C63FF"/>
<path opacity="0.2" d="M207.965 66.729H198.309V77.1306H207.965V66.729Z" fill="#6C63FF"/>
<path d="M221.163 66.729H211.508V77.1306H221.163V66.729Z" fill="#6C63FF"/>
<path opacity="0.2" d="M234.361 66.729H224.706V77.1306H234.361V66.729Z" fill="#6C63FF"/>
<path opacity="0.2" d="M247.556 66.729H237.9V77.1306H247.556V66.729Z" fill="#6C63FF"/>
<path opacity="0.2" d="M260.754 66.729H251.098V77.1306H260.754V66.729Z" fill="#6C63FF"/>
<path opacity="0.2" d="M273.952 66.729H264.297V77.1306H273.952V66.729Z" fill="#6C63FF"/>
<path opacity="0.2" d="M287.146 66.729H277.491V77.1306H287.146V66.729Z" fill="#6C63FF"/>
<path opacity="0.2" d="M300.345 66.729H290.689V77.1306H300.345V66.729Z" fill="#6C63FF"/>
<path d="M313.539 66.729H303.883V77.1306H313.539V66.729Z" fill="#6C63FF"/>
<path d="M326.737 66.729H317.082V77.1306H326.737V66.729Z" fill="#6C63FF"/>
<path opacity="0.2" d="M339.935 66.729H330.28V77.1306H339.935V66.729Z" fill="#6C63FF"/>
<path opacity="0.2" d="M353.13 66.729H343.474V77.1306H353.13V66.729Z" fill="#6C63FF"/>
<path d="M366.328 66.729H356.672V77.1306H366.328V66.729Z" fill="#6C63FF"/>
<path d="M379.522 66.729H369.867V77.1306H379.522V66.729Z" fill="#6C63FF"/>
<path d="M76.0021 85.3711V90.3048H72.906C73.8901 88.6249 74.9221 86.9803 76.0021 85.3711Z" fill="#6C63FF"/>
<path opacity="0.2" d="M89.1965 79.9033H79.541V90.3049H89.1965V79.9033Z" fill="#6C63FF"/>
<path d="M102.395 79.9033H92.7392V90.3049H102.395V79.9033Z" fill="#6C63FF"/>
<path opacity="0.2" d="M115.589 79.9033H105.934V90.3049H115.589V79.9033Z" fill="#6C63FF"/>
<path opacity="0.7" d="M128.787 79.9033H119.132V90.3049H128.787V79.9033Z" fill="#6C63FF"/>
<path opacity="0.2" d="M141.982 79.9033H132.326V90.3049H141.982V79.9033Z" fill="#6C63FF"/>
<path opacity="0.4" d="M155.18 79.9033H145.524V90.3049H155.18V79.9033Z" fill="#6C63FF"/>
<path d="M168.378 79.9033H158.723V90.3049H168.378V79.9033Z" fill="#6C63FF"/>
<path opacity="0.4" d="M181.572 79.9033H171.917V90.3049H181.572V79.9033Z" fill="#6C63FF"/>
<path opacity="0.2" d="M194.771 79.9033H185.115V90.3049H194.771V79.9033Z" fill="#6C63FF"/>
<path opacity="0.4" d="M207.965 79.9033H198.309V90.3049H207.965V79.9033Z" fill="#6C63FF"/>
<path d="M221.163 79.9033H211.508V90.3049H221.163V79.9033Z" fill="#6C63FF"/>
<path opacity="0.4" d="M234.361 79.9033H224.706V90.3049H234.361V79.9033Z" fill="#6C63FF"/>
<path opacity="0.4" d="M247.556 79.9033H237.9V90.3049H247.556V79.9033Z" fill="#6C63FF"/>
<path opacity="0.2" d="M260.754 79.9033H251.098V90.3049H260.754V79.9033Z" fill="#6C63FF"/>
<path opacity="0.4" d="M273.952 79.9033H264.297V90.3049H273.952V79.9033Z" fill="#6C63FF"/>
<path opacity="0.4" d="M287.146 79.9033H277.491V90.3049H287.146V79.9033Z" fill="#6C63FF"/>
<path opacity="0.2" d="M300.345 79.9033H290.689V90.3049H300.345V79.9033Z" fill="#6C63FF"/>
<path opacity="0.2" d="M313.539 79.9033H303.883V90.3049H313.539V79.9033Z" fill="#6C63FF"/>
<path opacity="0.4" d="M326.737 79.9033H317.082V90.3049H326.737V79.9033Z" fill="#6C63FF"/>
<path opacity="0.2" d="M339.935 79.9033H330.28V90.3049H339.935V79.9033Z" fill="#6C63FF"/>
<path d="M353.13 79.9033H343.474V90.3049H353.13V79.9033Z" fill="#6C63FF"/>
<path d="M366.328 79.9033H356.672V90.3049H366.328V79.9033Z" fill="#6C63FF"/>
<path d="M379.522 79.9033H369.867V90.3049H379.522V79.9033Z" fill="#6C63FF"/>
<path opacity="0.2" d="M49.6058 96.2134V103.483H39.9503V99.932C43.0745 98.4248 46.3027 97.1815 49.6058 96.2134V96.2134Z" fill="#6C63FF"/>
<path opacity="0.2" d="M62.8039 93.8652V103.484H53.1485V95.2923L62.8039 93.8652Z" fill="#6C63FF"/>
<path d="M75.9983 93.082H66.3428V103.484H75.9983V93.082Z" fill="#6C63FF"/>
<path opacity="0.7" d="M89.1965 93.082H79.541V103.484H89.1965V93.082Z" fill="#6C63FF"/>
<path d="M102.395 93.082H92.7392V103.484H102.395V93.082Z" fill="#6C63FF"/>
<path opacity="0.7" d="M115.589 93.082H105.934V103.484H115.589V93.082Z" fill="#6C63FF"/>
<path opacity="0.7" d="M128.787 93.082H119.132V103.484H128.787V93.082Z" fill="#6C63FF"/>
<path opacity="0.2" d="M141.982 93.082H132.326V103.484H141.982V93.082Z" fill="#6C63FF"/>
<path opacity="0.4" d="M155.18 93.082H145.524V103.484H155.18V93.082Z" fill="#6C63FF"/>
<path opacity="0.4" d="M168.378 93.082H158.723V103.484H168.378V93.082Z" fill="#6C63FF"/>
<path d="M181.572 93.082H171.917V103.484H181.572V93.082Z" fill="#6C63FF"/>
<path opacity="0.2" d="M194.771 93.082H185.115V103.484H194.771V93.082Z" fill="#6C63FF"/>
<path opacity="0.4" d="M207.965 93.082H198.309V103.484H207.965V93.082Z" fill="#6C63FF"/>
<path d="M221.163 93.082H211.508V103.484H221.163V93.082Z" fill="#6C63FF"/>
<path opacity="0.2" d="M234.361 93.082H224.706V103.484H234.361V93.082Z" fill="#6C63FF"/>
<path opacity="0.4" d="M247.556 93.082H237.9V103.484H247.556V93.082Z" fill="#6C63FF"/>
<path opacity="0.2" d="M260.754 93.082H251.098V103.484H260.754V93.082Z" fill="#6C63FF"/>
<path d="M273.952 93.082H264.297V103.484H273.952V93.082Z" fill="#6C63FF"/>
<path opacity="0.2" d="M287.146 93.082H277.491V103.484H287.146V93.082Z" fill="#6C63FF"/>
<path opacity="0.7" d="M300.345 93.082H290.689V103.484H300.345V93.082Z" fill="#6C63FF"/>
<path opacity="0.7" d="M313.539 93.082H303.883V103.484H313.539V93.082Z" fill="#6C63FF"/>
<path opacity="0.4" d="M326.737 93.082H317.082V103.484H326.737V93.082Z" fill="#6C63FF"/>
<path opacity="0.2" d="M339.935 93.082H330.28V103.484H339.935V93.082Z" fill="#6C63FF"/>
<path d="M353.13 93.082H343.474V103.484H353.13V93.082Z" fill="#6C63FF"/>
<path d="M366.328 93.082H356.672V103.484H366.328V93.082Z" fill="#6C63FF"/>
<path d="M379.522 93.082H369.867V103.484H379.522V93.082Z" fill="#6C63FF"/>
<path opacity="0.2" d="M49.6058 106.256H39.9503V116.657H49.6058V106.256Z" fill="#6C63FF"/>
<path opacity="0.2" d="M62.8039 106.256H53.1485V116.657H62.8039V106.256Z" fill="#6C63FF"/>
<path opacity="0.2" d="M75.9983 106.256H66.3428V116.657H75.9983V106.256Z" fill="#6C63FF"/>
<path opacity="0.2" d="M89.1965 106.256H79.541V116.657H89.1965V106.256Z" fill="#6C63FF"/>
<path d="M102.395 106.256H92.7392V116.657H102.395V106.256Z" fill="#6C63FF"/>
<path opacity="0.7" d="M115.589 106.256H105.934V116.657H115.589V106.256Z" fill="#6C63FF"/>
<path opacity="0.7" d="M128.787 106.256H119.132V116.657H128.787V106.256Z" fill="#6C63FF"/>
<path opacity="0.2" d="M141.982 106.256H132.326V116.657H141.982V106.256Z" fill="#6C63FF"/>
<path opacity="0.2" d="M155.18 106.256H145.524V116.657H155.18V106.256Z" fill="#6C63FF"/>
<path opacity="0.4" d="M168.378 106.256H158.723V116.657H168.378V106.256Z" fill="#6C63FF"/>
<path opacity="0.4" d="M181.572 106.256H171.917V116.657H181.572V106.256Z" fill="#6C63FF"/>
<path d="M194.771 106.256H185.115V116.657H194.771V106.256Z" fill="#6C63FF"/>
<path opacity="0.2" d="M207.965 106.256H198.309V116.657H207.965V106.256Z" fill="#6C63FF"/>
<path opacity="0.4" d="M221.163 106.256H211.508V116.657H221.163V106.256Z" fill="#6C63FF"/>
<path opacity="0.4" d="M234.361 106.256H224.706V116.657H234.361V106.256Z" fill="#6C63FF"/>
<path opacity="0.4" d="M247.556 106.256H237.9V116.657H247.556V106.256Z" fill="#6C63FF"/>
<path opacity="0.4" d="M260.754 106.256H251.098V116.657H260.754V106.256Z" fill="#6C63FF"/>
<path opacity="0.2" d="M273.952 106.256H264.297V116.657H273.952V106.256Z" fill="#6C63FF"/>
<path opacity="0.2" d="M287.146 106.256H277.491V116.657H287.146V106.256Z" fill="#6C63FF"/>
<path opacity="0.2" d="M300.345 106.256H290.689V116.657H300.345V106.256Z" fill="#6C63FF"/>
<path opacity="0.2" d="M313.539 106.256H303.883V116.657H313.539V106.256Z" fill="#6C63FF"/>
<path opacity="0.7" d="M326.737 106.256H317.082V116.657H326.737V106.256Z" fill="#6C63FF"/>
<path opacity="0.7" d="M339.935 106.256H330.28V116.657H339.935V106.256Z" fill="#6C63FF"/>
<path opacity="0.4" d="M353.13 106.256H343.474V116.657H353.13V106.256Z" fill="#6C63FF"/>
<path opacity="0.2" d="M366.328 106.256H356.672V116.657H366.328V106.256Z" fill="#6C63FF"/>
<path d="M379.522 106.256H369.867V116.657H379.522V106.256Z" fill="#6C63FF"/>
<path opacity="0.2" d="M49.6058 119.435H39.9503V129.836H49.6058V119.435Z" fill="#6C63FF"/>
<path opacity="0.2" d="M62.8039 119.435H53.1485V129.836H62.8039V119.435Z" fill="#6C63FF"/>
<path opacity="0.4" d="M75.9983 119.435H66.3428V129.836H75.9983V119.435Z" fill="#6C63FF"/>
<path opacity="0.2" d="M89.1965 119.435H79.541V129.836H89.1965V119.435Z" fill="#6C63FF"/>
<path opacity="0.2" d="M102.395 119.435H92.7392V129.836H102.395V119.435Z" fill="#6C63FF"/>
<path opacity="0.7" d="M115.589 119.435H105.934V129.836H115.589V119.435Z" fill="#6C63FF"/>
<path opacity="0.7" d="M128.787 119.435H119.132V129.836H128.787V119.435Z" fill="#6C63FF"/>
<path opacity="0.2" d="M141.982 119.435H132.326V129.836H141.982V119.435Z" fill="#6C63FF"/>
<path opacity="0.2" d="M155.18 119.435H145.524V129.836H155.18V119.435Z" fill="#6C63FF"/>
<path opacity="0.4" d="M168.378 119.435H158.723V129.836H168.378V119.435Z" fill="#6C63FF"/>
<path d="M181.572 119.435H171.917V129.836H181.572V119.435Z" fill="#6C63FF"/>
<path opacity="0.2" d="M194.771 119.435H185.115V129.836H194.771V119.435Z" fill="#6C63FF"/>
<path d="M207.965 119.435H198.309V129.836H207.965V119.435Z" fill="#6C63FF"/>
<path d="M221.163 119.435H211.508V129.836H221.163V119.435Z" fill="#6C63FF"/>
<path d="M234.361 119.435H224.706V129.836H234.361V119.435Z" fill="#6C63FF"/>
<path opacity="0.2" d="M247.556 119.435H237.9V129.836H247.556V119.435Z" fill="#6C63FF"/>
<path d="M260.754 119.435H251.098V129.836H260.754V119.435Z" fill="#6C63FF"/>
<path opacity="0.2" d="M273.952 119.435H264.297V129.836H273.952V119.435Z" fill="#6C63FF"/>
<path opacity="0.2" d="M287.146 119.435H277.491V129.836H287.146V119.435Z" fill="#6C63FF"/>
<path opacity="0.2" d="M300.345 119.435H290.689V129.836H300.345V119.435Z" fill="#6C63FF"/>
<path opacity="0.2" d="M313.539 119.435H303.883V129.836H313.539V119.435Z" fill="#6C63FF"/>
<path opacity="0.2" d="M326.737 119.435H317.082V129.836H326.737V119.435Z" fill="#6C63FF"/>
<path opacity="0.7" d="M339.935 119.435H330.28V129.836H339.935V119.435Z" fill="#6C63FF"/>
<path opacity="0.2" d="M353.13 119.435H343.474V129.836H353.13V119.435Z" fill="#6C63FF"/>
<path opacity="0.2" d="M366.328 119.435H356.672V129.836H366.328V119.435Z" fill="#6C63FF"/>
<path d="M379.522 119.435H369.867V129.836H379.522V119.435Z" fill="#6C63FF"/>
<path opacity="0.2" d="M49.6058 132.608H39.9503V143.01H49.6058V132.608Z" fill="#6C63FF"/>
<path opacity="0.2" d="M62.8039 132.608H53.1485V143.01H62.8039V132.608Z" fill="#6C63FF"/>
<path opacity="0.2" d="M75.9983 132.608H66.3428V143.01H75.9983V132.608Z" fill="#6C63FF"/>
<path opacity="0.4" d="M89.1965 132.608H79.541V143.01H89.1965V132.608Z" fill="#6C63FF"/>
<path opacity="0.2" d="M102.395 132.608H92.7392V143.01H102.395V132.608Z" fill="#6C63FF"/>
<path opacity="0.2" d="M115.589 132.608H105.934V143.01H115.589V132.608Z" fill="#6C63FF"/>
<path opacity="0.7" d="M128.787 132.608H119.132V143.01H128.787V132.608Z" fill="#6C63FF"/>
<path opacity="0.2" d="M141.982 132.608H132.326V143.01H141.982V132.608Z" fill="#6C63FF"/>
<path opacity="0.2" d="M155.18 132.608H145.524V143.01H155.18V132.608Z" fill="#6C63FF"/>
<path opacity="0.2" d="M168.378 132.608H158.723V143.01H168.378V132.608Z" fill="#6C63FF"/>
<path d="M181.572 132.608H171.917V143.01H181.572V132.608Z" fill="#6C63FF"/>
<path opacity="0.2" d="M194.771 132.608H185.115V143.01H194.771V132.608Z" fill="#6C63FF"/>
<path d="M207.965 132.608H198.309V143.01H207.965V132.608Z" fill="#6C63FF"/>
<path d="M221.163 132.608H211.508V143.01H221.163V132.608Z" fill="#6C63FF"/>
<path opacity="0.2" d="M234.361 132.608H224.706V143.01H234.361V132.608Z" fill="#6C63FF"/>
<path opacity="0.2" d="M247.556 132.608H237.9V143.01H247.556V132.608Z" fill="#6C63FF"/>
<path opacity="0.2" d="M260.754 132.608H251.098V143.01H260.754V132.608Z" fill="#6C63FF"/>
<path opacity="0.2" d="M273.952 132.608H264.297V143.01H273.952V132.608Z" fill="#6C63FF"/>
<path opacity="0.2" d="M287.146 132.608H277.491V143.01H287.146V132.608Z" fill="#6C63FF"/>
<path opacity="0.2" d="M300.345 132.608H290.689V143.01H300.345V132.608Z" fill="#6C63FF"/>
<path opacity="0.2" d="M313.539 132.608H303.883V143.01H313.539V132.608Z" fill="#6C63FF"/>
<path opacity="0.2" d="M326.737 132.608H317.082V143.01H326.737V132.608Z" fill="#6C63FF"/>
<path opacity="0.2" d="M339.935 132.608H330.28V143.01H339.935V132.608Z" fill="#6C63FF"/>
<path opacity="0.2" d="M353.13 132.608H343.474V143.01H353.13V132.608Z" fill="#6C63FF"/>
<path opacity="0.4" d="M366.328 132.608H356.672V143.01H366.328V132.608Z" fill="#6C63FF"/>
<path d="M379.522 132.608H369.867V143.01H379.522V132.608Z" fill="#6C63FF"/>
<path opacity="0.7" d="M49.6058 145.787H39.9503V156.189H49.6058V145.787Z" fill="#6C63FF"/>
<path opacity="0.7" d="M62.8039 145.787H53.1485V156.189H62.8039V145.787Z" fill="#6C63FF"/>
<path opacity="0.7" d="M75.9983 145.787H66.3428V156.189H75.9983V145.787Z" fill="#6C63FF"/>
<path opacity="0.7" d="M89.1965 145.787H79.541V156.189H89.1965V145.787Z" fill="#6C63FF"/>
<path opacity="0.7" d="M102.395 145.787H92.7392V156.189H102.395V145.787Z" fill="#6C63FF"/>
<path opacity="0.2" d="M115.589 145.787H105.934V156.189H115.589V145.787Z" fill="#6C63FF"/>
<path opacity="0.2" d="M128.787 145.787H119.132V156.189H128.787V145.787Z" fill="#6C63FF"/>
<path opacity="0.2" d="M141.982 145.787H132.326V156.189H141.982V145.787Z" fill="#6C63FF"/>
<path opacity="0.2" d="M155.18 145.787H145.524V156.189H155.18V145.787Z" fill="#6C63FF"/>
<path opacity="0.2" d="M168.378 145.787H158.723V156.189H168.378V145.787Z" fill="#6C63FF"/>
<path opacity="0.2" d="M181.572 145.787H171.917V156.189H181.572V145.787Z" fill="#6C63FF"/>
<path d="M194.771 145.787H185.115V156.189H194.771V145.787Z" fill="#6C63FF"/>
<path opacity="0.2" d="M207.965 145.787H198.309V156.189H207.965V145.787Z" fill="#6C63FF"/>
<path opacity="0.2" d="M221.163 145.787H211.508V156.189H221.163V145.787Z" fill="#6C63FF"/>
<path opacity="0.2" d="M234.361 145.787H224.706V156.189H234.361V145.787Z" fill="#6C63FF"/>
<path d="M247.556 145.787H237.9V156.189H247.556V145.787Z" fill="#6C63FF"/>
<path opacity="0.2" d="M260.754 145.787H251.098V156.189H260.754V145.787Z" fill="#6C63FF"/>
<path opacity="0.2" d="M273.952 145.787H264.297V156.189H273.952V145.787Z" fill="#6C63FF"/>
<path opacity="0.2" d="M287.146 145.787H277.491V156.189H287.146V145.787Z" fill="#6C63FF"/>
<path opacity="0.2" d="M300.345 145.787H290.689V156.189H300.345V145.787Z" fill="#6C63FF"/>
<path opacity="0.2" d="M313.539 145.787H303.883V156.189H313.539V145.787Z" fill="#6C63FF"/>
<path opacity="0.2" d="M326.737 145.787H317.082V156.189H326.737V145.787Z" fill="#6C63FF"/>
<path opacity="0.2" d="M339.935 145.787H330.28V156.189H339.935V145.787Z" fill="#6C63FF"/>
<path opacity="0.2" d="M353.13 145.787H343.474V156.189H353.13V145.787Z" fill="#6C63FF"/>
<path opacity="0.2" d="M366.328 145.787H356.672V156.189H366.328V145.787Z" fill="#6C63FF"/>
<path d="M379.522 145.787H369.867V156.189H379.522V145.787Z" fill="#6C63FF"/>
<path d="M278.013 184.054C285.302 184.054 291.211 177.688 291.211 169.836C291.211 161.983 285.302 155.618 278.013 155.618C270.724 155.618 264.815 161.983 264.815 169.836C264.815 177.688 270.724 184.054 278.013 184.054Z" fill="#767D9F"/>
<path d="M277.328 151.749C278.645 157.941 279.763 164.179 280.682 170.464C280.958 172.332 281.204 174.301 280.576 176.067C280.049 177.538 278.978 178.688 278.138 179.977C277.298 181.265 276.662 182.917 277.173 184.393C277.684 185.869 279.175 186.676 280.598 187.092C284.671 188.274 289.012 187.414 293.066 186.134C294.901 185.625 296.661 184.84 298.293 183.801C300.011 182.627 301.419 180.996 302.714 179.316C308.622 171.598 312.49 162.334 316.132 153.127C313.792 153.356 311.435 152.983 309.256 152.037C307.077 151.091 305.138 149.6 303.6 147.687C302.108 145.8 301.014 143.17 301.855 140.862C299.391 142.317 296.465 142.415 293.812 143.41C292.166 144.087 290.582 144.927 289.08 145.918C287.269 147.046 285.467 148.196 283.675 149.367C281.628 150.697 279.709 151.879 277.328 151.749Z" fill="#AE6E79"/>
<path d="M304.932 162.423C302.619 167.271 299.61 171.932 295.314 174.819C291.018 177.705 285.235 178.488 280.931 175.634C278.812 174.24 277.207 172.119 275.356 170.333C273.505 168.548 271.193 167.018 268.706 167.251C265.966 167.508 263.82 169.812 261.984 172.017C259.198 175.369 256.507 178.863 254.535 182.831C250.75 190.456 249.853 199.369 250.02 208.013C250.186 216.657 251.348 225.257 251.375 233.901C251.413 244.535 249.74 255.083 248.048 265.558C263.604 263.495 279.179 268.005 294.769 269.713C304.746 270.818 314.799 270.794 324.83 270.765C326.593 270.765 328.471 270.716 329.939 269.664C330.837 268.959 331.563 268.03 332.055 266.957C333.44 264.205 333.997 261.065 334.383 257.962C335.363 250.125 335.393 242.19 335.42 234.28C335.488 215.116 335.552 195.883 333.293 176.87C332.736 172.193 332.025 167.491 330.359 163.116C328.694 158.741 325.976 154.717 322.176 152.372C319.735 150.864 314.076 148.238 311.2 149.759C307.971 151.455 306.48 159.178 304.932 162.423Z" fill="#767D9F"/>
<path d="M306.083 216.539C305.496 204.714 303.108 192.095 308.191 181.599C309.44 179.022 304.958 175.805 306.344 173.31C308.034 170.267 309.316 166.982 310.151 163.552C310.439 162.374 310.67 161.126 310.397 159.944C309.894 157.787 307.915 156.503 306.234 155.19C304.379 153.738 303.426 149.314 302.828 146.921C302.23 144.527 307.585 147.41 309.739 146.558C312.729 145.379 316.529 146.121 319.512 147.316C321.177 147.977 322.986 148.034 324.761 148.083C328.209 148.18 331.669 148.274 335.091 147.818C336.627 147.61 338.168 147.296 339.712 147.389C343.652 147.63 347.078 150.533 349.409 153.966C351.741 157.4 353.224 161.4 355.136 165.118C356.729 168.217 358.629 171.145 359.988 174.37C361.192 177.224 361.952 180.29 362.706 183.34L364.647 191.165C364.987 192.284 365.148 193.458 365.124 194.635C365.026 195.887 364.511 197.053 363.989 198.166C362.014 202.292 359.645 206.185 356.922 209.783C352.838 215.177 347.88 220.042 345.454 226.5C344.508 229.016 343.981 231.691 343.501 234.357C341.563 245.023 340.185 255.798 339.375 266.63C334.952 264.426 330.317 262.756 325.552 261.652C323.178 261.105 320.777 260.696 318.361 260.429C316.245 260.192 313.516 260.641 311.503 260.021C308.134 258.989 307.763 252.853 307.252 249.64C306.435 244.523 306.272 239.316 306.242 234.145C306.204 228.266 306.374 222.398 306.083 216.539Z" fill="#4C4981"/>
<path d="M232.105 194.427C233.699 204.213 235.455 214.027 238.918 223.222C238.831 223.312 238.744 223.393 238.657 223.475C238.351 223.756 238.033 224.021 237.7 224.29C236.924 224.877 236.072 225.375 235.429 226.141C235.185 226.435 234.993 226.773 234.861 227.14C234.742 227.427 234.68 227.738 234.68 228.052C234.68 228.366 234.742 228.676 234.861 228.963C233.055 229.823 230.959 229.558 228.934 229.477C227.189 229.407 225.497 229.477 224.096 230.508C222.151 231.952 221.564 234.724 221.25 237.244C221.134 238.163 221.034 239.083 220.951 240.005C220.87 240.861 220.805 241.72 220.754 242.582C220.583 245.432 220.559 248.291 220.682 251.144C220.703 251.666 220.729 252.188 220.762 252.71C214.577 252.551 208.941 249.077 203.608 245.701C202.39 244.93 201.133 244.119 200.342 242.847C199.613 241.597 199.304 240.116 199.468 238.651C199.468 238.443 199.502 238.243 199.528 238.031C199.698 236.821 199.988 235.635 200.395 234.492C202.064 229.625 204.523 225.117 207.658 221.179C209.013 219.475 210.539 217.807 211.171 215.666C211.447 214.733 211.549 213.742 211.829 212.812C213.086 208.784 217.62 206.879 219.172 202.969C219.551 202.035 219.725 201.012 220.194 200.115C220.617 199.369 221.162 198.713 221.803 198.178C222.079 197.929 222.367 197.689 222.651 197.448C225.31 195.203 227.873 192.831 230.338 190.333C230.797 189.868 231.251 189.398 231.7 188.922C231.64 190.768 231.776 192.615 232.105 194.427V194.427Z" fill="#4C4981"/>
<path d="M270.246 165.486C269.701 166.105 269.111 166.688 268.532 167.267L268.377 167.418L267.764 168.03C266.651 169.065 265.687 170.273 264.906 171.614L264.842 171.728C262.911 175.451 263.627 180.034 264.164 184.262C264.831 189.531 265.131 194.847 265.061 200.164C264.963 207.504 264.16 214.794 264.145 222.125C264.145 223.789 264.179 225.449 264.247 227.112C264.357 229.815 264.546 232.515 264.773 235.214C265.019 238.174 265.315 241.13 265.591 244.087C265.811 246.374 266.019 248.657 266.193 250.941C266.28 252.123 266.363 253.302 266.431 254.484C266.511 255.87 266.575 257.261 266.613 258.647C266.639 259.528 266.655 260.404 266.655 261.285C266.655 261.787 266.655 262.284 266.655 262.782C266.655 263.736 266.631 264.687 266.583 265.636C266.532 266.856 266.455 268.08 266.352 269.306C266.234 270.639 266.026 272.095 265.156 273.032C265.103 273.089 265.046 273.142 264.989 273.195L263.763 273.032C255.309 271.942 246.775 271.778 238.29 272.543C238.476 271.165 238.646 269.791 238.812 268.409C238.888 267.756 238.964 267.1 239.036 266.443C239.119 265.693 239.198 264.943 239.274 264.192C239.361 263.377 239.441 262.561 239.516 261.746C239.713 259.645 239.886 257.542 240.035 255.438C240.254 252.369 240.421 249.295 240.535 246.215C240.59 244.744 240.633 243.272 240.663 241.799C240.706 239.972 240.726 238.144 240.724 236.315C240.724 234.537 240.71 232.757 240.682 230.973C240.682 230.386 240.659 229.799 240.614 229.216C240.581 228.691 240.514 228.169 240.413 227.654C240.132 226.467 239.752 225.31 239.278 224.197C239.195 223.985 239.115 223.789 239.036 223.565C238.99 223.455 238.949 223.34 238.907 223.23C241.087 221.139 242.639 218.337 244.13 215.581C246.549 211.141 249.024 206.505 249.429 201.375C249.834 196.246 247.469 190.484 242.919 188.919C241.681 188.511 240.372 188.397 239.096 188.156C237.893 187.928 235.383 187.41 233.99 186.48C233.233 187.318 232.476 188.14 231.719 188.947C231.765 187.715 232.045 186.507 232.541 185.396L233.078 185.424C233.034 185.294 233.014 185.155 233.018 185.017C233.018 184.58 233.298 184.087 233.896 183.54C235.678 181.909 238.483 181.547 239.607 179.341C240.077 178.423 240.156 177.33 240.535 176.368C241.621 173.624 244.74 172.613 246.617 170.419C248.494 168.226 248.964 165.119 250.481 162.672C251.615 160.886 253.188 159.474 255.023 158.595C255.175 158.517 255.33 158.44 255.485 158.37C258.627 156.923 262.359 156.593 265.614 156.601C266.878 156.601 270.156 156.642 271.76 157.331C272.021 157.431 272.259 157.588 272.461 157.791C274.171 159.797 271.511 164.034 270.246 165.486Z" fill="#4C4981"/>
<path d="M232.669 185.11C235.593 184.162 238.663 183.849 241.7 184.19C244.737 184.531 247.681 185.519 250.36 187.096C253.085 188.727 255.531 191.002 257.029 193.938C259.281 198.342 259.183 203.651 259.024 208.678C258.945 211.194 258.842 213.799 257.813 216.058C256.621 218.672 254.372 220.466 252.079 221.934C250.642 222.921 249.068 223.655 247.416 224.107C244.872 224.702 242.23 224.197 239.668 223.699C236.882 223.145 233.892 222.476 231.958 220.242C230.822 218.945 230.202 217.261 229.588 215.614C228.708 213.235 227.825 210.859 226.939 208.486C225.406 204.364 224.887 200.935 226.912 196.919C227.832 195.088 228.956 193.375 229.865 191.532C230.319 190.595 231.946 185.351 232.669 185.11Z" fill="#4C4981"/>
<path d="M391.744 255.597V267.789C383.98 271.263 375.651 273.037 367.244 273.008H265.167C265.114 273.065 265.057 273.118 265 273.171L263.774 273.008H82.1981C66.9636 273.008 52.8457 268.58 41.2675 261.036V242.423L128.594 231.564H128.662L179.517 236.205L192.677 237.428L199.513 238.052L213.661 239.344L220.94 240.009L231.538 240.979L233.029 241.114L240.667 241.811L251.03 242.729L265.602 244.058L289.894 246.28L306.983 247.842L335.045 250.406L340.382 250.892L340.957 250.945L341.457 250.989L348.504 251.634L356.241 252.343L357.138 252.425L391.744 255.597Z" fill="#504F60"/>
<path d="M289.171 255.149L179.733 235.026L175.49 258.141L225.656 264.612L241.102 266.696L283.592 257.681L289.171 255.149Z" fill="#9C9CA1"/>
<path d="M232.522 265.538L287.351 254.435C287.625 254.379 287.908 254.388 288.178 254.463C288.448 254.538 288.7 254.677 288.915 254.869C289.13 255.061 289.303 255.302 289.421 255.575C289.539 255.847 289.6 256.145 289.599 256.445V256.445C289.6 256.923 289.446 257.385 289.163 257.753C288.88 258.12 288.487 258.369 288.051 258.456L234.505 269.257L232.522 265.538Z" fill="#9C9CA1"/>
<path d="M256.306 230.623C258.013 230.451 259.743 230.162 261.28 229.346C263.172 228.331 264.645 226.582 266.397 225.293C270.25 222.439 275.405 222.056 279.822 223.695C284.24 225.334 287.926 228.845 290.507 233.036C292.222 235.829 293.509 239.393 292.298 242.476C291.882 243.418 291.358 244.3 290.738 245.102L287.582 249.546C286.982 250.48 286.26 251.317 285.439 252.029C284.258 252.955 282.79 253.334 281.344 253.562C277.502 254.166 273.592 253.823 269.72 254.101C263.07 254.578 256.575 256.885 249.91 256.808C246.079 256.763 242.298 255.931 238.555 255.1L221.988 251.43C219.104 250.794 215.845 249.864 214.486 247.047C213.877 245.778 213.763 244.311 213.692 242.883C213.495 238.953 213.692 234.582 216.22 231.748C218.597 229.089 222.355 228.249 225.194 226.284C228.669 223.874 229.815 224.653 233.479 226.464C240.627 229.951 248.492 231.384 256.306 230.623V230.623Z" fill="#AE6E79"/>
<path opacity="0.05" d="M256.306 230.623C258.013 230.451 259.743 230.162 261.28 229.346C263.172 228.331 264.645 226.582 266.397 225.293C270.25 222.439 275.405 222.056 279.822 223.695C284.24 225.334 287.926 228.845 290.507 233.036C292.222 235.829 293.509 239.393 292.298 242.476C291.882 243.418 291.358 244.3 290.738 245.102L287.582 249.546C286.982 250.48 286.26 251.317 285.439 252.029C284.258 252.955 282.79 253.334 281.344 253.562C277.502 254.166 273.592 253.823 269.72 254.101C263.07 254.578 256.575 256.885 249.91 256.808C246.079 256.763 242.298 255.931 238.555 255.1L221.988 251.43C219.104 250.794 215.845 249.864 214.486 247.047C213.877 245.778 213.763 244.311 213.692 242.883C213.495 238.953 213.692 234.582 216.22 231.748C218.597 229.089 222.355 228.249 225.194 226.284C228.669 223.874 229.815 224.653 233.479 226.464C240.627 229.951 248.492 231.384 256.306 230.623V230.623Z" fill="black"/>
<path d="M322.835 225.032C318.187 226.969 313.512 228.914 308.645 230.068C300.485 232.005 291.946 231.699 283.85 233.913C279.573 235.087 275.322 236.979 270.928 236.596C268.963 236.425 267.067 235.78 265.156 235.291C254.418 232.437 242.211 233.363 233.491 240.702C230.508 243.21 228.067 246.337 225.853 249.672C225.379 250.393 225.059 251.217 224.915 252.086C224.771 252.955 224.807 253.848 225.021 254.7C225.235 255.553 225.621 256.344 226.151 257.017C226.682 257.69 227.343 258.228 228.09 258.594C231.481 260.274 235.114 261.318 238.831 261.68C243.801 262.153 248.793 261.395 253.736 260.637C261.072 259.515 268.411 258.39 275.727 257.13C278.354 256.677 280.981 256.208 283.623 255.85C302.634 253.26 321.991 256.408 341.052 254.247C342.978 254.027 344.939 253.742 346.691 252.857C351.127 250.614 353.323 244.702 352.407 239.507C351.491 234.313 347.956 229.995 343.701 227.344C340.136 225.114 336.29 224.213 332.32 223.267C328.633 222.341 326.385 223.564 322.835 225.032Z" fill="#AE6E79"/>
<path opacity="0.1" d="M363.61 193.978C365.707 196.938 366.154 200.91 365.927 204.616C365.7 208.323 364.882 211.988 364.761 215.711C364.594 220.816 365.737 225.905 365.544 230.993C365.408 234.553 364.625 238.043 363.697 241.46C362.603 245.493 361.021 249.827 357.566 251.764C352.978 254.337 343.357 252.889 338.531 254.904C338.97 251.956 343.179 247.686 343.618 244.738C343.921 242.7 344.227 240.604 343.902 238.561C343.486 235.956 342.066 233.644 340.382 231.719C337.702 228.657 334.205 226.353 330.363 225.603C326.521 224.853 317.116 225.468 314.042 228.082C313.664 225.383 320.704 222.781 323.179 222.198C324.413 221.901 325.829 222.068 326.817 221.224C328.709 219.625 327.335 216.441 327.426 213.884C327.498 211.846 328.603 209.978 328.826 207.939C329.205 204.677 327.229 201.354 328.005 198.154C328.293 196.971 328.932 195.931 329.375 194.806C330.723 191.361 330.132 187.43 329.413 183.768C328.966 181.469 328.531 178.875 329.72 176.914C330.821 175.083 333.947 181.603 335.95 181.301C342.562 180.302 348.546 175.022 353.887 179.344C356.608 181.546 356.964 183.829 358.05 186.973C359.106 189.966 361.843 191.499 363.61 193.978Z" fill="black"/>
<path d="M364.746 193.979C366.843 196.939 367.289 200.91 367.062 204.617C366.835 208.323 366.018 211.989 365.896 215.712C365.73 220.817 366.873 225.905 366.68 230.994C366.544 234.553 365.76 238.044 364.833 241.461C363.739 245.493 362.157 249.828 358.701 251.764C354.114 254.337 344.492 252.89 339.667 254.904C340.106 251.956 344.315 247.687 344.754 244.739C345.056 242.7 345.363 240.604 345.037 238.562C344.621 235.956 343.202 233.644 341.517 231.72C338.838 228.657 335.34 226.354 331.499 225.603C327.657 224.853 318.251 225.469 315.178 228.083C314.799 225.383 321.839 222.782 324.315 222.199C325.549 221.901 326.964 222.068 327.952 221.224C329.845 219.626 328.471 216.441 328.562 213.885C328.633 211.846 329.739 209.979 329.962 207.94C330.34 204.678 328.365 201.355 329.141 198.154C329.428 196.972 330.068 195.932 330.511 194.806C331.858 191.361 331.268 187.43 330.549 183.769C330.102 181.469 329.667 178.876 330.855 176.915C331.957 175.084 334.11 174.391 336.113 174.085C342.816 173.108 349.609 174.996 355.037 179.345C357.759 181.547 358.115 183.83 359.201 186.974C360.242 189.967 362.978 191.5 364.746 193.979Z" fill="#4C4981"/>
<path d="M114.306 174.659L134.885 256.592C135.137 257.596 135.668 258.493 136.405 259.164C137.143 259.835 138.053 260.247 139.014 260.347L231.64 269.933C232.395 270.012 233.156 269.894 233.86 269.59C234.564 269.286 235.19 268.805 235.686 268.187C236.182 267.569 236.533 266.832 236.711 266.038C236.888 265.243 236.885 264.415 236.704 263.621L214.168 164.792C213.9 163.617 213.254 162.583 212.345 161.873C211.436 161.163 210.322 160.823 209.203 160.914L118.519 168.221C117.822 168.279 117.147 168.503 116.54 168.874C115.932 169.246 115.409 169.758 115.007 170.373C114.604 170.988 114.333 171.691 114.212 172.432C114.091 173.173 114.123 173.933 114.306 174.659V174.659Z" fill="#9C9CA1"/>
<path d="M297.918 190.647C303.541 190.647 308.1 185.673 308.1 179.536C308.1 173.4 303.541 168.425 297.918 168.425C292.295 168.425 287.737 173.4 287.737 179.536C287.737 185.673 292.295 190.647 297.918 190.647Z" fill="white"/>
<path d="M306.279 159.268C306.279 159.268 308.425 166.142 302.093 169.033L301.283 170.558L305.25 174.774C305.25 174.774 310.14 165.164 309.61 161.751C309.61 161.751 308.853 158.285 306.279 159.268Z" fill="white"/>
<path d="M299.088 190.647C304.51 190.647 308.906 185.912 308.906 180.071C308.906 174.229 304.51 169.494 299.088 169.494C293.666 169.494 289.27 174.229 289.27 180.071C289.27 185.912 293.666 190.647 299.088 190.647Z" fill="#6C63FF"/>
<path d="M309.659 163.312L308.1 160.539L305.829 160.193C306.314 151.063 304.114 148.343 304.114 148.343L303.603 148.29L301.378 148.058L297.192 143.377V142.048C303.074 142.802 306.325 145.811 308.081 149.338C311.185 155.528 309.659 163.312 309.659 163.312Z" fill="#6C63FF"/>
<path opacity="0.1" d="M303.622 146.611V148.291L301.397 148.058L297.211 143.377C297.211 143.377 303.687 144.939 303.622 146.611Z" fill="black" stroke="#4C4981" stroke-miterlimit="10"/>
<path opacity="0.1" d="M309.659 163.312L308.1 160.539V149.355C311.185 155.528 309.659 163.312 309.659 163.312Z" fill="black" stroke="#4C4981" stroke-miterlimit="10"/>
<path d="M280.945 184.418C283.558 182.793 283.445 177.315 280.694 172.182C277.943 167.049 273.596 164.205 270.983 165.83C268.371 167.455 268.483 172.933 271.234 178.066C273.985 183.199 278.333 186.043 280.945 184.418Z" fill="white"/>
<path d="M277.438 174.228C280.19 179.361 283.566 182.79 280.954 184.421C278.343 186.052 270.735 185.237 267.983 180.099C265.231 174.962 267.73 167.867 270.341 166.236C272.953 164.605 274.683 169.082 277.438 174.228Z" fill="#6C63FF"/>
<path opacity="0.1" d="M301.938 137.245C301.938 153.649 291.518 169.457 276.291 169.457C268.978 169.457 261.965 166.327 256.794 160.757C251.623 155.186 248.718 147.631 248.718 139.753C248.718 131.875 251.623 124.319 256.794 118.749C261.965 113.178 268.978 110.048 276.291 110.048C291.518 110.065 301.938 120.837 301.938 137.245Z" fill="black"/>
<path d="M276.291 168.658C291.52 168.658 303.865 155.358 303.865 138.953C303.865 122.548 291.52 109.249 276.291 109.249C261.063 109.249 248.718 122.548 248.718 138.953C248.718 155.358 261.063 168.658 276.291 168.658Z" fill="#AE6E79"/>
<path d="M273.869 125.791C277.15 127.092 279.092 130.746 282.037 132.78C286.2 135.634 291.62 134.896 296.374 133.486C299.024 132.707 301.794 131.757 304.402 132.621C304.786 132.804 305.209 132.869 305.625 132.809C306.192 132.633 306.472 131.957 306.658 131.353C309.883 120.996 308.433 109.266 303.566 99.6835C302.309 97.2126 300.803 94.8232 298.728 93.1066C297.093 91.757 295.171 90.8722 293.233 90.1178C289.691 88.7476 286.028 87.7734 282.302 87.2106C281.644 87.0818 280.971 87.0584 280.307 87.1413C279.395 87.3003 278.577 87.8304 277.763 88.3034C274.278 90.316 270.413 91.4469 266.462 91.6102C261.163 91.8263 255.107 90.4807 251.023 94.1423C246.102 98.5337 247.329 107.1 244.138 113.062C242.026 117.005 237.953 119.867 237.283 124.356C237.109 125.728 237.19 127.124 237.522 128.462C239.081 135.369 245.288 140.719 251.905 140.845C252.921 140.929 253.938 140.704 254.842 140.197C255.434 139.762 255.957 139.226 256.39 138.611C260.724 133.082 265.682 122.546 273.869 125.791Z" fill="#444053"/>
<path opacity="0.1" d="M306.658 128.348C306.472 128.951 306.192 129.628 305.625 129.803C305.209 129.864 304.786 129.799 304.402 129.616C301.794 128.751 299.008 129.701 296.378 130.48C291.62 131.891 286.189 132.645 282.04 129.775C279.092 127.736 277.154 124.066 273.869 122.786C265.682 119.524 260.724 130.077 256.378 135.606C255.945 136.221 255.422 136.756 254.83 137.192C253.927 137.699 252.909 137.924 251.893 137.84C245.3 137.714 239.089 132.364 237.51 125.457C237.423 125.049 237.348 124.641 237.291 124.234C237.291 124.27 237.291 124.303 237.272 124.34C237.097 125.712 237.179 127.108 237.51 128.446C239.07 135.353 245.281 140.702 251.893 140.829C252.909 140.912 253.927 140.688 254.83 140.18C255.422 139.745 255.945 139.21 256.378 138.594C260.724 133.065 265.682 122.529 273.869 125.775C277.154 127.076 279.092 130.729 282.04 132.764C286.204 135.618 291.62 134.88 296.378 133.469C299.027 132.69 301.794 131.74 304.402 132.605C304.786 132.788 305.209 132.852 305.625 132.792C306.192 132.617 306.472 131.94 306.658 131.336C307.959 127.099 308.533 122.642 308.354 118.183C308.242 121.641 307.671 125.064 306.658 128.348V128.348Z" fill="black"/>
</g>
<defs>
<clipPath id="clip0">
<rect width="433" height="299" fill="white"/>
</clipPath>
</defs>
</svg>
