<svg width="394" height="394" viewBox="0 0 394 394" fill="none" xmlns="http://www.w3.org/2000/svg">
<g clip-path="url(#clip0)">
<path d="M147.692 304.641H252.455V353.872H147.692V304.641Z" fill="#CCD0D2"/>
<path d="M135.483 353.871H264.665C271.36 353.871 276.874 359.385 276.874 366.08C276.874 372.775 271.36 378.289 264.665 378.289H135.483C128.788 378.289 123.274 372.775 123.274 366.08C123.274 359.385 128.788 353.871 135.483 353.871Z" fill="#E4E7E7"/>
<path d="M18.511 15.5569H375.336C385.576 15.5569 393.847 23.8279 393.847 34.0679V282.585C393.847 292.825 0.000976653 292.825 0.000976653 282.585V34.0679C-2.33469e-05 23.8279 8.27098 15.5569 18.511 15.5569Z" fill="#36434F"/>
<path d="M18.511 34.0681H375.336V243.2H18.511V34.0681Z" fill="#465765"/>
<path d="M147.692 304.641H252.455V323.152H147.692V304.641Z" fill="#B7BBBD"/>
<path d="M0 286.523C0 296.763 8.271 305.034 18.511 305.034H375.336C385.576 305.034 393.847 296.763 393.847 286.523V262.105H0V286.523Z" fill="#E4E7E7"/>
</g>
<defs>
<clipPath id="clip0">
<rect width="393.847" height="393.847" fill="white"/>
</clipPath>
</defs>
</svg>
