<svg width="433" height="299" viewBox="0 0 433 299" fill="none" xmlns="http://www.w3.org/2000/svg">
<path opacity="0.1" d="M427.491 86.2488C427.416 86.5699 427.345 86.8911 427.261 87.2087C424.66 98.1246 420.408 108.644 414.086 118.304C413.876 118.625 413.666 118.946 413.452 119.267C409.283 125.483 404.295 131.211 398.599 136.325C395.45 139.154 392.015 141.843 387.93 143.78C382.207 146.501 375.517 147.606 368.941 148.508C362.112 149.45 355.187 150.236 348.282 151.084C345.829 151.38 343.39 151.694 340.965 152.026C334.294 152.925 327.671 153.964 321.206 155.342C313.215 157.042 305.469 159.268 298.152 162.401C297.568 162.641 296.99 162.896 296.419 163.166C295.848 163.426 295.273 163.689 294.71 163.956C294.146 164.223 293.591 164.49 293.04 164.764C292.754 164.905 292.469 165.046 292.187 165.194C291.906 165.342 291.628 165.472 291.354 165.616C290.529 166.035 289.72 166.464 288.911 166.897L288.88 166.915C288.344 167.2 287.817 167.492 287.293 167.785C284.303 169.437 281.376 171.162 278.449 172.898L276.609 173.981L273.757 175.659C273.202 175.987 272.635 176.315 272.076 176.64C271.679 176.878 271.282 177.117 270.85 177.362C268.772 178.553 266.666 179.722 264.504 180.837C263.993 181.104 263.477 181.371 262.958 181.631C258.591 183.848 254.024 185.721 249.307 187.231L249.243 187.253C246.87 188.006 244.449 188.628 241.993 189.115C240.578 189.397 239.158 189.627 237.722 189.804C233.884 190.299 229.993 190.349 226.141 189.952C218.578 189.155 211.491 186.513 203.932 185.622C188.369 183.818 173.255 189.631 158.62 194.185C155.022 195.304 151.397 196.351 147.745 197.328C145.318 197.981 142.883 198.598 140.428 199.194C125.387 202.81 110.037 205.259 94.5416 206.516C88.0641 207.093 81.5479 207.225 75.0487 206.909C72.5779 206.772 70.1348 206.548 67.7354 206.187C59.5257 205.033 51.8714 202.611 45.6923 198.176C40.6317 194.535 37.0108 189.79 34.2544 184.824C31.4328 179.758 29.4406 174.343 28.3411 168.752C28.1904 167.99 28.0555 167.225 27.9445 166.46C27.7462 165.152 27.5981 163.836 27.5003 162.513C26.9667 155.46 27.8922 148.379 30.2289 141.637C32.8465 134.088 37.2091 126.842 39.1286 119.235C39.2079 118.912 39.2833 118.591 39.3547 118.271C39.6168 117.116 39.8114 115.949 39.9377 114.775C40.9173 105.428 37.1615 96.3167 34.2147 87.1762C34.1116 86.8586 34.0085 86.5375 33.9094 86.2163C33.5921 85.2011 33.288 84.1871 32.9972 83.1743C30.2686 73.5105 29.5111 63.1647 31.9422 53.5189C32.0176 53.1978 32.1088 52.8766 32.196 52.559C33.8236 46.4619 36.8842 40.7581 41.1671 35.8405C45.7201 30.6441 51.6969 26.3174 58.0821 22.5176C61.1941 20.6652 64.4119 18.9343 67.7354 17.3248C70.115 16.1701 72.5527 15.0767 75.0487 14.0446C95.0571 5.7449 117.881 1.69246 140.452 2.58739C141.642 2.6343 142.832 2.69204 144.021 2.77143C145.211 2.85082 146.512 2.94464 147.757 3.04929C162.297 4.33394 176.443 7.43371 190.491 10.8222C195.199 11.9589 199.898 13.1245 204.594 14.2684C206.684 14.7736 208.77 15.2788 210.86 15.7695C221.097 18.1765 231.484 20.3561 242.001 21.9835C244.437 22.366 246.874 22.7149 249.315 23.03C257.788 24.1631 266.33 24.8223 274.891 25.0039C278.22 25.064 281.55 25.0376 284.882 24.9245C286.563 24.8692 288.246 24.7862 289.931 24.6755C307.321 23.5605 324.129 19.8292 340.965 16.3433C343.4 15.8381 345.839 15.3401 348.282 14.8494C351.487 14.207 354.691 13.5863 357.912 13.0126C377.952 9.42926 395.815 11.4898 414.447 18.8838C418.683 20.5617 422.914 22.5898 425.508 25.7401C428.102 28.8903 428.752 32.7587 429.236 36.4936C429.922 41.8127 430.371 47.2003 430.541 52.6168C430.541 52.9343 430.541 53.2555 430.565 53.5767C430.835 64.5179 429.938 75.5638 427.491 86.2488Z" fill="#6C63FF"/>
<path opacity="0.1" d="M294.559 118.304H293.25V118.73V119.267H294.733L294.559 118.304ZM279.714 118.304C279.712 118.312 279.712 118.321 279.714 118.329C279.678 118.593 279.639 118.856 279.599 119.123V119.195V119.267H290.942V119.21L291.735 118.304H279.714ZM249.315 118.304V87.2087H262.363C262.224 87.1257 262.081 87.0391 261.934 86.9597L261.744 86.8478L261.498 86.7107C261.355 86.6349 261.213 86.5591 261.062 86.487C260.911 86.4148 260.82 86.3643 260.693 86.3029L260.606 86.2596H260.586H249.315V84.5456L249.009 84.6538L248.688 84.7909H248.664L248.597 84.8234L248.395 84.9208L248.192 85.0183C247.994 85.1157 247.796 85.224 247.597 85.3358L247.407 85.4513L247.01 85.6823C246.499 85.9926 245.995 86.3174 245.476 86.6205C245.345 86.6963 245.214 86.772 245.079 86.8406C244.797 86.9922 244.508 87.1365 244.21 87.2664C244.083 87.3242 243.961 87.3747 243.814 87.4216L243.6 87.4974L243.401 87.5587C242.936 87.7061 242.459 87.8195 241.974 87.8979V118.297H222.409C222.409 118.333 222.437 118.362 222.449 118.398C222.556 118.686 222.663 118.971 222.766 119.26H242.001V152.589C242.102 152.589 242.201 152.589 242.299 152.589L242.644 152.607L243.266 152.64L244.262 152.748L244.718 152.787L245.214 152.834H245.289L246.166 152.932L246.352 152.953L246.776 153.008L247.383 153.087L248.839 153.029L249.037 153.062C249.116 153.062 249.2 153.083 249.283 153.098V119.267H279.559V119.195V119.123C279.599 118.856 279.639 118.593 279.674 118.329C279.672 118.321 279.672 118.312 279.674 118.304H249.315ZM294.559 118.304H293.25V118.73V119.267H294.733L294.559 118.304ZM278.897 118.304C278.849 118.625 278.806 118.946 278.758 119.267H291.406L292.266 118.304H278.897ZM249.315 118.304V87.2087H262.363C262.224 87.1257 262.081 87.0391 261.934 86.9597L261.744 86.8478L261.498 86.7107C261.355 86.6349 261.213 86.5591 261.062 86.487C260.911 86.4148 260.82 86.3643 260.693 86.3029L260.606 86.2596H260.578H249.315V84.5456L249.009 84.6538L248.688 84.7909H248.664L248.597 84.8234L248.395 84.9208L248.192 85.0183C247.994 85.1157 247.796 85.224 247.597 85.3358L247.407 85.4513L247.01 85.6823C246.499 85.9926 245.995 86.3174 245.476 86.6205C245.345 86.6963 245.214 86.772 245.079 86.8406C244.797 86.9922 244.508 87.1365 244.21 87.2664C244.083 87.3242 243.961 87.3747 243.814 87.4216L243.6 87.4974L243.401 87.5587C242.936 87.7061 242.459 87.8195 241.974 87.8979V118.297H222.409C222.409 118.333 222.437 118.362 222.449 118.398C222.556 118.683 222.667 118.971 222.77 119.26H242.001V152.585H242.299L242.644 152.603L243.266 152.636L244.262 152.748L244.718 152.787L245.214 152.834H245.289L246.166 152.932L246.352 152.953L246.776 153.008L247.383 153.087L248.839 153.029L249.037 153.062C249.116 153.062 249.2 153.083 249.283 153.098V119.267H278.766C278.814 118.946 278.857 118.625 278.905 118.304H249.315ZM348.282 53.5514H430.565C430.565 53.2303 430.565 52.9091 430.541 52.5915H348.282V14.8385C345.839 15.3197 343.4 15.8177 340.965 16.3325V52.5915H251.476L251.25 52.4075L251.591 52.1332L284.878 24.9173C281.546 25.0328 278.216 25.0593 274.887 24.9967L249.311 45.9048V23.03C246.868 22.7149 244.43 22.366 241.997 21.9835V44.8511L204.602 14.2684C199.906 13.1245 195.207 11.9589 190.499 10.8222L241.355 52.4075L241.129 52.5915H147.769V3.08177C146.524 2.97592 145.279 2.8833 144.033 2.80391C142.843 2.72452 141.654 2.66678 140.464 2.61987V52.5915H75.0486V14.0771C72.5791 15.1068 70.1413 16.2002 67.7353 17.3573V52.5915H32.196C32.1087 52.9091 32.0175 53.2303 31.9421 53.5514H67.7353V86.2488H33.9093C34.0084 86.57 34.1115 86.8911 34.2147 87.2087H67.7353V118.304H39.3546C39.2832 118.624 39.2079 118.945 39.1285 119.267H67.7353V206.209C70.1149 206.545 72.5778 206.779 75.0486 206.931V119.267H140.452V199.208C142.907 198.613 145.342 197.996 147.769 197.343V119.267H242.001V189.112C244.457 188.625 246.878 188.003 249.251 187.249L249.315 187.228V119.267H340.965V152.026C343.397 151.701 345.837 151.39 348.282 151.091V119.267H413.451C413.666 118.946 413.876 118.625 414.086 118.304H348.282V87.2087H427.261C427.344 86.8911 427.416 86.57 427.491 86.2488H348.282V53.5514ZM75.0486 53.5514H140.452V86.2488H75.0486V53.5514ZM75.0486 118.304V87.2087H140.452V118.304H75.0486ZM147.769 53.5514H242.001V86.2488H147.769V53.5514ZM147.769 118.304V87.2087H242.001V118.304H147.769ZM340.965 118.304H249.315V87.2087H340.965V118.304ZM340.965 86.2488H249.315V54.4283L250.6 53.5514H340.965V86.2488ZM279.714 118.304C279.712 118.312 279.712 118.321 279.714 118.329C279.678 118.593 279.639 118.856 279.599 119.123V119.195V119.267H290.942V119.21L291.735 118.304H279.714ZM294.559 118.304H293.25V118.73V119.267H294.733L294.559 118.304ZM249.315 118.304V87.2087H262.363C262.224 87.1257 262.081 87.0391 261.934 86.9597L261.744 86.8478L261.498 86.7107C261.355 86.6349 261.213 86.5591 261.062 86.487C260.911 86.4148 260.82 86.3643 260.693 86.3029L260.606 86.2596H260.586H249.315V84.5456L249.009 84.6538L248.688 84.7909H248.664L248.597 84.8234L248.395 84.9208L248.192 85.0183C247.994 85.1157 247.796 85.224 247.597 85.3358L247.407 85.4513L247.01 85.6823C246.499 85.9926 245.995 86.3174 245.476 86.6205C245.345 86.6963 245.214 86.772 245.079 86.8406C244.797 86.9922 244.508 87.1365 244.21 87.2664C244.083 87.3242 243.961 87.3747 243.814 87.4216L243.6 87.4974L243.401 87.5587C242.936 87.7061 242.459 87.8195 241.974 87.8979V118.297H222.409C222.409 118.333 222.437 118.362 222.449 118.398C222.556 118.686 222.663 118.971 222.766 119.26H242.001V152.589C242.102 152.589 242.201 152.589 242.299 152.589L242.644 152.607L243.266 152.64L244.262 152.748L244.718 152.787L245.214 152.834H245.289L246.166 152.932L246.352 152.953L246.776 153.008L247.383 153.087L248.839 153.029L249.037 153.062C249.116 153.062 249.2 153.083 249.283 153.098V119.267H279.559V119.195V119.123C279.599 118.856 279.639 118.593 279.674 118.329C279.672 118.321 279.672 118.312 279.674 118.304H249.315Z" fill="#6C63FF"/>
<path opacity="0.1" d="M106.495 31.0411H107.062C106.875 30.9691 106.713 30.8534 106.591 30.7057C106.469 30.5581 106.392 30.3837 106.368 30.2003V30.2003C106.368 29.5363 107.459 28.995 108.791 28.995H125.75C127.083 28.995 128.169 29.5363 128.169 30.2003C128.169 30.8606 127.083 31.4055 125.75 31.4055H125.183C125.37 31.4762 125.533 31.5911 125.655 31.7383C125.777 31.8855 125.854 32.0596 125.877 32.2427C125.877 32.8093 125.084 33.2856 124.025 33.4119H128.907C130.236 33.4119 131.326 33.9532 131.326 34.6172C131.326 35.2811 130.236 35.8224 128.907 35.8224H111.944C110.616 35.8224 109.525 35.2775 109.525 34.6172C109.525 34.0506 110.318 33.5779 111.377 33.448H106.495C105.162 33.448 104.076 32.9067 104.076 32.2427C104.076 31.5787 105.162 31.0411 106.495 31.0411Z" fill="#6C63FF"/>
<path opacity="0.1" d="M290.295 42.5055H290.862C290.676 42.4331 290.514 42.3172 290.393 42.1695C290.272 42.0219 290.196 41.8478 290.172 41.6647V41.6647C290.172 41.0008 291.259 40.4595 292.592 40.4595H309.55C310.883 40.4595 311.973 41.0008 311.973 41.6647C311.973 42.3251 310.883 42.8664 309.55 42.8664H308.987C309.173 42.9389 309.335 43.0548 309.456 43.2024C309.577 43.35 309.654 43.5242 309.677 43.7072C309.677 44.2737 308.884 44.7501 307.825 44.8764H312.707C314.04 44.8764 315.126 45.4177 315.126 46.0816C315.126 46.7456 314.04 47.2869 312.707 47.2869H295.749C294.416 47.2869 293.325 46.742 293.325 46.0816C293.325 45.5151 294.118 45.0388 295.177 44.9125H290.295C288.967 44.9125 287.876 44.3712 287.876 43.7072C287.876 43.0432 288.967 42.5055 290.295 42.5055Z" fill="#6C63FF"/>
<path opacity="0.1" d="M80.4662 91.5678H81.0294C80.8429 91.4956 80.6809 91.3798 80.5596 91.2321C80.4384 91.0844 80.3624 90.9101 80.3393 90.727V90.727C80.3393 90.0666 81.4299 89.5217 82.7585 89.5217H99.7211C101.05 89.5217 102.14 90.0666 102.14 90.727C102.14 91.391 101.05 91.9323 99.7211 91.9323H99.154C99.3406 92.0032 99.5029 92.1182 99.6243 92.2654C99.7456 92.4126 99.8215 92.5866 99.844 92.7695C99.844 93.336 99.0509 93.8123 97.9919 93.9386H102.874C104.207 93.9386 105.297 94.4835 105.297 95.1439C105.297 95.8043 104.207 96.3492 102.874 96.3492H85.9313C84.5988 96.3492 83.5121 95.8079 83.5121 95.1439C83.5121 94.581 84.3053 94.1046 85.3642 93.9747H80.4662C79.1336 93.9747 78.043 93.4334 78.043 92.7695C78.043 92.1055 79.1495 91.5678 80.4662 91.5678Z" fill="#6C63FF"/>
<path opacity="0.1" d="M399.789 220.161C402.638 207.477 367.759 190.279 321.883 181.749C276.008 173.219 236.509 176.586 233.661 189.27C230.812 201.955 265.691 219.152 311.567 227.682C357.442 236.213 396.94 232.845 399.789 220.161Z" fill="#6C63FF"/>
<path d="M307.147 138.887C307.147 138.887 311.656 118.748 328.873 120.613C328.873 120.613 340.771 121.357 343.218 128.444V144.109L307.147 138.887Z" fill="#3A3768"/>
<path d="M401.431 146.35L248.117 134.784L228.442 138.515L229.671 163.505L231.011 163.653L232.538 201.179L382.981 225.793L398.972 213.484V172.804L401.018 171.711L401.431 146.35Z" fill="#D48A9B"/>
<path opacity="0.05" d="M401.637 146.35L401.224 171.711L384.623 178.798L384.417 152.315L401.637 146.35Z" fill="black"/>
<path opacity="0.05" d="M398.972 172.829L399.174 212.74L383.187 225.049L384.214 178.798L398.972 172.829Z" fill="black"/>
<path opacity="0.05" d="M231.218 165.147L384.337 182.147L384.416 178.921L231.103 163.877L231.218 165.147Z" fill="black"/>
<path opacity="0.05" d="M398.972 174.295V172.829L383.802 178.921V182.154L398.972 174.295Z" fill="black"/>
<path d="M228.235 138.515L247.911 134.784L401.224 146.35L384.008 152.315L228.235 138.515Z" fill="#EFC6CD"/>
<path opacity="0.1" d="M384.892 147.068L392.416 147.515L379.947 150.911L373.597 150.496L384.892 147.068Z" fill="black"/>
<path d="M384.892 146.768L392.416 147.216L379.947 150.615L373.597 150.196L384.892 146.768Z" fill="white"/>
<path d="M383.992 147.537C384.29 147.421 384.603 147.642 384.92 147.696C385.103 147.728 385.289 147.696 385.471 147.728C385.84 147.771 386.205 147.995 386.558 147.883" fill="#D3DAE1"/>
<path d="M383.604 147.743C383.897 147.627 384.214 147.844 384.532 147.901C384.714 147.93 384.9 147.901 385.083 147.93C385.452 147.977 385.817 148.201 386.169 148.089" fill="#D3DAE1"/>
<path d="M382.707 148.154C383.005 148.039 383.322 148.255 383.639 148.309C383.818 148.342 384.008 148.309 384.187 148.342C384.559 148.389 384.924 148.612 385.273 148.497" fill="#D3DAE1"/>
<path opacity="0.1" d="M352.371 143.697L359.895 144.148L347.426 147.544L341.076 147.126L352.371 143.697Z" fill="black"/>
<path d="M352.371 143.401L359.895 143.849L347.426 147.245L341.076 146.83L352.371 143.401Z" fill="white"/>
<path d="M351.471 144.17C351.768 144.055 352.082 144.271 352.399 144.329C352.581 144.358 352.768 144.329 352.95 144.358C353.319 144.405 353.684 144.628 354.037 144.517" fill="#D3DAE1"/>
<path d="M351.082 144.376C351.376 144.26 351.693 144.477 352.01 144.531C352.193 144.563 352.379 144.531 352.562 144.563C352.93 144.61 353.295 144.834 353.648 144.719" fill="#D3DAE1"/>
<path d="M350.186 144.784C350.483 144.668 350.801 144.888 351.118 144.942C351.296 144.975 351.487 144.942 351.665 144.975C352.038 145.018 352.403 145.245 352.752 145.13" fill="#D3DAE1"/>
<path opacity="0.1" d="M367.969 145.383L375.497 145.83L363.028 149.229L356.674 148.811L367.969 145.383Z" fill="black"/>
<path d="M367.969 145.087L375.497 145.534L363.028 148.93L356.674 148.511L367.969 145.087Z" fill="white"/>
<path d="M367.069 145.855C367.367 145.74 367.684 145.956 368.001 146.01C368.18 146.043 368.366 146.01 368.549 146.043C368.917 146.086 369.286 146.314 369.635 146.198" fill="#D3DAE1"/>
<path d="M366.681 146.057C366.978 145.942 367.295 146.162 367.613 146.216C367.791 146.249 367.977 146.216 368.16 146.249C368.529 146.292 368.898 146.519 369.247 146.404" fill="#D3DAE1"/>
<path d="M365.788 146.469C366.082 146.353 366.399 146.57 366.716 146.628C366.899 146.656 367.085 146.628 367.268 146.656C367.636 146.703 368.001 146.927 368.354 146.815" fill="#D3DAE1"/>
<path opacity="0.1" d="M197.634 285.576C241.984 285.576 277.937 278.842 277.937 270.536C277.937 262.229 241.984 255.495 197.634 255.495C153.283 255.495 117.33 262.229 117.33 270.536C117.33 278.842 153.283 285.576 197.634 285.576Z" fill="#6C63FF"/>
<path d="M285.572 147.367C284.715 140.518 281.324 133.983 281.324 133.983L281.582 131.674C281.582 131.674 281.638 130.519 281.554 128.787C281.563 127.705 281.719 126.629 282.018 125.582C282.712 123.58 281.15 121.118 280.975 120.891C280.801 120.664 281.062 116.272 279.5 114.118C277.937 111.964 267.531 107.958 267.531 107.958C267.531 107.958 266.971 106.893 266.182 105.648L266.253 105.522C265.608 104.456 264.807 103.474 263.874 102.603C263.235 101.982 262.621 101.629 262.125 101.802C261.923 101.203 261.769 100.591 261.665 99.9722C261.768 99.9974 261.875 100.023 261.978 100.041C262.408 100.131 262.853 100.141 263.287 100.07C264.255 99.8711 264.897 99.0809 265.436 98.3375C268.125 94.6207 270.442 90.543 270.914 86.1441C271.04 85.2463 270.993 84.3352 270.775 83.4521C270.552 82.7655 270.24 82.1054 269.847 81.4854C269.152 80.2133 268.271 79.0323 267.229 77.9743C265.377 76.1988 262.823 75.1127 260.197 74.4703C257.24 73.7466 254.158 73.5373 251.115 73.8533C250.322 73.9363 249.529 74.0553 248.736 74.1023C247.729 74.1426 246.722 74.1269 245.718 74.0553L240.526 73.7811L240.502 73.7089L239.638 73.662C239.297 74.2791 239.638 75.0116 240.062 75.589C240.486 76.1664 240.974 76.769 240.938 77.451C240.903 78.133 240.359 78.6815 239.935 79.2553C239.511 79.8291 239.189 80.5797 239.614 81.1426C239.674 81.2205 239.744 81.2908 239.824 81.3519C240.272 81.7741 241.053 81.821 241.732 81.8138H241.851C240.143 83.8605 239.219 86.3601 239.221 88.9299C239.233 91.126 239.908 93.2768 241.174 95.1468C242.439 97.0168 244.246 98.5339 246.396 99.5319C246.471 99.7665 246.546 100.008 246.618 100.254C247.404 102.788 247.686 105.43 247.451 108.055L247.359 108.236L247.304 108.045C247.304 108.045 241.188 111.819 239.372 112.819C237.555 113.818 235.731 117.207 235.644 118.131C235.557 119.054 232.693 132.987 232.693 132.987C232.111 134.391 231.632 135.828 231.257 137.289L227.605 140.208C227.605 140.208 220.069 140.825 217.888 140.363L217.952 140.746C216.028 140.346 214.069 140.104 212.098 140.024C211.021 139.898 209.927 140.031 208.925 140.41L208.85 140.442L208.79 140.468C207.642 140.611 206.521 140.897 205.459 141.319C205.332 141.366 205.217 141.413 205.106 141.46L205.129 140.987L196.975 140.605L192.811 139.836C192.811 139.836 191.336 138.754 190.467 138.912C189.599 139.071 187.778 137.989 187.778 137.989C187.363 137.692 186.913 137.438 186.438 137.231C186.299 136.358 186.212 135.827 186.212 135.827C186.212 135.827 182.971 124.128 180.544 117.25C178.918 112.656 176.578 110.394 175.198 109.409C174.583 108.434 174.179 107.806 174.179 107.806C173.913 106.962 172.454 105.06 172.081 105.013C172.021 104.927 171.978 104.883 171.954 104.883C171.874 104.876 171.793 104.887 171.72 104.916C171.038 101.827 170.641 97.955 171.684 94.581C173.112 93.5133 174.263 92.1715 175.054 90.6518C175.845 89.1321 176.257 87.4721 176.261 85.7905C176.261 85.7399 176.261 85.6894 176.261 85.6389C176.261 85.5884 176.261 85.5343 176.261 85.4837C176.26 82.8019 175.216 80.2069 173.314 78.1583L173.179 78.0212C173.215 77.9979 173.25 77.9726 173.282 77.9454C173.58 77.7255 173.808 77.4363 173.939 77.1084C174.071 76.7806 174.103 76.4264 174.032 76.0834C173.854 75.3905 173.259 74.8456 172.953 74.1889C172.77 73.6833 172.623 73.1674 172.513 72.6444C172.279 71.9016 171.851 71.2217 171.264 70.6633L171.323 70.8076C169.769 69.2162 167.096 68.426 164.688 68.7796C162.899 69.0394 161.234 69.7972 159.437 70.0318C158.148 70.1978 156.835 70.0895 155.539 70.2086C154.335 70.3212 153.164 70.6292 152.08 71.118C151.797 71.2275 151.546 71.3956 151.347 71.6087C151.162 71.8943 151.038 72.2089 150.982 72.5361C150.541 73.9976 149.145 75.0405 148.134 76.2602C146.979 77.6537 146.31 79.3307 146.215 81.074C146.175 81.5171 146.222 81.963 146.353 82.3912C146.441 82.6474 146.575 82.8892 146.639 83.149C146.837 83.9429 146.381 84.7331 146.159 85.5198C145.879 86.5233 145.978 87.5833 146.441 88.5294C148.007 91.7194 153.151 92.7839 154.222 96.1327C155.041 96.4753 155.907 96.718 156.796 96.8544C156.867 97.1864 156.931 97.522 156.982 97.8612C156.958 97.8704 156.935 97.8826 156.915 97.8973C155.527 99.1278 155.182 101.506 155.182 101.506L155.015 101.629C154.448 102.054 152.509 103.483 150.756 104.584C148.673 105.894 145.203 110.282 142.776 111.592C140.349 112.902 138.35 120.974 138.873 123.908C139.397 126.842 141.562 135.069 140.694 138.072C139.825 141.074 141.995 154.776 141.995 154.776C143.45 155.028 144.875 155.412 146.246 155.923L146.203 156.522L146.072 158.327C146.072 158.327 142.141 171.26 143.645 181.216C145.148 191.172 142.951 192.197 142.951 192.197C142.951 192.197 143.411 196.61 142.256 198.151C141.102 199.692 140.868 203.077 140.868 203.077C140.868 203.077 140.753 210.673 140.983 212.82C141.213 214.967 141.328 218.879 140.519 219.802C139.71 220.726 138.207 226.778 138.322 228.625C138.437 230.473 135.431 234.684 137.049 240.122C138.667 245.56 132.29 245.665 132.29 245.665C132.29 245.665 133.103 253.965 134.836 256.339L135.09 256.679C135.046 256.816 135.003 256.96 134.955 257.115C134.301 259.28 133.404 262.698 134.027 263.524C134.951 264.758 135.415 264.549 135.415 264.549L135.76 270.092C135.76 270.092 142.701 275.429 148.023 275.227C153.345 275.025 152.302 270.092 152.302 270.092L147.769 259.396L147.615 259.035L152.651 250.374C152.651 250.374 154.039 246.578 154.385 245.243C154.73 243.908 156.613 239.177 156.613 239.177C156.613 239.177 161.373 228.914 161.472 227.68C161.571 226.446 161.936 219.781 162.86 218.442C163.784 217.103 166.33 209.421 166.33 209.421L166.394 209.471C166.825 209.857 167.134 210.343 167.286 210.876C167.439 211.409 167.429 211.97 167.258 212.499C166.675 214.447 167.024 218.449 167.024 218.449C167.024 218.449 166.794 221.838 166.33 223.584C165.866 225.331 165.755 239.595 166.564 242.98C167.211 245.69 167.191 250.764 167.159 252.684C166.616 254.723 166.14 257.256 167.024 257.555C168.531 258.071 176.166 257.967 176.166 257.967C176.166 257.967 179.402 256.938 183.8 260.532C188.199 264.127 201.727 259.508 201.727 259.508C201.727 259.508 205.891 258.479 197.677 255.506C191.946 253.431 188.246 252.049 185.827 250.569C185.882 250.472 185.942 250.374 185.994 250.27C185.994 250.27 182.638 247.383 185.414 242.266C188.191 237.149 188.076 232.822 188.076 232.822L188.54 215.577L187.152 192.684L186.077 168.658L186.267 168.6C186.45 173.017 187.397 183.533 192.359 181.494C198.605 178.928 193.283 172.256 193.283 172.256L190.479 167.283L191.316 167.023L188.179 157.8C187.878 156 187.838 154.171 188.06 152.362C188.122 151.303 188.098 150.242 187.988 149.186C192.097 148.533 196.031 147.84 196.737 147.999C197.57 148.183 202.23 148.219 204.063 148.226C203.464 148.652 202.984 149.074 202.984 149.074L210.444 153.643C210.444 153.643 212.974 152.383 213.502 151.048C214.021 150.929 214.5 150.696 214.898 150.37C214.977 151.947 215.437 153.653 217.039 153.693C217.44 153.701 217.838 153.629 218.205 153.484L230.405 151.286L229.358 157.237L230.088 158.417C229.719 163.436 229.294 168.766 228.922 173.454L228.751 174.479L228.838 174.497C228.259 181.714 227.795 187.181 227.795 187.181C228.478 185.996 229.539 185.026 230.837 184.399L230.916 195.109C230.916 195.109 231.527 212.044 231.527 214.353C231.527 216.663 231.61 221.82 231.61 221.82C231.61 221.82 232.915 228.131 233.693 230.21C234.47 232.288 235.081 241.757 235.081 241.757C235.081 241.757 236.905 244.373 236.124 245.366C235.342 246.358 239.162 248.52 239.162 248.52C239.162 248.52 236.731 251.522 236.556 253.525C236.536 253.756 236.786 254.001 237.238 254.246C237.095 254.351 236.949 254.456 236.786 254.557C235.66 255.242 234.01 255.719 231.527 255.524C224.757 254.982 219.986 260.68 224.15 261.835C228.315 262.99 240.808 263.221 240.808 263.221C240.808 263.221 244.591 261.074 247.55 262.041C247.506 264.3 247.629 266.371 247.649 266.645L247.613 266.671C245.844 268.114 242.457 270.597 239.15 271.611C234.391 273.072 233.336 279.001 239.495 279.77C245.654 280.538 254.677 278.846 254.677 278.846C254.677 278.846 259.361 275.692 262.918 274.999C266.476 274.306 269.514 272.766 268.907 270.918C268.51 269.738 267.491 266.645 266.801 264.567C266.761 264.442 266.721 264.321 266.682 264.206C266.789 263.989 266.896 263.766 266.995 263.535C266.995 263.535 265.175 254.914 266.65 252.76C268.125 250.605 267.344 229.048 267.344 229.048C267.344 229.048 264.826 223.584 266.131 220.275C267.435 216.966 264.048 212.268 264.048 212.268C264.048 212.268 264.417 202.853 265.409 197.606C265.454 197.382 265.497 197.166 265.54 196.956C267.2 196.508 268.818 195.94 270.378 195.257C270.378 195.257 271.247 183.399 271.766 180.707C271.818 180.454 271.889 180.047 271.976 179.516L272.373 177.614L272.841 175.449L274.427 168.07L277.291 164.699L284.668 157.843C284.668 157.843 286.44 154.22 285.572 147.367ZM171.811 105.028L171.756 105.064C171.747 105.038 171.74 105.011 171.736 104.985C171.759 105.002 171.784 105.016 171.811 105.028V105.028ZM244.694 113.432L244.409 113.999L245.452 113.053L244.036 114.497L244.512 113.587L244.694 113.432ZM237.651 126.676C237.377 127.336 237.084 128.051 236.778 128.794L237.337 127.275L237.651 126.676Z" fill="url(#paint0_linear)"/>
<path d="M214.89 148.266C214.89 148.266 213.918 154.151 216.833 154.227C219.748 154.303 221.695 149.688 221.695 149.688L220.506 145.996L214.89 148.266Z" fill="#585B8A"/>
<path opacity="0.2" d="M214.89 148.266C214.89 148.266 213.918 154.151 216.833 154.227C219.748 154.303 221.695 149.688 221.695 149.688L220.506 145.996L214.89 148.266Z" fill="black"/>
<path d="M149.598 275.663C144.41 275.869 137.644 270.536 137.644 270.536L137.307 264.996C137.307 264.996 136.859 265.202 135.954 263.972C135.348 263.145 136.22 259.721 136.859 257.566C137.168 256.513 137.422 255.762 137.422 255.762L148.804 258.533L149.348 259.843L153.766 270.532C153.766 270.532 154.781 275.458 149.598 275.663Z" fill="#636992"/>
<path d="M201.897 259.973C201.897 259.973 188.71 264.589 184.447 260.998C180.183 257.408 177.007 258.432 177.007 258.432C177.007 258.432 169.566 258.537 168.099 258.021C167.234 257.721 167.702 255.156 168.242 253.113C168.607 251.702 169.003 250.537 169.003 250.537C169.003 250.537 181.964 246.535 183.995 248.996C184.605 249.719 185.334 250.352 186.156 250.872C188.504 252.417 192.173 253.817 197.975 255.971C205.954 258.945 201.897 259.973 201.897 259.973Z" fill="#636992"/>
<path d="M190.063 166.226L193.668 172.79C193.668 172.79 198.855 179.459 192.767 182.021C186.68 184.583 186.795 167.254 186.795 167.254L190.063 166.226Z" fill="#FFD6D6"/>
<path d="M174.956 109.304C174.956 109.304 178.902 110.946 181.27 117.817C183.638 124.687 186.795 136.383 186.795 136.383C186.795 136.383 188.936 149.612 188.595 152.896C188.378 154.704 188.417 156.531 188.71 158.33L191.752 167.561L185.664 169.51L176.309 136.895L174.956 109.304Z" fill="#DCE6F2"/>
<path opacity="0.05" d="M174.956 109.304C174.956 109.304 178.902 110.946 181.27 117.817C183.638 124.687 186.795 136.383 186.795 136.383C186.795 136.383 188.936 149.612 188.595 152.896C188.378 154.704 188.417 156.531 188.71 158.33L191.752 167.561L185.664 169.51L176.309 136.895L174.956 109.304Z" fill="black"/>
<path opacity="0.1" d="M148.804 258.537L149.348 259.847L148.681 261.005C146.088 262.03 139.663 261.211 139.663 261.211C139.663 261.211 138.473 259.836 136.847 257.573C137.156 256.52 137.41 255.769 137.41 255.769L148.804 258.537Z" fill="black"/>
<path opacity="0.1" d="M186.569 251.356C183.281 258.133 172.105 255.618 168.999 254.77C168.488 254.629 168.206 254.535 168.206 254.535C168.206 254.535 168.226 253.983 168.234 253.113C168.599 251.702 168.995 250.537 168.995 250.537C168.995 250.537 181.956 246.535 183.987 248.996C184.597 249.719 185.326 250.352 186.148 250.872C186.272 251.045 186.413 251.206 186.569 251.356V251.356Z" fill="black"/>
<path d="M186.001 242.742C183.297 247.866 186.569 250.742 186.569 250.742C183.281 257.516 172.105 255.004 168.999 254.152C168.488 254.015 168.206 253.922 168.206 253.922C168.206 253.922 168.432 246.841 167.643 243.457C166.854 240.072 166.965 225.818 167.417 224.075C167.869 222.332 168.091 218.944 168.091 218.944C168.091 218.944 167.754 214.945 168.317 212.997C168.487 212.47 168.498 211.912 168.35 211.38C168.202 210.848 167.9 210.362 167.476 209.973L167.417 209.918C167.417 209.918 164.938 217.612 164.034 218.94C163.13 220.268 162.796 226.94 162.681 228.171C162.566 229.401 157.946 239.66 157.946 239.66C157.946 239.66 156.145 244.377 155.808 245.708C155.471 247.04 154.115 250.84 154.115 250.84L148.681 260.381C146.088 261.406 139.663 260.587 139.663 260.587C139.663 260.587 138.425 259.143 136.732 256.79C135.038 254.438 134.253 246.127 134.253 246.127C134.253 246.127 140.452 246.022 138.873 240.588C137.295 235.153 140.226 230.946 140.115 229.098C140.004 227.25 141.467 221.203 142.256 220.279C143.046 219.355 142.931 215.458 142.705 213.303C142.479 211.149 142.594 203.56 142.594 203.56C142.594 203.56 142.82 200.175 143.946 198.638C145.072 197.101 144.624 192.687 144.624 192.687C144.624 192.687 146.762 191.663 145.298 181.714C143.835 171.765 147.678 158.843 147.678 158.843L147.809 157.038L148.015 154.115C148.015 154.115 180.255 152.268 182.848 154.523C183.526 155.149 184.083 155.875 184.494 156.67C185.382 158.406 186.009 160.242 186.358 162.13L187.711 193.207L189.063 216.078L188.611 233.309C188.611 233.309 188.71 237.611 186.001 242.742Z" fill="#565988"/>
<path opacity="0.1" d="M176.443 181.407L173.06 248.072L168.999 254.149C168.488 254.012 168.206 253.918 168.206 253.918C168.206 253.918 168.432 246.838 167.643 243.453C166.854 240.068 166.965 225.814 167.417 224.071C167.869 222.328 168.091 218.94 168.091 218.94C168.091 218.94 167.754 214.942 168.317 212.993C168.486 212.467 168.498 211.908 168.35 211.377C168.202 210.845 167.9 210.359 167.476 209.969L167.532 209.608L176.443 181.407Z" fill="black"/>
<path opacity="0.1" d="M140.012 252.998C140.012 252.998 148.804 249.819 150.157 250.833C151.509 251.847 139.79 253.395 139.79 253.395L140.012 252.998Z" fill="black"/>
<path opacity="0.1" d="M183.412 244.586C183.075 244.691 174.508 247.473 175.297 250.432C176.086 253.391 183.412 244.586 183.412 244.586Z" fill="black"/>
<path d="M156.641 92.8452C156.641 92.8452 159.513 99.153 157.994 102.386C156.475 105.62 174.393 111.155 174.393 111.155C174.393 111.155 169.154 98.8462 174.226 91.9214C179.299 84.9965 156.641 92.8452 156.641 92.8452Z" fill="#FFD6D6"/>
<path d="M261.558 275.458C258.092 276.15 253.527 279.304 253.527 279.304C253.527 279.304 244.734 280.997 238.73 280.228C232.725 279.46 233.744 273.534 238.392 272.073C241.617 271.062 244.92 268.569 246.646 267.14C247.407 266.501 247.859 266.057 247.859 266.057L264.687 262.979C264.687 262.979 264.961 263.834 265.341 265.014C266.016 267.097 267.011 270.185 267.392 271.362C267.983 273.228 265.024 274.765 261.558 275.458Z" fill="#505484"/>
<path d="M257.247 263.611C257.247 263.611 250.144 264.303 247.185 262.766C244.226 261.229 239.999 263.69 239.999 263.69C239.999 263.69 227.823 263.459 223.766 262.304C219.709 261.15 224.357 255.448 230.952 255.997C233.356 256.195 234.982 255.715 236.08 255.029C237.228 254.314 238.028 253.223 238.313 251.984L252.591 252.752L254.574 257.357L257.247 263.611Z" fill="#505484"/>
<path opacity="0.1" d="M254.792 259.457C254.792 259.457 238.198 256.989 236.08 255.029C237.228 254.314 238.028 253.223 238.313 251.984L252.591 252.752L254.574 257.357L254.792 259.457Z" fill="black"/>
<path d="M230.191 173.075L230.361 195.61C230.361 195.61 230.952 212.535 230.952 214.844C230.952 217.154 231.035 222.303 231.035 222.303C231.035 222.303 232.305 228.611 233.066 230.69C233.827 232.768 234.418 242.237 234.418 242.237C234.418 242.237 236.195 244.853 235.434 245.846C234.672 246.838 238.392 248.999 238.392 248.999C238.392 248.999 236.013 252.002 235.858 254.001C235.703 256 254.792 258.84 254.792 258.84L247.356 189.458L241.434 172.075L230.191 173.075Z" fill="#575988"/>
<path opacity="0.1" d="M230.191 173.075L230.361 195.61C230.361 195.61 230.952 212.535 230.952 214.844C230.952 217.154 231.035 222.303 231.035 222.303C231.035 222.303 232.305 228.611 233.066 230.69C233.827 232.768 234.418 242.237 234.418 242.237C234.418 242.237 236.195 244.853 235.434 245.846C234.672 246.838 238.392 248.999 238.392 248.999C238.392 248.999 236.013 252.002 235.858 254.001C235.703 256 254.792 258.84 254.792 258.84L247.356 189.458L241.434 172.075L230.191 173.075Z" fill="black"/>
<path opacity="0.1" d="M265.341 265.032C259.817 277.016 246.677 267.768 246.677 267.768C246.677 267.768 246.677 267.537 246.646 267.14C247.407 266.501 247.859 266.057 247.859 266.057L264.687 262.979C264.687 262.979 264.961 263.852 265.341 265.032Z" fill="black"/>
<path d="M265.532 263.997C260.118 276.627 246.677 267.151 246.677 267.151C246.677 267.151 246.253 260.612 247.102 257.613C247.95 254.614 246.17 245.611 246.17 245.611C246.17 245.611 245.154 237.611 244.226 235.767C243.298 233.923 243.382 230.228 243.382 229.921C243.382 229.614 243.719 227.15 242.957 225.457C242.196 223.765 241.767 219.611 241.767 219.611C241.767 219.611 241.767 213.765 241.006 210.305L238.384 198.396L233.649 174.01L235.128 173.779L261.633 169.549C261.633 169.549 266.622 192.644 264.929 195.011C264.564 195.531 264.243 196.668 263.977 198.133C263.009 203.373 262.648 212.78 262.648 212.78C262.648 212.78 265.944 217.471 264.679 220.78C263.414 224.089 265.869 229.549 265.869 229.549C265.869 229.549 266.63 251.089 265.191 253.243C263.751 255.398 265.532 263.997 265.532 263.997Z" fill="#575988"/>
<path d="M262.993 106.536C262.993 106.536 238.983 121.92 244.393 114.226C247.308 110.083 246.773 104.808 245.63 100.824C245.053 98.7976 244.256 96.8285 243.251 94.9455C243.251 94.9455 263.652 87.0499 260.947 94.1263C260.313 95.7749 260.044 97.5213 260.154 99.265C260.316 101.886 261.301 104.41 262.993 106.536V106.536Z" fill="#D28690"/>
<path d="M219.764 141.767C219.764 141.767 209.619 139.1 207.93 141.716C206.24 144.333 208.437 150.074 211.499 150.998C214.561 151.921 221.588 147.869 221.588 147.869L219.764 141.767Z" fill="#D28690"/>
<path d="M231.377 137.231L227.149 140.771C227.149 140.771 219.792 141.384 217.678 140.922C217.678 140.922 219.625 152.769 216.833 154.231L233.911 151.077L231.377 137.231Z" fill="#585B8A"/>
<path opacity="0.1" d="M231.377 137.231L227.149 140.771C227.149 140.771 219.792 141.384 217.678 140.922C217.678 140.922 219.625 152.769 216.833 154.231L233.911 151.077L231.377 137.231Z" fill="black"/>
<path opacity="0.1" d="M177.098 86.3823C177.098 89.4448 175.761 92.382 173.381 94.5475C171.001 96.7131 167.772 97.9297 164.407 97.9297C157.894 95.0826 151.715 92.7658 151.715 86.3823C151.648 84.8286 151.926 83.2786 152.533 81.8251C153.14 80.3716 154.063 79.0445 155.247 77.9236C156.431 76.8026 157.852 75.9108 159.424 75.3016C160.997 74.6924 162.688 74.3784 164.397 74.3784C166.106 74.3784 167.797 74.6924 169.369 75.3016C170.941 75.9108 172.362 76.8026 173.546 77.9236C174.731 79.0445 175.654 80.3716 176.261 81.8251C176.867 83.2786 177.145 84.8286 177.078 86.3823H177.098Z" fill="black"/>
<path d="M177.098 86.072C177.1 88.7877 176.048 91.4168 174.127 93.4956C172.207 95.5745 169.541 96.9695 166.6 97.4347C163.66 97.9 160.633 97.4055 158.054 96.0385C155.475 94.6716 153.509 92.5199 152.504 89.963C151.498 87.4061 151.517 84.6082 152.557 82.0627C153.597 79.5173 155.592 77.3877 158.189 76.0496C160.786 74.7116 163.819 74.2509 166.753 74.749C169.687 75.247 172.334 76.6717 174.226 78.7718C176.08 80.8314 177.094 83.4102 177.098 86.072V86.072Z" fill="#FFD6D6"/>
<path opacity="0.1" d="M184.494 156.681C183.239 157.391 181.925 158.011 180.564 158.536C180.564 158.536 174.139 157.688 173.211 158.687C172.283 159.687 164.089 160.073 164.089 160.073C164.089 160.073 151.577 159.535 149.716 158.074C149.141 157.65 148.501 157.305 147.817 157.049L148.023 154.126C148.023 154.126 180.263 152.279 182.856 154.534C183.532 155.16 184.085 155.886 184.494 156.681Z" fill="black"/>
<path d="M186.061 154.613C185.807 155.92 180.564 157.919 180.564 157.919C180.564 157.919 174.139 157.074 173.211 158.074C172.283 159.074 164.089 159.46 164.089 159.46C164.089 159.46 151.577 158.918 149.717 157.457C147.857 155.995 143.712 155.292 143.712 155.292C143.712 155.292 141.598 141.601 142.447 138.602C143.296 135.603 141.178 127.369 140.67 124.446C140.162 121.523 142.106 113.447 144.474 112.14C146.841 110.834 150.224 106.446 152.251 105.14C153.96 104.039 155.848 102.614 156.399 102.184L156.562 102.062C156.562 102.062 156.903 99.6763 158.255 98.453C159.608 97.2297 172.033 106.222 172.033 106.222C172.033 106.222 172.121 106.915 172.965 105.609C173.156 105.317 174.794 107.467 175.079 108.377C175.079 108.377 181.841 119.148 182.266 121.368C182.69 123.587 184.463 130.829 184.8 132.597C184.887 133.052 185.03 134.647 185.196 136.783C185.228 137.202 185.256 137.646 185.292 138.108C185.541 141.651 185.811 146.177 185.974 149.597C185.974 149.987 186.009 150.362 186.021 150.723C186.107 152.019 186.12 153.317 186.061 154.613V154.613Z" fill="#DCE6F2"/>
<path opacity="0.1" d="M143.129 126.842C143.129 126.842 147.777 131.995 149.3 131.995C150.823 131.995 143.129 126.842 143.129 126.842Z" fill="black"/>
<path opacity="0.1" d="M152.921 137.92C152.921 137.92 145.31 145.458 146.326 146.844C147.341 148.23 152.921 137.92 152.921 137.92Z" fill="black"/>
<path opacity="0.1" d="M147.341 152.921C147.341 152.921 156.066 144.228 156.463 141.229L147.341 152.921Z" fill="black"/>
<path opacity="0.1" d="M158.331 153.534C158.331 153.534 168.392 148.688 169.237 144.841C170.082 140.995 158.331 153.534 158.331 153.534Z" fill="black"/>
<path opacity="0.1" d="M171.097 106.767L169.701 109.842L172.025 110.841L174.31 116.651C174.31 116.651 180.608 128.112 180.354 134.073C180.1 140.035 181.496 148.995 181.496 148.995L185.129 148.381L183.416 130.847C183.149 128.132 182.402 125.475 181.203 122.977C178.299 116.929 172.898 105.764 172.557 105.764C172.093 105.764 172.418 105.919 172.418 105.919L171.097 106.767Z" fill="black"/>
<path d="M171.434 106.457L170.038 109.535L172.366 110.535L174.647 116.344C174.647 116.344 180.945 127.805 180.691 133.767C180.437 139.728 181.833 148.688 181.833 148.688L185.47 148.075L183.753 130.541C183.489 127.826 182.743 125.168 181.544 122.67C178.641 116.619 173.239 105.457 172.902 105.457C172.434 105.457 172.759 105.612 172.759 105.612L171.434 106.457Z" fill="#575989"/>
<path d="M212.605 151.665C210.837 151.543 206.593 149.59 204.907 148.778L204.193 148.417L204.281 142.46C204.698 142.237 205.129 142.038 205.574 141.864C207.826 140.969 212.447 139.753 214.763 143.669C217.888 148.919 214.846 151.802 212.605 151.665Z" fill="#FFD6D6"/>
<path opacity="0.1" d="M174.226 78.7718C174.045 78.8753 173.845 78.9498 173.636 78.9919C172.164 79.2842 170.49 78.133 169.229 78.8728C168.46 79.3275 168.281 80.2693 168.178 81.0993C167.998 82.5427 167.819 83.9765 167.639 85.4007C167.601 85.9077 167.484 86.4072 167.29 86.8839C166.667 88.1793 164.958 88.7892 163.399 88.7675C162.789 88.8071 162.186 88.6255 161.722 88.2623C161.448 88.0097 161.301 87.6561 161 87.4251C159.017 85.9131 158.414 89.6192 158.937 90.6729C159.778 92.3942 162.765 94.0541 161.511 96.2409C161.301 96.5963 160.981 96.8884 160.591 97.0817C158.703 96.5435 156.979 95.611 155.557 94.3585C154.135 93.106 153.055 91.5682 152.402 89.8682C151.75 88.1681 151.544 86.3528 151.8 84.5672C152.056 82.7816 152.768 81.0753 153.878 79.5846C154.988 78.0939 156.466 76.86 158.193 75.9816C159.921 75.1032 161.85 74.6046 163.828 74.5256C165.805 74.4467 167.775 74.7895 169.58 75.5268C171.386 76.264 172.977 77.3753 174.226 78.7718Z" fill="black"/>
<path d="M160.663 87.4107C160.96 87.638 161.111 87.9917 161.385 88.2443C161.849 88.6071 162.452 88.7886 163.062 88.7495C164.621 88.7711 166.33 88.1649 166.949 86.8622C167.146 86.3876 167.265 85.889 167.302 85.3827L167.841 81.0812C167.944 80.2513 168.119 79.3094 168.892 78.8547C170.153 78.133 171.827 79.2661 173.298 78.9738C173.829 78.8512 174.288 78.5494 174.583 78.1298C174.877 77.7102 174.985 77.2043 174.885 76.7148C174.714 76.0256 174.135 75.4807 173.838 74.8239C173.657 74.3193 173.513 73.8046 173.405 73.2831C172.585 70.4828 168.971 68.9095 165.83 69.3786C164.085 69.642 162.463 70.3998 160.714 70.6308C159.461 70.7968 158.18 70.6885 156.915 70.8112C155.739 70.9216 154.597 71.2286 153.544 71.717C153.267 71.8283 153.023 71.9962 152.83 72.2077C152.65 72.4934 152.529 72.8064 152.473 73.1315C152.049 74.575 150.684 75.6395 149.697 76.8556C148.567 78.2548 147.914 79.9247 147.817 81.6586C147.778 82.1014 147.824 82.5471 147.952 82.9757C148.035 83.2283 148.166 83.4737 148.229 83.7335C148.424 84.5238 147.979 85.3141 147.761 86.1008C147.49 87.1046 147.588 88.1616 148.039 89.1103C149.562 92.2967 154.579 93.3612 155.622 96.7064C156.548 97.1105 157.549 97.3552 158.573 97.4281C159.596 97.4462 160.698 97.0456 161.174 96.2192C162.424 94.0541 159.441 92.3725 158.6 90.6548C158.073 89.5975 158.664 85.8951 160.663 87.4107Z" fill="#353045"/>
<path opacity="0.1" d="M260.967 94.1263C260.333 95.7749 260.063 97.5213 260.174 99.265C259.563 99.7377 258.897 98.3231 258.191 98.6876C256.255 99.7052 254.018 102.127 251.623 102.127C249.546 102.128 247.497 101.681 245.646 100.824C245.069 98.7976 244.272 96.8285 243.266 94.9455C243.266 94.9455 263.672 87.0499 260.967 94.1263Z" fill="black"/>
<path d="M264.798 89.5109C264.798 91.8847 264.024 94.2052 262.575 96.179C261.125 98.1527 259.065 99.6911 256.655 100.599C254.245 101.508 251.592 101.746 249.034 101.282C246.475 100.819 244.124 99.6763 242.28 97.9977C240.435 96.3192 239.179 94.1806 238.67 91.8525C238.161 89.5243 238.422 87.111 239.42 84.9179C240.419 82.7248 242.109 80.8503 244.279 79.5315C246.448 78.2127 248.998 77.5088 251.607 77.5088C253.339 77.5083 255.055 77.8184 256.656 78.4214C258.256 79.0244 259.711 79.9085 260.936 81.0231C262.161 82.1377 263.132 83.461 263.795 84.9174C264.458 86.3737 264.798 87.9347 264.798 89.5109Z" fill="#D28690"/>
<path d="M264.235 109.203C264.235 109.203 261.752 111.664 261.415 111.866C261.078 112.068 253.88 139.652 253.753 139.973C253.626 140.294 245.182 165.201 245.182 165.201L231.654 171.253L232.784 140.789L242.699 115.666C242.699 115.666 245.971 112.281 246.983 111.051C247.994 109.82 260.622 102.433 260.622 102.433L262.779 106.478L264.235 109.203Z" fill="#F0F3F7"/>
<path opacity="0.1" d="M262.446 107.096L246.891 117.228L246.642 111.664C247.657 110.433 260.281 103.05 260.281 103.05L262.446 107.096Z" fill="black"/>
<path d="M262.783 106.478L247.228 116.611L246.987 111.051C248.002 109.816 260.626 102.433 260.626 102.433L262.783 106.478Z" fill="#F0F3F7"/>
<path d="M246.467 108.575L246.987 111.051L243.508 114.266L246.285 108.611C246.285 108.611 240.336 112.382 238.551 113.382C236.766 114.381 234.982 117.766 234.914 118.69C234.847 119.614 232.039 133.536 232.039 133.536C232.039 133.536 229.925 138.689 230.52 140.15C231.115 141.612 227.307 187.69 227.307 187.69C227.816 186.795 228.536 186.013 229.415 185.4C230.293 184.787 231.31 184.357 232.392 184.142L231.035 156.912C231.035 156.912 232.685 138.797 232.769 138.566C232.852 138.335 236.616 127.834 236.616 127.834L246.467 108.575Z" fill="#585B8A"/>
<path opacity="0.1" d="M247.328 111.357L247.058 116.409C247.058 116.409 243.294 127.217 242.029 128.985C240.764 130.753 236.913 141.294 236.913 141.294L234.744 159.604L231.023 161.145L229.191 158.074L232.237 140.392C232.237 140.392 237.984 125.47 238.833 123.93L243.072 115.803L247.328 111.357Z" fill="black"/>
<path d="M246.987 111.051L246.721 116.103C246.721 116.103 242.957 126.91 241.688 128.678C240.419 130.447 236.576 140.987 236.576 140.987L234.418 159.294L230.698 160.831L228.838 157.756L231.884 140.074C231.884 140.074 237.631 125.149 238.476 123.612L242.747 115.496L246.987 111.051Z" fill="#663D5C"/>
<path d="M203.139 149.612L210.408 154.191C210.408 154.191 215.536 151.575 212.55 149.882C209.563 148.19 206.914 147.934 205.954 147.934C204.995 147.934 203.139 149.612 203.139 149.612Z" fill="#D28690"/>
<path d="M208.568 141.146C208.406 141.238 208.272 141.366 208.18 141.518C208.087 141.671 208.039 141.842 208.041 142.016C208.041 143.42 208.215 147.136 209.508 145.458C211.094 143.405 210.805 141.561 213.228 142.893C214.734 143.746 216.052 144.848 217.115 146.14L216.441 141.731C216.441 141.731 211.459 139.493 208.568 141.146Z" fill="#D28690"/>
<path opacity="0.1" d="M264.937 194.997C264.572 195.517 264.251 196.653 263.985 198.118C249.16 202.164 238.313 193.611 238.313 193.611C237.001 189.565 235.928 185.457 235.101 181.306C234.835 179.884 234.894 177.127 235.14 173.764L261.645 169.535C261.645 169.535 266.63 192.612 264.937 194.997Z" fill="black"/>
<path d="M280.154 126.149C279.48 128.152 279.734 132.226 279.734 132.226L273.646 158.381C273.646 158.381 270.687 178.535 270.18 181.227C269.672 183.919 268.827 195.766 268.827 195.766C251.579 203.459 238.289 192.998 238.289 192.998C236.977 188.95 235.905 184.841 235.077 180.689C234.228 176.121 236.727 157.818 237.908 149.688C238.261 147.281 238.499 145.765 238.499 145.765L242.937 130.764C242.937 130.764 248.391 118.109 250.421 114.417C252.452 110.726 260.606 102.433 260.606 102.433C261.617 101.849 263.235 103.913 264.437 105.793C265.345 107.215 266.023 108.535 266.023 108.535C266.023 108.535 276.168 112.534 277.687 114.67C279.206 116.806 278.957 121.209 279.127 121.44C279.298 121.671 280.832 124.15 280.154 126.149Z" fill="#585B8A"/>
<path opacity="0.1" d="M256.231 116.842C256.231 116.842 256.993 120.92 255.042 122.151C253.158 123.341 239.134 148.432 238.261 149.998C238.614 147.587 238.852 146.072 238.852 146.072L243.29 131.075C243.29 131.075 248.748 118.419 250.774 114.724C252.801 111.029 260.963 102.74 260.963 102.74C261.974 102.155 263.588 104.22 264.79 106.1C262.978 109.524 259.198 115.998 256.231 116.842Z" fill="black"/>
<path d="M255.894 116.536C255.894 116.536 256.652 120.613 254.704 121.844C252.757 123.074 238.801 148.121 237.916 149.688C238.269 147.281 238.507 145.765 238.507 145.765L242.945 130.764C242.945 130.764 248.399 118.109 250.429 114.417C252.46 110.726 260.614 102.433 260.614 102.433C261.625 101.849 263.243 103.913 264.445 105.793C262.64 109.214 258.857 115.691 255.894 116.536Z" fill="#585B8A"/>
<path d="M276.014 153.383L271.243 175.969V175.973L270.787 178.134V178.138L269.759 182.998L265.377 182.154L263.334 181.761L235.069 176.312L232.991 175.911L228.247 174.998L229.175 169.391L229.56 167.059L232.983 146.382L276.014 153.383Z" fill="#6C63FF"/>
<path d="M249.636 171.844C249.636 171.844 238.392 175.536 240.843 179.92C243.294 184.305 259.019 176.536 259.019 176.536L249.636 171.844Z" fill="#D28690"/>
<path opacity="0.1" d="M257.667 203.304C257.667 203.611 258.091 207.537 259.781 208.919C261.47 210.301 257.667 203.304 257.667 203.304Z" fill="black"/>
<path opacity="0.1" d="M246.34 217.226C246.34 217.226 248.367 222.303 256.398 224.382C264.429 226.46 246.34 217.226 246.34 217.226Z" fill="black"/>
<path opacity="0.1" d="M264.798 89.5109C264.799 91.6208 264.188 93.6936 263.027 95.5201C261.866 97.3466 260.197 98.8624 258.187 99.9145C257.429 99.5287 256.757 99.0185 256.204 98.4097C255.629 97.7746 255.18 96.9085 255.526 96.1507C255.803 95.5409 256.537 95.1547 256.715 94.5232C256.799 94.1371 256.778 93.738 256.652 93.3613C256.505 92.7659 256.366 92.1704 256.223 91.5786C256.101 91.0734 255.882 90.478 255.331 90.3553C254.78 90.2326 254.32 90.6512 253.888 90.9616C252.829 91.723 250.798 92.239 249.525 91.6147C248.252 90.9904 248.609 88.9011 248.403 87.7716C248.4 87.6735 248.374 87.577 248.326 87.4891C248.278 87.4012 248.209 87.3239 248.125 87.2628C247.94 87.2068 247.742 87.1944 247.55 87.2267C246.864 87.2267 246.312 86.6673 246.114 86.0683C245.974 85.4568 245.897 84.8346 245.884 84.2099C245.809 83.5856 245.559 82.9252 244.972 82.6041C244.503 82.4055 243.983 82.3281 243.469 82.3803L240.982 82.4056C242.632 80.3764 244.943 78.8719 247.586 78.1063C250.229 77.3406 253.071 77.3527 255.706 78.1408C258.341 78.9289 260.637 80.4529 262.265 82.4961C263.894 84.5393 264.773 86.9977 264.778 89.5217L264.798 89.5109Z" fill="black"/>
<path d="M254.24 90.9615C254.673 90.6512 255.149 90.2398 255.684 90.3589C256.22 90.478 256.45 91.0806 256.572 91.5786L257.001 93.3576C257.128 93.7353 257.151 94.1355 257.068 94.5232C256.866 95.1583 256.136 95.5408 255.855 96.1507C255.51 96.9085 255.962 97.7745 256.533 98.406C257.575 99.5483 259.015 100.332 260.614 100.625C261.031 100.717 261.465 100.725 261.887 100.651C262.831 100.452 263.473 99.6618 263.981 98.922C266.602 95.2052 268.859 91.1311 269.319 86.7359C269.445 85.8394 269.4 84.9298 269.184 84.0475C268.969 83.3617 268.666 82.7015 268.28 82.0808C267.605 80.8126 266.747 79.6319 265.73 78.5696C263.925 76.8014 261.435 75.7152 258.877 75.0729C255.999 74.3465 252.995 74.1321 250.029 74.4414C249.235 74.5244 248.474 74.6435 247.693 74.6904C246.712 74.7319 245.729 74.7174 244.75 74.6471L238.912 74.3295C238.579 74.9466 238.912 75.6792 239.308 76.2565C239.705 76.8339 240.197 77.4329 240.165 78.1186C240.133 78.8042 239.598 79.3455 239.186 79.9229C238.773 80.5002 238.46 81.2472 238.872 81.8101C239.285 82.3731 240.125 82.4092 240.855 82.4019L243.798 82.3731C244.311 82.3251 244.828 82.4063 245.293 82.6076C245.88 82.9288 246.13 83.5928 246.205 84.2135C246.222 84.8379 246.299 85.4598 246.435 86.0719C246.638 86.6709 247.185 87.2375 247.871 87.2302C248.063 87.1954 248.262 87.2091 248.446 87.2699C248.53 87.3304 248.599 87.407 248.647 87.4943C248.695 87.5816 248.721 87.6775 248.724 87.7751C248.93 88.9046 248.549 90.9904 249.846 91.6183C251.143 92.2462 253.182 91.7229 254.24 90.9615Z" fill="#663D5C"/>
<path opacity="0.1" d="M271.005 114.666C269.547 114.525 268.079 114.84 266.843 115.558C265.607 116.276 264.676 117.355 264.203 118.618C262.617 122.728 259.971 130.144 260.634 133.074C261.566 137.227 262.664 144.152 262.664 144.152C262.664 144.152 267.483 146.678 265.044 149.226C262.605 151.773 261.915 155.382 261.915 155.382C261.915 155.382 258.786 156.612 258.111 159.229C257.437 161.845 252.868 165.457 252.868 165.457L246.023 171.689C246.023 171.689 257.35 182.154 259.634 182.688L266.65 175.226L274.935 165.226L282.121 158.37C282.121 158.37 283.811 154.761 282.966 147.905C282.121 141.049 278.822 134.521 278.822 134.521L279.076 132.211C279.076 132.211 279.853 115.666 271.005 114.666Z" fill="black"/>
<path d="M271.679 114.666C270.222 114.527 268.756 114.842 267.522 115.56C266.288 116.278 265.358 117.356 264.885 118.618C263.299 122.728 260.654 130.144 261.316 133.074C262.244 137.227 263.342 144.152 263.342 144.152C263.342 144.152 268.161 146.678 265.722 149.226C263.283 151.773 262.597 155.382 262.597 155.382C262.597 155.382 259.468 156.613 258.79 159.229C258.111 161.845 253.55 165.457 253.55 165.457L246.701 171.689C246.701 171.689 258.028 182.154 260.312 182.688L267.328 175.226L275.593 165.226L282.78 158.37C282.78 158.37 284.473 154.761 283.625 147.905C282.776 141.049 279.484 134.521 279.484 134.521L279.738 132.211C279.738 132.211 280.527 115.666 271.679 114.666Z" fill="#585B8A"/>
<path opacity="0.1" d="M264.6 138.075C264.6 138.075 271.786 146.072 274.832 144.304C277.878 142.535 264.6 138.075 264.6 138.075Z" fill="black"/>
<path opacity="0.1" d="M267.304 131.919C268.066 132.15 274.324 140.074 277.537 139.136C280.749 138.198 267.304 131.919 267.304 131.919Z" fill="black"/>
<path opacity="0.1" d="M269.081 145.531C269.081 145.531 269.506 150.07 274.661 149.453C279.817 148.836 269.081 145.531 269.081 145.531Z" fill="black"/>
<path opacity="0.1" d="M246.297 108.918L243.508 114.573L246.991 111.357L246.297 108.918Z" fill="black"/>
<path d="M246.297 108.611L243.508 114.266L246.991 111.05L246.297 108.611Z" fill="#F0F3F7"/>
<path opacity="0.3" d="M235.069 176.312L232.991 175.911L229.175 169.391L229.56 167.059L235.069 176.312Z" fill="black"/>
<path opacity="0.3" d="M271.243 175.973L270.787 178.134V178.138L265.377 182.154L263.334 181.761L271.243 175.973Z" fill="black"/>
<path opacity="0.1" d="M186.009 150.738C184.962 150.897 183.947 151.041 183.019 151.149C177.863 151.766 165.6 146.227 165.6 146.227C165.6 146.227 150.637 134.842 146.326 124.074C142.015 113.306 151.481 111.689 151.481 111.689C155.051 109.842 162.812 114.995 163.911 115.843C165.009 116.691 165.941 118.841 165.854 120.227C165.767 121.613 168.392 123.381 168.392 123.381C168.392 123.381 172.874 130.457 173.973 131.226C175.071 131.995 175.325 132.688 175.662 133.998C175.999 135.307 178.958 136.383 180.227 136.303C181.496 136.224 183.003 136.69 183.003 137.303C183.003 137.797 184.244 138.043 185.264 138.122C185.565 142.066 185.863 147.234 186.009 150.738Z" fill="black"/>
<path opacity="0.1" d="M185.962 149.612C185.169 149.727 184.407 149.832 183.693 149.919C178.537 150.536 166.278 144.997 166.278 144.997C166.278 144.997 151.315 133.611 147.004 122.843C142.693 112.075 152.16 110.459 152.16 110.459C155.729 108.611 163.486 113.764 164.585 114.612C165.684 115.46 166.616 117.611 166.532 118.997C166.449 120.382 169.067 122.151 169.067 122.151C169.067 122.151 173.548 129.227 174.647 129.996C175.745 130.764 175.999 131.457 176.34 132.767C176.681 134.077 179.636 135.149 180.905 135.073C182.174 134.997 183.681 135.459 183.681 136.073C183.681 136.433 184.387 136.675 185.173 136.794C185.204 137.213 185.232 137.657 185.268 138.119C185.529 141.666 185.799 146.191 185.962 149.612Z" fill="black"/>
<path opacity="0.1" d="M205.574 141.864L205.252 148.778H204.907L204.193 148.417L204.281 142.46C204.698 142.237 205.129 142.038 205.574 141.864V141.864Z" fill="black"/>
<path d="M151.481 111.072C151.481 111.072 142.015 112.689 146.326 123.457C150.637 134.225 165.6 145.614 165.6 145.614C165.6 145.614 177.859 151.149 183.019 150.536C188.179 149.922 196.035 148.306 197.051 148.537C198.066 148.768 204.915 148.768 204.915 148.768L205.252 141.55L197.32 141.164L193.263 140.396C193.263 140.396 191.824 139.313 190.979 139.472C190.134 139.631 188.361 138.548 188.361 138.548C188.361 138.548 187.005 137.548 185.982 137.548C184.958 137.548 183.023 137.317 183.023 136.704C183.023 136.091 181.5 135.621 180.247 135.704C178.994 135.787 175.999 134.705 175.65 133.381C175.301 132.056 175.059 131.381 173.961 130.613C172.862 129.844 168.381 122.764 168.381 122.764C168.381 122.764 165.759 120.996 165.842 119.614C165.926 118.232 164.998 116.074 163.899 115.226C162.8 114.378 155.027 109.228 151.481 111.072Z" fill="#DCE6F2"/>
<path opacity="0.1" d="M175.833 135.842C175.833 135.842 172.196 139.151 173.124 139.764L175.833 135.842Z" fill="black"/>
<path opacity="0.1" d="M179.719 138.458C179.719 138.458 174.984 141.767 176.253 141.998C177.522 142.229 179.719 138.458 179.719 138.458Z" fill="black"/>
<path opacity="0.1" d="M171.684 143.365C172.362 143.676 182.42 149.139 186.228 149.06L171.684 143.365Z" fill="black"/>
<path opacity="0.1" d="M172.366 106.843C172.366 106.843 170.59 112.151 169.911 112.151C169.38 112.151 160.457 105.576 156.732 102.812L156.895 102.689C156.895 102.689 157.232 100.304 158.585 99.0809C159.937 97.8576 172.366 106.843 172.366 106.843Z" fill="black"/>
<path d="M172.025 106.226C172.025 106.226 170.252 111.534 169.574 111.534C169.039 111.534 160.115 104.959 156.391 102.195L156.554 102.072C156.554 102.072 156.895 99.6871 158.247 98.4638C159.6 97.2405 172.025 106.226 172.025 106.226Z" fill="#DCE6F2"/>
<g opacity="0.15">
<path opacity="0.15" d="M148.083 89.0707C149.272 91.5426 152.548 92.7406 154.448 94.7109C153.318 92.2895 150.014 91.1023 148.083 89.0707Z" fill="black"/>
<path opacity="0.15" d="M160.207 94.7651C159.735 95.5915 158.62 95.992 157.605 95.974C156.702 95.915 155.818 95.7097 154.995 95.3677C155.294 95.7683 155.521 96.2091 155.669 96.674C156.595 97.0789 157.596 97.3236 158.62 97.3958C159.647 97.4174 160.75 97.0169 161.222 96.1869C161.979 94.8697 161.19 93.7439 160.266 92.6793C160.438 93.0065 160.523 93.3661 160.512 93.7287C160.502 94.0913 160.397 94.4465 160.207 94.7651V94.7651Z" fill="black"/>
<path opacity="0.15" d="M174.925 76.6788C174.754 75.986 174.175 75.4411 173.877 74.7879C173.695 74.2825 173.551 73.7665 173.445 73.2434C173.22 72.5038 172.802 71.8243 172.228 71.2623C172.307 71.4399 172.375 71.6219 172.43 71.8072C172.541 72.3326 172.689 72.8509 172.874 73.3589C173.172 74.0121 173.751 74.557 173.921 75.2498C174.022 75.7393 173.914 76.2452 173.619 76.6648C173.324 77.0843 172.865 77.3861 172.335 77.5088C170.867 77.8011 169.194 76.6463 167.932 77.3897C167.159 77.8408 166.981 78.7826 166.877 79.6126C166.7 81.056 166.521 82.491 166.338 83.9176C166.302 84.4237 166.185 84.9222 165.989 85.3971C165.366 86.6962 163.657 87.3061 162.098 87.2844C161.489 87.3214 160.889 87.1401 160.425 86.7792C160.199 86.4887 159.957 86.2092 159.699 85.942C157.716 84.4264 157.113 88.1324 157.637 89.1898C157.899 89.6654 158.224 90.1101 158.604 90.5141C158.168 89.3233 158.779 85.8951 160.714 87.3638C160.972 87.6301 161.213 87.9097 161.436 88.201C161.902 88.5614 162.504 88.7426 163.114 88.7062C164.672 88.7279 166.382 88.118 167.004 86.8189C167.2 86.3429 167.318 85.8431 167.353 85.3358C167.533 83.8924 167.713 82.4586 167.893 81.0344C167.996 80.2044 168.174 79.2626 168.944 78.8115C170.209 78.0681 171.883 79.2229 173.35 78.927C173.876 78.8028 174.331 78.5019 174.623 78.0848C174.916 77.6676 175.023 77.1652 174.925 76.6788V76.6788Z" fill="black"/>
</g>
<path opacity="0.1" d="M262.732 99.7305C262.31 99.802 261.876 99.7922 261.459 99.7016C259.861 99.408 258.423 98.6262 257.382 97.4859C256.806 96.8508 256.354 95.9848 256.703 95.227C256.981 94.6171 257.711 94.2346 257.893 93.5995C257.976 93.2118 257.952 92.8116 257.826 92.4339L257.397 90.6549C257.274 90.1497 257.06 89.5542 256.509 89.4352C255.958 89.3161 255.498 89.7275 255.065 90.0378C254.006 90.7992 251.972 91.3189 250.703 90.691C249.434 90.0631 249.787 87.9773 249.58 86.8478C249.577 86.7504 249.55 86.6547 249.502 86.5675C249.455 86.4803 249.386 86.4036 249.303 86.3426C249.117 86.2837 248.917 86.27 248.724 86.3029C248.038 86.3029 247.49 85.7436 247.288 85.1446C247.151 84.5327 247.075 83.9106 247.062 83.2861C246.983 82.6655 246.737 82.0015 246.146 81.6803C245.68 81.4807 245.163 81.3997 244.651 81.4458L241.708 81.4746C240.982 81.4746 240.121 81.4313 239.725 80.8828C239.328 80.3343 239.622 79.5549 240.038 78.9955C240.455 78.4362 240.982 77.8805 241.018 77.1912C241.054 76.502 240.562 75.9066 240.161 75.3292C239.931 75.0135 239.762 74.6645 239.661 74.2972L238.817 74.2502C238.488 74.8637 238.817 75.5962 239.213 76.1772C239.61 76.7582 240.106 77.3536 240.07 78.0357C240.034 78.7177 239.507 79.2662 239.09 79.8399C238.674 80.4137 238.369 81.1643 238.781 81.7272C239.193 82.2902 240.03 82.3299 240.764 82.3226L243.707 82.2902C244.22 82.245 244.736 82.3273 245.202 82.5283C245.793 82.8495 246.043 83.5135 246.118 84.1342C246.131 84.7588 246.208 85.381 246.348 85.9926C246.546 86.588 247.098 87.1582 247.784 87.1473C247.976 87.1164 248.174 87.13 248.359 87.187C248.443 87.2485 248.511 87.3259 248.559 87.4137C248.607 87.5016 248.633 87.5978 248.637 87.6958C248.843 88.8217 248.462 90.9111 249.759 91.539C251.056 92.1669 253.078 91.6472 254.121 90.8858C254.554 90.5755 255.034 90.1641 255.569 90.2796C256.104 90.3951 256.335 91.0013 256.453 91.4993L256.886 93.2819C257.011 93.6599 257.033 94.0601 256.949 94.4475C256.751 95.079 256.017 95.4651 255.74 96.0714C255.395 96.8292 255.843 97.6988 256.418 98.3303C257.466 99.4755 258.915 100.258 260.523 100.546C260.94 100.637 261.374 100.646 261.796 100.575C262.477 100.386 263.063 99.9814 263.446 99.4346C263.229 99.5712 262.987 99.6714 262.732 99.7305Z" fill="black"/>
<path opacity="0.1" d="M80.7835 259.1C86.0776 259.1 90.3693 258.501 90.3693 257.761C90.3693 257.022 86.0776 256.422 80.7835 256.422C75.4894 256.422 71.1976 257.022 71.1976 257.761C71.1976 258.501 75.4894 259.1 80.7835 259.1Z" fill="#6C63FF"/>
<path opacity="0.1" d="M415.482 224.291C420.776 224.291 425.068 223.692 425.068 222.953C425.068 222.213 420.776 221.614 415.482 221.614C410.188 221.614 405.896 222.213 405.896 222.953C405.896 223.692 410.188 224.291 415.482 224.291Z" fill="#6C63FF"/>
<path opacity="0.1" d="M317.756 280.777C333.088 280.777 345.518 279.041 345.518 276.901C345.518 274.761 333.088 273.025 317.756 273.025C302.423 273.025 289.994 274.761 289.994 276.901C289.994 279.041 302.423 280.777 317.756 280.777Z" fill="#6C63FF"/>
<path opacity="0.1" d="M396.675 263.506C408.635 263.506 418.33 262.152 418.33 260.482C418.33 258.812 408.635 257.458 396.675 257.458C384.716 257.458 375.021 258.812 375.021 260.482C375.021 262.152 384.716 263.506 396.675 263.506Z" fill="#6C63FF"/>
<path opacity="0.1" d="M393.11 295.741C413.391 295.741 429.831 293.446 429.831 290.614C429.831 287.782 413.391 285.486 393.11 285.486C372.829 285.486 356.389 287.782 356.389 290.614C356.389 293.446 372.829 295.741 393.11 295.741Z" fill="#6C63FF"/>
<path opacity="0.1" d="M39.7552 299C55.0877 299 67.5172 297.265 67.5172 295.124C67.5172 292.984 55.0877 291.249 39.7552 291.249C24.4226 291.249 11.9932 292.984 11.9932 295.124C11.9932 297.265 24.4226 299 39.7552 299Z" fill="#6C63FF"/>
<path d="M81.2197 215.122C81.2197 215.122 82.3064 216.414 80.72 218.37C79.1336 220.326 77.8248 221.978 78.3404 223.184C78.3404 223.184 80.72 219.575 82.703 219.51C84.686 219.445 83.3653 217.302 81.2197 215.122Z" fill="#6C63FF"/>
<path opacity="0.1" d="M81.2197 215.122C81.3166 215.245 81.3915 215.382 81.4418 215.526C83.3455 217.561 84.3568 219.456 82.5285 219.496C80.8271 219.539 78.7846 222.31 78.2968 223.01C78.3116 223.064 78.3302 223.117 78.3523 223.169C78.3523 223.169 80.7319 219.561 82.7149 219.496C84.6979 219.431 83.3653 217.302 81.2197 215.122Z" fill="black"/>
<path d="M83.2423 216.768C83.2423 217.222 83.1829 217.59 83.1154 217.59C83.048 217.59 82.9885 217.229 82.9885 216.768C82.9885 216.306 83.0599 216.529 83.1273 216.529C83.1948 216.529 83.2423 216.313 83.2423 216.768Z" fill="#FFD037"/>
<path d="M83.9325 217.312C83.4962 217.529 83.1115 217.673 83.0798 217.605C83.048 217.536 83.3733 217.33 83.8135 217.11C84.2537 216.89 84.0792 217.053 84.1109 217.11C84.1427 217.168 84.3727 217.092 83.9325 217.312Z" fill="#FFD037"/>
<path d="M75.4849 215.122C75.4849 215.122 74.3983 216.414 75.9847 218.37C77.5711 220.326 78.8838 221.978 78.3643 223.184C78.3643 223.184 75.9847 219.575 74.0215 219.51C72.0583 219.445 73.3274 217.302 75.4849 215.122Z" fill="#6C63FF"/>
<path opacity="0.1" d="M75.4849 215.122C75.3901 215.246 75.3153 215.383 75.2628 215.526C73.3591 217.561 72.3478 219.456 74.1761 219.496C75.8775 219.539 77.92 222.31 78.4118 223.01C78.3955 223.064 78.3756 223.117 78.3523 223.169C78.3523 223.169 75.9727 219.561 74.0095 219.496C72.0464 219.431 73.3274 217.302 75.4849 215.122Z" fill="black"/>
<path d="M73.4662 216.768C73.4662 217.222 73.5217 217.59 73.5891 217.59C73.6566 217.59 73.716 217.229 73.716 216.768C73.716 216.306 73.6447 216.529 73.5772 216.529C73.5098 216.529 73.4662 216.313 73.4662 216.768Z" fill="#FFD037"/>
<path d="M72.7721 217.312C73.2123 217.529 73.5931 217.673 73.6287 217.605C73.6644 217.536 73.3313 217.33 72.8911 217.11C72.4509 216.89 72.6254 217.053 72.5936 217.11C72.5619 217.168 72.3319 217.092 72.7721 217.312Z" fill="#FFD037"/>
<path opacity="0.1" d="M78.3523 233.064C84.6233 233.064 89.707 232.355 89.707 231.48C89.707 230.605 84.6233 229.896 78.3523 229.896C72.0813 229.896 66.9977 230.605 66.9977 231.48C66.9977 232.355 72.0813 233.064 78.3523 233.064Z" fill="#6C63FF"/>
<path d="M84.1982 221.437L84.1426 221.841L84.0673 222.411L84.0356 222.65L83.9602 223.22L83.9245 223.458L83.8492 224.028L82.9806 230.524C82.9053 231.101 81.8662 231.552 80.601 231.552H76.1036C74.8503 231.552 73.8112 231.101 73.724 230.524L72.8554 224.028L72.7801 223.458L72.7483 223.22L72.669 222.65L72.6373 222.411L72.5619 221.841L72.5064 221.437C72.4628 221.109 73.026 220.834 73.7359 220.834H82.9727C83.6786 220.834 84.2418 221.109 84.1982 221.437Z" fill="#65617D"/>
<path d="M84.1427 221.841L84.0674 222.411H72.6374L72.562 221.841H84.1427Z" fill="#9D9CB5"/>
<path d="M84.0356 222.65L83.9603 223.22H72.7484L72.6691 222.65H84.0356Z" fill="#9D9CB5"/>
<path d="M83.9285 223.458L83.8491 224.028H72.8554L72.78 223.458H83.9285Z" fill="#9D9CB5"/>
<path d="M407.927 210.124C407.927 210.124 406.571 215.869 412.603 216.547L412.976 215.909C412.976 215.909 408.3 211.907 407.927 210.124Z" fill="#6C63FF"/>
<path d="M414.895 215.862L413.491 216.132L413.353 216.161C413.353 216.161 409.609 213.397 409.656 207.226C410.157 208.136 410.756 208.998 411.445 209.799C412.928 211.586 414.614 213.967 414.895 215.862Z" fill="#6C63FF"/>
<path d="M415.367 216.454C415.257 216.519 415.132 216.561 415.002 216.577C414.871 216.592 414.739 216.581 414.614 216.544C411.012 215.779 412.234 205.101 412.234 205.101C412.432 205.184 412.631 206.545 413.479 208.298C414.927 211.376 416.525 215.681 415.367 216.454Z" fill="#6C63FF"/>
<path d="M423.355 210.124C423.355 210.124 423.589 215.869 417.556 216.547L417.18 215.898C417.18 215.898 422.982 211.907 423.355 210.124Z" fill="#6C63FF"/>
<path d="M421.625 207.237C421.673 213.408 416.811 216.172 416.811 216.172L416.668 216.143L415.268 215.873C415.546 213.978 417.251 211.596 418.714 209.81C419.555 208.838 420.534 207.973 421.625 207.237V207.237Z" fill="#6C63FF"/>
<path d="M416.648 215.898C416.435 216.138 416.163 216.329 415.855 216.457V216.457C415.76 216.496 415.66 216.527 415.558 216.547C414.673 216.735 414.368 216.154 414.415 215.165C414.499 213.408 415.712 210.359 416.795 208.074C417.316 206.954 418.086 205.943 419.056 205.105C419.056 205.105 419 213.415 416.648 215.898Z" fill="#6C63FF"/>
<path d="M415.641 201.355C415.641 201.355 411.619 214.346 415.082 216.288C418.544 218.229 416.529 202.503 415.641 201.355Z" fill="#6C63FF"/>
<path opacity="0.1" d="M407.927 210.124C407.927 210.124 406.571 215.869 412.603 216.547L412.976 215.909C412.976 215.909 408.3 211.907 407.927 210.124Z" fill="black"/>
<path opacity="0.1" d="M414.895 215.862L413.491 216.132L413.353 216.161C413.353 216.161 409.609 213.397 409.656 207.226C410.157 208.136 410.756 208.998 411.445 209.799C412.928 211.586 414.614 213.967 414.895 215.862Z" fill="black"/>
<path opacity="0.1" d="M415.367 216.454C415.257 216.519 415.132 216.561 415.002 216.577C414.871 216.592 414.739 216.581 414.614 216.544C411.012 215.779 412.234 205.101 412.234 205.101C412.432 205.184 412.631 206.545 413.479 208.298C414.927 211.376 416.525 215.681 415.367 216.454Z" fill="black"/>
<path opacity="0.1" d="M423.355 210.124C423.355 210.124 423.589 215.869 417.556 216.547L417.18 215.898C417.18 215.898 422.982 211.907 423.355 210.124Z" fill="black"/>
<path opacity="0.1" d="M421.625 207.237C421.673 213.408 416.811 216.172 416.811 216.172L416.668 216.143L415.268 215.873C415.546 213.978 417.251 211.596 418.714 209.81C419.555 208.838 420.534 207.973 421.625 207.237V207.237Z" fill="black"/>
<path opacity="0.1" d="M416.648 215.898C416.435 216.138 416.163 216.329 415.855 216.457V216.457C415.76 216.496 415.66 216.527 415.558 216.547C414.673 216.735 414.368 216.154 414.415 215.165C414.499 213.408 415.712 210.359 416.795 208.074C417.316 206.954 418.086 205.943 419.056 205.105C419.056 205.105 419 213.415 416.648 215.898Z" fill="black"/>
<path opacity="0.1" d="M415.641 201.355C415.641 201.355 411.619 214.346 415.082 216.288C418.544 218.229 416.529 202.503 415.641 201.355Z" fill="black"/>
<path d="M407.927 210.124C407.927 210.124 407.134 215.869 413.162 216.547L413.535 215.909C413.535 215.909 408.3 211.907 407.927 210.124Z" fill="#6C63FF"/>
<path d="M415.454 215.862L414.05 216.132L413.912 216.161C413.912 216.161 409.609 213.397 409.644 207.237C409.644 207.237 410.747 208.32 411.992 209.81C413.487 211.586 415.173 213.967 415.454 215.862Z" fill="#6C63FF"/>
<path opacity="0.1" d="M415.454 215.862L414.05 216.133C412.722 215.072 412.194 212.3 412.004 209.799C413.487 211.586 415.173 213.967 415.454 215.862Z" fill="black"/>
<path d="M415.93 216.454C415.819 216.519 415.694 216.561 415.563 216.577C415.432 216.592 415.299 216.581 415.173 216.544C411.572 215.779 412.23 205.101 412.23 205.101C412.428 205.184 413.206 206.545 414.035 208.298C415.49 211.376 417.084 215.681 415.93 216.454Z" fill="#6C63FF"/>
<path d="M423.355 210.124C423.355 210.124 424.148 215.869 418.12 216.547L417.747 215.909C417.747 215.909 422.982 211.907 423.355 210.124Z" fill="#6C63FF"/>
<path d="M421.625 207.237C421.673 213.408 417.37 216.172 417.37 216.172L417.231 216.143L415.827 215.873C416.105 213.978 417.81 211.596 419.278 209.81C420.523 208.32 421.625 207.237 421.625 207.237Z" fill="#6C63FF"/>
<path opacity="0.1" d="M419.278 209.799C419.095 212.131 418.627 214.696 417.489 215.894C417.411 215.981 417.325 216.06 417.231 216.133L415.827 215.862C416.105 213.967 417.794 211.586 419.278 209.799Z" fill="black"/>
<path d="M417.207 215.898C416.995 216.139 416.723 216.33 416.414 216.457V216.457C416.32 216.496 416.222 216.526 416.121 216.547C415.232 216.735 414.931 216.154 414.975 215.165C415.062 213.408 416.275 210.359 417.354 208.074C418.147 206.433 418.865 205.188 419.056 205.105C419.056 205.101 419.559 213.415 417.207 215.898Z" fill="#6C63FF"/>
<path opacity="0.1" d="M415.93 216.454C415.725 216.456 415.525 216.397 415.359 216.288C413.666 215.328 413.63 211.726 414.034 208.298C415.49 211.376 417.084 215.681 415.93 216.454Z" fill="black"/>
<path opacity="0.1" d="M417.207 215.898C417.013 216.284 416.751 216.486 416.414 216.457C416.242 216.438 416.077 216.381 415.934 216.291C415.493 216.016 415.157 215.623 414.974 215.165C415.062 213.408 416.275 210.359 417.354 208.074C417.743 211.239 417.874 214.595 417.207 215.898Z" fill="black"/>
<path d="M415.641 201.355C415.641 201.355 412.182 214.346 415.641 216.288C419.099 218.229 416.529 202.503 415.641 201.355Z" fill="#6C63FF"/>
<path d="M422.28 215.653H407.879V217.821H410.076L410.132 218.078L411.012 222.289H419.385L420.265 218.078L420.317 217.821H422.28V215.653Z" fill="#4B4770"/>
<path opacity="0.1" d="M422.28 215.653H407.879V217.821H410.076L410.132 218.078L411.012 222.289H419.385L420.265 218.078L420.317 217.821H422.28V215.653Z" fill="black"/>
<path d="M421.066 216.926L420.824 218.078L419.944 222.289H411.572L410.691 218.078L410.449 216.926H421.066Z" fill="#4B4770"/>
<path opacity="0.1" d="M421.066 216.926L420.824 218.078H410.691L410.449 216.926H421.066Z" fill="black"/>
<path d="M422.839 215.653H408.438V217.821H422.839V215.653Z" fill="#4B4770"/>
<path d="M55.2821 252.763C54.9025 253.239 54.5981 253.762 54.3779 254.315C54.3224 254.448 54.2668 254.604 54.2113 254.752C54.1107 254.709 54.0057 254.675 53.898 254.651C53.4357 254.544 52.9574 254.508 52.4821 254.542C52.4821 254.373 52.5059 254.181 52.5099 254.012C52.5694 252.11 52.3235 249.461 50.3286 250.584C48.417 251.666 49.7813 253.471 51.0147 254.625C51.1218 254.726 51.2289 254.82 51.332 254.91C50.2056 255.632 49.9915 257.339 49.8051 259.111C49.6187 260.883 47.9649 262.82 46.8663 263.921C46.7552 264.033 46.6561 264.134 46.5569 264.228C46.1128 263.905 45.5988 263.672 45.0485 263.543C44.4982 263.414 43.9242 263.393 43.3643 263.481C43.3207 263.326 43.2691 263.163 43.2176 262.994C42.3292 260.074 40.485 255.019 38.1331 253.911L38.4425 253.55C39.4419 252.363 40.5683 250.594 38.9065 250.143C37.2448 249.692 37.094 251.673 37.1853 253.16C37.2011 253.348 37.217 253.525 37.2329 253.691C36.9007 253.704 36.5751 253.78 36.2763 253.913C35.9775 254.046 35.7119 254.233 35.4957 254.463L35.238 254.185C33.8895 252.742 31.4187 250.443 30.6691 252.179C29.9711 253.795 32.1484 255.895 33.6793 257.112L33.7745 257.187C32.7473 260.98 37.2329 264.073 39.6481 265.426L39.9615 265.599C36.63 269.171 34.5717 275.869 34.5717 275.869L43.8997 277.385C43.8997 277.385 50.0867 272.527 49.2935 267.966H49.3569C55.5399 266.84 56.9439 260.843 55.9801 257.281L56.0912 257.241C57.2177 256.822 58.2046 256.143 58.9546 255.271C60.6838 253.088 57.0668 250.62 55.2821 252.763Z" fill="#6C63FF"/>
<path opacity="0.1" d="M55.2821 252.763C54.9025 253.239 54.5981 253.762 54.3779 254.315C54.3224 254.448 54.2668 254.604 54.2113 254.752C54.1107 254.709 54.0057 254.675 53.898 254.651C53.4357 254.544 52.9574 254.508 52.4821 254.542C52.4821 254.373 52.5059 254.181 52.5099 254.012C52.5694 252.11 52.3235 249.461 50.3286 250.584C48.417 251.666 49.7813 253.471 51.0147 254.625C51.1218 254.726 51.2289 254.82 51.332 254.91C50.2056 255.632 49.9915 257.339 49.8051 259.111C49.6187 260.883 47.9649 262.82 46.8663 263.921C46.7552 264.033 46.6561 264.134 46.5569 264.228C46.1128 263.905 45.5988 263.672 45.0485 263.543C44.4982 263.414 43.9242 263.393 43.3643 263.481C43.3207 263.326 43.2691 263.163 43.2176 262.994C42.3292 260.074 40.485 255.019 38.1331 253.911L38.4425 253.55C39.4419 252.363 40.5683 250.594 38.9065 250.143C37.2448 249.692 37.094 251.673 37.1853 253.16C37.2011 253.348 37.217 253.525 37.2329 253.691C36.9007 253.704 36.5751 253.78 36.2763 253.913C35.9775 254.046 35.7119 254.233 35.4957 254.463L35.238 254.185C33.8895 252.742 31.4187 250.443 30.6691 252.179C29.9711 253.795 32.1484 255.895 33.6793 257.112L33.7745 257.187C32.7473 260.98 37.2329 264.073 39.6481 265.426L39.9615 265.599C36.63 269.171 34.5717 275.869 34.5717 275.869L43.8997 277.385C43.8997 277.385 50.0867 272.527 49.2935 267.966H49.3569C55.5399 266.84 56.9439 260.843 55.9801 257.281L56.0912 257.241C57.2177 256.822 58.2046 256.143 58.9546 255.271C60.6838 253.088 57.0668 250.62 55.2821 252.763Z" fill="black"/>
<path d="M36.7132 255.232L35.6226 258.118C35.6226 258.118 35.0158 257.729 34.2504 257.115C32.7195 255.899 30.5422 253.799 31.2402 252.182C31.9897 250.447 34.4606 252.738 35.809 254.189C36.3523 254.766 36.7132 255.232 36.7132 255.232Z" fill="#6C63FF"/>
<path d="M39.0135 253.553C38.6822 253.951 38.3274 254.331 37.9506 254.694C37.8575 254.187 37.7927 253.676 37.7563 253.164C37.6651 251.677 37.8396 249.703 39.4775 250.147C41.1155 250.591 40.0129 252.366 39.0135 253.553Z" fill="#6C63FF"/>
<path d="M53.1007 254.012C53.069 254.968 52.9659 255.733 52.9659 255.733C52.4862 255.391 52.0317 255.021 51.6055 254.625C50.3721 253.46 49.0078 251.663 50.9194 250.584C52.8945 249.458 53.1404 252.11 53.1007 254.012Z" fill="#6C63FF"/>
<path d="M59.5257 255.264C58.7757 256.136 57.7887 256.815 56.6622 257.234C56.3495 257.357 56.029 257.463 55.7025 257.552L54.4175 255.91C54.5524 255.367 54.73 254.834 54.9489 254.315C55.1691 253.762 55.4735 253.239 55.8532 252.763C57.6299 250.62 61.2549 253.088 59.5257 255.264Z" fill="#6C63FF"/>
<path opacity="0.1" d="M35.809 254.189C36.3523 254.766 36.7133 255.213 36.7133 255.213L35.6226 258.1C35.6226 258.1 35.0158 257.711 34.2504 257.097C34.4204 256.167 34.843 255.29 35.4798 254.546C35.5869 254.427 35.7019 254.304 35.809 254.189Z" fill="black"/>
<path opacity="0.1" d="M39.0136 253.553C38.6823 253.951 38.3275 254.331 37.9507 254.694C37.8576 254.187 37.7927 253.676 37.7563 253.164C38.2096 253.172 38.6488 253.308 39.0136 253.553V253.553Z" fill="black"/>
<path d="M44.3756 265.087L41.6629 266.169C41.6629 266.169 41.0719 265.909 40.2193 265.426C37.3677 263.831 31.6368 259.814 35.4601 255.08C39.2833 250.346 42.5076 258.837 43.7887 262.99C44.1734 264.253 44.3756 265.087 44.3756 265.087Z" fill="#6C63FF"/>
<path opacity="0.1" d="M51.5858 254.625C51.9804 254.255 52.515 254.036 53.081 254.012C53.0493 254.968 52.9462 255.733 52.9462 255.733C52.4664 255.391 52.012 255.021 51.5858 254.625V254.625Z" fill="black"/>
<path opacity="0.1" d="M56.6702 257.234C56.3575 257.357 56.037 257.463 55.7104 257.552L54.4254 255.91C54.5603 255.367 54.7379 254.834 54.9569 254.315C55.7778 254.755 56.3886 255.852 56.6702 257.234Z" fill="black"/>
<path d="M49.928 267.959C49.7813 267.988 49.6266 268.013 49.4719 268.035C40.3779 269.291 46.4736 264.827 46.4736 264.827C46.4736 264.827 46.8702 264.466 47.4373 263.921C48.5359 262.82 50.1858 260.893 50.3762 259.111C50.6617 256.43 50.9909 253.914 54.4691 254.651C57.8838 255.379 58.5382 266.389 49.928 267.959Z" fill="#6C63FF"/>
<path d="M49.7574 288.56H32.3823V292.717H49.7574V288.56Z" fill="#D4DFEC"/>
<path d="M52.3235 275.05H29.6221V289.556H52.3235V275.05Z" fill="#D4DFEC"/>
<path opacity="0.1" d="M49.7574 288.56H32.3823V292.717H49.7574V288.56Z" fill="black"/>
<path opacity="0.1" d="M52.3235 275.05H29.6221V289.556H52.3235V275.05Z" fill="black"/>
<path d="M50.8996 288.56H33.5245V292.717H50.8996V288.56Z" fill="#D4DFEC"/>
<path opacity="0.1" d="M43.7886 262.994C44.1852 264.235 44.3756 265.086 44.3756 265.086L41.6629 266.169C41.6629 266.169 41.0719 265.909 40.2192 265.426C41.2821 264.202 42.4799 263.279 43.7886 262.994Z" fill="black"/>
<path opacity="0.1" d="M49.928 267.959C49.7813 267.988 49.6266 268.013 49.4719 268.035C40.3779 269.29 46.4736 264.827 46.4736 264.827C46.4736 264.827 46.8702 264.466 47.4373 263.921C49.1348 265.159 49.8368 266.552 49.928 267.959Z" fill="black"/>
<path d="M35.1427 275.873C35.1427 275.873 40.235 259.273 47.3778 264.394C54.5206 269.514 44.4707 277.385 44.4707 277.385L35.1427 275.873Z" fill="#6C63FF"/>
<path opacity="0.1" d="M37.7127 258.201C38.0281 258.201 38.2838 257.969 38.2838 257.682C38.2838 257.395 38.0281 257.162 37.7127 257.162C37.3973 257.162 37.1416 257.395 37.1416 257.682C37.1416 257.969 37.3973 258.201 37.7127 258.201Z" fill="black"/>
<path opacity="0.1" d="M37.6651 260.626C37.9805 260.626 38.2362 260.394 38.2362 260.107C38.2362 259.82 37.9805 259.587 37.6651 259.587C37.3497 259.587 37.094 259.82 37.094 260.107C37.094 260.394 37.3497 260.626 37.6651 260.626Z" fill="black"/>
<path opacity="0.1" d="M54.231 258.678C54.5464 258.678 54.8021 258.445 54.8021 258.158C54.8021 257.871 54.5464 257.638 54.231 257.638C53.9156 257.638 53.6599 257.871 53.6599 258.158C53.6599 258.445 53.9156 258.678 54.231 258.678Z" fill="black"/>
<path opacity="0.1" d="M40.9053 271.109C41.2207 271.109 41.4764 270.877 41.4764 270.59C41.4764 270.303 41.2207 270.07 40.9053 270.07C40.5899 270.07 40.3342 270.303 40.3342 270.59C40.3342 270.877 40.5899 271.109 40.9053 271.109Z" fill="black"/>
<path opacity="0.1" d="M53.0413 262.705C53.3567 262.705 53.6124 262.472 53.6124 262.185C53.6124 261.898 53.3567 261.666 53.0413 261.666C52.7259 261.666 52.4702 261.898 52.4702 262.185C52.4702 262.472 52.7259 262.705 53.0413 262.705Z" fill="black"/>
<path opacity="0.1" d="M47.14 268.078C47.4554 268.078 47.7111 267.845 47.7111 267.558C47.7111 267.271 47.4554 267.039 47.14 267.039C46.8245 267.039 46.5688 267.271 46.5688 267.558C46.5688 267.845 46.8245 268.078 47.14 268.078Z" fill="black"/>
<path opacity="0.1" d="M39.664 259.241C39.9794 259.241 40.2351 259.008 40.2351 258.721C40.2351 258.434 39.9794 258.201 39.664 258.201C39.3486 258.201 39.0929 258.434 39.0929 258.721C39.0929 259.008 39.3486 259.241 39.664 259.241Z" fill="black"/>
<path opacity="0.1" d="M52.6606 260.237C52.976 260.237 53.2317 260.004 53.2317 259.717C53.2317 259.43 52.976 259.197 52.6606 259.197C52.3452 259.197 52.0895 259.43 52.0895 259.717C52.0895 260.004 52.3452 260.237 52.6606 260.237Z" fill="black"/>
<path opacity="0.1" d="M50.7093 264.264C51.0247 264.264 51.2804 264.031 51.2804 263.744C51.2804 263.457 51.0247 263.224 50.7093 263.224C50.3939 263.224 50.1382 263.457 50.1382 263.744C50.1382 264.031 50.3939 264.264 50.7093 264.264Z" fill="black"/>
<path opacity="0.1" d="M44.7127 270.719C45.0281 270.719 45.2838 270.487 45.2838 270.2C45.2838 269.913 45.0281 269.68 44.7127 269.68C44.3973 269.68 44.1416 269.913 44.1416 270.2C44.1416 270.487 44.3973 270.719 44.7127 270.719Z" fill="black"/>
<path opacity="0.1" d="M43.4753 268.165C43.7907 268.165 44.0464 267.932 44.0464 267.645C44.0464 267.358 43.7907 267.125 43.4753 267.125C43.1599 267.125 42.9042 267.358 42.9042 267.645C42.9042 267.932 43.1599 268.165 43.4753 268.165Z" fill="black"/>
<path opacity="0.1" d="M40.5206 262.402C40.836 262.402 41.0917 262.169 41.0917 261.882C41.0917 261.595 40.836 261.363 40.5206 261.363C40.2052 261.363 39.9495 261.595 39.9495 261.882C39.9495 262.169 40.2052 262.402 40.5206 262.402Z" fill="black"/>
<path opacity="0.1" d="M50.8996 288.56H33.5245V290.08H50.8996V288.56Z" fill="black"/>
<path d="M53.4657 275.05H30.7643V289.556H53.4657V275.05Z" fill="#D4DFEC"/>
<path opacity="0.1" d="M45.4742 273.058C45.7896 273.058 46.0453 272.825 46.0453 272.538C46.0453 272.251 45.7896 272.019 45.4742 272.019C45.1588 272.019 44.9031 272.251 44.9031 272.538C44.9031 272.825 45.1588 273.058 45.4742 273.058Z" fill="black"/>
<path opacity="0.1" d="M42.0475 273.707C42.363 273.707 42.6186 273.475 42.6186 273.188C42.6186 272.901 42.363 272.668 42.0475 272.668C41.7321 272.668 41.4764 272.901 41.4764 273.188C41.4764 273.475 41.7321 273.707 42.0475 273.707Z" fill="black"/>
<path opacity="0.1" d="M19.83 22.5391C22.1211 22.5391 23.9784 20.8492 23.9784 18.7646C23.9784 16.6799 22.1211 14.99 19.83 14.99C17.5388 14.99 15.6815 16.6799 15.6815 18.7646C15.6815 20.8492 17.5388 22.5391 19.83 22.5391Z" fill="#6C63FF"/>
<path opacity="0.1" d="M418.243 142.572C421.309 142.572 423.795 140.31 423.795 137.52C423.795 134.729 421.309 132.468 418.243 132.468C415.176 132.468 412.69 134.729 412.69 137.52C412.69 140.31 415.176 142.572 418.243 142.572Z" fill="#6C63FF"/>
<path opacity="0.1" d="M428.947 130.382C431.185 130.382 433 128.731 433 126.694C433 124.657 431.185 123.006 428.947 123.006C426.708 123.006 424.894 124.657 424.894 126.694C424.894 128.731 426.708 130.382 428.947 130.382Z" fill="#6C63FF"/>
<path opacity="0.1" d="M26.9688 10.104C30.0353 10.104 32.5212 7.84217 32.5212 5.05202C32.5212 2.26186 30.0353 0 26.9688 0C23.9023 0 21.4164 2.26186 21.4164 5.05202C21.4164 7.84217 23.9023 10.104 26.9688 10.104Z" fill="#6C63FF"/>
<path opacity="0.1" d="M5.5524 33.199C8.61891 33.199 11.1048 30.9371 11.1048 28.147C11.1048 25.3568 8.61891 23.095 5.5524 23.095C2.48589 23.095 0 25.3568 0 28.147C0 30.9371 2.48589 33.199 5.5524 33.199Z" fill="#6C63FF"/>
<defs>
<linearGradient id="paint0_linear" x1="209.06" y1="279.972" x2="209.06" y2="68.6894" gradientUnits="userSpaceOnUse">
<stop stop-color="#808080" stop-opacity="0.25"/>
<stop offset="0.54" stop-color="#808080" stop-opacity="0.12"/>
<stop offset="1" stop-color="#808080" stop-opacity="0.1"/>
</linearGradient>
</defs>
</svg>
