<svg width="706" height="806" viewBox="0 0 706 806" fill="none" xmlns="http://www.w3.org/2000/svg">
<g clip-path="url(#clip0)">
<path opacity="0.1" d="M442.429 805.857C586.096 805.857 702.562 783.389 702.562 755.674C702.562 727.958 586.096 705.491 442.429 705.491C298.762 705.491 182.297 727.958 182.297 755.674C182.297 783.389 298.762 805.857 442.429 805.857Z" fill="#3480E3"/>
<path d="M554.143 151.552C553.535 150.87 552.907 150.187 552.258 149.504C557.205 143.892 562.336 138.126 562.285 130.906C562.234 122.139 554.45 115.4 551.542 107.115C547.588 95.8493 553.078 83.744 555.331 72.0073C557.08 62.4859 556.707 52.6959 554.239 43.3351C551.771 33.9742 547.27 25.2727 541.054 17.8507C538.771 15.1469 536.118 12.5354 532.708 11.46C527.525 9.83164 522.026 12.095 516.629 12.7607C498.819 14.9626 482.627 -0.379056 464.735 0.993295C463.551 1.03577 462.384 1.29616 461.294 1.7614C458.98 2.86747 457.72 5.31517 456.296 7.41466C450.735 15.6078 441.405 19.7044 432.127 23.8521C430.96 24.1961 429.849 24.7066 428.829 25.3679C426.043 26.6685 423.298 28.0204 420.707 29.5566C403.174 39.9312 405.724 54.4535 416.058 63.4148C414.009 73.4821 403.768 82.3409 405.519 92.695C406.912 100.806 415.361 106.326 416.99 114.397C417.932 119.087 416.447 123.552 414.378 127.987C394.766 132.524 372.603 140.891 370.873 155.639C367.862 181.304 358.808 252.195 358.808 252.195C358.808 252.195 348.301 308.973 388.15 282.079L387.638 283.595C380.452 305.344 375.547 327.78 373.003 350.543C372.603 353.933 371.784 356.596 370.309 357.466C369.777 357.784 370.832 358.286 373.136 358.911C372.88 359.863 372.593 360.815 372.347 361.778C367.968 378.378 365.17 395.356 363.99 412.483C362.866 427.653 360.773 442.735 357.723 457.638C348.28 505.138 357.723 566.074 357.723 566.074L378.328 663.081L381.851 679.662C384.179 682.234 387.023 684.286 390.198 685.684C391.579 691.627 392.537 697.661 393.066 703.739C393.117 704.415 393.168 705.101 393.209 705.787C391.969 705.94 390.777 706.361 389.716 707.021C388.655 707.681 387.75 708.563 387.064 709.608C379.721 719.931 388.088 728.196 359.791 748.853C352.469 754.188 348.946 759.043 348.044 763.191C347.082 767.625 349.171 771.22 352.909 773.647C353.547 774.058 354.211 774.427 354.896 774.753C355.244 774.917 355.586 775.074 355.92 775.224C356.282 775.375 356.654 775.515 357.036 775.644H357.098L358.194 775.992H358.276L359.453 776.3H359.556L360.662 776.535H360.805L362.024 776.74H362.157L363.263 776.873H363.478L364.718 776.965H364.881H365.987H366.243H367.493H367.657L368.763 776.904H369.06L370.309 776.781H370.453L371.569 776.617L371.876 776.566L373.115 776.33H373.238L374.365 776.054L374.682 775.972C375.092 775.859 375.491 775.747 375.901 775.614H375.973L377.11 775.214L377.417 775.102C377.816 774.948 378.205 774.794 378.595 774.62C397.48 766.355 436.295 744.674 436.295 744.674V743.978C436.295 743.886 436.295 743.783 436.295 743.681C436.295 743.578 436.295 743.507 436.295 743.414C436.295 743.322 436.295 743.199 436.295 743.077V742.759C436.295 742.616 436.295 742.472 436.295 742.319V741.981C436.295 741.817 436.295 741.653 436.295 741.479C436.295 741.305 436.295 740.895 436.295 740.578C436.182 731.678 435.26 710.908 431.164 711.717C429.761 711.994 428.808 713.96 427.835 716.224L427.354 715.302C423.36 707.59 417.574 694.358 417.01 681.423C420.236 679.087 423.224 676.439 425.931 673.517C425.931 673.517 423.821 664.638 422.029 655.267C420.472 647.145 419.151 638.665 419.632 635.306C420.656 628.076 407.045 572.311 407.045 572.311C407.045 572.311 408.448 560.021 411.275 542.99C416.764 509.849 427.569 458.642 443.689 444.16C444.068 443.832 444.437 443.505 444.816 443.218C444.816 443.218 456.358 445.266 465.8 510.34L468.535 539.313C469.328 547.338 470.697 555.296 472.631 563.124C474.495 570.836 476.492 583.74 475.263 601.212C474.065 618.295 473.553 638.399 473.338 652.512C473.174 663.152 473.174 670.393 473.174 670.393C475.128 672.044 477.238 673.502 479.473 674.746V684.219C479.45 686.231 478.658 688.158 477.261 689.606C475.773 691.281 474.691 693.274 474.096 695.433C472.263 698.731 470.716 704.087 470.071 712.7C468.023 740.588 466.927 737.485 466.927 737.485C465.723 740.5 464.924 743.661 464.551 746.886C464.489 747.491 464.459 748.095 464.438 748.709C464.438 748.802 464.438 748.904 464.438 748.996C464.438 749.276 464.438 749.552 464.438 749.826C464.438 749.962 464.438 750.099 464.438 750.235C464.438 750.372 464.455 750.577 464.489 750.85C464.489 751.034 464.513 751.218 464.561 751.403C464.561 751.536 464.561 751.669 464.623 751.792C464.684 751.915 464.715 752.284 464.776 752.529L464.858 752.847C464.93 753.103 465.002 753.349 465.083 753.594L465.165 753.82C465.247 754.045 465.339 754.264 465.442 754.475L465.534 754.67C465.657 754.916 465.79 755.161 465.944 755.397L466.067 755.591C466.222 755.826 466.389 756.051 466.568 756.268L466.702 756.421C466.9 756.649 467.112 756.864 467.337 757.066L467.408 757.128C467.639 757.33 467.882 757.518 468.135 757.691L468.248 757.773C468.525 757.954 468.812 758.118 469.108 758.265L469.282 758.357C469.616 758.509 469.958 758.643 470.307 758.756L470.481 758.807C470.864 758.934 471.254 759.04 471.648 759.125C472.058 759.207 472.488 759.278 472.939 759.319H473.123C473.574 759.319 474.045 759.391 474.536 759.391H474.813C475.315 759.391 475.837 759.391 476.37 759.391H476.626C477.199 759.391 477.803 759.289 478.428 759.197C500.457 756.124 510.955 754.076 509.9 741.643C509.265 734.177 507.493 723.331 506.182 715.886C505.518 712.107 504.296 708.449 502.557 705.03C502.612 704.449 502.663 703.852 502.71 703.237C503.089 698.117 503.069 691.972 501.512 687.947L501.994 678.904C507.445 677.517 512.373 674.566 516.168 670.414C516.168 670.414 516.321 663.716 516.782 654.826C517.479 641.103 518.83 622.166 521.411 614.649C525.61 602.257 521.411 558.885 521.411 558.885C521.411 558.885 505.67 484.532 520.387 452.517C533.343 424.281 533.23 396.025 520.766 368.537C521.011 368.344 521.235 368.124 521.432 367.882C521.432 367.882 518.288 365.834 519.384 342.063C520.182 323.936 514.877 305.194 512.317 297.37C516.322 299.088 520.426 300.566 524.607 301.794C548.684 308.973 550.784 282.079 550.784 282.079L556.027 241.8L562.254 181.816C563.954 177.105 566.238 165.327 554.143 151.552ZM447.489 111.765C447.489 112.43 447.417 113.096 447.345 113.751C447.151 115.887 446.701 117.991 446.004 120.019C446.721 117.278 447.157 114.471 447.304 111.642L447.489 111.765ZM510.914 258.371C511.283 259.057 511.641 259.712 511.938 260.419L509.286 259.067C510.267 254.197 511.857 249.469 514.017 244.995C516.624 239.789 518.769 234.364 520.428 228.783C520.354 235.231 520.665 241.677 521.36 248.088C523.501 264.567 510.914 258.371 510.914 258.371Z" fill="url(#paint0_linear)"/>
<path d="M421.947 33.848C418.598 36.1318 415.085 38.7741 413.897 42.6556C411.972 48.9131 416.805 55.1911 417.277 61.7251C418.147 73.5949 404.721 83.4062 406.697 95.1531C408.049 103.203 416.304 108.672 417.891 116.66C420.206 128.335 407.557 138.628 408.551 150.457C409.083 156.776 413.477 162.142 418.454 166.054C425.452 171.532 433.827 174.97 442.655 175.989C442.071 165.839 434.533 156.591 435.834 146.504C436.725 139.591 441.59 133.927 444.406 127.547C449.353 116.343 447.765 103.377 444.806 91.4969C441.846 79.6169 437.555 67.87 437.34 55.6519C437.206 48.2781 440.668 37.4529 438.128 30.458C435.045 21.9474 427.692 29.9255 421.947 33.848Z" fill="#F78181"/>
<path opacity="0.1" d="M421.947 33.848C418.598 36.1318 415.085 38.7741 413.897 42.6556C411.972 48.9131 416.805 55.1911 417.277 61.7251C418.147 73.5949 404.721 83.4062 406.697 95.1531C408.049 103.203 416.304 108.672 417.891 116.66C420.206 128.335 407.557 138.628 408.551 150.457C409.083 156.776 413.477 162.142 418.454 166.054C425.452 171.532 433.827 174.97 442.655 175.989C442.071 165.839 434.533 156.591 435.834 146.504C436.725 139.591 441.59 133.927 444.406 127.547C449.353 116.343 447.765 103.377 444.806 91.4969C441.846 79.6169 437.555 67.87 437.34 55.6519C437.206 48.2781 440.668 37.4529 438.128 30.458C435.045 21.9474 427.692 29.9255 421.947 33.848Z" fill="black"/>
<path d="M431.768 719.317L422.551 728.534C422.551 728.534 389.778 745.944 393.875 722.389C394.996 715.387 395.233 708.271 394.582 701.21C393.735 691.354 391.78 681.624 388.754 672.206L419.478 666.061C414.358 682.12 422.786 702.336 428.04 712.629C430.14 716.777 431.768 719.317 431.768 719.317Z" fill="#FFB9B9"/>
<path d="M501.553 700.687C501.323 703.842 500.933 706.984 500.386 710.099C500.386 710.099 474.782 727.51 472.734 708.051C471.402 695.372 474.413 689.616 476.687 687.199C478.05 685.755 478.818 683.85 478.838 681.864V658.892L501.369 666.061L500.345 685.52C501.901 689.565 501.922 695.608 501.553 700.687Z" fill="#FFB9B9"/>
<path opacity="0.05" d="M431.768 719.316L422.551 728.534C422.551 728.534 389.778 745.944 393.875 722.389C394.996 715.387 395.233 708.271 394.582 701.21C401.751 700.186 410.261 708.051 410.261 708.051C422.264 724.99 425.5 718.579 428.04 712.629C430.14 716.777 431.768 719.316 431.768 719.316Z" fill="black"/>
<path d="M410.261 710.099C410.261 710.099 395.923 696.786 388.754 707.027C381.585 717.268 389.778 725.461 362.126 745.944C334.475 766.427 362.126 779.741 380.561 771.548C398.996 763.355 436.889 741.848 436.889 741.848C436.889 741.848 436.889 708.051 431.768 709.075C426.647 710.099 427.672 734.679 410.261 710.099Z" fill="#8189A6"/>
<path opacity="0.05" d="M501.553 700.687C501.323 703.842 500.934 706.984 500.386 710.099C500.386 710.099 474.782 727.51 472.734 708.051C471.402 695.372 474.413 689.616 476.687 687.199C477.577 686.531 478.633 686.116 479.74 686.001C480.848 685.885 481.966 686.073 482.975 686.544C487.072 684.721 491.578 687.763 495.265 691.665C497.808 694.334 499.929 697.377 501.553 700.687Z" fill="black"/>
<path d="M482.975 688.592C482.975 688.592 471.71 682.447 469.661 710.099C467.613 737.751 466.589 734.679 466.589 734.679C466.589 734.679 456.348 759.258 477.855 756.186C499.362 753.113 509.603 751.065 508.579 738.775C507.964 731.371 506.223 720.607 504.943 713.233C503.717 705.939 500.364 699.17 495.306 693.774C491.588 689.801 487.072 686.769 482.975 688.592Z" fill="#8189A6"/>
<path d="M519.844 557.502C519.844 557.502 523.941 600.516 519.844 612.806C517.356 620.262 516.004 639.044 515.328 652.655C514.877 661.463 514.724 668.109 514.724 668.109C495.265 688.592 472.734 668.109 472.734 668.109C472.734 668.109 472.734 660.94 472.898 650.371C473.113 636.371 473.615 616.431 474.782 599.492C475.98 582.163 474.035 569.372 472.212 561.722C470.331 553.956 469.003 546.068 468.238 538.115L465.565 509.378C456.348 444.857 445.082 442.808 445.082 442.808C444.713 443.095 444.355 443.413 443.986 443.74C428.245 458.078 417.696 508.886 412.34 541.751C409.585 558.659 408.244 570.826 408.244 570.826C408.244 570.826 421.557 626.13 420.533 633.299C420.062 636.627 421.353 645.046 422.868 653.096C424.62 662.385 426.678 671.192 426.678 671.192C401.075 698.844 383.664 677.337 383.664 677.337L380.223 660.889L360.109 564.681C360.109 564.681 350.892 504.257 360.109 457.146C363.096 442.362 365.148 427.403 366.254 412.361C367.416 395.381 370.159 378.546 374.447 362.075C375.696 357.2 377.082 352.363 378.605 347.563C378.605 347.563 417.061 340.875 453.275 340.875C480.435 340.875 506.326 344.634 513.792 357.805C515.512 360.836 517.076 363.874 518.482 366.919C531.448 394.786 531.796 423.411 518.912 452.026C504.482 483.764 519.844 557.502 519.844 557.502Z" fill="#4C4C78"/>
<path d="M433.816 185.738C433.816 185.738 379.537 130.435 420.503 134.531C429.792 135.463 436.08 133.804 440.248 130.691C445 127.147 446.997 121.719 447.55 116.056C448.677 104.79 444.058 92.5005 444.058 92.5005C444.058 92.5005 499.362 48.4623 488.096 103.766C486.859 109.386 486.139 115.108 485.945 120.859C485.761 132.596 489.622 137.092 495.04 138.935C504.175 142.059 517.755 137.686 523.941 147.804C535.207 166.28 433.816 185.738 433.816 185.738Z" fill="#FFB9B9"/>
<path opacity="0.05" d="M488.096 103.807C486.859 109.427 486.139 115.149 485.945 120.9C484.472 121.41 482.971 121.838 481.449 122.18C475.676 123.482 469.699 123.609 463.875 122.553C458.051 121.498 452.5 119.281 447.55 116.035C448.677 104.77 444.058 92.4802 444.058 92.4802C444.058 92.4802 499.362 48.5035 488.096 103.807Z" fill="black"/>
<path d="M515.748 77.1794C515.748 88.8591 511.108 100.06 502.849 108.319C494.591 116.578 483.389 121.218 471.71 121.218C460.03 121.218 448.829 116.578 440.57 108.319C432.311 100.06 427.672 88.8591 427.672 77.1794C427.672 76.3601 427.672 75.5408 427.743 74.7317C428.397 63.2937 433.482 52.5605 441.919 44.8103C450.356 37.0601 461.482 32.9031 472.934 33.2216C484.386 33.5402 495.264 38.3091 503.257 46.5163C511.251 54.7235 515.731 65.7228 515.748 77.1794Z" fill="#FFB9B9"/>
<path opacity="0.05" d="M433.816 185.738C433.816 185.738 379.537 130.435 420.503 134.531C429.792 135.463 436.08 133.804 440.248 130.691C432.321 143.841 423.401 167.488 463.517 165.255C500.232 163.207 499.607 148.582 495.04 138.976C504.175 142.1 517.755 137.727 523.941 147.845C535.207 166.28 433.816 185.738 433.816 185.738Z" fill="black"/>
<path opacity="0.1" d="M519.844 371.108C510.525 383.224 391.724 367.339 374.355 362.065C375.604 357.19 376.99 352.353 378.513 347.553C378.513 347.553 416.969 340.865 453.183 340.865C480.343 340.865 506.234 344.624 513.7 357.794C515.42 360.826 516.984 363.864 518.39 366.909C519.046 370.576 519.844 371.108 519.844 371.108Z" fill="black"/>
<path d="M445.082 125.314C445.082 125.314 375.952 130.947 372.88 157.574C369.941 183.035 361.102 253.332 361.102 253.332C361.102 253.332 350.861 309.66 389.778 283.032L389.276 284.527C382.258 306.113 377.471 328.361 374.99 350.922C374.59 354.281 373.802 356.924 372.358 357.794C367.237 360.867 509.593 381.349 519.834 368.036C519.834 368.036 516.762 365.987 517.786 342.432C518.81 318.877 509.593 294.297 509.593 294.297C509.593 294.297 501.4 269.718 512.665 246.163C523.931 222.607 519.834 215.438 519.834 215.438L558.752 185.738C558.752 185.738 567.16 171.329 551.787 153.55C547.173 148.289 541.567 143.989 535.29 140.897C529.013 137.804 522.188 135.978 515.205 135.525L488.372 133.579C488.372 133.579 517.786 165.225 462.482 168.297C407.178 171.37 445.082 125.314 445.082 125.314Z" fill="#F9D048"/>
<path opacity="0.05" d="M398.996 181.642C398.996 181.642 401.044 198.028 396.947 203.149C392.851 208.27 391.827 231.825 396.947 246.163" fill="black"/>
<path opacity="0.1" d="M443.986 443.73C428.245 458.068 417.696 508.876 412.34 541.741C404.884 495.992 435.895 420.267 435.895 420.267L443.986 443.73Z" fill="black"/>
<path opacity="0.1" d="M426.647 671.182C401.044 698.834 383.633 677.327 383.633 677.327L380.192 660.879C389.87 665.908 406.226 669.81 422.838 653.085C424.589 662.374 426.647 671.182 426.647 671.182Z" fill="black"/>
<path opacity="0.1" d="M515.328 652.655C514.877 661.463 514.724 668.11 514.724 668.11C495.265 688.592 472.734 668.11 472.734 668.11C472.734 668.11 472.734 660.941 472.898 650.371C481.347 655.738 496.535 661.647 515.328 652.655Z" fill="black"/>
<path d="M469.917 216.463H407.957C405.836 216.463 404.116 218.182 404.116 220.303V241.298C404.116 243.419 405.836 245.139 407.957 245.139H469.917C472.039 245.139 473.758 243.419 473.758 241.298V220.303C473.758 218.182 472.039 216.463 469.917 216.463Z" fill="#CDD0DB"/>
<path opacity="0.05" d="M469.917 216.463H407.957C405.836 216.463 404.116 218.182 404.116 220.303V241.298C404.116 243.419 405.836 245.139 407.957 245.139H469.917C472.039 245.139 473.758 243.419 473.758 241.298V220.303C473.758 218.182 472.039 216.463 469.917 216.463Z" fill="black"/>
<path d="M469.917 217.487H407.957C405.836 217.487 404.116 219.206 404.116 221.327V242.322C404.116 244.443 405.836 246.163 407.957 246.163H469.917C472.039 246.163 473.758 244.443 473.758 242.322V221.327C473.758 219.206 472.039 217.487 469.917 217.487Z" fill="#CDD0DB"/>
<path d="M458.908 234.385C460.605 234.385 461.98 233.01 461.98 231.313C461.98 229.616 460.605 228.24 458.908 228.24C457.211 228.24 455.835 229.616 455.835 231.313C455.835 233.01 457.211 234.385 458.908 234.385Z" fill="#9DA7C0"/>
<path opacity="0.05" d="M374.478 261.873C375.402 259.121 376.917 256.604 378.916 254.499C380.915 252.394 383.35 250.751 386.05 249.686C389.553 248.232 393.824 245.589 395.985 240.766C400.02 231.825 407.189 222.607 425.623 228.752C444.058 234.897 420.503 238.994 420.503 238.994C420.503 238.994 462.492 232.849 446.106 245.139C429.72 257.428 409.237 264.597 409.237 264.597L399.149 275.279C393.004 281.803 382.333 281.772 376.618 274.829C374.058 271.695 372.706 267.475 374.478 261.873Z" fill="black"/>
<path d="M373.454 259.825C374.378 257.073 375.893 254.556 377.892 252.451C379.891 250.346 382.326 248.703 385.026 247.637C388.529 246.183 392.8 243.541 394.961 238.717C398.996 229.776 406.165 220.559 424.599 226.704C443.034 232.849 419.478 236.945 419.478 236.945C419.478 236.945 461.468 230.801 445.082 243.09C428.696 255.38 408.213 262.549 408.213 262.549L398.125 273.231C391.98 279.755 381.309 279.724 375.594 272.78C373.034 269.646 371.682 265.427 373.454 259.825Z" fill="#FFB9B9"/>
<path opacity="0.05" d="M517.796 280.984L510.627 298.394L501.41 291.645L475.806 272.79L458.396 261.525C433.816 243.09 458.396 240.018 458.396 240.018C449.179 235.921 458.396 231.825 458.396 231.825C491.168 224.656 485.024 251.283 485.024 251.283L505.783 262.047L512.675 265.621L517.796 280.984Z" fill="black"/>
<path d="M519.844 278.935L512.675 296.346L503.458 289.597L477.854 270.742L460.444 259.477C435.865 241.042 460.444 237.97 460.444 237.97C451.227 233.873 460.444 229.777 460.444 229.777C493.217 222.608 487.072 249.235 487.072 249.235L507.831 259.999L514.724 263.573L519.844 278.935Z" fill="#FFB9B9"/>
<path opacity="0.05" d="M519.844 278.935L512.675 296.346L503.458 289.597C511.764 289.894 521.575 285.879 507.79 259.999L514.683 263.573L519.844 278.935Z" fill="black"/>
<path d="M557.738 175.497L559.714 183.557L553.641 243.09L548.52 283.032C548.52 283.032 546.472 309.66 522.917 302.491C499.362 295.322 497.313 288.153 497.313 288.153C497.313 288.153 531.11 299.418 509.603 259.477C509.603 259.477 521.893 265.622 519.844 249.235C517.796 232.849 519.844 204.173 519.844 204.173L557.738 175.497Z" fill="#F9D048"/>
<path opacity="0.05" d="M515.748 77.1794C515.749 87.1673 512.355 96.8589 506.122 104.664C499.89 112.469 491.19 117.923 481.449 120.132C479.974 115.872 478.93 111.632 480.005 107.32C482.053 98.9527 491.742 92.8488 490.666 84.2972C490.561 83.3298 490.208 82.4058 489.642 81.614C487.481 78.7669 483.078 80.1802 479.575 80.8868C470.522 82.6893 460.608 76.5752 458.15 67.6754C454.216 71.5441 449.29 74.2505 443.915 75.4957C438.541 76.7409 432.926 76.4765 427.692 74.7317C428.345 63.2937 433.43 52.5605 441.868 44.8103C450.305 37.0601 461.431 32.9031 472.883 33.2216C484.335 33.5402 495.212 38.3091 503.206 46.5163C511.2 54.7235 515.68 65.7228 515.697 77.1794H515.748Z" fill="black"/>
<path d="M459.225 65.627C461.673 74.5268 471.597 80.641 480.64 78.8282C484.143 78.1318 488.547 76.7185 490.708 79.5656C491.259 80.3565 491.595 81.278 491.68 82.2386C492.766 90.8005 483.108 96.8941 481.029 105.272C478.889 113.895 485.126 122.221 486.508 130.998C487.236 135.801 486.508 140.697 486.508 145.551C486.508 150.406 487.656 155.629 491.261 158.865C494.866 162.101 501.502 162.163 503.929 157.943C515.451 164.037 510.852 182.912 519.599 192.569C524.422 197.895 532.359 199.175 539.518 198.499C541.195 198.473 542.825 197.945 544.198 196.984C545.382 195.816 546.182 194.315 546.493 192.682C548.299 185.845 547.989 178.62 545.602 171.964C544.454 168.779 542.806 165.563 543.236 162.214C543.563 159.592 545.13 157.308 546.79 155.25C552.289 148.429 559.796 141.833 559.745 133.067C559.694 124.3 552.095 117.705 549.258 109.512C545.397 98.3177 550.753 86.325 552.955 74.6907C554.677 65.2547 554.323 55.557 551.917 46.2717C549.512 36.9864 545.113 28.3364 539.027 20.9232C536.794 18.24 534.203 15.6489 530.833 14.5838C525.784 12.9656 520.408 15.2188 515.133 15.8742C497.723 18.0556 481.941 2.83688 464.469 4.19899C463.311 4.24352 462.172 4.50402 461.11 4.9671C458.846 6.06293 457.628 8.49015 456.225 10.5794C448.513 22.101 433.356 25.3885 421.475 32.537C386.829 53.3988 432.69 91.1692 459.225 65.627Z" fill="#F78181"/>
<path opacity="0.3" d="M380.561 767.451C368.589 772.766 352.745 769.018 350.666 760.139C348.157 771.875 366.889 777.631 380.561 771.548C398.996 763.355 436.889 741.848 436.889 741.848C436.889 741.848 436.889 740.26 436.838 737.751C435.732 738.406 398.719 759.33 380.561 767.451Z" fill="white"/>
<path opacity="0.3" d="M508.528 738.181C507.35 747.398 497.129 749.334 477.855 752.089C468.054 753.492 464.858 749.14 464.264 743.998C463.619 750.584 465.493 757.947 477.855 756.186C499.362 753.113 509.603 751.065 508.579 738.775C508.558 738.581 508.538 738.376 508.528 738.181Z" fill="white"/>
<path d="M635.235 756.657C635.235 756.657 620.405 681.495 650.935 630.032C663.88 608.517 669.497 583.383 666.942 558.403C665.625 546.554 663.226 534.85 659.773 523.439" stroke="#535461" stroke-width="2" stroke-miterlimit="10"/>
<path d="M678.853 490.872C678.033 499.833 659.394 524.34 659.394 524.34C659.394 524.34 645.548 496.853 646.377 487.881C646.531 485.717 647.115 483.606 648.095 481.671C649.076 479.735 650.432 478.015 652.086 476.611C653.739 475.207 655.656 474.146 657.724 473.492C659.793 472.838 661.971 472.603 664.131 472.802C666.291 473 668.39 473.627 670.305 474.647C672.219 475.667 673.911 477.058 675.281 478.74C676.651 480.422 677.672 482.36 678.284 484.442C678.895 486.523 679.085 488.706 678.843 490.861L678.853 490.872Z" fill="#3480E3"/>
<path d="M701.128 543C695.567 550.077 666.614 560.534 666.614 560.534C666.614 560.534 669.932 529.932 675.494 522.855C676.778 521.069 678.411 519.562 680.294 518.424C682.177 517.285 684.271 516.54 686.449 516.232C688.628 515.925 690.846 516.061 692.971 516.634C695.095 517.206 697.082 518.202 698.811 519.563C700.54 520.923 701.976 522.62 703.032 524.55C704.088 526.48 704.743 528.604 704.956 530.794C705.17 532.983 704.938 535.194 704.275 537.292C703.612 539.389 702.531 541.331 701.097 543H701.128Z" fill="#3480E3"/>
<path d="M692.156 627.758C683.779 631.056 653.515 625.464 653.515 625.464C653.515 625.464 671.827 600.721 680.205 597.423C682.204 596.599 684.347 596.18 686.51 596.192C688.673 596.204 690.812 596.647 692.802 597.493C694.792 598.34 696.594 599.574 698.103 601.124C699.611 602.673 700.796 604.508 701.589 606.52C702.382 608.532 702.766 610.682 702.72 612.844C702.674 615.006 702.198 617.138 701.321 619.115C700.443 621.091 699.18 622.873 697.607 624.357C696.034 625.841 694.181 626.997 692.156 627.758Z" fill="#3480E3"/>
<path d="M670.926 690.354C663.224 695.024 632.449 694.625 632.449 694.625C632.449 694.625 646.326 667.157 654.017 662.477C655.849 661.324 657.891 660.548 660.025 660.192C662.16 659.837 664.344 659.91 666.449 660.408C668.555 660.905 670.541 661.817 672.291 663.089C674.041 664.362 675.52 665.97 676.643 667.82C677.765 669.67 678.507 671.725 678.827 673.865C679.147 676.005 679.038 678.187 678.506 680.285C677.974 682.382 677.029 684.353 675.728 686.081C674.427 687.81 672.794 689.262 670.926 690.354Z" fill="#3480E3"/>
<path d="M632.367 559.131C638.225 565.972 667.587 575.189 667.587 575.189C667.587 575.189 662.979 544.752 657.131 537.92C654.298 534.707 650.314 532.738 646.041 532.439C641.768 532.139 637.548 533.534 634.295 536.32C631.042 539.107 629.015 543.062 628.655 547.33C628.294 551.598 629.627 555.837 632.367 559.131Z" fill="#3480E3"/>
<path d="M608.463 632.664C616.093 637.436 646.879 637.447 646.879 637.447C646.879 637.447 633.381 609.805 625.751 605.012C623.935 603.843 621.905 603.046 619.778 602.668C617.652 602.289 615.472 602.338 613.364 602.809C611.256 603.281 609.263 604.166 607.5 605.415C605.738 606.663 604.241 608.249 603.096 610.081C601.952 611.912 601.183 613.953 600.834 616.085C600.485 618.216 600.562 620.396 601.063 622.497C601.563 624.598 602.476 626.579 603.748 628.324C605.02 630.069 606.627 631.545 608.474 632.664H608.463Z" fill="#3480E3"/>
<path d="M595.027 707.314C601.745 713.305 632.08 718.528 632.08 718.528C632.08 718.528 623.447 688.982 616.718 682.99C615.135 681.481 613.265 680.306 611.219 679.534C609.173 678.762 606.992 678.41 604.807 678.499C602.622 678.587 600.477 679.114 598.499 680.049C596.522 680.983 594.753 682.306 593.297 683.938C591.842 685.57 590.729 687.478 590.027 689.549C589.324 691.62 589.045 693.811 589.206 695.992C589.367 698.173 589.966 700.3 590.966 702.245C591.966 704.19 593.347 705.914 595.027 707.314Z" fill="#3480E3"/>
<path d="M348.208 95.1018C348.068 91.2606 346.447 87.6227 343.685 84.95C340.922 82.2773 337.233 80.7771 333.389 80.7638H65.4222C61.7451 80.7239 58.1795 82.0258 55.3932 84.4257C52.6069 86.8255 50.7909 90.1588 50.2854 93.8012C50.0354 95.8873 50.2297 98.0027 50.8555 100.008C51.4813 102.014 52.5244 103.865 53.9164 105.438C55.3083 107.012 57.0176 108.274 58.9317 109.14C60.8459 110.006 62.9218 110.457 65.0228 110.464H333.348H334.28C336.629 110.264 338.984 110.765 341.048 111.905C343.112 113.044 344.791 114.77 345.873 116.865C346.693 118.48 347.276 120.204 347.604 121.986L348.208 122.283V95.1428V95.1018Z" fill="#D8DFE8"/>
<path d="M348.208 191.371C348.068 187.53 346.447 183.892 343.685 181.219C340.922 178.547 337.233 177.046 333.389 177.033H218.019C214.342 176.993 210.777 178.295 207.99 180.695C205.204 183.095 203.388 186.428 202.883 190.07C202.633 192.157 202.827 194.272 203.453 196.278C204.078 198.283 205.122 200.134 206.514 201.708C207.906 203.281 209.615 204.543 211.529 205.409C213.443 206.275 215.519 206.726 217.62 206.733H333.348H334.28C336.629 206.533 338.984 207.034 341.048 208.174C343.112 209.313 344.791 211.04 345.873 213.134C346.693 214.749 347.276 216.474 347.604 218.255L348.208 218.552V191.412V191.371Z" fill="#D8DFE8"/>
<path opacity="0.2" d="M0 46.9671C0.174104 39.0403 4.45503 32.6292 9.67816 32.6292H184.888C190.224 32.6292 194.587 39.3066 194.587 47.4792C194.587 55.6519 190.224 62.3293 184.888 62.3293H9.64743C7.99335 62.2768 6.36414 62.742 4.98716 63.66C3.61019 64.578 2.55414 65.903 1.96637 67.45C1.18807 69.5098 0.658582 71.6552 0.389179 73.8406L0 74.1376V46.9979V46.9671Z" fill="#D8DFE8"/>
<path opacity="0.2" d="M0 143.236C0.21507 135.31 5.4177 128.898 11.7674 128.898H224.789C231.272 128.898 236.577 135.576 236.577 143.749C236.577 151.921 231.272 158.599 224.789 158.599H11.7674C7.67082 158.599 3.86101 160.483 2.42721 163.719C1.49094 165.749 0.846188 167.9 0.512071 170.11L0.030723 170.407V143.267L0 143.236Z" fill="#D8DFE8"/>
<path opacity="0.2" d="M224.287 196.492C227.115 196.492 229.408 194.199 229.408 191.371C229.408 188.543 227.115 186.25 224.287 186.25C221.459 186.25 219.166 188.543 219.166 191.371C219.166 194.199 221.459 196.492 224.287 196.492Z" fill="white"/>
<path opacity="0.2" d="M241.698 196.492C244.526 196.492 246.818 194.199 246.818 191.371C246.818 188.543 244.526 186.25 241.698 186.25C238.869 186.25 236.577 188.543 236.577 191.371C236.577 194.199 238.869 196.492 241.698 196.492Z" fill="white"/>
<path opacity="0.2" d="M259.108 196.492C261.936 196.492 264.229 194.199 264.229 191.371C264.229 188.543 261.936 186.25 259.108 186.25C256.28 186.25 253.987 188.543 253.987 191.371C253.987 194.199 256.28 196.492 259.108 196.492Z" fill="white"/>
</g>
<defs>
<linearGradient id="paint0_linear" x1="455.743" y1="777.18" x2="455.743" y2="0.880616" gradientUnits="userSpaceOnUse">
<stop stop-color="#808080" stop-opacity="0.25"/>
<stop offset="0.54" stop-color="#808080" stop-opacity="0.12"/>
<stop offset="1" stop-color="#808080" stop-opacity="0.1"/>
</linearGradient>
<clipPath id="clip0">
<rect width="705.634" height="806" fill="white"/>
</clipPath>
</defs>
</svg>
